<svg width="3139" height="1856" xmlns="http://www.w3.org/2000/svg" xmlns:xlink="http://www.w3.org/1999/xlink" xml:space="preserve" overflow="hidden"><g transform="translate(-1054 -389)"><g><path d="M3561.43 1490 3610.71 1463.29 3614 1053.34 3545 1048 3561.43 1490Z" fill="#19768A" fill-rule="evenodd" fill-opacity="1"/><path d="M3233.67 845 3231 898.683 3361.75 1019.81 3353.74 1465.8 3563.11 1489C3563.59 1344.53 3564.06 1200.07 3564.54 1055.6L3766 1006.05 3766 960.625 3233.67 845Z" fill="#3C8286" fill-rule="evenodd" fill-opacity="1"/><path d="M3765.55 1007.82 3786.55 986.867 3792.05 936.326 3765.89 930.726 3765.55 1007.82Z" fill="#0D424E" fill-rule="evenodd" fill-opacity="1"/><path d="M1389.96 2234 2230.04 2219.26 4159 578.947 3935.9 420 1378 1751.71 1389.96 2234Z" fill="#57B4BA" fill-rule="evenodd" fill-opacity="1"/><path d="M1349 1704.71 1358.75 1744 3944 399.737 3908.3 390 1349 1704.71Z" fill="#64CBD2" fill-rule="evenodd" fill-opacity="1"/><path d="M1377.98 1787 1339 1747.69C1578.88 1626.84 3703.12 519.853 3943 399 3942.94 408.032 3942.87 417.064 3942.81 426.096L1377.98 1787Z" fill="#19768A" fill-rule="evenodd" fill-opacity="1"/><path d="M2015 2230.66 2120.06 2242 4187 541.615 4155.13 525 2015 2230.66Z" fill="#64CBD2" fill-rule="evenodd" fill-opacity="1"/><path d="M2238.46 2224 4190 617.502 4185.41 541 2236 2149.8 2238.46 2224Z" fill="#3C8286" fill-rule="evenodd" fill-opacity="1"/><rect x="1056" y="1573" width="323" height="557" fill="#FFFFFF" fill-opacity="1"/><path d="M3239.28 797 2088 1410.76 2687.58 1689 3686 898.568 3239.28 797Z" fill="#EEFF40" fill-rule="evenodd" fill-opacity="1"/><path d="M3238.46 764 2083 1363.38 2084.4 1413 3239 798.627C3238.82 787.084 3238.64 775.542 3238.46 764Z" fill="#EEFF40" fill-rule="evenodd" fill-opacity="0.501961"/><path d="M3195.88 758 2048 1345.8 2082.08 1366 3234 768.113 3195.88 758Z" fill="#EEFF40" fill-rule="evenodd" fill-opacity="0.501961"/><path d="M3233.99 820 2103 1400.81 2137.07 1421 3277 826.841 3233.99 820Z" fill="#EEFF40" fill-rule="evenodd" fill-opacity="0.501961"/><path d="M3707.47 882 2696 1682.26 2757.82 1709 3757 893.749 3707.47 882Z" fill="#EEFF40" fill-rule="evenodd" fill-opacity="0.501961"/><path d="M3756.83 896 2756 1710.73 2759.03 1793 3759 971.446 3756.83 896Z" fill="#EEFF40" fill-rule="evenodd" fill-opacity="0.501961"/><rect x="1318" y="1987" width="1520" height="246" fill="#FFFFFF" fill-opacity="1"/></g></g></svg>