<svg width="2878" height="1966" xmlns="http://www.w3.org/2000/svg" xmlns:xlink="http://www.w3.org/1999/xlink" xml:space="preserve" overflow="hidden"><g transform="translate(-1315 -279)"><g><path d="M3561.43 1490 3610.71 1463.29 3614 1053.34 3545 1048 3561.43 1490Z" fill="#19768A" fill-rule="evenodd" fill-opacity="1"/><path d="M3233.67 845 3231 898.683 3361.75 1019.81 3353.74 1465.8 3563.11 1489C3563.59 1344.53 3564.06 1200.07 3564.54 1055.6L3766 1006.05 3766 960.625 3233.67 845Z" fill="#3C8286" fill-rule="evenodd" fill-opacity="1"/><path d="M3765.55 1007.82 3786.55 986.867 3792.05 936.326 3765.89 930.726 3765.55 1007.82Z" fill="#0D424E" fill-rule="evenodd" fill-opacity="1"/><path d="M1389.96 2234 2230.04 2219.26 4159 578.947 3935.9 420 1378 1751.71 1389.96 2234Z" fill="#57B4BA" fill-rule="evenodd" fill-opacity="1"/><path d="M1349 1704.71 1358.75 1744 3944 399.737 3908.3 390 1349 1704.71Z" fill="#64CBD2" fill-rule="evenodd" fill-opacity="1"/><path d="M1377.98 1787 1339 1747.69C1578.88 1626.84 3703.12 519.853 3943 399 3942.94 408.032 3942.87 417.064 3942.81 426.096L1377.98 1787Z" fill="#19768A" fill-rule="evenodd" fill-opacity="1"/><path d="M2015 2230.66 2120.06 2242 4187 541.615 4155.13 525 2015 2230.66Z" fill="#64CBD2" fill-rule="evenodd" fill-opacity="1"/><path d="M2238.46 2224 4190 617.502 4185.41 541 2236 2149.8 2238.46 2224Z" fill="#3C8286" fill-rule="evenodd" fill-opacity="1"/><path d="M3239.28 797 2088 1410.76 2687.58 1689 3686 898.568 3239.28 797Z" fill="#EEFF40" fill-rule="evenodd" fill-opacity="1"/><path d="M3238.46 764 2083 1363.38 2084.4 1413 3239 798.627C3238.82 787.084 3238.64 775.542 3238.46 764Z" fill="#EEFF40" fill-rule="evenodd" fill-opacity="0.501961"/><path d="M3195.88 758 2048 1345.8 2082.08 1366 3234 768.113 3195.88 758Z" fill="#EEFF40" fill-rule="evenodd" fill-opacity="0.501961"/><path d="M3233.99 820 2103 1400.81 2137.07 1421 3277 826.841 3233.99 820Z" fill="#EEFF40" fill-rule="evenodd" fill-opacity="0.501961"/><path d="M3707.47 882 2696 1682.26 2757.82 1709 3757 893.749 3707.47 882Z" fill="#EEFF40" fill-rule="evenodd" fill-opacity="0.501961"/><path d="M3756.83 896 2756 1710.73 2759.03 1793 3759 971.446 3756.83 896Z" fill="#EEFF40" fill-rule="evenodd" fill-opacity="0.501961"/><rect x="1318" y="1987" width="1520" height="255" fill="#FFFFFF" fill-opacity="1"/><g><g><g><path d="M1738 1300.12 1738 1247.88 1515.94 1247.88C1508.75 1247.88 1502.88 1242 1502.88 1234.81L1502.88 1104.19C1502.88 1097 1508.75 1091.12 1515.94 1091.12L1738 1091.12 1738 1038.88C1738 1024.51 1726.24 1012.75 1711.88 1012.75L1689.02 1012.75C1687.06 1012.75 1685.75 1011.44 1685.75 1009.48L1685.75 989.891C1685.75 987.931 1687.06 986.625 1689.02 986.625L1705.34 986.625C1709.26 986.625 1711.88 984.012 1711.88 980.094L1711.88 934.375C1711.88 920.006 1700.12 908.25 1685.75 908.25L1502.88 908.25C1488.51 908.25 1476.75 920.006 1476.75 934.375L1476.75 980.094C1476.75 984.012 1479.36 986.625 1483.28 986.625L1499.61 986.625C1501.57 986.625 1502.88 987.931 1502.88 989.891L1502.88 1009.48C1502.88 1011.44 1501.57 1012.75 1499.61 1012.75L1476.75 1012.75C1462.38 1012.75 1450.62 1024.51 1450.62 1038.88L1450.62 1352.38C1450.62 1366.74 1462.38 1378.5 1476.75 1378.5L1568.19 1378.5C1568.19 1335.39 1603.46 1300.12 1646.56 1300.12L1738 1300.12Z" fill="#019CA6" fill-rule="nonzero" fill-opacity="1"/><path d="M1529 1123.78 1529 1215.22C1529 1219.14 1531.61 1221.75 1535.53 1221.75L1738 1221.75 1738 1117.25 1535.53 1117.25C1531.61 1117.25 1529 1119.86 1529 1123.78Z" fill="#019CA6" fill-rule="nonzero" fill-opacity="1"/><path d="M1705.34 1404.62 1646.56 1404.62C1632.19 1404.62 1620.44 1392.87 1620.44 1378.5 1620.44 1364.13 1632.19 1352.38 1646.56 1352.38L1705.34 1352.38 1705.34 1404.62ZM1764.12 1326.25 1646.56 1326.25C1617.82 1326.25 1594.31 1349.76 1594.31 1378.5 1594.31 1407.24 1617.82 1430.75 1646.56 1430.75L1764.12 1430.75C1792.86 1430.75 1816.38 1407.24 1816.38 1378.5 1816.38 1349.76 1792.86 1326.25 1764.12 1326.25Z" fill="#019CA6" fill-rule="nonzero" fill-opacity="1"/></g></g></g><g><g><g><path d="M3434.38 550.333 3313.62 550.333 3313.62 335.667 3434.38 335.667 3434.38 550.333ZM3360.58 308.833 3387.42 308.833C3391.11 308.833 3394.12 311.852 3394.12 315.542 3394.12 319.231 3391.11 322.25 3387.42 322.25L3360.58 322.25C3356.89 322.25 3353.88 319.231 3353.88 315.542 3353.88 311.852 3356.89 308.833 3360.58 308.833ZM3447.79 295.417 3300.21 295.417C3296.52 295.417 3293.5 298.435 3293.5 302.125L3293.5 583.875C3293.5 587.565 3296.52 590.583 3300.21 590.583L3447.79 590.583C3451.48 590.583 3454.5 587.565 3454.5 583.875L3454.5 302.125C3454.5 298.435 3451.48 295.417 3447.79 295.417Z" fill="#019CA6" fill-rule="nonzero" fill-opacity="1"/></g></g></g><text fill="#177C92" fill-opacity="1" font-family="Roboto Light,Roboto Light_MSFontService,sans-serif" font-style="normal" font-variant="normal" font-weight="300" font-stretch="normal" font-size="83" text-anchor="start" direction="ltr" writing-mode="lr-tb" unicode-bidi="normal" text-decoration="none" transform="matrix(1 0 0 1 1437.28 852)">Making Drugs Smart</text><text fill="#177C92" fill-opacity="1" font-family="Roboto Light,Roboto Light_MSFontService,sans-serif" font-style="normal" font-variant="normal" font-weight="300" font-stretch="normal" font-size="83" text-anchor="start" direction="ltr" writing-mode="lr-tb" unicode-bidi="normal" text-decoration="none" transform="matrix(1 0 0 1 2434.45 584)">Making </text><text fill="#177C92" fill-opacity="1" font-family="Roboto Light,Roboto Light_MSFontService,sans-serif" font-style="normal" font-variant="normal" font-weight="300" font-stretch="normal" font-size="83" text-anchor="start" direction="ltr" writing-mode="lr-tb" unicode-bidi="normal" text-decoration="none" transform="matrix(1 0 0 1 2720.33 584)">DTx</text><text fill="#177C92" fill-opacity="1" font-family="Roboto Light,Roboto Light_MSFontService,sans-serif" font-style="normal" font-variant="normal" font-weight="300" font-stretch="normal" font-size="83" text-anchor="start" direction="ltr" writing-mode="lr-tb" unicode-bidi="normal" text-decoration="none" transform="matrix(1 0 0 1 2883.61 584)">Integrated</text></g></g></svg>