<svg version="1.1" viewBox="0.0 0.0 451.1994750656168 230.3989501312336" fill="none" stroke="none" stroke-linecap="square" stroke-miterlimit="10" xmlns:xlink="http://www.w3.org/1999/xlink" xmlns="http://www.w3.org/2000/svg"><clipPath id="g3148980ed05_0_380.0"><path d="m0 0l451.19946 0l0 230.39896l-451.19946 0l0 -230.39896z" clip-rule="nonzero"/></clipPath><g clip-path="url(#g3148980ed05_0_380.0)"><path fill="#ffffff" d="m0 0l451.19946 0l0 230.39896l-451.19946 0z" fill-rule="evenodd"/><path fill="#eeff41" d="m158.30745 172.26509l0 0c0 -6.268051 5.081253 -11.349319 11.349304 -11.349319l173.74232 0c3.0100098 0 5.896759 1.1957397 8.025177 3.3241425c2.128418 2.1284027 3.3241272 5.015152 3.3241272 8.025177l0 45.395874c0 6.268036 -5.0812683 11.349304 -11.349304 11.349304l-173.74232 0c-6.268051 0 -11.349304 -5.0812683 -11.349304 -11.349304z" fill-rule="evenodd"/><path fill="#000000" fill-opacity="0.0" d="m333.4387 170.02339l-159.55907 1.1653595" fill-rule="evenodd"/><path stroke="#92e1e6" stroke-width="2.0" stroke-linejoin="round" stroke-linecap="butt" d="m333.4387 170.02339l-159.55907 1.1653595" fill-rule="evenodd"/><path fill="#000000" fill-opacity="0.0" d="m173.87273 186.11787l0 -14.866135" fill-rule="evenodd"/><path stroke="#92e1e6" stroke-width="2.0" stroke-linejoin="round" stroke-linecap="butt" d="m173.87273 186.11787l0 -14.866135" fill-rule="evenodd"/><path fill="#000000" fill-opacity="0.0" d="m191.48932 186.11787l0 -14.866135" fill-rule="evenodd"/><path stroke="#92e1e6" stroke-width="2.0" stroke-linejoin="round" stroke-linecap="butt" d="m191.48932 186.11787l0 -14.866135" fill-rule="evenodd"/><path fill="#000000" fill-opacity="0.0" d="m209.1059 186.11787l0 -14.866135" fill-rule="evenodd"/><path stroke="#92e1e6" stroke-width="2.0" stroke-linejoin="round" stroke-linecap="butt" d="m209.1059 186.11787l0 -14.866135" fill-rule="evenodd"/><path fill="#000000" fill-opacity="0.0" d="m244.33908 186.11787l0 -14.866135" fill-rule="evenodd"/><path stroke="#92e1e6" stroke-width="2.0" stroke-linejoin="round" stroke-linecap="butt" d="m244.33908 186.11787l0 -14.866135" fill-rule="evenodd"/><path fill="#000000" fill-opacity="0.0" d="m279.57224 186.11787l0 -14.866135" fill-rule="evenodd"/><path stroke="#92e1e6" stroke-width="2.0" stroke-linejoin="round" stroke-linecap="butt" d="m279.57224 186.11787l0 -14.866135" fill-rule="evenodd"/><path fill="#000000" fill-opacity="0.0" d="m314.80542 186.11787l0 -14.866135" fill-rule="evenodd"/><path stroke="#92e1e6" stroke-width="2.0" stroke-linejoin="round" stroke-linecap="butt" d="m314.80542 186.11787l0 -14.866135" fill-rule="evenodd"/><path fill="#000000" fill-opacity="0.0" d="m226.72249 186.11787l0 -14.866135" fill-rule="evenodd"/><path stroke="#92e1e6" stroke-width="2.0" stroke-linejoin="round" stroke-linecap="butt" d="m226.72249 186.11787l0 -14.866135" fill-rule="evenodd"/><path fill="#000000" fill-opacity="0.0" d="m261.95566 186.11787l0 -14.866135" fill-rule="evenodd"/><path stroke="#92e1e6" stroke-width="2.0" stroke-linejoin="round" stroke-linecap="butt" d="m261.95566 186.11787l0 -14.866135" fill-rule="evenodd"/><path fill="#000000" fill-opacity="0.0" d="m297.18884 186.11787l0 -14.866135" fill-rule="evenodd"/><path stroke="#92e1e6" stroke-width="2.0" stroke-linejoin="round" stroke-linecap="butt" d="m297.18884 186.11787l0 -14.866135" fill-rule="evenodd"/><path fill="#000000" fill-opacity="0.0" d="m332.422 186.11787l0 -14.866135" fill-rule="evenodd"/><path stroke="#92e1e6" stroke-width="2.0" stroke-linejoin="round" stroke-linecap="butt" d="m332.422 186.11787l0 -14.866135" fill-rule="evenodd"/><path fill="#64ccd3" d="m165.20328 185.14418l0 0c0 -1.4611969 1.1845245 -2.6457214 2.6457214 -2.6457214l10.582565 0l0 0c0.7016907 0 1.3746338 0.27874756 1.8708038 0.7749176c0.49617004 0.4961548 0.7749176 1.1691132 0.7749176 1.8708038l0 31.873901c0 1.4611969 -1.1845245 2.6457214 -2.6457214 2.6457214l-10.582565 0c-1.4611969 0 -2.6457214 -1.1845245 -2.6457214 -2.6457214z" fill-rule="evenodd"/><path fill="#64ccd3" d="m200.59917 185.14418l0 0c0 -1.4611969 1.1845245 -2.6457214 2.6457214 -2.6457214l10.582565 0l0 0c0.7016907 0 1.374649 0.27874756 1.8708191 0.7749176c0.49617004 0.4961548 0.77490234 1.1691132 0.77490234 1.8708038l0 31.873901c0 1.4611969 -1.1845245 2.6457214 -2.6457214 2.6457214l-10.582565 0c-1.4611969 0 -2.6457214 -1.1845245 -2.6457214 -2.6457214z" fill-rule="evenodd"/><path fill="#64ccd3" d="m289.0889 185.14418l0 0c0 -1.4611969 1.1845398 -2.6457214 2.6457214 -2.6457214l10.582581 0l0 0c0.7016907 0 1.3746338 0.27874756 1.8708191 0.7749176c0.4961548 0.4961548 0.77490234 1.1691132 0.77490234 1.8708038l0 31.873901c0 1.4611969 -1.1845398 2.6457214 -2.6457214 2.6457214l-10.582581 0c-1.4611816 0 -2.6457214 -1.1845245 -2.6457214 -2.6457214z" fill-rule="evenodd"/><path fill="#64ccd3" d="m235.99506 185.14418l0 0c0 -1.4611969 1.1845398 -2.6457214 2.6457214 -2.6457214l10.582581 0l0 0c0.7016907 0 1.3746338 0.27874756 1.8708038 0.7749176c0.49617004 0.4961548 0.7749176 1.1691132 0.7749176 1.8708038l0 31.873901c0 1.4611969 -1.1845398 2.6457214 -2.6457214 2.6457214l-10.582581 0c-1.4611816 0 -2.6457214 -1.1845245 -2.6457214 -2.6457214z" fill-rule="evenodd"/><path fill="#64ccd3" d="m182.90121 185.14418l0 0c0 -1.4611969 1.1845398 -2.6457214 2.6457214 -2.6457214l10.582581 0l0 0c0.7016907 0 1.3746338 0.27874756 1.8708038 0.7749176c0.49617004 0.4961548 0.7749176 1.1691132 0.7749176 1.8708038l0 31.873901c0 1.4611969 -1.1845398 2.6457214 -2.6457214 2.6457214l-10.582581 0c-1.4611816 0 -2.6457214 -1.1845245 -2.6457214 -2.6457214z" fill-rule="evenodd"/><path fill="#64ccd3" d="m218.29712 185.14418l0 0c0 -1.4611969 1.1845245 -2.6457214 2.6457214 -2.6457214l10.582565 0l0 0c0.7016907 0 1.3746338 0.27874756 1.8708038 0.7749176c0.49617004 0.4961548 0.7749176 1.1691132 0.7749176 1.8708038l0 31.873901c0 1.4611969 -1.1845245 2.6457214 -2.6457214 2.6457214l-10.582565 0c-1.4611969 0 -2.6457214 -1.1845245 -2.6457214 -2.6457214z" fill-rule="evenodd"/><path fill="#64ccd3" d="m271.39096 185.14418l0 0c0 -1.4611969 1.1845398 -2.6457214 2.6457214 -2.6457214l10.582581 0l0 0c0.70166016 0 1.3746338 0.27874756 1.8707886 0.7749176c0.4961853 0.4961548 0.77493286 1.1691132 0.77493286 1.8708038l0 31.873901c0 1.4611969 -1.1845398 2.6457214 -2.6457214 2.6457214l-10.582581 0c-1.4611816 0 -2.6457214 -1.1845245 -2.6457214 -2.6457214z" fill-rule="evenodd"/><path fill="#64ccd3" d="m306.78687 185.14418l0 0c0 -1.4611969 1.1845093 -2.6457214 2.6457214 -2.6457214l10.58255 0l0 0c0.7016907 0 1.3746338 0.27874756 1.8708191 0.7749176c0.4961548 0.4961548 0.77490234 1.1691132 0.77490234 1.8708038l0 31.873901c0 1.4611969 -1.1845093 2.6457214 -2.6457214 2.6457214l-10.58255 0c-1.4612122 0 -2.6457214 -1.1845245 -2.6457214 -2.6457214z" fill-rule="evenodd"/><path fill="#64ccd3" d="m324.4848 185.14418l0 0c0 -1.4611969 1.1845398 -2.6457214 2.6457214 -2.6457214l10.582581 0l0 0c0.7016907 0 1.3746338 0.27874756 1.8707886 0.7749176c0.4961853 0.4961548 0.77493286 1.1691132 0.77493286 1.8708038l0 31.873901c0 1.4611969 -1.1845398 2.6457214 -2.6457214 2.6457214l-10.582581 0c-1.4611816 0 -2.6457214 -1.1845245 -2.6457214 -2.6457214z" fill-rule="evenodd"/><path fill="#64ccd3" d="m253.69301 185.14418l0 0c0 -1.4611969 1.1845245 -2.6457214 2.6457367 -2.6457214l10.58255 0l0 0c0.7016907 0 1.3746338 0.27874756 1.8708191 0.7749176c0.4961548 0.4961548 0.77490234 1.1691132 0.77490234 1.8708038l0 31.873901c0 1.4611969 -1.1845093 2.6457214 -2.6457214 2.6457214l-10.58255 0c-1.4612122 0 -2.6457367 -1.1845245 -2.6457367 -2.6457214z" fill-rule="evenodd"/><path fill="#000000" fill-opacity="0.0" d="m316.24786 186.11699l34.173218 0l0 26.551193l-34.173218 0z" fill-rule="evenodd"/><path fill="#000000" d="m329.04474 205.357l-0.96875 0l0 -6.421875l-1.9375 0.71875l0 -0.875l2.75 -1.03125l0.15625 0l0 7.609375zm7.561859 -3.234375q0 1.6875 -0.578125 2.515625q-0.578125 0.828125 -1.796875 0.828125q-1.21875 0 -1.796875 -0.796875q-0.578125 -0.8125 -0.609375 -2.40625l0 -1.296875q0 -1.671875 0.578125 -2.484375q0.578125 -0.8125 1.8125 -0.8125q1.21875 0 1.796875 0.796875q0.578125 0.78125 0.59375 2.40625l0 1.25zm-0.953125 -1.3125q0 -1.21875 -0.34375 -1.78125q-0.34375 -0.5625 -1.09375 -0.5625q-0.734375 0 -1.078125 0.5625q-0.328125 0.546875 -0.34375 1.703125l0 1.546875q0 1.21875 0.359375 1.8125q0.359375 0.578125 1.078125 0.578125q0.703125 0 1.046875 -0.546875q0.359375 -0.546875 0.375 -1.734375l0 -1.578125z" fill-rule="nonzero"/><path fill="#000000" fill-opacity="0.0" d="m161.21793 186.11699l34.173233 0l0 26.551193l-34.173233 0z" fill-rule="evenodd"/><path fill="#000000" d="m174.0148 205.357l-0.96875 0l0 -6.421875l-1.9375 0.71875l0 -0.875l2.75 -1.03125l0.15625 0l0 7.609375z" fill-rule="nonzero"/><path fill="#000000" fill-opacity="0.0" d="m178.44347 186.11699l34.173233 0l0 26.551193l-34.173233 0z" fill-rule="evenodd"/><path fill="#000000" d="m193.03722 205.357l-4.96875 0l0 -0.6875l2.625 -2.921875q0.578125 -0.65625 0.796875 -1.0625q0.234375 -0.421875 0.234375 -0.859375q0 -0.59375 -0.359375 -0.96875q-0.359375 -0.390625 -0.96875 -0.390625q-0.703125 0 -1.109375 0.40625q-0.390625 0.40625 -0.390625 1.140625l-0.96875 0q0 -1.046875 0.671875 -1.6875q0.671875 -0.65625 1.796875 -0.65625q1.0625 0 1.671875 0.5625q0.625 0.546875 0.625 1.46875q0 1.125 -1.4375 2.671875l-2.015625 2.203125l3.796875 0l0 0.78125z" fill-rule="nonzero"/><path fill="#000000" fill-opacity="0.0" d="m195.66902 186.11699l34.173233 0l0 26.551193l-34.173233 0z" fill-rule="evenodd"/><path fill="#000000" d="m206.70027 201.107l0.71875 0q0.6875 -0.015625 1.078125 -0.359375q0.390625 -0.359375 0.390625 -0.953125q0 -1.328125 -1.328125 -1.328125q-0.625 0 -1.0 0.359375q-0.375 0.359375 -0.375 0.9375l-0.953125 0q0 -0.890625 0.65625 -1.484375q0.65625 -0.609375 1.671875 -0.609375q1.0625 0 1.671875 0.578125q0.609375 0.5625 0.609375 1.578125q0 0.484375 -0.328125 0.953125q-0.3125 0.46875 -0.859375 0.6875q0.625 0.203125 0.96875 0.671875q0.34375 0.453125 0.34375 1.109375q0 1.015625 -0.671875 1.625q-0.671875 0.59375 -1.734375 0.59375q-1.0625 0 -1.734375 -0.578125q-0.671875 -0.578125 -0.671875 -1.53125l0.96875 0q0 0.59375 0.390625 0.953125q0.390625 0.359375 1.046875 0.359375q0.703125 0 1.0625 -0.359375q0.375 -0.359375 0.375 -1.046875q0 -0.65625 -0.40625 -1.0q-0.40625 -0.359375 -1.171875 -0.375l-0.71875 0l0 -0.78125z" fill-rule="nonzero"/><path fill="#000000" fill-opacity="0.0" d="m212.89458 186.11699l34.173218 0l0 26.551193l-34.173218 0z" fill-rule="evenodd"/><path fill="#000000" d="m226.58208 202.81012l1.0625 0l0 0.78125l-1.0625 0l0 1.765625l-0.96875 0l0 -1.765625l-3.4375 0l0 -0.5625l3.390625 -5.25l1.015625 0l0 5.03125zm-3.3125 0l2.34375 0l0 -3.71875l-0.109375 0.21875l-2.234375 3.5z" fill-rule="nonzero"/><path fill="#000000" fill-opacity="0.0" d="m230.12012 186.11699l34.173218 0l0 26.551193l-34.173218 0z" fill-rule="evenodd"/><path fill="#000000" d="m240.19824 201.56012l0.375 -3.78125l3.890625 0l0 0.890625l-3.0625 0l-0.234375 2.0625q0.5625 -0.328125 1.265625 -0.328125q1.03125 0 1.640625 0.6875q0.609375 0.6875 0.609375 1.84375q0 1.171875 -0.640625 1.859375q-0.625 0.671875 -1.765625 0.671875q-1.0 0 -1.640625 -0.5625q-0.625 -0.5625 -0.71875 -1.546875l0.921875 0q0.078125 0.65625 0.453125 0.984375q0.375 0.328125 0.984375 0.328125q0.671875 0 1.046875 -0.453125q0.390625 -0.453125 0.390625 -1.265625q0 -0.75 -0.421875 -1.203125q-0.40625 -0.46875 -1.09375 -0.46875q-0.625 0 -0.984375 0.265625l-0.25 0.21875l-0.765625 -0.203125z" fill-rule="nonzero"/><path fill="#000000" fill-opacity="0.0" d="m247.34567 186.11699l34.173218 0l0 26.551193l-34.173218 0z" fill-rule="evenodd"/><path fill="#000000" d="m260.75192 197.77887l0 0.8125l-0.171875 0q-1.125 0.015625 -1.796875 0.671875q-0.65625 0.640625 -0.765625 1.8125q0.59375 -0.6875 1.625 -0.6875q1.0 0 1.578125 0.703125q0.59375 0.6875 0.59375 1.796875q0 1.171875 -0.640625 1.875q-0.625 0.703125 -1.703125 0.703125q-1.078125 0 -1.765625 -0.828125q-0.671875 -0.84375 -0.671875 -2.15625l0 -0.375q0 -2.09375 0.890625 -3.203125q0.890625 -1.109375 2.65625 -1.125l0.171875 0zm-1.265625 3.40625q-0.484375 0 -0.90625 0.296875q-0.421875 0.296875 -0.578125 0.75l0 0.359375q0 0.921875 0.421875 1.5q0.421875 0.578125 1.046875 0.578125q0.65625 0 1.015625 -0.484375q0.375 -0.484375 0.375 -1.25q0 -0.78125 -0.375 -1.265625q-0.375 -0.484375 -1.0 -0.484375z" fill-rule="nonzero"/><path fill="#000000" fill-opacity="0.0" d="m285.37054 186.11699l34.173218 0l0 26.551193l-34.173218 0z" fill-rule="evenodd"/><path fill="#000000" d="m299.5893 199.76324q0 0.5625 -0.296875 1.015625q-0.296875 0.4375 -0.8125 0.6875q0.59375 0.25 0.9375 0.734375q0.359375 0.484375 0.359375 1.109375q0 0.984375 -0.671875 1.578125q-0.65625 0.578125 -1.75 0.578125q-1.078125 0 -1.75 -0.578125q-0.65625 -0.59375 -0.65625 -1.578125q0 -0.609375 0.328125 -1.09375q0.34375 -0.5 0.9375 -0.765625q-0.5 -0.25 -0.796875 -0.6875q-0.28125 -0.4375 -0.28125 -1.0q0 -0.96875 0.609375 -1.53125q0.609375 -0.5625 1.609375 -0.5625q1.0 0 1.609375 0.5625q0.625 0.5625 0.625 1.53125zm-0.78125 3.53125q0 -0.640625 -0.40625 -1.03125q-0.40625 -0.40625 -1.0625 -0.40625q-0.640625 0 -1.03125 0.40625q-0.390625 0.390625 -0.390625 1.03125q0 0.640625 0.375 1.015625q0.390625 0.359375 1.0625 0.359375q0.6875 0 1.0625 -0.359375q0.390625 -0.375 0.390625 -1.015625zm-1.453125 -4.828125q-0.5625 0 -0.921875 0.359375q-0.34375 0.34375 -0.34375 0.953125q0 0.578125 0.34375 0.9375q0.359375 0.34375 0.921875 0.34375q0.578125 0 0.921875 -0.34375q0.359375 -0.359375 0.359375 -0.9375q0 -0.578125 -0.359375 -0.9375q-0.359375 -0.375 -0.921875 -0.375z" fill-rule="nonzero"/><path fill="#000000" fill-opacity="0.0" d="m266.93808 186.11699l34.173218 0l0 26.551193l-34.173218 0z" fill-rule="evenodd"/><path fill="#000000" d="m281.4537 198.32574l-3.125 7.03125l-1.015625 0l3.125 -6.78125l-4.09375 0l0 -0.796875l5.109375 0l0 0.546875z" fill-rule="nonzero"/><path fill="#000000" fill-opacity="0.0" d="m302.5726 186.11699l34.17325 0l0 26.551193l-34.17325 0z" fill-rule="evenodd"/><path fill="#000000" d="m315.8851 202.02887q-0.296875 0.359375 -0.71875 0.578125q-0.421875 0.21875 -0.921875 0.21875q-0.640625 0 -1.140625 -0.3125q-0.484375 -0.328125 -0.75 -0.90625q-0.265625 -0.59375 -0.265625 -1.3125q0 -0.75 0.28125 -1.359375q0.296875 -0.609375 0.828125 -0.9375q0.53125 -0.328125 1.234375 -0.328125q1.125 0 1.765625 0.84375q0.65625 0.84375 0.65625 2.296875l0 0.28125q0 2.203125 -0.875 3.234375q-0.875 1.015625 -2.625 1.03125l-0.1875 0l0 -0.8125l0.203125 0q1.1875 -0.015625 1.828125 -0.609375q0.640625 -0.609375 0.6875 -1.90625zm-1.484375 0q0.484375 0 0.890625 -0.296875q0.421875 -0.296875 0.609375 -0.734375l0 -0.390625q0 -0.9375 -0.421875 -1.53125q-0.40625 -0.59375 -1.03125 -0.59375q-0.640625 0 -1.03125 0.484375q-0.375 0.484375 -0.375 1.28125q0 0.78125 0.375 1.28125q0.375 0.5 0.984375 0.5z" fill-rule="nonzero"/><path fill="#eeff41" d="m77.08924 20.511806l0 0c0 -10.56175 8.561989 -19.123741 19.123741 -19.123741l264.11472 0c5.07193 0 9.936127 2.014817 13.522522 5.6012144c3.5863953 3.5863976 5.601227 8.450596 5.601227 13.522528l0 76.492676c0 10.561752 -8.561981 19.123741 -19.123749 19.123741l-264.11472 0l0 0c-10.561752 0 -19.123741 -8.561989 -19.123741 -19.123741z" fill-rule="evenodd"/><path fill="#434343" d="m158.36351 51.15354l0 0c0 -8.497356 6.8884735 -15.385826 15.385834 -15.385826l0 0c4.0805817 0 7.9940186 1.6210022 10.879425 4.506405c2.8854065 2.8854027 4.5064087 6.798847 4.5064087 10.879421l0 0c0 8.49736 -6.8884735 15.385826 -15.385834 15.385826l0 0c-8.49736 0 -15.385834 -6.888466 -15.385834 -15.385826z" fill-rule="evenodd"/><path fill="#000000" fill-opacity="0.0" d="m189.13518 51.15354l95.2126 -0.6614151" fill-rule="evenodd"/><path stroke="#434343" stroke-width="2.0" stroke-linejoin="round" stroke-linecap="butt" d="m189.13518 51.15354l95.2126 -0.6614151" fill-rule="evenodd"/><path fill="#000000" fill-opacity="0.0" d="m297.64728 39.392387l-14.178772 11.639427l14.477509 11.883926" fill-rule="evenodd"/><path stroke="#434343" stroke-width="2.0" stroke-linejoin="round" stroke-linecap="butt" d="m297.64728 39.392387l-14.178772 11.639427l14.477509 11.883926" fill-rule="evenodd"/><path fill="#000000" fill-opacity="0.0" d="m157.90807 39.39187l-14.174469 11.639423l14.473114 11.883926" fill-rule="evenodd"/><path stroke="#19768a" stroke-width="2.0" stroke-linejoin="round" stroke-linecap="butt" d="m157.90807 39.39187l-14.174469 11.639423l14.473114 11.883926" fill-rule="evenodd"/><path fill="#19768a" d="m10.78084 51.15354l0 0c0 -8.497356 6.8884697 -15.385826 15.385826 -15.385826l0 0c4.080576 0 7.9940205 1.6210022 10.879423 4.506405c2.8854027 2.8854027 4.506405 6.798847 4.506405 10.879421l0 0c0 8.49736 -6.8884697 15.385826 -15.385828 15.385826l0 0c-8.497356 0 -15.385826 -6.888466 -15.385826 -15.385826z" fill-rule="evenodd"/><path fill="#000000" fill-opacity="0.0" d="m143.73904 51.15354c-12.621262 3.0353127 -54.999176 7.9572525 -75.727554 18.211868c-20.728374 10.254608 -40.53559 36.09651 -48.642708 43.31582" fill-rule="evenodd"/><path stroke="#19768a" stroke-width="2.0" stroke-linejoin="round" stroke-linecap="butt" d="m143.73904 51.15354c-12.621262 3.0353127 -54.999176 7.9572525 -75.727554 18.211868c-20.728374 10.254608 -40.53559 36.09651 -48.642708 43.31582" fill-rule="evenodd"/><path fill="#000000" fill-opacity="0.0" d="m26.694225 48.552494l22.17323 34.89764" fill-rule="evenodd"/><path stroke="#19768a" stroke-width="2.0" stroke-linejoin="round" stroke-linecap="butt" d="m26.694225 48.552494l22.17323 34.89764" fill-rule="evenodd"/><path fill="#92e1e6" d="m297.9462 51.15354l0 0c0 -8.497356 6.8884583 -15.385826 15.385834 -15.385826l0 0c4.0805664 0 7.9940186 1.6210022 10.879425 4.506405c2.885376 2.8854027 4.506378 6.798847 4.506378 10.879421l0 0c0 8.49736 -6.8884583 15.385826 -15.385803 15.385826l0 0c-8.4973755 0 -15.385834 -6.888466 -15.385834 -15.385826z" fill-rule="evenodd"/><path fill="#000000" fill-opacity="0.0" d="m325.98557 52.510498c11.073975 3.3079948 47.37201 9.592922 66.44379 19.847954c19.071777 10.255035 39.989105 34.7352 47.98694 41.682236" fill-rule="evenodd"/><path stroke="#92e1e6" stroke-width="2.0" stroke-linejoin="round" stroke-linecap="butt" d="m325.98557 52.510498c11.073975 3.3079948 47.37201 9.592922 66.44379 19.847954c19.071777 10.255035 39.989105 34.7352 47.98694 41.682236" fill-rule="evenodd"/><path fill="#000000" fill-opacity="0.0" d="m212.78346 1.3871391l26.236221 0l0 58.17323l-26.236221 0z" fill-rule="evenodd"/><path fill="#000000" fill-opacity="0.0" d="m83.87533 71.05905l66.48818 0l0 42.015755l-66.48818 0z" fill-rule="evenodd"/><path fill="#000000" d="m103.84408 93.29155l1.765625 0.453125q-0.5625 2.171875 -2.0 3.328125q-1.4375 1.140625 -3.53125 1.140625q-2.15625 0 -3.515625 -0.875q-1.34375 -0.890625 -2.0625 -2.546875q-0.703125 -1.671875 -0.703125 -3.59375q0 -2.078125 0.796875 -3.625q0.796875 -1.5625 2.265625 -2.359375q1.484375 -0.8125 3.25 -0.8125q2.0 0 3.359375 1.015625q1.375 1.015625 1.90625 2.875l-1.734375 0.40625q-0.46875 -1.453125 -1.359375 -2.109375q-0.875 -0.671875 -2.203125 -0.671875q-1.546875 0 -2.578125 0.734375q-1.03125 0.734375 -1.453125 1.984375q-0.421875 1.234375 -0.421875 2.5625q0 1.703125 0.5 2.96875q0.5 1.265625 1.546875 1.90625q1.046875 0.625 2.265625 0.625q1.484375 0 2.515625 -0.859375q1.03125 -0.859375 1.390625 -2.546875zm3.9260712 4.6875l0 -13.359375l1.8125 0l7.015625 10.484375l0 -10.484375l1.6875 0l0 13.359375l-1.8125 0l-7.015625 -10.5l0 10.5l-1.6875 0zm12.894821 -4.296875l1.65625 -0.140625q0.125 1.0 0.546875 1.640625q0.4375 0.640625 1.34375 1.046875q0.921875 0.390625 2.0625 0.390625q1.0 0 1.7812576 -0.296875q0.78125 -0.296875 1.15625 -0.8125q0.375 -0.53125 0.375 -1.15625q0 -0.625 -0.375 -1.09375q-0.359375 -0.46875 -1.1875 -0.796875q-0.5468826 -0.203125 -2.3906326 -0.640625q-1.828125 -0.453125 -2.5625 -0.84375q-0.96875 -0.5 -1.4375 -1.234375q-0.46875 -0.75 -0.46875 -1.671875q0 -1.0 0.578125 -1.875q0.578125 -0.890625 1.671875 -1.34375q1.109375 -0.453125 2.453125 -0.453125q1.484375 0 2.6093826 0.484375q1.140625 0.46875 1.75 1.40625q0.609375 0.921875 0.65625 2.09375l-1.6875 0.125q-0.140625 -1.265625 -0.9375 -1.90625q-0.7812576 -0.65625 -2.3125076 -0.65625q-1.609375 0 -2.34375 0.59375q-0.734375 0.59375 -0.734375 1.421875q0 0.71875 0.53125 1.171875q0.5 0.46875 2.65625 0.96875q2.1562576 0.484375 2.9531326 0.84375q1.171875 0.53125 1.71875 1.359375q0.5625 0.828125 0.5625 1.90625q0 1.0625 -0.609375 2.015625q-0.609375 0.9375 -1.75 1.46875q-1.1406326 0.515625 -2.5781326 0.515625q-1.8125 0 -3.046875 -0.53125q-1.21875 -0.53125 -1.921875 -1.59375q-0.6875 -1.0625 -0.71875 -2.40625z" fill-rule="nonzero"/><path fill="#000000" fill-opacity="0.0" d="m162.43816 67.148575l11.63942 14.174477l11.883926 -14.473114" fill-rule="evenodd"/><path stroke="#19768a" stroke-width="2.0" stroke-linejoin="round" stroke-linecap="butt" d="m162.43816 67.148575l11.63942 14.174477l11.883926 -14.473114" fill-rule="evenodd"/><path fill="#000000" fill-opacity="0.0" d="m173.74934 81.63386l0 90.14173" fill-rule="evenodd"/><path stroke="#19768a" stroke-width="2.0" stroke-linejoin="round" stroke-linecap="butt" d="m173.74934 81.63386l0 90.14173" fill-rule="evenodd"/><path fill="#000000" fill-opacity="0.0" d="m313.08005 62.9147c3.7410278 11.351704 19.250671 50.216534 22.446198 68.11023c3.1955261 17.893707 -2.727478 32.709976 -3.2729492 39.25197" fill-rule="evenodd"/><path stroke="#92e1e6" stroke-width="2.0" stroke-linejoin="round" stroke-linecap="butt" d="m313.08005 62.9147c3.7410278 11.351704 19.250671 50.216534 22.446198 68.11023c3.1955261 17.893707 -2.727478 32.709976 -3.2729492 39.25197" fill-rule="evenodd"/></g></svg>