<svg version="1.1" viewBox="0.0 0.0 451.1994750656168 278.3989501312336" fill="none" stroke="none" stroke-linecap="square" stroke-miterlimit="10" xmlns:xlink="http://www.w3.org/1999/xlink" xmlns="http://www.w3.org/2000/svg"><clipPath id="g3148980ed05_0_76.0"><path d="m0 0l451.19946 0l0 278.39896l-451.19946 0l0 -278.39896z" clip-rule="nonzero"/></clipPath><g clip-path="url(#g3148980ed05_0_76.0)"><path fill="#ffffff" d="m0 0l451.19946 0l0 278.39896l-451.19946 0z" fill-rule="evenodd"/><path fill="#eeff41" d="m148.82188 220.46982l0 0c0 -6.268051 5.081253 -11.349319 11.349304 -11.349319l173.74232 0c3.0100403 0 5.896759 1.1957245 8.025177 3.3241425c2.128418 2.1284027 3.3241272 5.015152 3.3241272 8.025177l0 45.395874c0 6.268036 -5.081238 11.349304 -11.349304 11.349304l-173.74232 0c-6.268051 0 -11.349304 -5.0812683 -11.349304 -11.349304z" fill-rule="evenodd"/><path fill="#000000" fill-opacity="0.0" d="m323.95312 218.22812l-159.55907 1.1653442" fill-rule="evenodd"/><path stroke="#92e1e6" stroke-width="2.0" stroke-linejoin="round" stroke-linecap="butt" d="m323.95312 218.22812l-159.55907 1.1653442" fill-rule="evenodd"/><path fill="#000000" fill-opacity="0.0" d="m164.38716 234.3226l0 -14.866135" fill-rule="evenodd"/><path stroke="#92e1e6" stroke-width="2.0" stroke-linejoin="round" stroke-linecap="butt" d="m164.38716 234.3226l0 -14.866135" fill-rule="evenodd"/><path fill="#000000" fill-opacity="0.0" d="m182.00375 234.3226l0 -14.866135" fill-rule="evenodd"/><path stroke="#92e1e6" stroke-width="2.0" stroke-linejoin="round" stroke-linecap="butt" d="m182.00375 234.3226l0 -14.866135" fill-rule="evenodd"/><path fill="#000000" fill-opacity="0.0" d="m199.62033 234.3226l0 -14.866135" fill-rule="evenodd"/><path stroke="#92e1e6" stroke-width="2.0" stroke-linejoin="round" stroke-linecap="butt" d="m199.62033 234.3226l0 -14.866135" fill-rule="evenodd"/><path fill="#000000" fill-opacity="0.0" d="m234.85352 234.3226l0 -14.866135" fill-rule="evenodd"/><path stroke="#92e1e6" stroke-width="2.0" stroke-linejoin="round" stroke-linecap="butt" d="m234.85352 234.3226l0 -14.866135" fill-rule="evenodd"/><path fill="#000000" fill-opacity="0.0" d="m270.0867 234.3226l0 -14.866135" fill-rule="evenodd"/><path stroke="#92e1e6" stroke-width="2.0" stroke-linejoin="round" stroke-linecap="butt" d="m270.0867 234.3226l0 -14.866135" fill-rule="evenodd"/><path fill="#000000" fill-opacity="0.0" d="m305.31985 234.3226l0 -14.866135" fill-rule="evenodd"/><path stroke="#92e1e6" stroke-width="2.0" stroke-linejoin="round" stroke-linecap="butt" d="m305.31985 234.3226l0 -14.866135" fill-rule="evenodd"/><path fill="#000000" fill-opacity="0.0" d="m217.23692 234.3226l0 -14.866135" fill-rule="evenodd"/><path stroke="#92e1e6" stroke-width="2.0" stroke-linejoin="round" stroke-linecap="butt" d="m217.23692 234.3226l0 -14.866135" fill-rule="evenodd"/><path fill="#000000" fill-opacity="0.0" d="m252.4701 234.3226l0 -14.866135" fill-rule="evenodd"/><path stroke="#92e1e6" stroke-width="2.0" stroke-linejoin="round" stroke-linecap="butt" d="m252.4701 234.3226l0 -14.866135" fill-rule="evenodd"/><path fill="#000000" fill-opacity="0.0" d="m287.70328 234.3226l0 -14.866135" fill-rule="evenodd"/><path stroke="#92e1e6" stroke-width="2.0" stroke-linejoin="round" stroke-linecap="butt" d="m287.70328 234.3226l0 -14.866135" fill-rule="evenodd"/><path fill="#000000" fill-opacity="0.0" d="m322.93646 234.3226l0 -14.866135" fill-rule="evenodd"/><path stroke="#92e1e6" stroke-width="2.0" stroke-linejoin="round" stroke-linecap="butt" d="m322.93646 234.3226l0 -14.866135" fill-rule="evenodd"/><path fill="#64ccd3" d="m155.71771 233.3489l0 0c0 -1.4611969 1.1845245 -2.6457214 2.6457214 -2.6457214l10.582565 0l0 0c0.7016907 0 1.3746338 0.2787323 1.8708038 0.77490234c0.49617004 0.49617004 0.7749176 1.1691284 0.7749176 1.8708191l0 31.873901c0 1.4611816 -1.1845245 2.6457214 -2.6457214 2.6457214l-10.582565 0c-1.4611969 0 -2.6457214 -1.1845398 -2.6457214 -2.6457214z" fill-rule="evenodd"/><path fill="#64ccd3" d="m191.1136 233.3489l0 0c0 -1.4611969 1.1845245 -2.6457214 2.6457214 -2.6457214l10.582565 0l0 0c0.7016907 0 1.374649 0.2787323 1.8708191 0.77490234c0.49617004 0.49617004 0.7749176 1.1691284 0.7749176 1.8708191l0 31.873901c0 1.4611816 -1.1845398 2.6457214 -2.6457367 2.6457214l-10.582565 0c-1.4611969 0 -2.6457214 -1.1845398 -2.6457214 -2.6457214z" fill-rule="evenodd"/><path fill="#64ccd3" d="m279.60333 233.3489l0 0c0 -1.4611969 1.1845398 -2.6457214 2.6457214 -2.6457214l10.582581 0l0 0c0.7016907 0 1.3746338 0.2787323 1.8708191 0.77490234c0.4961548 0.49617004 0.77490234 1.1691284 0.77490234 1.8708191l0 31.873901c0 1.4611816 -1.1845398 2.6457214 -2.6457214 2.6457214l-10.582581 0c-1.4611816 0 -2.6457214 -1.1845398 -2.6457214 -2.6457214z" fill-rule="evenodd"/><path fill="#64ccd3" d="m226.50949 233.3489l0 0c0 -1.4611969 1.1845398 -2.6457214 2.6457214 -2.6457214l10.582581 0l0 0c0.7016907 0 1.3746338 0.2787323 1.8708038 0.77490234c0.49617004 0.49617004 0.7749176 1.1691284 0.7749176 1.8708191l0 31.873901c0 1.4611816 -1.1845398 2.6457214 -2.6457214 2.6457214l-10.582581 0c-1.4611816 0 -2.6457214 -1.1845398 -2.6457214 -2.6457214z" fill-rule="evenodd"/><path fill="#64ccd3" d="m173.41565 233.3489l0 0c0 -1.4611969 1.1845398 -2.6457214 2.6457214 -2.6457214l10.582581 0l0 0c0.7016907 0 1.3746338 0.2787323 1.8708038 0.77490234c0.49617004 0.49617004 0.7749176 1.1691284 0.7749176 1.8708191l0 31.873901c0 1.4611816 -1.1845398 2.6457214 -2.6457214 2.6457214l-10.582581 0c-1.4611816 0 -2.6457214 -1.1845398 -2.6457214 -2.6457214z" fill-rule="evenodd"/><path fill="#64ccd3" d="m208.81155 233.3489l0 0c0 -1.4611969 1.1845245 -2.6457214 2.6457214 -2.6457214l10.582565 0l0 0c0.7016907 0 1.3746338 0.2787323 1.8708038 0.77490234c0.49617004 0.49617004 0.7749176 1.1691284 0.7749176 1.8708191l0 31.873901c0 1.4611816 -1.1845245 2.6457214 -2.6457214 2.6457214l-10.582565 0c-1.4611969 0 -2.6457214 -1.1845398 -2.6457214 -2.6457214z" fill-rule="evenodd"/><path fill="#64ccd3" d="m261.9054 233.3489l0 0c0 -1.4611969 1.1845398 -2.6457214 2.6457214 -2.6457214l10.582581 0l0 0c0.7016907 0 1.3746338 0.2787323 1.8707886 0.77490234c0.4961853 0.49617004 0.77493286 1.1691284 0.77493286 1.8708191l0 31.873901c0 1.4611816 -1.1845398 2.6457214 -2.6457214 2.6457214l-10.582581 0c-1.4611816 0 -2.6457214 -1.1845398 -2.6457214 -2.6457214z" fill-rule="evenodd"/><path fill="#64ccd3" d="m297.3013 233.3489l0 0c0 -1.4611969 1.1845093 -2.6457214 2.6457214 -2.6457214l10.58255 0l0 0c0.7016907 0 1.3746338 0.2787323 1.8708191 0.77490234c0.4961548 0.49617004 0.77490234 1.1691284 0.77490234 1.8708191l0 31.873901c0 1.4611816 -1.1845093 2.6457214 -2.6457214 2.6457214l-10.58255 0c-1.4612122 0 -2.6457214 -1.1845398 -2.6457214 -2.6457214z" fill-rule="evenodd"/><path fill="#64ccd3" d="m314.99924 233.3489l0 0c0 -1.4611969 1.1845398 -2.6457214 2.6457214 -2.6457214l10.582581 0l0 0c0.7016907 0 1.3746338 0.2787323 1.8707886 0.77490234c0.4961853 0.49617004 0.77493286 1.1691284 0.77493286 1.8708191l0 31.873901c0 1.4611816 -1.1845398 2.6457214 -2.6457214 2.6457214l-10.582581 0c-1.4611816 0 -2.6457214 -1.1845398 -2.6457214 -2.6457214z" fill-rule="evenodd"/><path fill="#64ccd3" d="m244.20744 233.3489l0 0c0 -1.4611969 1.1845245 -2.6457214 2.6457214 -2.6457214l10.582565 0l0 0c0.7016907 0 1.3746338 0.2787323 1.8708191 0.77490234c0.4961548 0.49617004 0.77490234 1.1691284 0.77490234 1.8708191l0 31.873901c0 1.4611816 -1.1845093 2.6457214 -2.6457214 2.6457214l-10.582565 0c-1.4611969 0 -2.6457214 -1.1845398 -2.6457214 -2.6457214z" fill-rule="evenodd"/><path fill="#000000" fill-opacity="0.0" d="m306.7623 234.32172l34.173218 0l0 26.551178l-34.173218 0z" fill-rule="evenodd"/><path fill="#000000" d="m319.55917 253.56172l-0.96875 0l0 -6.421875l-1.9375 0.71875l0 -0.875l2.75 -1.03125l0.15625 0l0 7.609375zm7.561859 -3.234375q0 1.6875 -0.578125 2.515625q-0.578125 0.828125 -1.796875 0.828125q-1.21875 0 -1.796875 -0.796875q-0.578125 -0.8125 -0.609375 -2.40625l0 -1.296875q0 -1.671875 0.578125 -2.484375q0.578125 -0.8125 1.8125 -0.8125q1.21875 0 1.796875 0.796875q0.578125 0.78125 0.59375 2.40625l0 1.25zm-0.953125 -1.3125q0 -1.21875 -0.34375 -1.78125q-0.34375 -0.5625 -1.09375 -0.5625q-0.734375 0 -1.078125 0.5625q-0.328125 0.546875 -0.34375 1.703125l0 1.546875q0 1.21875 0.359375 1.8125q0.359375 0.578125 1.078125 0.578125q0.703125 0 1.046875 -0.546875q0.359375 -0.546875 0.375 -1.734375l0 -1.578125z" fill-rule="nonzero"/><path fill="#000000" fill-opacity="0.0" d="m151.73236 234.32172l34.173233 0l0 26.551178l-34.173233 0z" fill-rule="evenodd"/><path fill="#000000" d="m164.52924 253.56172l-0.96875 0l0 -6.421875l-1.9375 0.71875l0 -0.875l2.75 -1.03125l0.15625 0l0 7.609375z" fill-rule="nonzero"/><path fill="#000000" fill-opacity="0.0" d="m168.95792 234.32172l34.173218 0l0 26.551178l-34.173218 0z" fill-rule="evenodd"/><path fill="#000000" d="m183.55167 253.56172l-4.96875 0l0 -0.6875l2.625 -2.921875q0.578125 -0.65625 0.796875 -1.0625q0.234375 -0.421875 0.234375 -0.859375q0 -0.59375 -0.359375 -0.96875q-0.359375 -0.390625 -0.96875 -0.390625q-0.703125 0 -1.109375 0.40625q-0.390625 0.40625 -0.390625 1.140625l-0.96875 0q0 -1.046875 0.671875 -1.6875q0.671875 -0.65625 1.796875 -0.65625q1.0625 0 1.671875 0.5625q0.625 0.546875 0.625 1.46875q0 1.125 -1.4375 2.671875l-2.015625 2.203125l3.796875 0l0 0.78125z" fill-rule="nonzero"/><path fill="#000000" fill-opacity="0.0" d="m186.18346 234.32172l34.173233 0l0 26.551178l-34.173233 0z" fill-rule="evenodd"/><path fill="#000000" d="m197.2147 249.31172l0.71875 0q0.6875 -0.015625 1.078125 -0.359375q0.390625 -0.359375 0.390625 -0.953125q0 -1.328125 -1.328125 -1.328125q-0.625 0 -1.0 0.359375q-0.375 0.359375 -0.375 0.9375l-0.953125 0q0 -0.890625 0.65625 -1.484375q0.65625 -0.609375 1.671875 -0.609375q1.0625 0 1.671875 0.578125q0.609375 0.5625 0.609375 1.578125q0 0.484375 -0.328125 0.953125q-0.3125 0.46875 -0.859375 0.6875q0.625 0.203125 0.96875 0.671875q0.34375 0.453125 0.34375 1.109375q0 1.015625 -0.671875 1.625q-0.671875 0.59375 -1.734375 0.59375q-1.0625 0 -1.734375 -0.578125q-0.671875 -0.578125 -0.671875 -1.53125l0.96875 0q0 0.59375 0.390625 0.953125q0.390625 0.359375 1.046875 0.359375q0.703125 0 1.0625 -0.359375q0.375 -0.359375 0.375 -1.046875q0 -0.65625 -0.40625 -1.0q-0.40625 -0.359375 -1.171875 -0.375l-0.71875 0l0 -0.78125z" fill-rule="nonzero"/><path fill="#000000" fill-opacity="0.0" d="m203.40901 234.32172l34.173218 0l0 26.551178l-34.173218 0z" fill-rule="evenodd"/><path fill="#000000" d="m217.09651 251.01485l1.0625 0l0 0.78125l-1.0625 0l0 1.765625l-0.96875 0l0 -1.765625l-3.4375 0l0 -0.5625l3.390625 -5.25l1.015625 0l0 5.03125zm-3.3125 0l2.34375 0l0 -3.71875l-0.109375 0.21875l-2.234375 3.5z" fill-rule="nonzero"/><path fill="#000000" fill-opacity="0.0" d="m220.63455 234.32172l34.173233 0l0 26.551178l-34.173233 0z" fill-rule="evenodd"/><path fill="#000000" d="m230.71268 249.76485l0.375 -3.78125l3.890625 0l0 0.890625l-3.0625 0l-0.234375 2.0625q0.5625 -0.328125 1.265625 -0.328125q1.03125 0 1.640625 0.6875q0.609375 0.6875 0.609375 1.84375q0 1.171875 -0.640625 1.859375q-0.625 0.671875 -1.765625 0.671875q-1.0 0 -1.640625 -0.5625q-0.625 -0.5625 -0.71875 -1.546875l0.921875 0q0.078125 0.65625 0.453125 0.984375q0.375 0.328125 0.984375 0.328125q0.671875 0 1.046875 -0.453125q0.390625 -0.453125 0.390625 -1.265625q0 -0.75 -0.421875 -1.203125q-0.40625 -0.46875 -1.09375 -0.46875q-0.625 0 -0.984375 0.265625l-0.25 0.21875l-0.765625 -0.203125z" fill-rule="nonzero"/><path fill="#000000" fill-opacity="0.0" d="m237.8601 234.32172l34.173218 0l0 26.551178l-34.173218 0z" fill-rule="evenodd"/><path fill="#000000" d="m251.26636 245.9836l0 0.8125l-0.171875 0q-1.125 0.015625 -1.796875 0.671875q-0.65625 0.640625 -0.765625 1.8125q0.59375 -0.6875 1.625 -0.6875q1.0 0 1.578125 0.703125q0.59375 0.6875 0.59375 1.796875q0 1.171875 -0.640625 1.875q-0.625 0.703125 -1.703125 0.703125q-1.078125 0 -1.765625 -0.828125q-0.671875 -0.84375 -0.671875 -2.15625l0 -0.375q0 -2.09375 0.890625 -3.203125q0.890625 -1.109375 2.65625 -1.125l0.171875 0zm-1.265625 3.40625q-0.484375 0 -0.90625 0.296875q-0.421875 0.296875 -0.578125 0.75l0 0.359375q0 0.921875 0.421875 1.5q0.421875 0.578125 1.046875 0.578125q0.65625 0 1.015625 -0.484375q0.375 -0.484375 0.375 -1.25q0 -0.78125 -0.375 -1.265625q-0.375 -0.484375 -1.0 -0.484375z" fill-rule="nonzero"/><path fill="#000000" fill-opacity="0.0" d="m275.88498 234.32172l34.173218 0l0 26.551178l-34.173218 0z" fill-rule="evenodd"/><path fill="#000000" d="m290.10373 247.96797q0 0.5625 -0.296875 1.015625q-0.296875 0.4375 -0.8125 0.6875q0.59375 0.25 0.9375 0.734375q0.359375 0.484375 0.359375 1.109375q0 0.984375 -0.671875 1.578125q-0.65625 0.578125 -1.75 0.578125q-1.078125 0 -1.75 -0.578125q-0.65625 -0.59375 -0.65625 -1.578125q0 -0.609375 0.328125 -1.09375q0.34375 -0.5 0.9375 -0.765625q-0.5 -0.25 -0.796875 -0.6875q-0.28125 -0.4375 -0.28125 -1.0q0 -0.96875 0.609375 -1.53125q0.609375 -0.5625 1.609375 -0.5625q1.0 0 1.609375 0.5625q0.625 0.5625 0.625 1.53125zm-0.78125 3.53125q0 -0.640625 -0.40625 -1.03125q-0.40625 -0.40625 -1.0625 -0.40625q-0.640625 0 -1.03125 0.40625q-0.390625 0.390625 -0.390625 1.03125q0 0.640625 0.375 1.015625q0.390625 0.359375 1.0625 0.359375q0.6875 0 1.0625 -0.359375q0.390625 -0.375 0.390625 -1.015625zm-1.453125 -4.828125q-0.5625 0 -0.921875 0.359375q-0.34375 0.34375 -0.34375 0.953125q0 0.578125 0.34375 0.9375q0.359375 0.34375 0.921875 0.34375q0.578125 0 0.921875 -0.34375q0.359375 -0.359375 0.359375 -0.9375q0 -0.578125 -0.359375 -0.9375q-0.359375 -0.375 -0.921875 -0.375z" fill-rule="nonzero"/><path fill="#000000" fill-opacity="0.0" d="m257.4525 234.32172l34.173218 0l0 26.551178l-34.173218 0z" fill-rule="evenodd"/><path fill="#000000" d="m271.96814 246.53047l-3.125 7.03125l-1.015625 0l3.125 -6.78125l-4.09375 0l0 -0.796875l5.109375 0l0 0.546875z" fill-rule="nonzero"/><path fill="#000000" fill-opacity="0.0" d="m293.08704 234.32172l34.17325 0l0 26.551178l-34.17325 0z" fill-rule="evenodd"/><path fill="#000000" d="m306.39954 250.2336q-0.296875 0.359375 -0.71875 0.578125q-0.421875 0.21875 -0.921875 0.21875q-0.640625 0 -1.140625 -0.3125q-0.484375 -0.328125 -0.75 -0.90625q-0.265625 -0.59375 -0.265625 -1.3125q0 -0.75 0.28125 -1.359375q0.296875 -0.609375 0.828125 -0.9375q0.53125 -0.328125 1.234375 -0.328125q1.125 0 1.765625 0.84375q0.65625 0.84375 0.65625 2.296875l0 0.28125q0 2.203125 -0.875 3.234375q-0.875 1.015625 -2.625 1.03125l-0.1875 0l0 -0.8125l0.203125 0q1.1875 -0.015625 1.828125 -0.609375q0.640625 -0.609375 0.6875 -1.90625zm-1.484375 0q0.484375 0 0.890625 -0.296875q0.421875 -0.296875 0.609375 -0.734375l0 -0.390625q0 -0.9375 -0.421875 -1.53125q-0.40625 -0.59375 -1.03125 -0.59375q-0.640625 0 -1.03125 0.484375q-0.375 0.484375 -0.375 1.28125q0 0.78125 0.375 1.28125q0.375 0.5 0.984375 0.5z" fill-rule="nonzero"/><path fill="#eeff41" d="m67.60236 28.377184l0 0c0 -15.017807 12.174339 -27.192144 27.192146 -27.192144l247.97792 0c7.211792 0 14.128235 2.8648782 19.227753 7.9643946c5.099518 5.099517 7.964386 12.0159445 7.964386 19.227749l0 108.76532c0 15.017807 -12.174347 27.192139 -27.192139 27.192139l-247.97792 0c-15.017807 0 -27.192146 -12.174332 -27.192146 -27.192139z" fill-rule="evenodd"/><path fill="#eeff41" d="m202.7454 107.76509l30.236221 0l0 36.283463l-30.236221 0z" fill-rule="evenodd"/><path fill="#eeff41" d="m75.161415 44.458004l30.236221 0l0 36.283466l-30.236221 0z" fill-rule="evenodd"/><path fill="#eeff41" d="m288.45276 44.458004l30.236206 0l0 36.283466l-30.236206 0z" fill-rule="evenodd"/><path fill="#eeff41" d="m202.06824 13.166667l30.236221 0l0 36.283463l-30.236221 0z" fill-rule="evenodd"/><path fill="#eeff41" d="m203.2979 56.913387l30.236221 0l0 39.842518l-30.236221 0z" fill-rule="evenodd"/><path fill="#434343" d="m148.87796 99.35827l0 0c0 -8.49736 6.8884583 -15.385826 15.3858185 -15.385826l0 0c4.0805817 0 7.9940186 1.6210022 10.879425 4.506401c2.8854065 2.8854065 4.5064087 6.798851 4.5064087 10.879425l0 0c0 8.49736 -6.8884735 15.385826 -15.385834 15.385826l0 0c-8.49736 0 -15.3858185 -6.888466 -15.3858185 -15.385826z" fill-rule="evenodd"/><path fill="#000000" fill-opacity="0.0" d="m179.64961 99.35827l95.2126 -0.6614151" fill-rule="evenodd"/><path stroke="#434343" stroke-width="2.0" stroke-linejoin="round" stroke-linecap="butt" d="m179.64961 99.35827l95.2126 -0.6614151" fill-rule="evenodd"/><path fill="#000000" fill-opacity="0.0" d="m288.1617 87.597115l-14.178772 11.63942l14.477509 11.883926" fill-rule="evenodd"/><path stroke="#434343" stroke-width="2.0" stroke-linejoin="round" stroke-linecap="butt" d="m288.1617 87.597115l-14.178772 11.63942l14.477509 11.883926" fill-rule="evenodd"/><path fill="#000000" fill-opacity="0.0" d="m148.4225 87.596596l-14.174469 11.63942l14.473114 11.883926" fill-rule="evenodd"/><path stroke="#19768a" stroke-width="2.0" stroke-linejoin="round" stroke-linecap="butt" d="m148.4225 87.596596l-14.174469 11.63942l14.473114 11.883926" fill-rule="evenodd"/><path fill="#19768a" d="m1.2952756 99.35827l0 0c0 -8.49736 6.8884687 -15.385826 15.385827 -15.385826l0 0c4.080574 0 7.9940205 1.6210022 10.879421 4.506401c2.8854027 2.8854065 4.506405 6.798851 4.506405 10.879425l0 0c0 8.49736 -6.8884697 15.385826 -15.385826 15.385826l0 0c-8.497358 0 -15.385827 -6.888466 -15.385827 -15.385826z" fill-rule="evenodd"/><path fill="#000000" fill-opacity="0.0" d="m134.25348 99.35827c-12.621262 3.0353088 -54.999176 7.957245 -75.727554 18.21186c-20.728374 10.254616 -40.53559 36.096527 -48.64271 43.315826" fill-rule="evenodd"/><path stroke="#19768a" stroke-width="2.0" stroke-linejoin="round" stroke-linecap="butt" d="m134.25348 99.35827c-12.621262 3.0353088 -54.999176 7.957245 -75.727554 18.21186c-20.728374 10.254616 -40.53559 36.096527 -48.64271 43.315826" fill-rule="evenodd"/><path fill="#000000" fill-opacity="0.0" d="m17.208662 96.75722l22.173227 34.897644" fill-rule="evenodd"/><path stroke="#19768a" stroke-width="2.0" stroke-linejoin="round" stroke-linecap="butt" d="m17.208662 96.75722l22.173227 34.897644" fill-rule="evenodd"/><path fill="#92e1e6" d="m288.46063 99.35827l0 0c0 -8.49736 6.8884583 -15.385826 15.385834 -15.385826l0 0c4.0805664 0 7.9940186 1.6210022 10.879425 4.506401c2.885376 2.8854065 4.506378 6.798851 4.506378 10.879425l0 0c0 8.49736 -6.8884583 15.385826 -15.385803 15.385826l0 0c-8.4973755 0 -15.385834 -6.888466 -15.385834 -15.385826z" fill-rule="evenodd"/><path fill="#000000" fill-opacity="0.0" d="m316.5 100.715225c11.073975 3.307991 47.37201 9.592918 66.44379 19.847954c19.071777 10.255028 39.989105 34.73519 47.98694 41.682243" fill-rule="evenodd"/><path stroke="#92e1e6" stroke-width="2.0" stroke-linejoin="round" stroke-linecap="butt" d="m316.5 100.715225c11.073975 3.307991 47.37201 9.592918 66.44379 19.847954c19.071777 10.255028 39.989105 34.73519 47.98694 41.682243" fill-rule="evenodd"/><path fill="#000000" fill-opacity="0.0" d="m203.2979 49.59186l26.236221 0l0 58.17323l-26.236221 0z" fill-rule="evenodd"/><path fill="#000000" fill-opacity="0.0" d="m74.38976 119.26378l66.4882 0l0 42.015747l-66.4882 0z" fill-rule="evenodd"/><path fill="#000000" d="m94.35851 141.49628l1.765625 0.453125q-0.5625 2.171875 -2.0 3.328125q-1.4375 1.140625 -3.53125 1.140625q-2.15625 0 -3.515625 -0.875q-1.34375 -0.890625 -2.0625 -2.546875q-0.703125 -1.671875 -0.703125 -3.59375q0 -2.078125 0.796875 -3.625q0.796875 -1.5625 2.265625 -2.359375q1.484375 -0.8125 3.25 -0.8125q2.0 0 3.359375 1.015625q1.375 1.015625 1.90625 2.875l-1.734375 0.40625q-0.46875 -1.453125 -1.359375 -2.109375q-0.875 -0.671875 -2.203125 -0.671875q-1.546875 0 -2.578125 0.734375q-1.03125 0.734375 -1.453125 1.984375q-0.421875 1.234375 -0.421875 2.5625q0 1.703125 0.5 2.96875q0.5 1.265625 1.546875 1.90625q1.046875 0.625 2.265625 0.625q1.484375 0 2.515625 -0.859375q1.03125 -0.859375 1.390625 -2.546875zm3.9260712 4.6875l0 -13.359375l1.8125 0l7.015625 10.484375l0 -10.484375l1.6875 0l0 13.359375l-1.8125 0l-7.015625 -10.5l0 10.5l-1.6875 0zm12.894821 -4.296875l1.65625 -0.140625q0.125 1.0 0.546875 1.640625q0.4375 0.640625 1.34375 1.046875q0.921875 0.390625 2.0625 0.390625q1.0 0 1.78125 -0.296875q0.78125 -0.296875 1.15625 -0.8125q0.375 -0.53125 0.375 -1.15625q0 -0.625 -0.375 -1.09375q-0.359375 -0.46875 -1.1875 -0.796875q-0.546875 -0.203125 -2.390625 -0.640625q-1.828125 -0.453125 -2.5625 -0.84375q-0.96875 -0.5 -1.4375 -1.234375q-0.46875 -0.75 -0.46875 -1.671875q0 -1.0 0.578125 -1.875q0.578125 -0.890625 1.671875 -1.34375q1.109375 -0.453125 2.453125 -0.453125q1.484375 0 2.609375 0.484375q1.140625 0.46875 1.75 1.40625q0.609375 0.921875 0.65625 2.09375l-1.6875 0.125q-0.140625 -1.265625 -0.9375 -1.90625q-0.78125 -0.65625 -2.3125 -0.65625q-1.609375 0 -2.34375 0.59375q-0.734375 0.59375 -0.734375 1.421875q0 0.71875 0.53125 1.171875q0.5 0.46875 2.65625 0.96875q2.15625 0.484375 2.953125 0.84375q1.171875 0.53125 1.71875 1.359375q0.5625 0.828125 0.5625 1.90625q0 1.0625 -0.609375 2.015625q-0.609375 0.9375 -1.75 1.46875q-1.140625 0.515625 -2.578125 0.515625q-1.8125 0 -3.046875 -0.53125q-1.21875 -0.53125 -1.921875 -1.59375q-0.6875 -1.0625 -0.71875 -2.40625z" fill-rule="nonzero"/><path fill="#000000" fill-opacity="0.0" d="m152.95259 115.3533l11.63942 14.174469l11.883926 -14.473106" fill-rule="evenodd"/><path stroke="#19768a" stroke-width="2.0" stroke-linejoin="round" stroke-linecap="butt" d="m152.95259 115.3533l11.63942 14.174469l11.883926 -14.473106" fill-rule="evenodd"/><path fill="#000000" fill-opacity="0.0" d="m164.26378 129.83858l0 90.14174" fill-rule="evenodd"/><path stroke="#19768a" stroke-width="2.0" stroke-linejoin="round" stroke-linecap="butt" d="m164.26378 129.83858l0 90.14174" fill-rule="evenodd"/><path fill="#000000" fill-opacity="0.0" d="m303.59448 111.11942c3.7410278 11.351707 19.250671 50.21653 22.446198 68.11024c3.1955261 17.893692 -2.727478 32.709976 -3.2729492 39.25197" fill-rule="evenodd"/><path stroke="#92e1e6" stroke-width="2.0" stroke-linejoin="round" stroke-linecap="butt" d="m303.59448 111.11942c3.7410278 11.351707 19.250671 50.21653 22.446198 68.11024c3.1955261 17.893692 -2.727478 32.709976 -3.2729492 39.25197" fill-rule="evenodd"/><path fill="#ffffff" fill-opacity="0.7468" d="m-5.1627297 -1.191601l472.59842 0l0 282.36218l-472.59842 0z" fill-rule="evenodd"/><path fill="#eeff41" d="m202.7454 107.76509l30.236221 0l0 36.283463l-30.236221 0z" fill-rule="evenodd"/><path fill="#eeff41" d="m75.161415 44.458004l30.236221 0l0 36.283466l-30.236221 0z" fill-rule="evenodd"/><path fill="#eeff41" d="m288.45276 44.458004l30.236206 0l0 36.283466l-30.236206 0z" fill-rule="evenodd"/><path fill="#eeff41" d="m202.06824 13.166667l30.236221 0l0 36.283463l-30.236221 0z" fill-rule="evenodd"/><path fill="#eeff41" d="m203.2979 56.913387l30.236221 0l0 39.842518l-30.236221 0z" fill-rule="evenodd"/><path fill="#000000" fill-opacity="0.0" d="m389.6524 41.59186l60.251953 0l0 42.01575l-60.251953 0z" fill-rule="evenodd"/><path fill="#000000" d="m399.80865 72.23061l-0.1875 -1.53125q0.546875 0.140625 0.9375 0.140625q0.546875 0 0.875 -0.1875q0.328125 -0.171875 0.546875 -0.5q0.15625 -0.25 0.5 -1.21875q0.046875 -0.140625 0.140625 -0.40625l-3.671875 -9.687504l1.765625 0l2.015625 5.593754q0.390625 1.078125 0.703125 2.25q0.28125 -1.125 0.671875 -2.203125l2.078125 -5.640629l1.640625 0l-3.6875 9.828129q-0.59375 1.609375 -0.921875 2.203125q-0.4375 0.8125 -1.0 1.1875q-0.5625 0.375 -1.34375 0.375q-0.484375 0 -1.0625 -0.203125zm12.53125 0.203125q-1.359375 -1.703125 -2.296875 -4.0q-0.9375 -2.296875 -0.9375 -4.765629q0 -2.15625 0.703125 -4.140625q0.828125 -2.3125 2.53125 -4.59375l1.171875 0q-1.09375 1.890625 -1.453125 2.703125q-0.546875 1.25 -0.875 2.625q-0.390625 1.703125 -0.390625 3.421875q0 4.375004 2.71875 8.750004l-1.171875 0zm6.665802 -5.390625l0.234375 1.453125q-0.6875 0.140625 -1.234375 0.140625q-0.890625 0 -1.390625 -0.28125q-0.484375 -0.28125 -0.6875 -0.734375q-0.203125 -0.46875 -0.203125 -1.9375l0 -5.578129l-1.203125 0l0 -1.265625l1.203125 0l0 -2.390625l1.625 -0.984375l0 3.375l1.65625 0l0 1.265625l-1.65625 0l0 5.671879q0 0.6875 0.078125 0.890625q0.09375 0.203125 0.28125 0.328125q0.203125 0.109375 0.578125 0.109375q0.265625 0 0.71875 -0.0625zm2.6832886 5.390625l-1.1875 0q2.734375 -4.375 2.734375 -8.750004q0 -1.71875 -0.390625 -3.390625q-0.3125 -1.375 -0.875 -2.625q-0.359375 -0.828125 -1.46875 -2.734375l1.1875 0q1.703125 2.28125 2.53125 4.59375q0.6875 1.984375 0.6875 4.140625q0 2.4687538 -0.9375 4.765629q-0.9375 2.296875 -2.28125 4.0z" fill-rule="nonzero"/><path fill="#000000" fill-opacity="0.0" d="m3.9576294 41.59186l60.251965 0l0 42.01575l-60.251965 0z" fill-rule="evenodd"/><path fill="#000000" d="m20.52013 68.51186l0 -1.421875q-1.125 1.640625 -3.0625 1.640625q-0.859375 0 -1.609376 -0.328125q-0.734375 -0.328125 -1.09375 -0.828125q-0.359375 -0.5 -0.5 -1.21875q-0.109375 -0.46875 -0.109375 -1.53125l0 -5.984379l1.640625 0l0 5.359379q0 1.28125 0.109375 1.734375q0.15625095 0.640625 0.65625095 1.015625q0.5 0.375 1.234375 0.375q0.734375 0 1.375 -0.375q0.65625 -0.390625 0.921875 -1.03125q0.265625 -0.65625 0.265625 -1.890625l0 -5.187504l1.640625 0l0 9.671879l-1.46875 0zm7.172592 3.921875q-1.359375 -1.703125 -2.296875 -4.0q-0.9375 -2.296875 -0.9375 -4.765629q0 -2.15625 0.703125 -4.140625q0.828125 -2.3125 2.53125 -4.59375l1.171875 0q-1.09375 1.890625 -1.453125 2.703125q-0.546875 1.25 -0.875 2.625q-0.390625 1.703125 -0.390625 3.421875q0 4.375004 2.71875 8.750004l-1.171875 0zm6.665802 -5.390625l0.234375 1.453125q-0.6875 0.140625 -1.234375 0.140625q-0.890625 0 -1.390625 -0.28125q-0.484375 -0.28125 -0.6875 -0.734375q-0.203125 -0.46875 -0.203125 -1.9375l0 -5.578129l-1.203125 0l0 -1.265625l1.203125 0l0 -2.390625l1.625 -0.984375l0 3.375l1.65625 0l0 1.265625l-1.65625 0l0 5.671879q0 0.6875 0.078125 0.890625q0.09375 0.203125 0.28125 0.328125q0.203125 0.109375 0.578125 0.109375q0.265625 0 0.71875 -0.0625zm2.6833038 5.390625l-1.1875 0q2.734375 -4.375 2.734375 -8.750004q0 -1.71875 -0.390625 -3.390625q-0.3125 -1.375 -0.875 -2.625q-0.359375 -0.828125 -1.46875 -2.734375l1.1875 0q1.703125 2.28125 2.53125 4.59375q0.6875 1.984375 0.6875 4.140625q0 2.4687538 -0.9375 4.765629q-0.9375 2.296875 -2.28125 4.0z" fill-rule="nonzero"/><path fill="#000000" fill-opacity="0.0" d="m203.2979 49.59186l26.236221 0l0 58.17323l-26.236221 0z" fill-rule="evenodd"/><path fill="#000000" d="m215.43852 74.49937l0.265625 -8.296875q0.140625 -2.3906288 0.78125 -3.9687538q0.421875 -1.015625 1.15625 -1.515625q0.75 -0.515625 1.453125 -0.515625q0.78125 0 1.359375 0.53125q0.59375 0.515625 0.59375 1.140625q0 0.734375 -0.421875 1.1875q-0.40625 0.4375 -1.015625 0.4375q-0.546875 0 -1.1875 -0.5625q-0.359375 -0.3125 -0.625 -0.3125q-0.265625 0 -0.453125 0.234375q-0.171875 0.21875 -0.171875 0.765625q0 0.6562538 0.140625 2.2656288q0.578125 6.40625 0.578125 10.390625q0 1.046875 -0.25 9.1875q-0.125 4.609375 -1.40625 6.234375q-0.84375 1.046875 -2.09375 1.046875q-0.8125 0 -1.328125 -0.53125q-0.515625 -0.53125 -0.515625 -1.359375q0 -0.703125 0.390625 -1.125q0.40625 -0.421875 1.015625 -0.421875q0.625 0 1.078125 0.5q0.453125 0.5 0.765625 0.5q0.265625 0 0.4375 -0.21875q0.171875 -0.21875 0.171875 -0.734375q0 -0.65625 -0.140625 -1.875q-0.578125 -4.921875 -0.578125 -12.984375z" fill-rule="nonzero"/><path fill="#000000" fill-opacity="0.0" d="m155.95932 25.591864l48.913376 0l0 42.015747l-48.913376 0z" fill-rule="evenodd"/><path fill="#000000" fill-opacity="0.0" d="m164.95932 35.622852l9.328125 0l0 21.452866l-9.328125 0l0 -21.452866z" fill-rule="nonzero"/><path fill="#000000" d="m165.09995 52.51186l3.53125 -5.03125l-3.265625 -4.640625l2.046875 0l1.484375 2.265625q0.421875 0.640625 0.671875 1.078125q0.40625 -0.59375 0.734375 -1.0625l1.640625 -2.28125l1.953125 0l-3.34375 4.546875l3.59375 5.125l-2.015625 0l-1.984375 -3.0l-0.515625 -0.8125l-2.546875 3.8125l-1.984375 0zm3.5 -10.875l0 -2.046875l2.03125 0l0 2.046875l-2.03125 0z" fill-rule="nonzero"/><path fill="#000000" d="m178.64682 56.433735q-1.359375 -1.703125 -2.296875 -4.0q-0.9375 -2.296875 -0.9375 -4.765625q0 -2.15625 0.703125 -4.140625q0.828125 -2.3125 2.53125 -4.59375l1.171875 0q-1.09375 1.890625 -1.453125 2.703125q-0.546875 1.25 -0.875 2.625q-0.390625 1.703125 -0.390625 3.421875q0 4.375 2.71875 8.75l-1.171875 0zm6.665802 -5.390625l0.234375 1.453125q-0.6875 0.140625 -1.234375 0.140625q-0.890625 0 -1.390625 -0.28125q-0.484375 -0.28125 -0.6875 -0.734375q-0.203125 -0.46875 -0.203125 -1.9375l0 -5.578125l-1.203125 0l0 -1.265625l1.203125 0l0 -2.390625l1.625 -0.984375l0 3.375l1.65625 0l0 1.265625l-1.65625 0l0 5.671875q0 0.6875 0.078125 0.890625q0.09375 0.203125 0.28125 0.328125q0.203125 0.109375 0.578125 0.109375q0.265625 0 0.71875 -0.0625zm2.6833038 5.390625l-1.1875 0q2.734375 -4.375 2.734375 -8.75q0 -1.71875 -0.390625 -3.390625q-0.3125 -1.375 -0.875 -2.625q-0.359375 -0.828125 -1.46875 -2.734375l1.1875 0q1.703125 2.28125 2.53125 4.59375q0.6875 1.984375 0.6875 4.140625q0 2.46875 -0.9375 4.765625q-0.9375 2.296875 -2.28125 4.0z" fill-rule="nonzero"/><path fill="#000000" d="m164.95932 53.725197l9.328125 0l0 1.6799965l-9.328125 0l0 -1.6799965z" fill-rule="nonzero"/><path fill="#000000" fill-opacity="0.0" d="m235.95932 25.591864l48.91339 0l0 42.015747l-48.91339 0z" fill-rule="evenodd"/><path fill="#000000" fill-opacity="0.0" d="m244.95932 35.622852l9.328125 0l0 21.452866l-9.328125 0l0 -21.452866z" fill-rule="nonzero"/><path fill="#000000" d="m245.09995 52.51186l3.53125 -5.03125l-3.265625 -4.640625l2.046875 0l1.484375 2.265625q0.421875 0.640625 0.671875 1.078125q0.40625 -0.59375 0.734375 -1.0625l1.640625 -2.28125l1.953125 0l-3.34375 4.546875l3.59375 5.125l-2.015625 0l-1.984375 -3.0l-0.515625 -0.8125l-2.546875 3.8125l-1.984375 0z" fill-rule="nonzero"/><path fill="#000000" d="m258.64682 56.433735q-1.359375 -1.703125 -2.296875 -4.0q-0.9375 -2.296875 -0.9375 -4.765625q0 -2.15625 0.703125 -4.140625q0.828125 -2.3125 2.53125 -4.59375l1.171875 0q-1.09375 1.890625 -1.453125 2.703125q-0.546875 1.25 -0.875 2.625q-0.390625 1.703125 -0.390625 3.421875q0 4.375 2.71875 8.75l-1.171875 0zm6.665802 -5.390625l0.234375 1.453125q-0.6875 0.140625 -1.234375 0.140625q-0.890625 0 -1.390625 -0.28125q-0.484375 -0.28125 -0.6875 -0.734375q-0.203125 -0.46875 -0.203125 -1.9375l0 -5.578125l-1.203125 0l0 -1.265625l1.203125 0l0 -2.390625l1.625 -0.984375l0 3.375l1.65625 0l0 1.265625l-1.65625 0l0 5.671875q0 0.6875 0.078125 0.890625q0.09375 0.203125 0.28125 0.328125q0.203125 0.109375 0.578125 0.109375q0.265625 0 0.71875 -0.0625zm2.6832886 5.390625l-1.1875 0q2.734375 -4.375 2.734375 -8.75q0 -1.71875 -0.390625 -3.390625q-0.3125 -1.375 -0.875 -2.625q-0.359375 -0.828125 -1.46875 -2.734375l1.1875 0q1.703125 2.28125 2.53125 4.59375q0.6875 1.984375 0.6875 4.140625q0 2.46875 -0.9375 4.765625q-0.9375 2.296875 -2.28125 4.0z" fill-rule="nonzero"/><path fill="#000000" d="m244.95932 53.725197l9.328125 0l0 1.6799965l-9.328125 0l0 -1.6799965z" fill-rule="nonzero"/><path fill="#000000" fill-opacity="0.0" d="m199.88583 13.166667l48.913376 0l0 42.015747l-48.913376 0z" fill-rule="evenodd"/><path fill="#000000" fill-opacity="0.0" d="m208.88583 23.197657l13.472946 0l0 21.452868l-13.472946 0l0 -21.452868z" fill-rule="nonzero"/><path fill="#000000" d="m210.32333 40.086666l0 -13.359377l4.609375 0q1.546875 0 2.375 0.203125q1.140625 0.25 1.953125 0.953125q1.0625 0.890625 1.578125 2.28125q0.53125 1.390625 0.53125 3.171877q0 1.515625 -0.359375 2.703125q-0.359375 1.171875 -0.921875 1.9375q-0.546875 0.765625 -1.203125 1.21875q-0.65625 0.4375 -1.59375 0.671875q-0.9375 0.21875 -2.140625 0.21875l-4.828125 0zm1.765625 -1.578125l2.859375 0q1.3125 0 2.0625 -0.234375q0.75 -0.25 1.203125 -0.703125q0.625 -0.625 0.96875 -1.6875q0.359375 -1.0625 0.359375 -2.578125q0 -2.093752 -0.6875 -3.218752q-0.6875 -1.125 -1.671875 -1.5q-0.703125 -0.28125 -2.28125 -0.28125l-2.8125 0l0 10.203127z" fill-rule="nonzero"/><path fill="#000000" d="m208.88583 41.3l13.472946 0l0 1.6800003l-13.472946 0l0 -1.6800003z" fill-rule="nonzero"/><path fill="#000000" fill-opacity="0.0" d="m285.2454 41.59186l37.29135 0l0 42.01575l-37.29135 0z" fill-rule="evenodd"/><path fill="#000000" fill-opacity="0.0" d="m294.2454 51.622852l13.472961 0l0 21.45287l-13.472961 0l0 -21.45287z" fill-rule="nonzero"/><path fill="#000000" d="m305.21414 63.82436l1.765625 0.4531288q-0.5625 2.171875 -2.0 3.328125q-1.4375 1.140625 -3.53125 1.140625q-2.15625 0 -3.515625 -0.875q-1.34375 -0.890625 -2.0625 -2.546875q-0.703125 -1.6718788 -0.703125 -3.5937538q0 -2.078125 0.796875 -3.625q0.796875 -1.5625 2.265625 -2.359375q1.484375 -0.8125 3.25 -0.8125q2.0 0 3.359375 1.015625q1.375 1.015625 1.90625 2.875l-1.734375 0.40625q-0.46875 -1.453125 -1.359375 -2.109375q-0.875 -0.671875 -2.203125 -0.671875q-1.546875 0 -2.578125 0.734375q-1.03125 0.734375 -1.453125 1.984375q-0.421875 1.234375 -0.421875 2.5625q0 1.703125 0.5 2.9687538q0.5 1.265625 1.546875 1.90625q1.046875 0.625 2.265625 0.625q1.484375 0 2.515625 -0.859375q1.03125 -0.859375 1.390625 -2.5468788z" fill-rule="nonzero"/><path fill="#000000" d="m294.2454 69.7252l13.472961 0l0 1.6800003l-13.472961 0l0 -1.6800003z" fill-rule="nonzero"/><path fill="#000000" fill-opacity="0.0" d="m199.88583 100.715225l48.913376 0l0 42.015747l-48.913376 0z" fill-rule="evenodd"/><path fill="#000000" fill-opacity="0.0" d="m208.88583 110.746216l12.443573 0l0 21.452866l-12.443573 0l0 -21.452866z" fill-rule="nonzero"/><path fill="#000000" d="m208.85458 127.63522l5.125 -13.359375l1.90625 0l5.46875 13.359375l-2.015625 0l-1.546875 -4.046875l-5.59375 0l-1.46875 4.046875l-1.875 0zm3.859375 -5.484375l4.53125 0l-1.40625 -3.703125q-0.625 -1.6875 -0.9375 -2.765625q-0.265625 1.28125 -0.71875 2.546875l-1.46875 3.921875z" fill-rule="nonzero"/><path fill="#000000" d="m208.88583 128.84856l12.443573 0l0 1.6799927l-12.443573 0l0 -1.6799927z" fill-rule="nonzero"/><path fill="#000000" fill-opacity="0.0" d="m75.60236 41.59186l26.236221 0l0 42.01575l-26.236221 0z" fill-rule="evenodd"/><path fill="#000000" fill-opacity="0.0" d="m84.60236 51.622852l12.443573 0l0 21.45287l-12.443573 0l0 -21.45287z" fill-rule="nonzero"/><path fill="#000000" d="m85.96174 68.51186l0 -13.359379l5.015625 0q1.53125 0 2.453125 0.40625q0.921875 0.40625 1.4375 1.25q0.53125 0.84375 0.53125 1.765625q0 0.859375 -0.46875 1.625q-0.453125 0.75 -1.390625 1.203125q1.203125 0.359375 1.859375 1.21875q0.65625 0.859375 0.65625 2.0156288q0 0.9375 -0.40625 1.75q-0.390625 0.796875 -0.984375 1.234375q-0.578125 0.4375 -1.453125 0.671875q-0.875 0.21875 -2.15625 0.21875l-5.09375 0zm1.78125 -7.750004l2.875 0q1.1875 0 1.6875 -0.140625q0.671875 -0.203125 1.015625 -0.671875q0.34375 -0.46875 0.34375 -1.171875q0 -0.65625 -0.328125 -1.15625q-0.3125 -0.515625 -0.90625 -0.703125q-0.59375 -0.1875 -2.03125 -0.1875l-2.65625 0l0 4.03125zm0 6.171879l3.3125 0q0.859375 0 1.203125 -0.0625q0.609375 -0.109375 1.015625 -0.359375q0.421875 -0.265625 0.6875 -0.75q0.265625 -0.484375 0.265625 -1.125q0 -0.7500038 -0.390625 -1.2968788q-0.375 -0.546875 -1.0625 -0.765625q-0.671875 -0.234375 -1.953125 -0.234375l-3.078125 0l0 4.593754z" fill-rule="nonzero"/><path fill="#000000" d="m84.60236 69.7252l12.443573 0l0 1.6800003l-12.443573 0l0 -1.6800003z" fill-rule="nonzero"/><path fill="#000000" fill-opacity="0.0" d="m41.964565 62.59974l33.19685 0" fill-rule="evenodd"/><path stroke="#000000" stroke-width="1.0" stroke-linejoin="round" stroke-linecap="butt" stroke-dasharray="4.0,3.0" d="m41.964565 62.59974l27.19685 0" fill-rule="evenodd"/><path fill="#000000" stroke="#000000" stroke-width="1.0" stroke-linecap="butt" d="m69.161415 64.25147l4.538101 -1.6517334l-4.538101 -1.6517334z" fill-rule="evenodd"/><path fill="#000000" fill-opacity="0.0" d="m365.5761 62.59974l30.078735 0" fill-rule="evenodd"/><path stroke="#000000" stroke-width="1.0" stroke-linejoin="round" stroke-linecap="butt" stroke-dasharray="4.0,3.0" d="m365.5761 62.59974l24.078735 0" fill-rule="evenodd"/><path fill="#000000" stroke="#000000" stroke-width="1.0" stroke-linecap="butt" d="m389.65485 64.25147l4.5381165 -1.6517334l-4.5381165 -1.6517334z" fill-rule="evenodd"/><path fill="#000000" fill-opacity="0.0" d="m56.371284 62.712597l0 -28.501312l145.70801 0" fill-rule="evenodd"/><path stroke="#000000" stroke-width="1.0" stroke-linejoin="round" stroke-linecap="butt" stroke-dasharray="4.0,3.0" d="m56.371284 62.712597l0 -28.501312l139.70798 0" fill-rule="evenodd"/><path fill="#000000" stroke="#000000" stroke-width="1.0" stroke-linecap="butt" d="m196.07927 35.863018l4.538101 -1.6517334l-4.538101 -1.6517296z" fill-rule="evenodd"/><path fill="#000000" fill-opacity="0.0" d="m232.30577 34.211285l120.46794 0l0 16.740158" fill-rule="evenodd"/><path stroke="#000000" stroke-width="1.0" stroke-linejoin="round" stroke-linecap="butt" stroke-dasharray="4.0,3.0" d="m232.30577 34.211285l120.46794 0l0 10.740158" fill-rule="evenodd"/><path fill="#000000" stroke="#000000" stroke-width="1.0" stroke-linecap="butt" d="m351.12198 44.951443l1.6517334 4.5380974l1.6517334 -4.5380974z" fill-rule="evenodd"/><path fill="#ffffff" d="m341.82285 62.96194l0 0c0 -6.122967 4.963623 -11.086613 11.086609 -11.086613l0 0c2.9403381 0 5.7602844 1.1680489 7.8394165 3.2471924c2.079132 2.0791435 3.2471924 4.8990707 3.2471924 7.8394203l0 0c0 6.122967 -4.9636536 11.086613 -11.086609 11.086613l0 0c-6.122986 0 -11.086609 -4.963646 -11.086609 -11.086613z" fill-rule="evenodd"/><path stroke="#000000" stroke-width="1.0" stroke-linejoin="round" stroke-linecap="butt" d="m341.82285 62.96194l0 0c0 -6.122967 4.963623 -11.086613 11.086609 -11.086613l0 0c2.9403381 0 5.7602844 1.1680489 7.8394165 3.2471924c2.079132 2.0791435 3.2471924 4.8990707 3.2471924 7.8394203l0 0c0 6.122967 -4.9636536 11.086613 -11.086609 11.086613l0 0c-6.122986 0 -11.086609 -4.963646 -11.086609 -11.086613z" fill-rule="evenodd"/><path fill="#000000" fill-opacity="0.0" d="m337.52362 41.954067l30.771667 0l0 42.01575l-30.771667 0z" fill-rule="evenodd"/><path fill="#000000" d="m351.1955 66.71782l0 -3.6718788l-3.640625 0l0 -1.515625l3.640625 0l0 -3.640625l1.546875 0l0 3.640625l3.640625 0l0 1.515625l-3.640625 0l0 3.6718788l-1.546875 0z" fill-rule="nonzero"/><path fill="#ffffff" d="m127.3189 62.59974l0 0c0 -6.1229706 4.963646 -11.0866165 11.0866165 -11.0866165l0 0c2.9403534 0 5.760269 1.1680527 7.8394165 3.2471962c2.0791473 2.0791435 3.2471924 4.899067 3.2471924 7.8394203l0 0c0 6.122963 -4.9636536 11.086609 -11.086609 11.086609l0 0c-6.1229706 0 -11.0866165 -4.963646 -11.0866165 -11.086609z" fill-rule="evenodd"/><path stroke="#000000" stroke-width="1.0" stroke-linejoin="round" stroke-linecap="butt" d="m127.3189 62.59974l0 0c0 -6.1229706 4.963646 -11.0866165 11.0866165 -11.0866165l0 0c2.9403534 0 5.760269 1.1680527 7.8394165 3.2471962c2.0791473 2.0791435 3.2471924 4.899067 3.2471924 7.8394203l0 0c0 6.122963 -4.9636536 11.086609 -11.086609 11.086609l0 0c-6.1229706 0 -11.0866165 -4.963646 -11.0866165 -11.086609z" fill-rule="evenodd"/><path fill="#000000" fill-opacity="0.0" d="m122.78346 41.59186l30.771652 0l0 42.01575l-30.771652 0z" fill-rule="evenodd"/><path fill="#000000" d="m136.45534 66.35561l0 -3.6718788l-3.640625 0l0 -1.515625l3.640625 0l0 -3.640625l1.546875 0l0 3.640625l3.640625 0l0 1.515625l-3.640625 0l0 3.6718788l-1.546875 0z" fill-rule="nonzero"/><path fill="#000000" fill-opacity="0.0" d="m103.50787 62.59974l24.409447 -0.031497955" fill-rule="evenodd"/><path stroke="#000000" stroke-width="1.0" stroke-linejoin="round" stroke-linecap="butt" stroke-dasharray="4.0,3.0" d="m103.50787 62.59974l18.409462 -0.023757935" fill-rule="evenodd"/><path fill="#000000" stroke="#000000" stroke-width="1.0" stroke-linecap="butt" d="m121.91946 64.227715l4.535965 -1.6575851l-4.540222 -1.6458778z" fill-rule="evenodd"/><path fill="#000000" fill-opacity="0.0" d="m153.55511 62.59974l49.385834 0.12598419" fill-rule="evenodd"/><path stroke="#000000" stroke-width="1.0" stroke-linejoin="round" stroke-linecap="butt" stroke-dasharray="4.0,3.0" d="m153.55511 62.59974l43.38585 0.11067581" fill-rule="evenodd"/><path fill="#000000" stroke="#000000" stroke-width="1.0" stroke-linecap="butt" d="m196.93675 64.362144l4.5422974 -1.640152l-4.5338745 -1.6633034z" fill-rule="evenodd"/><path fill="#000000" fill-opacity="0.0" d="m234.88321 62.59974l50.362183 0" fill-rule="evenodd"/><path stroke="#000000" stroke-width="1.0" stroke-linejoin="round" stroke-linecap="butt" stroke-dasharray="4.0,3.0" d="m234.88321 62.59974l44.362183 0" fill-rule="evenodd"/><path fill="#000000" stroke="#000000" stroke-width="1.0" stroke-linecap="butt" d="m279.2454 64.25147l4.5381165 -1.6517334l-4.5381165 -1.6517334z" fill-rule="evenodd"/><path fill="#000000" fill-opacity="0.0" d="m258.1273 62.712597l0 61.52756l-23.976364 0" fill-rule="evenodd"/><path stroke="#000000" stroke-width="1.0" stroke-linejoin="round" stroke-linecap="butt" stroke-dasharray="4.0,3.0" d="m258.1273 62.712597l0 61.52756l-17.976364 0" fill-rule="evenodd"/><path fill="#000000" stroke="#000000" stroke-width="1.0" stroke-linecap="butt" d="m240.15092 122.588425l-4.538101 1.6517334l4.538101 1.6517334z" fill-rule="evenodd"/><path fill="#000000" fill-opacity="0.0" d="m201.57532 124.919945l-64.57532 0l0 -50.897636" fill-rule="evenodd"/><path stroke="#000000" stroke-width="1.0" stroke-linejoin="round" stroke-linecap="butt" stroke-dasharray="4.0,3.0" d="m201.57532 124.919945l-64.57532 0l0 -44.897636" fill-rule="evenodd"/><path fill="#000000" stroke="#000000" stroke-width="1.0" stroke-linecap="butt" d="m138.65173 80.02231l-1.6517334 -4.5380936l-1.6517334 4.5380936z" fill-rule="evenodd"/><path fill="#000000" fill-opacity="0.0" d="m319.69684 62.58399l21.57483 0.37795258" fill-rule="evenodd"/><path stroke="#000000" stroke-width="1.0" stroke-linejoin="round" stroke-linecap="butt" stroke-dasharray="4.0,3.0" d="m319.69684 62.58399l15.575745 0.27285767" fill-rule="evenodd"/><path fill="#000000" stroke="#000000" stroke-width="1.0" stroke-linecap="butt" d="m335.24365 64.50833l4.5663147 -1.5719948l-4.5084534 -1.7309685z" fill-rule="evenodd"/></g></svg>