<svg width="1884" height="917" xmlns="http://www.w3.org/2000/svg" xmlns:xlink="http://www.w3.org/1999/xlink" xml:space="preserve" overflow="hidden"><defs><clipPath id="clip0"><rect x="2204" y="467" width="1884" height="917"/></clipPath><clipPath id="clip1"><rect x="2204" y="467" width="1884" height="917"/></clipPath><clipPath id="clip2"><path d="M2929 650 3475 650 3475 1197 3337.74 1197 3337.74 777.7 3064.23 777.7 3064.23 1197 2929 1197Z" fill-rule="evenodd" clip-rule="evenodd"/></clipPath><clipPath id="clip3"><path d="M2929 650 3043.84 650 3043.84 775.666 3317.35 775.666 3317.35 650 3475 650 3475 1197 3361.39 1197 3361.39 872.999 3025.3 872.999 3025.3 1197 2929 1197Z" fill-rule="evenodd" clip-rule="evenodd"/></clipPath><clipPath id="clip4"><path d="M2929 650 3043.84 650 3043.84 775.666 3068.67 775.666 3068.67 872.257 3337.18 872.257 3337.18 650 3475 650 3475 1197 3334.9 1197 3334.9 978.898 3042.3 978.898 3042.3 1197 2929 1197Z" fill-rule="evenodd" clip-rule="evenodd"/></clipPath><clipPath id="clip5"><path d="M2929 650 3043.84 650 3043.84 775.666 3061.83 775.666 3061.83 978.305 3102.51 978.305 3102.51 1066.31 3323.19 1066.31 3323.19 978.305 3354.42 978.305 3354.42 753.431 3337.18 753.431 3337.18 650 3475 650 3475 1197 2929 1197Z" fill-rule="evenodd" clip-rule="evenodd"/></clipPath><clipPath id="clip6"><path d="M2929 650 3043.84 650 3043.84 775.666 3061.82 775.666 3061.82 978.305 3354.42 978.305 3354.42 753.431 3337.18 753.431 3337.18 650 3475 650 3475 1197 3298.2 1197 3298.2 1066.31 3077.51 1066.31 3077.51 1197 2929 1197Z" fill-rule="evenodd" clip-rule="evenodd"/></clipPath></defs><g clip-path="url(#clip0)" transform="translate(-2204 -467)"><g clip-path="url(#clip1)"><path d="M2206 506.664C2206 485.863 2222.86 469 2243.66 469L2731.34 469C2752.14 469 2769 485.863 2769 506.664L2769 1258.34C2769 1279.14 2752.14 1296 2731.34 1296L2243.66 1296C2222.86 1296 2206 1279.14 2206 1258.34Z" fill="#E4FF64" fill-rule="evenodd" fill-opacity="1"/><text fill="#000000" fill-opacity="1" font-family="Roboto,Roboto_MSFontService,sans-serif" font-style="normal" font-variant="normal" font-weight="400" font-stretch="normal" font-size="37" text-anchor="start" direction="ltr" writing-mode="lr-tb" unicode-bidi="normal" text-decoration="none" transform="matrix(1 0 0 1 2239.49 1351)">Source: Google </text><text fill="#000000" fill-opacity="1" font-family="Roboto,Roboto_MSFontService,sans-serif" font-style="normal" font-variant="normal" font-weight="400" font-stretch="normal" font-size="37" text-anchor="start" direction="ltr" writing-mode="lr-tb" unicode-bidi="normal" text-decoration="none" transform="matrix(1 0 0 1 2498.45 1351)">Ngram</text><text fill="#000000" fill-opacity="1" font-family="Roboto,Roboto_MSFontService,sans-serif" font-style="normal" font-variant="normal" font-weight="400" font-stretch="normal" font-size="37" text-anchor="start" direction="ltr" writing-mode="lr-tb" unicode-bidi="normal" text-decoration="none" transform="matrix(1 0 0 1 2619.33 1351)">Viewer</text><path d="M2416 1169.74C2496.43 1170.55 2525.78 1170.63 2547.03 1151.41 2568.29 1132.19 2570.33 1112.34 2582.39 1054.43 2594.46 996.51 2609.58 857.547 2619.43 803.903 2648.86 690.362 2653.81 637.301 2671 554" stroke="#0D424E" stroke-width="10.3125" stroke-linecap="butt" stroke-linejoin="miter" stroke-miterlimit="8" stroke-opacity="1" fill="none" fill-rule="evenodd"/><text fill="#000000" fill-opacity="1" font-family="Roboto,Roboto_MSFontService,sans-serif" font-style="normal" font-variant="normal" font-weight="400" font-stretch="normal" font-size="37" text-anchor="start" direction="ltr" writing-mode="lr-tb" unicode-bidi="normal" text-decoration="none" transform="matrix(1 0 0 1 2392.13 1245)">2010</text><path d="M2402.5 1111.5 2667.58 1111.5" stroke="#000000" stroke-width="1.14583" stroke-linecap="butt" stroke-linejoin="miter" stroke-miterlimit="8" stroke-dasharray="4.58333 3.4375" stroke-opacity="1" fill="none" fill-rule="evenodd"/><path d="M2402.5 916.5 2667.58 916.5" stroke="#000000" stroke-width="1.14583" stroke-linecap="butt" stroke-linejoin="miter" stroke-miterlimit="8" stroke-dasharray="4.58333 3.4375" stroke-opacity="1" fill="none" fill-rule="evenodd"/><path d="M2402.5 850.5 2667.58 850.5" stroke="#000000" stroke-width="1.14583" stroke-linecap="butt" stroke-linejoin="miter" stroke-miterlimit="8" stroke-dasharray="4.58333 3.4375" stroke-opacity="1" fill="none" fill-rule="evenodd"/><path d="M2402.5 785.5 2667.58 785.5" stroke="#000000" stroke-width="1.14583" stroke-linecap="butt" stroke-linejoin="miter" stroke-miterlimit="8" stroke-dasharray="4.58333 3.4375" stroke-opacity="1" fill="none" fill-rule="evenodd"/><path d="M2402.5 720.5 2667.58 720.5" stroke="#000000" stroke-width="1.14583" stroke-linecap="butt" stroke-linejoin="miter" stroke-miterlimit="8" stroke-dasharray="4.58333 3.4375" stroke-opacity="1" fill="none" fill-rule="evenodd"/><path d="M2402.5 655.5 2667.58 655.5" stroke="#000000" stroke-width="1.14583" stroke-linecap="butt" stroke-linejoin="miter" stroke-miterlimit="8" stroke-dasharray="4.58333 3.4375" stroke-opacity="1" fill="none" fill-rule="evenodd"/><path d="M2402.5 590.5 2667.58 590.5" stroke="#000000" stroke-width="1.14583" stroke-linecap="butt" stroke-linejoin="miter" stroke-miterlimit="8" stroke-dasharray="4.58333 3.4375" stroke-opacity="1" fill="none" fill-rule="evenodd"/><path d="M2402.5 525.5 2667.58 525.5" stroke="#000000" stroke-width="1.14583" stroke-linecap="butt" stroke-linejoin="miter" stroke-miterlimit="8" stroke-dasharray="4.58333 3.4375" stroke-opacity="1" fill="none" fill-rule="evenodd"/><path d="M2402.5 981.5 2667.58 981.5" stroke="#000000" stroke-width="1.14583" stroke-linecap="butt" stroke-linejoin="miter" stroke-miterlimit="8" stroke-dasharray="4.58333 3.4375" stroke-opacity="1" fill="none" fill-rule="evenodd"/><path d="M2402.5 1046.5 2667.58 1046.5" stroke="#000000" stroke-width="1.14583" stroke-linecap="butt" stroke-linejoin="miter" stroke-miterlimit="8" stroke-dasharray="4.58333 3.4375" stroke-opacity="1" fill="none" fill-rule="evenodd"/><path d="M2405.5 1176.5 2667.48 1176.5" stroke="#000000" stroke-width="3.4375" stroke-linecap="butt" stroke-linejoin="miter" stroke-miterlimit="8" stroke-opacity="1" fill="none" fill-rule="evenodd"/><text fill="#000000" fill-opacity="1" font-family="Roboto,Roboto_MSFontService,sans-serif" font-style="normal" font-variant="normal" font-weight="400" font-stretch="normal" font-size="37" text-anchor="start" direction="ltr" writing-mode="lr-tb" unicode-bidi="normal" text-decoration="none" transform="matrix(1 0 0 1 2569.98 1245)">2020</text><path d="M2435.5 1177.5 2435.5 1192.6" stroke="#000000" stroke-width="3.4375" stroke-linecap="butt" stroke-linejoin="miter" stroke-miterlimit="8" stroke-opacity="1" fill="none" fill-rule="evenodd"/><path d="M2611.5 1177.5 2611.5 1192.6" stroke="#000000" stroke-width="3.4375" stroke-linecap="butt" stroke-linejoin="miter" stroke-miterlimit="8" stroke-opacity="1" fill="none" fill-rule="evenodd"/><text fill="#000000" fill-opacity="1" font-family="Roboto,Roboto_MSFontService,sans-serif" font-style="normal" font-variant="normal" font-weight="400" font-stretch="normal" font-size="28" text-anchor="start" direction="ltr" writing-mode="lr-tb" unicode-bidi="normal" text-decoration="none" transform="matrix(1 0 0 1 2355.32 537)">20</text><text fill="#000000" fill-opacity="1" font-family="Roboto,Roboto_MSFontService,sans-serif" font-style="normal" font-variant="normal" font-weight="400" font-stretch="normal" font-size="28" text-anchor="start" direction="ltr" writing-mode="lr-tb" unicode-bidi="normal" text-decoration="none" transform="matrix(1 0 0 1 2355.32 602)">18</text><text fill="#000000" fill-opacity="1" font-family="Roboto,Roboto_MSFontService,sans-serif" font-style="normal" font-variant="normal" font-weight="400" font-stretch="normal" font-size="28" text-anchor="start" direction="ltr" writing-mode="lr-tb" unicode-bidi="normal" text-decoration="none" transform="matrix(1 0 0 1 2355.32 667)">16</text><text fill="#000000" fill-opacity="1" font-family="Roboto,Roboto_MSFontService,sans-serif" font-style="normal" font-variant="normal" font-weight="400" font-stretch="normal" font-size="28" text-anchor="start" direction="ltr" writing-mode="lr-tb" unicode-bidi="normal" text-decoration="none" transform="matrix(1 0 0 1 2355.32 732)">14</text><text fill="#000000" fill-opacity="1" font-family="Roboto,Roboto_MSFontService,sans-serif" font-style="normal" font-variant="normal" font-weight="400" font-stretch="normal" font-size="28" text-anchor="start" direction="ltr" writing-mode="lr-tb" unicode-bidi="normal" text-decoration="none" transform="matrix(1 0 0 1 2355.32 797)">12</text><text fill="#000000" fill-opacity="1" font-family="Roboto,Roboto_MSFontService,sans-serif" font-style="normal" font-variant="normal" font-weight="400" font-stretch="normal" font-size="28" text-anchor="start" direction="ltr" writing-mode="lr-tb" unicode-bidi="normal" text-decoration="none" transform="matrix(1 0 0 1 2355.32 862)">10</text><text fill="#000000" fill-opacity="1" font-family="Roboto,Roboto_MSFontService,sans-serif" font-style="normal" font-variant="normal" font-weight="400" font-stretch="normal" font-size="28" text-anchor="start" direction="ltr" writing-mode="lr-tb" unicode-bidi="normal" text-decoration="none" transform="matrix(1 0 0 1 2366.34 927)">8</text><text fill="#000000" fill-opacity="1" font-family="Roboto,Roboto_MSFontService,sans-serif" font-style="normal" font-variant="normal" font-weight="400" font-stretch="normal" font-size="28" text-anchor="start" direction="ltr" writing-mode="lr-tb" unicode-bidi="normal" text-decoration="none" transform="matrix(1 0 0 1 2366.34 992)">6</text><text fill="#000000" fill-opacity="1" font-family="Roboto,Roboto_MSFontService,sans-serif" font-style="normal" font-variant="normal" font-weight="400" font-stretch="normal" font-size="28" text-anchor="start" direction="ltr" writing-mode="lr-tb" unicode-bidi="normal" text-decoration="none" transform="matrix(1 0 0 1 2366.34 1057)">4</text><text fill="#000000" fill-opacity="1" font-family="Roboto,Roboto_MSFontService,sans-serif" font-style="normal" font-variant="normal" font-weight="400" font-stretch="normal" font-size="28" text-anchor="start" direction="ltr" writing-mode="lr-tb" unicode-bidi="normal" text-decoration="none" transform="matrix(1 0 0 1 2366.34 1122)">2</text><text fill="#000000" fill-opacity="1" font-family="Roboto,Roboto_MSFontService,sans-serif" font-style="normal" font-variant="normal" font-weight="400" font-stretch="normal" font-size="28" text-anchor="start" direction="ltr" writing-mode="lr-tb" unicode-bidi="normal" text-decoration="none" transform="matrix(1 0 0 1 2377.36 1187)">0</text><text fill="#000000" fill-opacity="1" font-family="Roboto,Roboto_MSFontService,sans-serif" font-style="normal" font-variant="normal" font-weight="400" font-stretch="normal" font-size="37" text-anchor="start" direction="ltr" writing-mode="lr-tb" unicode-bidi="normal" text-decoration="none" transform="matrix(-1.83697e-16 -1 1 -1.83697e-16 2313.64 1108)">Mentions per 1 million words</text><path d="M2956 716.504C2956 580.916 3065.92 471 3201.5 471L3201.5 471C3337.09 471 3447.01 580.916 3447.01 716.504L3447.01 1059.5C3447.01 1195.09 3337.09 1305 3201.5 1305L3201.5 1305C3065.92 1305 2956 1195.08 2956 1059.5Z" fill="#E4FF64" fill-rule="evenodd" fill-opacity="1"/><g clip-path="url(#clip2)"><g><g><path d="M318.5 62.5625C318.5 87.6914 298.129 108.062 273 108.062 247.871 108.062 227.5 87.6914 227.5 62.5625 227.5 37.4335 247.871 17.0625 273 17.0625 298.129 17.0625 318.5 37.4335 318.5 62.5625Z" fill="#19768A" fill-rule="nonzero" fill-opacity="1" transform="matrix(1 0 0 1.00183 2929 650)"/><path d="M396.987 296.887 365.137 161.525C364 156.975 361.725 152.425 358.312 149.012 344.662 137.637 328.737 129.675 310.537 123.987 298.025 121.712 285.512 119.437 273 119.437 260.487 119.437 247.975 121.712 235.462 125.125 217.262 129.675 201.337 138.775 187.687 150.15 184.275 153.562 182 158.112 180.862 162.662L149.012 298.025C149.012 299.162 147.875 301.437 147.875 303.712 147.875 316.225 158.112 326.462 170.625 326.462 180.862 326.462 189.962 318.5 192.237 309.4L216.125 210.437 216.125 528.937 261.625 528.937 261.625 324.187 284.375 324.187 284.375 528.937 329.875 528.937 329.875 209.3 353.762 308.262C356.037 317.362 365.137 325.325 375.375 325.325 387.887 325.325 398.125 315.087 398.125 302.575 398.125 300.3 396.987 298.025 396.987 296.887Z" fill="#19768A" fill-rule="nonzero" fill-opacity="1" transform="matrix(1 0 0 1.00183 2929 650)"/></g></g></g><g clip-path="url(#clip3)"><g><g><path d="M318.5 62.5625C318.5 87.6914 298.129 108.062 273 108.062 247.871 108.062 227.5 87.6914 227.5 62.5625 227.5 37.4335 247.871 17.0625 273 17.0625 298.129 17.0625 318.5 37.4335 318.5 62.5625Z" fill="#2EA7AF" fill-rule="nonzero" fill-opacity="1" transform="matrix(1 0 0 1.00183 2929 650)"/><path d="M396.987 296.887 365.137 161.525C364 156.975 361.725 152.425 358.312 149.012 344.662 137.637 328.737 129.675 310.537 123.987 298.025 121.712 285.512 119.437 273 119.437 260.487 119.437 247.975 121.712 235.462 125.125 217.262 129.675 201.337 138.775 187.687 150.15 184.275 153.562 182 158.112 180.862 162.662L149.012 298.025C149.012 299.162 147.875 301.437 147.875 303.712 147.875 316.225 158.112 326.462 170.625 326.462 180.862 326.462 189.962 318.5 192.237 309.4L216.125 210.437 216.125 528.937 261.625 528.937 261.625 324.187 284.375 324.187 284.375 528.937 329.875 528.937 329.875 209.3 353.762 308.262C356.037 317.362 365.137 325.325 375.375 325.325 387.887 325.325 398.125 315.087 398.125 302.575 398.125 300.3 396.987 298.025 396.987 296.887Z" fill="#2EA7AF" fill-rule="nonzero" fill-opacity="1" transform="matrix(1 0 0 1.00183 2929 650)"/></g></g></g><g clip-path="url(#clip4)"><g><g><path d="M318.5 62.5625C318.5 87.6914 298.129 108.062 273 108.062 247.871 108.062 227.5 87.6914 227.5 62.5625 227.5 37.4335 247.871 17.0625 273 17.0625 298.129 17.0625 318.5 37.4335 318.5 62.5625Z" fill="#5DBBC2" fill-rule="nonzero" fill-opacity="1" transform="matrix(1 0 0 1.00183 2929 650)"/><path d="M396.987 296.887 365.137 161.525C364 156.975 361.725 152.425 358.312 149.012 344.662 137.637 328.737 129.675 310.537 123.987 298.025 121.712 285.512 119.437 273 119.437 260.487 119.437 247.975 121.712 235.462 125.125 217.262 129.675 201.337 138.775 187.687 150.15 184.275 153.562 182 158.112 180.862 162.662L149.012 298.025C149.012 299.162 147.875 301.437 147.875 303.712 147.875 316.225 158.112 326.462 170.625 326.462 180.862 326.462 189.962 318.5 192.237 309.4L216.125 210.437 216.125 528.937 261.625 528.937 261.625 324.187 284.375 324.187 284.375 528.937 329.875 528.937 329.875 209.3 353.762 308.262C356.037 317.362 365.137 325.325 375.375 325.325 387.887 325.325 398.125 315.087 398.125 302.575 398.125 300.3 396.987 298.025 396.987 296.887Z" fill="#5DBBC2" fill-rule="nonzero" fill-opacity="1" transform="matrix(1 0 0 1.00183 2929 650)"/></g></g></g><g clip-path="url(#clip5)"><g><g><path d="M318.5 62.5625C318.5 87.6914 298.129 108.062 273 108.062 247.871 108.062 227.5 87.6914 227.5 62.5625 227.5 37.4335 247.871 17.0625 273 17.0625 298.129 17.0625 318.5 37.4335 318.5 62.5625Z" fill="#8ECED4" fill-rule="nonzero" fill-opacity="1" transform="matrix(1 0 0 1.00183 2929 650)"/><path d="M396.987 296.887 365.137 161.525C364 156.975 361.725 152.425 358.312 149.012 344.662 137.637 328.737 129.675 310.537 123.987 298.025 121.712 285.512 119.437 273 119.437 260.487 119.437 247.975 121.712 235.462 125.125 217.262 129.675 201.337 138.775 187.687 150.15 184.275 153.562 182 158.112 180.862 162.662L149.012 298.025C149.012 299.162 147.875 301.437 147.875 303.712 147.875 316.225 158.112 326.462 170.625 326.462 180.862 326.462 189.962 318.5 192.237 309.4L216.125 210.437 216.125 528.937 261.625 528.937 261.625 324.187 284.375 324.187 284.375 528.937 329.875 528.937 329.875 209.3 353.762 308.262C356.037 317.362 365.137 325.325 375.375 325.325 387.887 325.325 398.125 315.087 398.125 302.575 398.125 300.3 396.987 298.025 396.987 296.887Z" fill="#8ECED4" fill-rule="nonzero" fill-opacity="1" transform="matrix(1 0 0 1.00183 2929 650)"/></g></g></g><g clip-path="url(#clip6)"><g><g><path d="M318.5 62.5625C318.5 87.6914 298.129 108.062 273 108.062 247.871 108.062 227.5 87.6914 227.5 62.5625 227.5 37.4335 247.871 17.0625 273 17.0625 298.129 17.0625 318.5 37.4335 318.5 62.5625Z" fill="#77C6CC" fill-rule="nonzero" fill-opacity="1" transform="matrix(1 0 0 1.00183 2929 650)"/><path d="M396.987 296.887 365.137 161.525C364 156.975 361.725 152.425 358.312 149.012 344.662 137.637 328.737 129.675 310.537 123.987 298.025 121.712 285.512 119.437 273 119.437 260.487 119.437 247.975 121.712 235.462 125.125 217.262 129.675 201.337 138.775 187.687 150.15 184.275 153.562 182 158.112 180.862 162.662L149.012 298.025C149.012 299.162 147.875 301.437 147.875 303.712 147.875 316.225 158.112 326.462 170.625 326.462 180.862 326.462 189.962 318.5 192.237 309.4L216.125 210.437 216.125 528.937 261.625 528.937 261.625 324.187 284.375 324.187 284.375 528.937 329.875 528.937 329.875 209.3 353.762 308.262C356.037 317.362 365.137 325.325 375.375 325.325 387.887 325.325 398.125 315.087 398.125 302.575 398.125 300.3 396.987 298.025 396.987 296.887Z" fill="#77C6CC" fill-rule="nonzero" fill-opacity="1" transform="matrix(1 0 0 1.00183 2929 650)"/></g></g></g><path d="M26.1212 44.5254C33.1419 57.0797 42.1684 66.8219 40.7642 76.3163 38.9589 88.4658 49.7907 97.3753 49.2558 106.825 48.7211 116.274 51.1282 124.914 52.1977 129.234 53.2675 133.554 57.2793 134.364 57.4576 132.204 57.6362 130.044 57.5468 112.765 57.5468 112.765 57.0121 108.175 59.4192 108.715 59.4192 108.715 60.7562 110.605 63.1633 119.784 64.2331 128.424 65.3032 137.063 69.5824 142.733 72.2567 141.923 74.9312 141.113 73.5942 135.444 73.5942 135.444 73.0593 128.964 69.3147 114.655 67.9108 111.685 66.5066 108.715 69.3147 108.445 69.3147 108.445 72.7918 112.225 81.0829 128.154 82.1527 132.744 83.2223 137.333 85.6293 141.383 88.4599 140.573 91.2905 139.763 90.176 137.873 90.176 137.873 90.176 134.094 88.0366 127.614 86.6991 122.214 85.3621 116.814 76.5359 104.395 76.2687 102.775 76.001 101.155 77.8734 100.885 79.2105 102.235 80.548 103.585 91.7807 115.734 94.4555 119.514 97.13 123.294 101.142 129.234 103.816 127.614 106.491 125.994 104.351 123.564 104.351 123.564 103.281 118.434 85.3621 92.2456 82.4199 89.8157 79.4781 87.3858 81.0829 86.8458 82.1527 87.1158 83.2223 87.3858 91.5133 88.7357 94.9902 90.3557 98.467 91.9756 103.281 95.2154 106.758 94.4055 110.235 93.5955 108.63 90.8956 108.63 90.8956 107.293 89.8157 99.5371 84.416 95.5253 81.1761 91.5133 77.9363 86.4319 74.1564 81.3503 71.9966 76.2687 69.8367 70.3623 63.9194 67.9777 60.1171 59.9539 47.3377 50.9721 21.5314 46.9825 3.41984 46.7373 2.27233 46.4699 1.12506 46.2024 0L0 0C7.68921 17.7743 20.1481 33.8608 26.1212 44.5254Z" fill="#209CA6" fill-rule="evenodd" fill-opacity="0.501961" transform="matrix(-1 0 0 1 3606 817)"/><path d="M12.2675 62.6868C15.9817 78.4369 15.4 76.6196 14.5945 86.7158 13.789 96.8122 11.5739 104.283 12.4912 116.601 13.4085 128.918 14.393 123.668 13.5875 130.938 12.782 138.207 11.5739 144.668 13.5875 147.092 15.6013 149.515 17.011 151.13 20.0317 155.774 23.0521 160.419 30.5029 160.419 33.1209 160.912 35.7387 161.406 38.9607 159.611 40.9746 160.621 42.9882 161.63 52.05 159.813 53.2583 159.409 54.4664 159.005 61.9175 158.399 63.5285 158.399 65.1394 158.399 67.3544 155.572 66.9518 153.149 66.5489 150.726 57.2858 146.082 53.661 142.447 50.0363 138.813 45.2034 113.168 45.4047 102.466 45.606 91.7638 53.0568 63.8982 56.4803 40.8788 58.5388 26.9908 57.5989 12.9009 56.0105 0L0.0956071 0C-1.06789 35.2249 8.70988 47.5647 12.2675 62.6868Z" fill="#209CA6" fill-rule="evenodd" fill-opacity="0.501961" transform="matrix(-1 0 0 1 3702 1116)"/><path d="M10.6767 40.8772C14.1511 63.8956 21.7131 91.7601 21.9174 102.462 22.122 113.163 17.2169 138.807 13.5379 142.441 9.85915 146.076 0.457517 150.72 0.0488749 153.143-0.360006 155.566 1.88824 158.393 3.52329 158.393 5.15833 158.393 12.7204 158.999 13.9468 159.402 15.1729 159.806 24.37 161.624 26.4139 160.614 28.4576 159.605 31.7277 161.422 34.3848 160.906 37.0417 160.412 44.6038 160.412 47.6695 155.768 50.7353 151.124 52.1658 149.509 54.2097 147.086 56.2534 144.663 55.0272 138.201 54.2097 130.932 53.3922 123.663 54.3914 128.913 55.3224 116.596 56.2534 104.279 54.0054 96.8082 53.1879 86.7122 52.3703 76.6165 51.7798 78.4336 55.5496 62.6842 59.1601 47.5627 69.0841 35.2235 67.9033 0L11.1535 0C9.51845 12.9003 8.56456 26.9897 10.6767 40.8772Z" fill="#209CA6" fill-rule="evenodd" fill-opacity="0.501961" transform="matrix(-1 0 0 1 3793 1116)"/><path d="M65.3089 90.9949C67.2204 71.0941 69.6493 49.3839 68.8397 34.3074 68.5698 29.3713 68.435 15.6126 68.7497 0L0 0C0.0675269 1.13917 0.134818 2.25583 0.224775 3.35045 2.65385 31.292 13.7859 48.7808 16.2147 66.8725 18.6436 84.9644 14.7978 107.881 12.3692 125.571 11.4021 132.584 10.0528 140.535 8.99572 149L65.1965 149C65.1514 147.526 65.0839 146.03 64.9939 144.466 62.7677 105.87 63.3749 110.896 65.3089 90.9949Z" fill="#209CA6" fill-rule="evenodd" fill-opacity="0.596078" transform="matrix(-1 0 0 1 3791 967)"/><path d="M271.36 56.3078C267.333 47.5746 265.32 17.0196 261.674 0L46.3488 0C42.7025 16.9973 40.6671 47.5971 36.6405 56.3526 32.2115 66.0016 22.548 95.3503 16.911 103.793 11.5648 111.789 4.80941 128.787 0 149L46.3711 149C47.7132 145.896 48.9436 142.769 49.9278 139.575 49.9278 139.575 53.753 129.323 56.9741 112.236 60.1953 95.1494 76.0995 75.2484 79.3209 58.9658 79.3209 58.9658 79.4773 59.4348 79.7234 60.2837 81.5578 66.1803 88.8947 89.7889 91.1764 97.3159 93.7935 105.96 95.0016 126.665 95.2029 138.123 95.2477 140.312 95.0239 144.153 94.5988 149L213.357 149C212.954 144.153 212.73 140.312 212.753 138.123 212.954 126.665 214.162 105.96 216.779 97.3159 219.06 89.7666 226.442 66.0684 228.254 60.2389 228.523 59.3903 228.657 58.921 228.657 58.921 231.878 75.2038 247.782 95.1046 251.004 112.191 254.225 129.278 258.05 139.53 258.05 139.53 259.056 142.724 260.264 145.896 261.629 149L308 149C303.191 128.764 296.413 111.745 291.067 103.749 285.43 95.3058 275.766 65.9568 271.337 56.3078Z" fill="#209CA6" fill-rule="evenodd" fill-opacity="0.898039" transform="matrix(-1 0 0 1 3868 668)"/><path d="M214.811 156.133C210.369 140.791 189.368 132.717 183.31 132.313 183.063 132.313 182.794 132.246 182.502 132.179 175.12 130.609 149.206 114.886 144.539 113.338 139.693 111.723 135.25 103.649 135.25 103.649L132.827 95.1707 132.737 93.6902C136.147 94.2285 141.061 95.1257 144.225 95.0584 149.251 94.9686 151.315 89.3839 151.045 86.2662 150.776 83.1487 149.43 80.8832 150.103 80.5917 150.776 80.3001 153.132 79.56 153.783 78.4161 154.456 77.2721 152.93 75.2984 152.93 75.2984L155.017 74.3565 154.344 66.3268C154.344 66.3268 159.549 66.7977 160.873 65.5643 162.197 64.3306 159.93 60.5402 159.93 60.5402 158.696 58.6561 153.222 54.5739 155.668 43.2249 158.136 31.8757 154.411 23.0387 154.411 23.0387 150.888 15.48 140.029 5.38698 121.092 0.83382 102.178-3.71934 83.7346 11.1736 78.6864 26.0665 73.6382 40.9594 79.2025 55.5832 82.4782 63.6576 85.7541 71.7321 82.4782 89.1371 82.4782 89.1371L80.7056 103.671C80.7056 103.671 76.2632 111.746 71.4168 113.36 66.6602 114.953 39.8256 131.259 33.0496 132.291L33.0496 132.336C32.915 132.336 32.7803 132.38 32.6682 132.403 26.6103 132.807 5.60935 140.881 1.16672 156.223 0.762974 157.636 0.358991 159.251 0 161L216 161C215.619 159.228 215.237 157.613 214.811 156.178Z" fill="#19768A" fill-rule="evenodd" fill-opacity="1" transform="matrix(-1 0 0 1 3822 507)"/><path d="M62.005 3.46386C58.0163 21.5473 49.0361 47.3676 41.0142 60.1432 38.6298 63.9443 32.7248 69.8595 27.6442 72.0189 22.5637 74.1781 17.4831 77.9567 13.4721 81.1956 9.46117 84.4344 1.70662 89.8324 0.369632 90.9118 0.369632 90.9118-1.23476 93.611 2.24142 94.4207 5.7176 95.2305 10.5308 91.9916 14.0069 90.3722 17.4831 88.7528 25.7725 87.4033 26.8421 87.1334 27.9116 86.8635 29.516 87.4033 26.5747 89.8324 23.6333 92.2615 5.7176 118.442 4.648 123.57 4.648 123.57 2.50882 125.999 5.1828 127.619 7.85678 129.238 11.8678 123.3 14.5417 119.522 17.2157 115.743 28.4464 103.597 29.7834 102.248 31.1204 100.898 32.9922 101.168 32.7248 102.788 32.4574 104.407 23.6333 116.823 22.2963 122.221 20.9593 127.619 18.8201 134.096 18.8201 137.875 18.8201 137.875 17.7061 139.764 20.5359 140.574 23.3659 141.384 25.7725 137.335 26.8421 132.747 27.9116 128.158 36.201 112.234 39.6772 108.456 39.6772 108.456 42.4625 108.726 41.0811 111.694 39.6772 114.663 35.9336 128.968 35.3988 135.446 35.3988 135.446 34.0618 141.114 36.7358 141.923 39.4098 142.733 43.6881 137.065 44.7577 128.428 45.8273 119.792 48.2339 110.615 49.5709 108.726 49.5709 108.726 51.9775 108.186 51.4427 112.774 51.4427 112.774 51.3313 130.048 51.5318 132.207 51.7101 134.366 55.7433 133.557 56.7906 129.238 57.8602 124.92 60.2668 116.283 59.732 106.836 59.1972 97.3897 70.027 88.4829 68.2219 76.3373 66.8182 66.8457 75.8428 57.1068 82.8621 44.5562 88.834 33.8726 101.313 17.7687 109 0L62.8072 0C62.5398 1.14714 62.2724 2.29428 62.005 3.46386Z" fill="#209CA6" fill-rule="evenodd" fill-opacity="0.501961" transform="matrix(-1 0 0 1 3931 817)"/><path d="M0.160082 34.3074C-0.649537 49.3839 1.77932 71.0941 3.69086 90.9949 5.6024 110.896 6.2321 105.87 4.00583 144.466 3.91587 146.03 3.84835 147.526 3.80325 149L60.0043 149C58.9473 140.535 57.5979 132.584 56.631 125.571 54.2022 107.881 50.3564 84.9644 52.7853 66.8725 55.2141 48.7808 66.3465 31.292 68.7753 3.35045 68.8653 2.25583 68.9328 1.13917 69.0001 0L0.969701 0C0.969701 15.5901 0.429955 29.3713 0.160082 34.3074Z" fill="#209CA6" fill-rule="evenodd" fill-opacity="0.596078" transform="matrix(-1 0 0 1 3706 967)"/><path d="M8.90179 68.9852C6.76875 79.8681-1.33654 121.781 0.190227 150L68.8274 150C69.3887 121.961 71.4319 88.0079 77.0001 88.0079 84.3869 88.0079 85.9137 121.961 85.8913 150L153.81 150C155.337 121.781 147.231 79.8681 145.098 68.9852 143.302 59.8111 138.318 20.709 136.612 0L17.4111 0C15.6823 20.709 10.7204 59.8111 8.92418 68.9852Z" fill="#209CA6" fill-rule="evenodd" fill-opacity="0.701961" transform="matrix(-1 0 0 1 3791 817)"/><path d="M105 52.5002C105 81.4949 81.4947 105 52.4998 105 23.5051 105 0 81.4949 0 52.5002 0 23.5051 23.5051 0 52.4998 0 81.4947 0 105 23.5051 105 52.5002Z" fill="#E4FF63" fill-rule="evenodd" fill-opacity="1" transform="matrix(-1 0 0 1 4010 1005)"/><path d="M17.5695 72.8045 46.5509 17.3869C49.4581 18.4653 52.7743 17.2491 54.2732 14.4037 55.8859 11.3057 54.7274 7.45059 51.6614 5.82151 50.0714 4.97228 48.2999 4.88049 46.7099 5.43122 46.8463 3.48076 45.8696 1.55319 44.0526 0.589282 41.5996-0.718654 38.556 0.222366 37.2614 2.70067 35.9669 5.17874 36.898 8.2538 39.351 9.56174 39.4645 9.60775 39.5783 9.67665 39.6691 9.72243L9.98357 66.4942C6.6674 64.7271 2.53381 66.0121 0.784989 69.3625-0.964067 72.7127 0.307843 76.8892 3.62402 78.6561 5.94059 79.8954 8.62081 79.6429 10.6422 78.2432 10.9603 79.5511 11.8006 80.7444 13.0725 81.4327 15.4346 82.6948 18.3418 81.777 19.5682 79.4133 20.8175 77.0497 19.909 74.1124 17.5468 72.8505Z" fill="#19768A" fill-rule="evenodd" fill-opacity="1" transform="matrix(-1 0 0 1 3987 1017)"/><path d="M105 52.5C105 81.4947 81.4952 105 52.5001 105 23.5052 105 0 81.4947 0 52.5 0 23.5051 23.5052 0 52.5001 0 81.4952 0 105 23.5051 105 52.5Z" fill="#E4FF63" fill-rule="evenodd" fill-opacity="1" transform="matrix(-1 0 0 1 3953 506)"/><path d="M71.6559 23.9377C70.3334 17.019 64.9529 11.5828 59.39 7.17998 58.159 6.214 56.905 5.24826 55.5598 4.43958 48.1275-0.0981072 38.8255-0.0981072 30.0708 0.0367902 27.9505 0.0591945 25.8301 0.104003 23.7783 0.643121 21.7035 1.20488 19.7884 2.23807 17.9191 3.2939 12.8121 6.14679 7.56826 9.17915 4.10284 13.8741 1.82295 16.9291 0.43228 20.6131 0.090238 24.3869-0.388478 29.8453 0.888257 36.809 7.54552 37.73 9.00465 37.9321 10.5093 37.7524 11.9684 37.8422 16.0494 38.067 19.72 40.2683 23.4135 41.9981 27.1068 43.7277 31.4615 45.0305 35.2232 43.4358 36.4545 42.919 37.8908 42.1328 38.9622 42.874 39.5778 43.3009 39.8059 44.0647 40.0111 44.7836 41.2651 49.1189 43.1572 53.2969 45.5967 57.1158 46.2808 58.194 47.4891 59.4069 48.6746 58.8678 49.7462 58.3962 49.769 56.9361 49.6321 55.7904 49.3585 53.5441 49.1079 51.2978 48.8343 49.0739 53.2117 48.4675 58.1362 47.2096 60.2337 43.3683 60.8491 42.245 61.1911 40.9423 62.1031 40.0214 64.4969 37.5727 69.718 38.8981 71.1772 35.8207 71.4735 35.2141 71.5419 34.5403 71.6102 33.8663 71.9522 30.5642 72.2715 27.1948 71.6331 23.9377ZM55.993 5.63008C56.3578 5.65248 56.6314 5.94444 56.6086 6.30386 56.6086 6.57342 56.6086 6.86561 56.6541 7.13517 57.1101 7.26983 57.589 7.42714 58.045 7.60684 58.2274 7.67429 58.5465 7.78655 58.7746 8.07851 58.934 8.30326 58.9797 8.55018 59.0025 8.70748L59.0025 8.81974C59.0937 9.13434 59.5269 9.4039 59.9371 9.67346L60.0968 9.76331C61.0088 10.3248 61.8068 11.0887 62.4224 11.9646 63.0835 12.9082 63.3571 13.8067 63.2202 14.6378 63.0378 15.8059 62.1258 16.6145 61.2139 17.3334 61.0999 17.4232 60.9633 17.4683 60.8036 17.4683 60.6212 17.4683 60.4161 17.3784 60.3019 17.2211 60.0741 16.9515 60.1195 16.5471 60.3931 16.3226 61.1457 15.7384 61.8068 15.1545 61.9207 14.4133 61.9892 13.919 61.8068 13.3124 61.3281 12.661 60.8036 11.9198 60.1425 11.2908 59.3672 10.7965L59.2076 10.7066C58.6149 10.3472 57.8854 9.89797 57.703 9.04449 57.703 8.97704 57.703 8.93223 57.6802 8.86478 57.6802 8.86478 57.6802 8.81974 57.6802 8.79733 57.6345 8.79733 57.6118 8.77493 57.589 8.77493 57.0189 8.57282 56.4717 8.39311 55.9018 8.23581 55.6739 8.16836 55.5143 7.98866 55.4458 7.76414 55.3319 7.24743 55.2634 6.73072 55.3092 6.214 55.3319 5.85459 55.651 5.60767 55.993 5.60767ZM48.7431 7.8764C48.8343 7.40473 49.2673 7.13517 49.3815 7.04532 49.5409 6.95547 49.7005 6.86561 49.8829 6.77576 49.7462 6.64086 49.655 6.43875 49.7005 6.23664 49.7462 5.89964 50.0653 5.65248 50.4301 5.67489 51.0457 5.74233 51.6384 6.05694 52.0489 6.5062 52.2085 6.68591 52.254 6.93283 52.1628 7.15758 52.0716 7.38209 51.8892 7.53939 51.6384 7.5618 51.2509 7.62925 50.8633 7.7191 50.4986 7.8988 50.6352 7.92121 50.7721 7.96625 50.9088 7.98866 51.479 8.12356 52.0489 8.23581 52.6188 8.46033 53.3256 8.72989 54.5566 9.35886 54.9899 10.6618L55.0356 10.7741C55.0356 10.7741 55.0811 10.9314 55.1038 10.9538 55.1038 10.9538 55.218 10.9538 55.2634 10.9762L57.2243 11.4255C57.4749 11.4929 57.6802 11.6726 57.7257 11.9198 57.7714 12.1669 57.6573 12.4139 57.4521 12.5712 57.1101 12.7959 56.7683 12.953 56.4262 13.1327 56.1527 13.2676 55.8791 13.4022 55.6055 13.5595 55.1038 13.8741 54.7847 14.3008 54.762 14.6828 54.762 15.0196 54.4654 15.2892 54.1236 15.2892L54.1006 15.2892C53.7359 15.2892 53.4623 14.9748 53.4853 14.6378 53.508 13.8291 54.0324 13.0428 54.9214 12.5037 55.0356 12.4365 55.1495 12.369 55.2634 12.3016L54.9899 12.2342C54.7847 12.1893 54.4654 12.1219 54.2148 11.8747 53.964 11.6502 53.8728 11.3583 53.8271 11.1559L53.8271 11.0661C53.5992 10.4821 53.0293 9.98783 52.1855 9.67346 51.7068 9.49375 51.2054 9.3815 50.6582 9.269 50.2704 9.17915 49.9057 9.11194 49.5409 8.99944 49.4042 8.95464 49.1079 8.86478 48.9255 8.59522 48.7658 8.39311 48.7201 8.14596 48.7658 7.8988ZM4.23975 19.8268C4.58155 19.7594 4.92359 19.9841 5.01479 20.3209 5.19718 21.1522 6.15485 21.7586 7.13502 21.6913 8.06995 21.6239 8.98191 20.9725 9.55182 20.0065 10.0305 19.1979 10.3041 18.1644 10.3953 16.7942L10.3953 16.3674C10.4638 15.4465 10.5322 14.3906 11.0564 13.4697 11.5124 12.6834 12.242 12.1443 12.9488 11.6278 13.6556 11.1111 14.3167 10.6168 14.5676 9.94302 14.7727 9.4263 14.7272 8.79733 14.6815 8.19077L14.5676 6.3265C14.5448 5.96708 14.8184 5.67489 15.1832 5.65248 15.548 5.60767 15.8443 5.89964 15.867 6.23664L15.981 8.10091C16.0267 8.77493 16.0722 9.60601 15.7758 10.3699 15.3883 11.4031 14.5218 12.032 13.7011 12.6162 13.0857 13.0655 12.4928 13.4921 12.1737 14.0763 11.786 14.7276 11.7632 15.5363 11.6948 16.39L11.6948 16.8393C11.5581 18.4116 11.2388 19.6247 10.6462 20.6131 9.84814 21.9383 8.57141 22.792 7.20348 22.9042 7.11228 22.9042 7.02109 22.9042 6.92989 22.9042 5.42529 22.9042 4.01164 21.8711 3.71531 20.5233 3.64686 20.1863 3.87497 19.8492 4.21677 19.7594ZM7.93304 30.7889C7.9103 31.0134 7.86459 31.2382 7.79637 31.4627 7.75065 31.5976 7.72791 31.7322 7.70517 31.8895 7.68219 32.0692 7.65946 32.2714 7.63672 32.4511 7.591 33.1027 7.52278 33.8439 6.97561 34.4278 6.61083 34.8099 6.08639 35.0344 5.53922 35.0344 5.26564 35.0344 4.96931 34.9669 4.71846 34.8547 3.96616 34.4953 3.53292 33.6642 3.64686 32.8555 3.71531 32.3839 3.94318 32.0018 4.17129 31.6874 4.30796 31.4627 4.44488 31.2606 4.49036 31.0809 4.55881 30.8563 4.49036 30.5868 4.30796 30.362 4.14855 30.1375 3.89771 30.0026 3.6696 30.0026 3.09969 30.0026 2.59823 30.6092 2.39286 31.2158 2.27893 31.5525 1.91415 31.7322 1.5721 31.62 1.2303 31.5077 1.04791 31.1483 1.16184 30.8113 1.50389 29.7781 2.41584 28.7223 3.6696 28.7223 4.30796 28.7223 4.92359 29.0367 5.33409 29.5758 5.74435 30.1149 5.904 30.8113 5.72161 31.4179 5.60768 31.7773 5.42529 32.0917 5.26564 32.3612 5.10598 32.6084 4.96931 32.8331 4.92359 33.0576 4.87812 33.3048 5.03753 33.5967 5.28837 33.709 5.51648 33.8215 5.85829 33.754 6.04068 33.5743 6.29152 33.3272 6.31426 32.8779 6.35998 32.3612 6.35998 32.1367 6.40546 31.9119 6.42844 31.7098 6.45118 31.5301 6.49665 31.3728 6.54237 31.1931 6.58785 31.0134 6.63357 30.8337 6.65631 30.654 6.72476 30.1375 6.56511 29.5984 6.24605 29.1715 5.97246 28.7897 5.56196 28.5202 5.12872 28.2056 4.8324 28.0035 4.53607 27.7787 4.23975 27.5092 3.35053 26.7005 2.80336 25.3303 3.48721 24.2971 3.53292 24.252 3.55566 24.1846 3.60138 24.1398 3.62412 24.0947 3.6696 24.0499 3.69258 24.0275 3.69258 23.9825 3.69258 23.8478 3.69258 23.758 3.69258 23.4658 3.64686 23.0615 3.92044 22.7021 4.12557 22.4102 4.53607 22.3651 4.8324 22.5672 5.12872 22.7696 5.17444 23.1738 4.96931 23.4658 4.96931 23.4658 4.96931 23.6007 4.96931 23.6905 4.96931 23.9377 5.01479 24.2296 4.87812 24.5216 4.80966 24.7013 4.71846 24.8136 4.62727 24.9261L4.55881 25.0159C4.28523 25.4425 4.60453 26.139 5.10598 26.5882 5.33409 26.7903 5.60768 26.9927 5.88126 27.1724 6.38272 27.5318 6.88441 27.8912 7.27193 28.4077 7.77339 29.0817 8.02424 29.9578 7.9103 30.7889ZM67.4381 31.283C67.3012 32.0018 66.6856 32.3612 66.1614 32.6534 65.979 32.7657 65.637 32.9678 65.5913 33.0576 65.5913 33.1251 65.6825 33.2597 65.7509 33.3272 65.9106 33.5519 66.093 33.8215 66.1157 34.2033 66.1384 34.5851 66.0018 34.9221 65.8878 35.1242 65.5685 35.8207 64.9074 37.2583 63.5395 37.4828 63.4026 37.5055 63.2659 37.5055 63.152 37.5055 62.5818 37.5055 62.0576 37.3031 61.6016 37.1234 61.2823 36.9888 60.9633 36.8765 60.6667 36.8315 60.4616 36.809 60.2792 36.809 60.0513 36.809 59.5724 36.809 59.0252 36.809 58.501 36.5171 57.6573 36.0452 57.4521 35.1917 57.2697 34.4278 57.1558 33.9338 57.0419 33.4621 56.791 33.1925 56.5629 32.9678 56.1981 32.8105 55.8106 32.6534 55.2634 32.4511 54.6478 32.2041 54.2376 31.665 53.6904 30.9462 53.7359 30.0026 53.7816 29.3737L53.964 26.2738C53.964 26.1165 54.0552 25.9816 54.1464 25.8694L53.6447 25.8019C53.0293 25.7121 52.3452 25.6222 51.7525 25.2404 51.4105 25.0159 51.1369 24.7463 50.8633 24.4768 50.6582 24.2744 50.4758 24.0947 50.2704 23.9601 49.9286 23.7129 49.4497 23.5783 48.971 23.4434 48.6974 23.3535 48.4238 23.2637 48.1502 23.1738 47.8766 23.084 47.5346 23.1738 47.284 23.3311 47.0331 23.4658 46.805 23.6455 46.5771 23.8252 46.3948 23.9825 46.2124 24.1174 46.0072 24.252 45.0268 24.9034 43.9552 25.173 42.7242 25.4425 42.1313 25.5774 41.4017 25.7347 40.6722 25.7347 40.4898 25.7347 40.3074 25.7347 40.125 25.7121 39.0079 25.5774 38.096 25.0159 37.6627 24.1622 37.2295 23.3311 37.3437 22.2753 37.9363 21.6015 38.2784 21.2194 38.7116 20.9725 39.0991 20.7702 39.4866 20.5681 39.8287 20.3884 39.9654 20.1188 40.125 19.8044 40.5125 19.6919 40.8318 19.8492 41.1509 20.0065 41.2878 20.3884 41.1054 20.703 40.7861 21.3319 40.2162 21.6239 39.6918 21.8935 39.3727 22.0508 39.0764 22.2078 38.894 22.4326 38.6431 22.7245 38.5974 23.2188 38.7798 23.5783 39.0534 24.1174 39.7148 24.3643 40.2619 24.4317 40.923 24.5216 41.6069 24.3643 42.4276 24.1846 43.522 23.9377 44.4797 23.6905 45.2777 23.1738 45.4371 23.0615 45.5967 22.9267 45.7791 22.8144 46.0527 22.5899 46.3263 22.3875 46.6683 22.2078 46.7138 22.1854 46.7595 22.163 46.805 22.1406 46.7368 22.0508 46.6911 21.9609 46.6456 21.8484 46.4632 21.4666 46.4402 21.0624 46.4175 20.703 46.3948 20.3884 46.372 20.1188 46.2578 19.9167 46.03 19.5349 45.5283 19.4674 44.7305 19.3552 44.1603 19.2877 43.522 19.1979 42.9521 18.9283 42.7697 18.9731 42.5418 18.9507 42.3822 18.8161 41.6526 18.2319 40.4898 18.3442 39.6463 18.5689 39.3727 18.6363 39.0764 18.7262 38.8028 18.7934 37.9363 19.0406 37.0471 19.3101 36.0897 19.2653 35.7249 19.2653 35.3601 19.1755 34.9953 19.1304 34.3112 19.0182 33.6959 18.9059 33.2399 19.1528 32.6927 19.445 32.4873 20.1412 32.2595 20.9499 32.0771 21.5789 31.8947 22.2305 31.5072 22.8144 31.2106 23.2637 30.8231 23.6007 30.4356 23.9377 29.9111 24.3869 29.4779 24.7912 29.4097 25.2855 29.4097 25.4201 29.4097 25.5324 29.4097 25.6673 29.4097 25.847 29.4097 26.0267 29.4097 26.2064 29.25 27.5092 28.0872 28.4751 26.1037 28.9468 25.6249 29.0593 25.1235 29.1491 24.5991 29.1491 24.1431 29.1491 23.6871 29.0817 23.2539 28.8796 22.6612 28.5874 22.2052 28.0035 22.0683 27.3521 21.9544 26.813 22.0683 26.2963 22.4331 25.8918 22.57 25.7347 22.7294 25.6222 22.8663 25.5324 22.9575 25.4652 23.0487 25.3977 23.0942 25.3303 23.1854 25.1956 23.2311 24.9485 23.2766 24.7013 23.3451 24.2744 23.4363 23.7353 23.8695 23.3311 24.2343 22.9941 24.6675 22.9042 25.0323 22.8368 25.1917 22.8144 25.3514 22.7696 25.4653 22.7245 25.7846 22.5899 26.0354 22.2305 26.309 21.826 26.309 21.826 26.3318 21.8036 26.3545 21.7812 26.1494 21.9833 25.8985 22.1854 25.6477 22.3427 24.6445 22.9717 23.5047 23.1064 22.4104 23.2413 22.2052 23.2637 21.9999 23.2861 21.7947 23.3311 20.3584 23.5332 19.4464 23.9601 19.0134 24.6565 18.808 24.9709 18.6941 25.3527 18.5802 25.7795 18.4433 26.2288 18.3293 26.6781 18.0785 27.1049 17.6455 27.8686 16.9614 28.3629 16.2546 28.8121 16.1634 29.1491 16.2546 29.4635 16.3687 29.6883 16.6423 30.2498 17.235 30.7439 17.8506 30.9462 18.831 31.2382 19.9254 31.0809 21.0652 30.9462 21.316 30.9236 21.5439 30.8788 21.7947 30.8563 23.8468 30.6092 25.3286 30.9236 26.3318 31.8221 26.4457 31.9119 26.5369 32.0244 26.6508 32.1143 26.8105 32.294 26.9701 32.4511 27.1298 32.5185 27.4489 32.6758 27.9048 32.586 28.4065 32.4737 28.5659 32.4511 28.7029 32.4063 28.8395 32.3839 29.9111 32.2041 31.1194 32.5636 31.3703 33.5967 31.4615 33.9786 31.3703 34.338 31.3248 34.6075 31.3248 34.675 31.3018 34.7648 31.2791 34.8323 31.2106 35.2591 31.3475 35.6858 31.5984 35.9105 31.8262 36.1126 32.2367 36.1577 32.4419 35.978 32.6697 35.7756 32.7154 35.4162 32.7609 34.8099 32.8066 34.3156 32.8521 33.754 33.1257 33.2597 33.5362 32.4961 34.2885 32.1367 34.9496 31.8221 35.4513 31.5752 35.93 31.3504 36.1809 30.991 36.2948 30.8337 36.3633 30.6092 36.4545 30.362 36.5911 30.025 36.728 29.6208 37.0244 29.2838 37.8224 28.3629 39.1903 28.4077 39.9199 28.4303 40.2619 28.4303 40.9003 28.4751 41.3106 28.9244 41.6299 29.2614 41.6753 29.6883 41.6981 29.9802 41.6981 30.1375 41.7438 30.2722 41.7665 30.3396 41.8577 30.5417 42.2225 30.6766 42.5873 30.8113 43.1572 31.0361 43.9097 31.328 44.1149 32.1591 44.3427 33.0576 43.7044 33.9338 42.4049 34.4505 41.6981 34.72 41.3106 35.0344 41.3333 35.2591 41.379 35.6186 41.1054 35.9105 40.7406 35.9553 40.3759 36.0004 40.0795 35.7308 40.0338 35.3938 39.9426 34.5177 40.581 33.7989 41.9034 33.2824 42.4961 33.0576 42.9066 32.6982 42.8609 32.4961 42.8154 32.3388 42.5418 32.2041 42.1086 32.0244 41.5614 31.8221 40.9003 31.5525 40.6037 30.8788 40.4898 30.6316 40.4443 30.362 40.4213 30.1375 40.4213 30.0026 40.3759 29.8229 40.3531 29.7781 40.3301 29.7555 40.2162 29.7107 39.8742 29.6883 39.1676 29.6656 38.3923 29.6883 38.0048 30.0925 37.8679 30.2498 37.7767 30.5193 37.6627 30.7889 37.5488 31.0809 37.4349 31.3955 37.2295 31.6874 36.7965 32.3388 36.1124 32.6534 35.4968 32.9454 34.9496 33.2149 34.4709 33.4394 34.243 33.8439 34.1061 34.1135 34.0606 34.4953 34.0377 34.9221 33.9922 35.5735 33.9237 36.4046 33.2399 36.9664 32.9206 37.2359 32.4873 37.3706 32.0771 37.3706 31.5984 37.3706 31.0967 37.2133 30.7319 36.8765 30.1392 36.3598 29.8427 35.5061 29.9796 34.6526 29.9796 34.5627 30.0251 34.4505 30.0251 34.3606 30.0708 34.1809 30.0935 34.0012 30.0708 33.9114 30.0251 33.6866 29.5009 33.5519 28.9992 33.6418 28.8625 33.6642 28.7483 33.6866 28.6117 33.709 27.9505 33.8439 27.221 34.0012 26.5142 33.6418 26.1494 33.4621 25.8985 33.2149 25.6707 32.9678 25.5795 32.8779 25.511 32.8105 25.4198 32.7206 24.713 32.0917 23.5502 31.8895 21.9087 32.0917 21.6808 32.1143 21.4527 32.1591 21.2021 32.1815 19.9708 32.3612 18.6941 32.5185 17.4401 32.1591 16.4599 31.8671 15.5707 31.1259 15.1375 30.2274 15.0463 30.025 14.9778 29.8229 14.9323 29.6208 14.5218 29.9128 14.18 30.2274 13.9747 30.6092 13.5644 31.3504 13.6556 32.2714 13.7468 33.2373 13.838 34.1135 13.9292 35.012 13.6784 35.9105 13.6099 36.2025 13.3363 36.3822 13.0627 36.3822 13.0172 36.3822 12.9488 36.3822 12.9033 36.3822 12.5613 36.2923 12.3561 35.9553 12.4473 35.5959 12.6297 34.9221 12.5613 34.1583 12.4701 33.3722 12.3561 32.249 12.242 31.0809 12.8349 30.0026 13.3593 29.0593 14.2483 28.4975 15.1147 27.9811 15.8443 27.5318 16.5511 27.1049 16.9159 26.4536 17.0983 26.1614 17.1895 25.7795 17.3034 25.3977 17.4401 24.9261 17.577 24.4317 17.8733 23.9601 18.5344 22.9267 19.743 22.2977 21.5669 22.0508 21.772 22.0281 21.9999 21.9833 22.2052 21.9609 23.2084 21.826 24.1658 21.7138 24.9181 21.2421 25.9213 20.6131 26.4457 19.4674 27.0156 18.2543 27.3804 17.4456 27.7682 16.5921 28.3381 15.8733 29.8199 13.919 32.4419 12.953 34.8584 13.4697 35.1093 13.5147 35.3829 13.6046 35.6337 13.6718 36.7735 13.964 37.5488 14.1437 38.0503 13.7168 38.3238 13.4921 38.7343 13.5147 38.9622 13.7843 39.1903 14.0538 39.1676 14.4581 38.894 14.6828 37.8451 15.6038 36.4317 15.2219 35.2917 14.9297 35.0408 14.8625 34.8129 14.7951 34.5621 14.75 32.6697 14.3458 30.5268 15.1321 29.364 16.6596 28.8852 17.2886 28.5432 18.0298 28.1784 18.8161 27.8594 19.5122 27.5173 20.2311 27.0841 20.8827 27.677 20.3884 28.4747 20.1412 29.1816 20.5457 29.5009 20.7254 29.5921 21.1072 29.4324 21.4218 29.25 21.7362 28.8625 21.826 28.5432 21.6687 28.3381 21.5565 27.9048 21.8036 27.5858 22.2078 27.4946 22.3203 27.4034 22.455 27.3349 22.5672 26.9929 23.084 26.6054 23.6455 25.9213 23.9377 25.6934 24.0275 25.4426 24.0723 25.2374 24.1174 25.0093 24.1622 24.8042 24.2072 24.713 24.2744 24.5991 24.3643 24.5533 24.6339 24.5306 24.9034 24.4621 25.2855 24.3939 25.7571 24.0746 26.139 23.915 26.3187 23.7556 26.4536 23.5959 26.5434 23.5047 26.6106 23.4135 26.6781 23.3678 26.7231 23.2996 26.813 23.2766 26.9252 23.2996 27.0825 23.3451 27.3521 23.5502 27.599 23.801 27.7115 24.3482 27.9811 25.0778 27.8686 25.7619 27.7115 26.423 27.5542 27.9733 27.0825 28.0872 26.0715 28.0872 25.9592 28.0872 25.8246 28.0872 25.7121 28.0872 25.51 28.0872 25.3079 28.0872 25.1282 28.2241 24.1622 28.908 23.5332 29.5463 22.9941 29.8884 22.7021 30.2075 22.4102 30.4128 22.118 30.6864 21.7138 30.8458 21.197 31.0055 20.6355 31.2791 19.6919 31.5754 18.6137 32.6015 18.0522 33.4678 17.6029 34.3797 17.7378 35.2005 17.8949 35.5198 17.9399 35.8388 18.0074 36.1352 18.0074 36.8877 18.0522 37.6173 17.8277 38.415 17.6029 38.7116 17.5131 39.0079 17.4232 39.3043 17.3558 40.3531 17.1088 41.2651 17.0862 42.0401 17.2886 42.0401 15.8283 42.4276 14.3458 43.2029 13.0879 43.2941 12.953 43.4765 12.661 43.4538 12.5488 43.4538 12.5488 43.4308 12.5037 43.3396 12.4365 42.6557 11.9646 41.7211 11.9422 40.7406 11.9198 40.5583 11.9198 40.3531 11.9198 40.1707 11.9198 38.3011 11.8523 36.9789 11.1559 36.5229 9.96542 36.4772 9.83076 36.4317 9.67346 36.386 9.53856 36.3405 9.33645 36.2721 9.13434 36.2036 9.06689 36.044 8.90959 35.5198 9.17915 35.1093 9.3815 34.9496 9.47135 34.7902 9.53856 34.6533 9.60601 33.2854 10.1902 31.8719 9.80812 30.6407 9.20179 30.5952 9.20179 30.5495 9.20179 30.5268 9.20179 29.9111 9.04449 29.364 8.68508 28.9537 8.21341 28.8625 8.14596 28.7713 8.10091 28.7029 8.05611 27.3122 7.11253 25.3741 6.1916 24.0974 7.09013 23.7556 7.33728 23.482 7.69669 23.1627 8.07851 22.8206 8.52778 22.4331 9.02209 21.9087 9.35886 21.4984 9.65106 21.0424 9.78572 20.5865 9.94302 20.2217 10.0777 19.8796 10.1902 19.6061 10.3699 18.808 10.8864 18.3978 11.9646 18.3293 13.6718L18.3293 14.0763C18.2609 15.424 18.2154 16.9291 17.3034 18.142 16.9386 18.6363 16.4827 18.9958 16.0494 19.3552 15.9355 19.445 15.8216 19.5349 15.7304 19.6247 15.8216 19.7146 15.9128 19.8044 15.981 19.8943 16.0494 19.9841 16.1406 20.0514 16.2091 20.1188 16.7105 20.5681 17.5543 20.5006 18.1242 20.2311 18.8765 19.8943 19.4694 19.2653 20.062 18.6588 20.7004 17.9847 21.43 17.2435 22.4104 16.7942 23.1399 16.4799 23.938 16.3674 24.6218 16.2775 24.9638 16.2327 25.3059 16.4799 25.3514 16.8167 25.3971 17.1537 25.1462 17.4907 24.8042 17.5355 24.1658 17.6253 23.5047 17.7152 22.9348 17.9623 22.1823 18.2993 21.5896 18.9283 20.9967 19.5349 20.3584 20.2087 19.6288 20.9499 18.6486 21.3992 18.1697 21.6239 17.6682 21.7138 17.1895 21.7138 16.4827 21.7138 15.8216 21.489 15.3426 21.0624 15.2287 20.9725 15.1375 20.86 15.0235 20.7478 14.9778 20.703 14.9096 20.6355 14.8412 20.5681 14.5448 21.0624 14.4079 21.6913 14.294 22.3427 14.2028 22.7469 14.1343 23.1514 14.0204 23.5556 13.6099 24.9261 12.5385 26.1614 11.2388 26.7903 10.1902 27.2846 9.0731 27.3521 8.09269 26.9927 7.75065 26.8578 7.591 26.4984 7.72791 26.1614 7.86459 25.8246 8.22937 25.6673 8.57141 25.8019 9.39217 26.1165 10.1674 25.8918 10.6916 25.6449 11.6721 25.173 12.4928 24.2296 12.8121 23.1962 12.926 22.8594 12.9945 22.5 13.0627 22.118 13.2224 21.3093 13.382 20.4558 13.9065 19.7146 13.9065 19.6919 13.9519 19.6471 13.9747 19.6247 14.0204 19.445 14.1571 19.2877 14.3167 19.2203 14.613 18.9059 14.9323 18.6588 15.2514 18.3892 15.6392 18.0746 16.0267 17.7602 16.2775 17.4232 16.9386 16.5471 16.9841 15.2892 17.0298 14.0763L17.0298 13.6494C17.1438 11.4929 17.7594 10.0777 18.8992 9.33645 19.0134 9.269 19.1046 9.22419 19.2185 9.17915 19.1501 9.17915 19.0816 9.20179 19.0361 9.20179 18.7626 9.20179 18.5117 9.04449 18.4205 8.77493 18.3066 8.43792 18.4662 8.07851 18.808 7.96625 18.831 7.96625 18.8992 7.83136 18.9222 7.62925 18.9222 7.49458 18.9222 7.35969 18.9222 7.22503 18.9222 7.00028 18.8992 6.75312 18.9222 6.48356 19.0589 5.40533 19.9708 4.52944 21.4757 4.01272 21.9317 3.85542 22.3876 3.72076 22.8436 3.60827 23.1172 3.51841 23.4135 3.4512 23.6871 3.36135 23.801 3.33871 23.8922 3.2939 24.0062 3.2715 23.7326 3.2715 23.482 3.06915 23.4135 2.77719 23.3223 2.44018 23.5502 2.08077 23.8922 2.01356L26.6054 1.38458C26.7877 1.33954 27.2892 1.27209 27.677 1.51925 27.8821 1.65414 28.0188 1.87866 28.0645 2.12581 28.0872 2.37297 28.0645 2.82223 27.4261 3.159 26.3772 3.74317 25.2602 4.21483 24.1203 4.57425 23.8238 4.6641 23.5275 4.75395 23.2311 4.8214 22.7979 4.93366 22.3647 5.06855 21.9544 5.20322 21.4757 5.36052 20.3584 5.85459 20.2672 6.64086 20.2672 6.77576 20.2672 6.95547 20.2672 7.13517 20.2672 7.31488 20.2901 7.51699 20.2672 7.69669 20.2444 8.30326 19.9481 8.79733 19.5149 9.04449 19.7657 8.93223 19.9936 8.84238 20.2444 8.77493 20.6319 8.64003 20.974 8.52778 21.2476 8.34807 21.6123 8.10091 21.8859 7.7415 22.2052 7.33728 22.547 6.88802 22.9118 6.43875 23.4135 6.07934 24.3255 5.45037 25.8758 5.06855 28.3153 6.3265 28.3153 5.27067 28.9537 4.25988 29.8884 3.76557 30.0251 3.69812 30.1847 3.63091 30.3444 3.56346 30.618 3.4512 30.8688 3.33871 30.96 3.18164 31.0282 3.06915 31.0282 2.86704 31.0512 2.66493 31.0739 2.35033 31.0967 1.94611 31.3248 1.58669 31.6896 0.980128 32.4419 0.643121 33.3766 0.710569 33.5589 0.710569 33.7186 0.732974 33.901 0.778018 34.243 0.822827 34.5621 0.867871 34.8129 0.800422 34.9269 0.778018 35.0638 0.732974 35.1777 0.688165 35.611 0.553268 36.1809 0.351158 36.7508 0.665761 37.1156 0.867871 37.3664 1.20488 37.4119 1.6315 37.5031 2.17062 37.298 2.75478 36.9104 3.159 36.5911 3.49601 36.1809 3.69812 35.8161 3.87783 35.6337 3.96768 35.474 4.05753 35.3144 4.14739 35.0181 4.32709 34.8129 4.6641 34.8814 4.799 34.9269 4.91125 35.155 5.00111 35.4056 4.9787 35.9528 4.95606 36.4999 4.59665 37.0016 4.23724L37.1156 4.14739C37.6855 3.74317 38.3468 3.2939 39.1219 3.1366 40.0566 2.95689 41.2651 3.2939 41.6526 4.32709 41.6981 4.46199 41.7438 4.61929 41.7665 4.75395 41.7665 4.8438 41.7893 4.91125 41.835 5.00111 42.0174 5.42797 42.8836 5.45037 43.5677 5.20322 43.7274 5.13577 43.8868 5.06855 44.0464 5.02351 44.662 4.77636 45.3232 4.48439 46.0072 4.48439 45.9615 4.25988 45.8476 4.05753 45.6652 3.92287 45.3459 3.67572 44.8672 3.67572 44.5481 3.92287 44.2515 4.12498 43.864 4.08017 43.6362 3.78797 43.4308 3.49601 43.4765 3.11419 43.7728 2.88944 44.5481 2.32792 45.6652 2.32792 46.4402 2.88944 47.2155 3.47361 47.5118 4.52944 47.1928 5.42797 47.0786 5.74233 46.7138 5.92204 46.372 5.80978 45.8476 5.63008 45.2092 5.89964 44.5481 6.1916 44.3657 6.25905 44.2061 6.3265 44.0237 6.39371 42.7469 6.86561 41.1282 6.70831 40.6267 5.47277 40.5583 5.31547 40.5355 5.18081 40.4898 5.02351 40.4898 4.93366 40.4671 4.86621 40.4213 4.77636 40.2847 4.43958 39.7602 4.30469 39.35 4.37214 38.8255 4.48439 38.3468 4.8214 37.8224 5.18081L37.7085 5.27067C37.0701 5.71993 36.3175 6.1916 35.4286 6.23664 34.6306 6.28145 33.9237 5.89964 33.6501 5.29307 33.2626 4.41694 33.8325 3.51841 34.5394 3.04675 34.7445 2.91208 34.9496 2.79959 35.155 2.68733 35.4513 2.53003 35.7249 2.39537 35.9073 2.21567 36.0669 2.05836 36.0897 1.7888 36.044 1.72136 35.9757 1.67655 35.7022 1.7664 35.4968 1.83385 35.3374 1.90106 35.155 1.94611 34.9953 1.99091 34.5166 2.08077 34.0606 2.03596 33.6501 1.99091 33.4905 1.99091 33.3538 1.94611 33.1942 1.94611 32.7839 1.9237 32.4646 2.01356 32.3507 2.19326 32.2822 2.30552 32.2822 2.50763 32.2595 2.70974 32.2595 3.02434 32.2138 3.42856 31.9859 3.78797 31.6896 4.28228 31.1879 4.5068 30.7776 4.6865 30.6634 4.73155 30.5268 4.77636 30.4356 4.8438 29.8427 5.15841 29.4779 5.87723 29.5463 6.52861 29.5921 6.79817 29.706 7.04532 29.8657 7.26983 31.3248 8.21341 32.8294 8.97704 34.1289 8.43792 34.2658 8.37047 34.4024 8.30326 34.5394 8.23581 35.2232 7.8988 36.2493 7.38209 37.0701 8.12356 37.4349 8.43792 37.5488 8.86478 37.64 9.22419 37.6627 9.33645 37.6855 9.4263 37.7312 9.53856 38.1187 10.5269 39.7375 10.6394 40.2162 10.6618 40.3986 10.6618 40.581 10.6618 40.7634 10.6618 41.8577 10.6618 43.1117 10.6842 44.1149 11.4031 44.2973 11.538 44.5251 11.7177 44.662 12.0544 44.9356 12.7061 44.5708 13.335 44.3427 13.7392 43.6589 14.8399 43.3169 16.1653 43.3626 17.4683 43.3626 17.6704 43.3853 17.7378 43.408 17.7602 43.408 17.7602 43.4308 17.7826 43.4992 17.8277 43.864 18.0298 44.3657 18.0972 44.8899 18.142 45.8019 18.2543 46.8507 18.3668 47.3979 19.3325 47.6488 19.7594 47.6942 20.2311 47.717 20.6355 47.74 20.9051 47.7627 21.1746 47.8539 21.3543 48.0135 21.6913 48.3326 21.8711 48.8343 22.0508 48.8343 22.0508 48.8798 22.0508 48.8798 22.0508 49.0394 22.118 49.2218 22.163 49.4042 22.2305 49.9741 22.4102 50.544 22.5899 51.0685 22.9267 51.3648 23.129 51.6156 23.3759 51.8437 23.6231 52.0716 23.8478 52.254 24.0499 52.4821 24.1846 52.8696 24.4317 53.3941 24.4992 53.8955 24.5666L65.181 26.2288C65.181 25.9592 65.0671 25.6673 64.9074 25.4425 64.7478 25.2404 64.7478 24.9709 64.8617 24.7463 64.9986 24.5216 65.2495 24.4093 65.5001 24.4317 65.5685 24.4541 65.6597 24.3643 65.6597 24.3195 65.7282 23.9825 66.0702 23.758 66.412 23.8252 66.7541 23.8926 66.9822 24.2296 66.9137 24.5666 66.8453 24.9261 66.6174 25.2404 66.3208 25.4425 66.5032 25.9816 66.5032 26.5882 66.3208 27.1497 66.2296 27.4193 65.979 27.599 65.7054 27.599 65.6825 27.599 65.637 27.599 65.6142 27.599L55.218 26.0715C55.218 26.0715 55.3092 26.2738 55.2862 26.3861L55.1038 29.4859C55.0583 30.0477 55.0583 30.6092 55.3092 30.9236 55.5143 31.1931 55.8791 31.328 56.3123 31.5077 56.791 31.6874 57.3382 31.9119 57.7714 32.3612 58.2729 32.8779 58.4325 33.5743 58.5692 34.1809 58.7289 34.8547 58.8428 35.2815 59.1621 35.4613 59.39 35.5959 59.7093 35.5959 60.0741 35.5959 60.3249 35.5959 60.5985 35.5959 60.8721 35.641 61.3281 35.7084 61.7156 35.8655 62.1031 36.0228 62.5818 36.2025 62.9923 36.3822 63.3571 36.3147 63.9727 36.2025 64.4057 35.4613 64.7705 34.675 64.8162 34.6075 64.8847 34.4278 64.8847 34.383 64.8847 34.338 64.7935 34.2033 64.725 34.1135 64.5654 33.8887 64.4057 33.6192 64.3602 33.2597 64.2691 32.3612 65.0441 31.9119 65.5458 31.62 65.8194 31.4627 66.1614 31.2606 66.2069 31.1033 66.2069 31.1033 66.2069 31.0585 66.1614 31.0134 66.0245 30.8563 65.7509 30.7665 65.4773 30.7439 65.2495 30.7439 65.0214 30.7889 64.7705 30.8337 64.3375 30.9012 63.8586 30.991 63.3344 30.9012 62.673 30.7889 62.1488 30.4071 61.6928 30.0701 61.2369 29.7555 60.8721 29.4859 60.4616 29.4635 60.3019 29.4635 60.1195 29.5086 59.9371 29.5534 59.732 29.5984 59.5496 29.6432 59.3445 29.6656 59.0252 29.6883 58.7289 29.6656 58.4325 29.5758 58.4325 29.6432 58.4553 29.6883 58.501 29.7331 58.6149 29.9128 58.8885 30.025 59.1849 30.1375 59.5724 30.2946 60.0283 30.4743 60.3477 30.8788 60.5985 31.1931 60.7124 31.5301 60.8264 31.8221 60.8721 31.957 60.9176 32.0917 60.986 32.2265 61.0315 32.3164 61.1227 32.4063 61.1911 32.4287 61.4647 32.2714 61.8523 32.3612 62.0346 32.6084 62.24 32.9003 62.1716 33.3048 61.8752 33.4845 61.6016 33.6866 61.2596 33.7316 60.8948 33.6418 60.4616 33.5293 60.0513 33.1925 59.8232 32.7657 59.732 32.586 59.6636 32.3839 59.5953 32.2041 59.5269 31.9794 59.4584 31.7997 59.3445 31.665 59.2076 31.5077 58.957 31.3955 58.6604 31.283 58.2274 31.1033 57.703 30.8788 57.3837 30.3844 56.9507 29.7107 57.1331 28.902 57.247 28.4077 57.2925 28.1832 57.4521 28.0035 57.6802 27.936 57.9081 27.8686 58.1362 27.9136 58.2956 28.0483 58.5465 28.2506 58.8885 28.3629 59.2306 28.3405 59.3672 28.3405 59.5042 28.2954 59.6636 28.2506 59.9144 28.2056 60.188 28.1381 60.4843 28.1381 61.2823 28.1381 61.898 28.5874 62.4451 28.9918 62.8327 29.2614 63.1974 29.531 63.5622 29.5984 63.8358 29.6432 64.1779 29.5984 64.5426 29.531 64.839 29.4859 65.1353 29.4411 65.4546 29.4187 66.093 29.4187 66.7541 29.6883 67.1416 30.1375 67.4609 30.4743 67.5748 30.8788 67.4836 31.283ZM67.4609 21.1072C67.2328 21.5565 66.7768 21.826 66.1157 21.9383 65.2038 22.0956 64.2233 22.0057 63.3571 21.6687 63.3571 21.7138 63.3571 21.7362 63.3571 21.7812 63.3571 22.5448 62.6048 23.084 61.5787 23.084L61.5105 23.084C59.8005 23.0615 57.8169 22.2078 57.5206 20.4334 57.4294 19.8717 57.5206 19.3325 57.6118 18.8609 57.6573 18.6812 57.6802 18.479 57.703 18.2769 57.7485 17.8501 57.6573 17.3334 57.3609 17.1987 57.0646 17.0414 56.5402 17.311 56.1754 17.5355 55.4231 18.0074 54.739 18.5689 54.1464 19.2203L53.9867 19.4C53.4853 19.9391 52.9151 20.5457 52.0716 20.7478 50.544 21.1072 49.2445 19.8717 48.6289 19.2877 48.4011 19.0856 48.1502 18.8161 47.9678 18.4566 47.3522 17.1313 48.515 16.053 49.3585 15.2443 49.3585 15.2443 46.3948 15.424 46.3948 15.424 46.2124 15.424 46.0527 15.379 45.916 15.2667 45.7791 15.1545 45.7107 14.9972 45.6879 14.8175 45.6425 13.8965 46.372 13.2225 47.0786 12.8858 47.3067 12.7733 47.5118 12.7061 47.74 12.6162 48.059 12.5037 48.3553 12.3915 48.6062 12.2117 48.857 12.032 49.0167 11.695 48.9255 11.538 48.857 11.4481 48.6746 11.3132 48.515 11.2234 48.1275 10.9762 47.5576 10.6168 47.5576 9.89797 47.5576 9.53856 47.8766 9.269 48.2187 9.269 48.5607 9.269 48.857 9.5612 48.857 9.89797 48.9025 9.96542 49.0849 10.0777 49.1991 10.1451 49.4727 10.3024 49.7917 10.5269 50.0198 10.8415 50.567 11.6726 50.111 12.7061 49.3815 13.2452 48.9937 13.5147 48.6062 13.6494 48.2187 13.8067 48.0363 13.8741 47.8311 13.9414 47.6488 14.0312 47.6488 14.0312 47.603 14.0312 47.603 14.0538L49.7005 13.919C49.8829 13.919 50.225 13.8965 50.5213 14.0987 50.7721 14.256 50.9088 14.5255 50.9318 14.8175 50.9773 15.2892 50.6809 15.716 50.4074 15.9856L50.225 16.1653C49.4727 16.8841 48.9025 17.4683 49.1079 17.9175 49.1761 18.0522 49.3357 18.2095 49.4954 18.3442 50.2022 18.9958 51 19.6471 51.7525 19.4898 52.2085 19.3776 52.596 18.9731 53.0063 18.5239L53.166 18.3442C53.85 17.6253 54.6023 16.9964 55.4458 16.4799 56.4035 15.8733 57.2243 15.7384 57.9081 16.053 58.8201 16.5023 59.0482 17.5581 58.957 18.4116 58.934 18.6363 58.8885 18.8609 58.8428 19.0856 58.7746 19.4898 58.7061 19.8717 58.7516 20.2087 58.934 21.2194 60.2565 21.7586 61.4875 21.8036 61.7383 21.8036 61.9664 21.7362 62.0346 21.6913 62.0119 21.6913 61.9892 21.6239 61.9892 21.5789 61.9207 21.3319 61.784 20.7478 62.2855 20.366 62.7642 20.0065 63.3114 20.2537 63.5168 20.366 64.2463 20.703 65.0671 20.8152 65.8649 20.6803 65.9106 20.6803 65.956 20.6803 66.0018 20.6579 65.9106 20.5905 65.8194 20.4782 65.7737 20.366 65.6597 20.029 65.8421 19.6695 66.1614 19.5573 66.5262 19.4224 66.9365 19.5573 67.21 19.8492 67.5294 20.2087 67.5976 20.703 67.3924 21.1072Z" fill="#19768A" fill-rule="evenodd" fill-opacity="1" transform="matrix(-1 0 0 1 3936 526)"/><path d="M105 52.5002C105 81.4949 81.4947 105 52.5 105 23.5051 105 0 81.4949 0 52.5002 0 23.5051 23.5051 0 52.5 0 81.4947 0 105 23.5051 105 52.5002Z" fill="#E4FF63" fill-rule="evenodd" fill-opacity="1" transform="matrix(-1 0 0 1 4010 672)"/><path d="M57.791 45.0645C57.4033 39.6006 56.4677 30.9537 50.5364 20.0938 45.837 11.4468 44.263 10.2728 41.343 10.0018 36.5979 9.57281 33.8603 16.9557 32.3318 25.5576 31.8071 24.7673 31.3965 23.9998 31.1683 23.3224L30.6208 0 27.2902 0 26.7427 23.3224C26.5145 23.9998 26.1039 24.7673 25.5792 25.5576 24.0507 16.9557 21.3131 9.57281 16.568 10.0018 13.648 10.2728 12.0967 11.4468 7.37438 20.0938 1.44302 30.9762 0.507752 39.6006 0.119992 45.0645-0.267767 50.5281 0.0514937 59.4915 4.65982 59.8978 9.26791 60.3043 14.857 59.3784 18.7808 59.2431 22.7046 59.1077 26.7655 56.5338 27.2445 49.5574 27.4497 46.4416 27.3357 38.0656 26.2635 29.8022 27.8377 27.9507 29.001 26.4832 29.001 26.4832 29.001 26.4832 30.1645 27.9507 31.7386 29.8022 30.6665 38.0428 30.5523 46.4416 30.7578 49.5574 31.214 56.5338 35.2746 59.1077 39.2212 59.2431 43.145 59.3784 48.7343 60.3043 53.3424 59.8978 57.9278 59.514 58.27 50.5508 57.8823 45.0645Z" fill="#19768A" fill-rule="evenodd" fill-opacity="0.898039" transform="matrix(-1 0 0 1 3987 693)"/><path d="M105.098 52.5489C105.098 81.5706 81.5706 105.098 52.5487 105.098 23.5267 105.098 0 81.5706 0 52.5489 0 23.527 23.5267 0 52.5487 0 81.5706 0 105.098 23.527 105.098 52.5489Z" fill="#E4FF63" fill-rule="evenodd" fill-opacity="1" transform="matrix(-0.22723 -0.973841 -0.973841 0.22723 4096.14 930.606)"/><path d="M51.6147 46.2405 51.6147 31.6358C51.6147 24.5603 48.1962 18.3012 42.9561 14.3777 43.4283 13.3347 43.6757 12.2006 43.6757 11.0442 43.6757 4.94368 36.6589 0 28 0 19.3414 0 12.3245 4.94368 12.3245 11.0442 12.3245 12.2006 12.572 13.312 13.0442 14.3777 7.8041 18.3012 4.38561 24.5603 4.38561 31.6358L4.38561 46.2405C1.88916 46.9661 0 49.7782 0 53.1346 0 57.0578 2.51888 60.2327 5.64505 60.2327 8.77123 60.2327 11.2901 57.0578 11.2901 53.1346 11.2901 49.4606 9.06354 46.49 6.20725 46.1043L6.20725 31.613C6.20725 25.2179 9.26589 19.5483 13.9662 15.9653 15.6755 18.3464 18.5542 20.2514 22.0853 21.2718 22.0402 21.6575 21.9954 22.043 21.9954 22.4285 21.9954 25.5808 23.5247 28.2566 25.6837 29.4133L25.6837 32.543C23.4572 33.4501 21.8827 35.6724 21.8827 38.2352L21.8827 64.1107C20.8032 65.0404 20.0835 66.4011 20.0835 67.9432 20.0835 70.7327 22.3325 73.0005 25.0989 73.0005 26.1784 73.0005 27.1679 72.6602 28 72.0707 28.8097 72.6602 29.8219 73.0005 30.9014 73.0005 33.6675 73.0005 35.9165 70.7327 35.9165 67.9432 35.9165 66.4011 35.2195 65.0178 34.1173 64.1107L34.1173 38.2352C34.1173 35.6498 32.5431 33.4501 30.3165 32.543L30.3165 29.4133C32.4756 28.2795 34.0049 25.5808 34.0049 22.4285 34.0049 22.0204 33.96 21.6347 33.915 21.2718 37.4458 20.2514 40.3245 18.369 42.0338 15.9653 46.7344 19.5483 49.793 25.2179 49.793 31.613L49.793 46.1043C46.9367 46.4671 44.7102 49.4606 44.7102 53.1346 44.7102 57.0578 47.229 60.2327 50.3552 60.2327 53.4812 60.2327 56 57.0578 56 53.1346 56 49.7554 54.1109 46.9661 51.6147 46.2405Z" fill="#19768A" fill-rule="evenodd" fill-opacity="1" transform="matrix(-1 0 0 1 4061 855)"/><path d="M105 52.5C105 81.495 81.4952 105 52.5001 105 23.5052 105 0 81.495 0 52.5 0 23.5052 23.5052 0 52.5001 0 81.4952 0 105 23.5052 105 52.5Z" fill="#E4FF63" fill-rule="evenodd" fill-opacity="1" transform="matrix(-1 0 0 1 3953 1172)"/><path d="M69.0001 0 40.8776 0C37.8654 4.85167 34.4034 9.52281 31.2562 11.7341 23.2533 17.3529 16.8466 25.2057 13.542 27.1013 10.2376 29.0193 5.42681 30.1252 2.72922 30.1252 2.72922 30.1252 0.818482 29.5158 0.121545 31.1406-0.575392 32.7428 1.62776 38.7676 9.22586 36.263 9.22586 36.263 14.9359 39.1739 19.2296 37.4589 23.5231 35.744 35.5499 28.8162 40.9451 31.2308 46.3403 33.6454 54.1633 37.4589 59.0641 35.2474 63.9646 33.0361 65.6731 29.2225 64.6615 23.4908 63.65 17.7592 62.571 8.14613 68.9553 0ZM52.6347 11.9147C50.3867 16.1117 47.0597 17.1949 44.6543 17.3982 44.3621 17.3982 44.0923 17.4207 43.8226 17.4207 41.6869 17.4207 40.0683 16.7888 40.0011 16.7663 39.3266 16.4955 39.012 15.7509 39.2591 15.0738 39.5288 14.397 40.2708 14.081 40.9451 14.3292 41.1925 14.4195 47.1496 16.6308 50.3419 10.6735 50.6789 10.0416 51.4657 9.79336 52.0952 10.1319 52.7246 10.4705 52.972 11.2603 52.6347 11.8921Z" fill="#19768A" fill-rule="evenodd" fill-opacity="1" transform="matrix(-1 0 0 1 3937 1202)"/><text fill="#000000" fill-opacity="1" font-family="Roboto,Roboto_MSFontService,sans-serif" font-style="normal" font-variant="normal" font-weight="400" font-stretch="normal" font-size="55" text-anchor="start" direction="ltr" writing-mode="lr-tb" unicode-bidi="normal" text-decoration="none" transform="matrix(1 0 0 1 3058.64 620)">Digital Twin</text></g></g></svg>