<svg width="1966" height="2300" xmlns="http://www.w3.org/2000/svg" xmlns:xlink="http://www.w3.org/1999/xlink" xml:space="preserve" overflow="hidden"><g transform="translate(-591 -495)"><g><path d="M121.303 0C119.835 0 118.092 0.724065 116.258 2.25378L5.09634 94.7811C0 99.0337 0 105.948 4.97403 110.201L116.258 202.84C118.072 204.309 119.784 205.012 121.252 205.012 123.913 205.012 125.727 202.697 125.727 198.475L125.727 164.597C248.539 165.811 350.241 266.711 350.241 391.168L350.241 816.99 474.623 816.99 474.623 390.556 474.99 390.556C474.99 197.741 318.44 40.1397 125.727 38.9261L125.727 6.50639C125.727 2.30477 123.933 0 121.303 0Z" fill="#213244" fill-rule="evenodd" fill-opacity="1" transform="matrix(-1 1.22465e-16 1.22465e-16 1 2107 1465)"/><path d="M29.8575 0C21.848 0 13.4715 0.122316 4.01497 0.366948 1.82406 0.489264 0.0101903 2.30362 0.132474 4.49512 0.132474 6.72739 1.94634 8.50097 4.04554 8.50097 4.11687 8.50097 4.1882 8.50097 4.24935 8.50097 13.5938 8.13402 21.9702 8.0117 29.8575 8.0117 42.3508 8.0117 53.6314 8.37865 64.4331 9.10236L64.6777 9.10236C66.7361 9.10236 68.5602 7.40012 68.6825 5.21882 68.8047 3.03752 67.103 1.09065 64.9222 0.968336 53.9983 0.366948 42.4731 0 29.8575 0ZM162.841 22.2615C161.241 22.2615 159.712 23.1789 159.07 24.6365 158.214 26.7057 159.192 29.1316 161.251 29.9776 161.862 30.2223 162.464 30.5892 162.953 30.8237 180.541 38.713 197.406 48.427 212.936 59.5883 213.67 60.0776 214.516 60.3222 215.239 60.3222 216.574 60.3222 217.787 59.7106 218.52 58.62 219.855 56.7954 219.488 54.3695 217.674 53.0342 201.655 41.6282 184.301 31.6799 166.224 23.4235 165.623 23.1789 165.011 22.8221 164.41 22.5775 163.9 22.3635 163.36 22.2615 162.841 22.2615ZM285.776 123.733C285.002 123.733 284.227 123.947 283.555 124.395 281.731 125.731 281.241 128.279 282.576 130.104 293.867 146.484 303.446 164.077 310.966 182.404 311.578 183.984 313.035 184.952 314.615 184.952 315.216 184.952 315.705 184.83 316.184 184.595 318.253 183.739 319.221 181.436 318.375 179.377 310.732 160.56 300.898 142.356 289.129 125.486 288.375 124.345 287.08 123.733 285.776 123.733ZM333.395 275.242C333.324 275.242 333.242 275.242 333.171 275.252 330.99 275.364 329.166 277.189 329.289 279.37 329.778 298.788 330.267 318.572 330.501 339.937 330.501 342.118 332.325 343.932 334.506 343.932L334.628 343.932C336.809 343.82 338.633 341.996 338.633 339.815 338.266 318.45 337.91 298.665 337.42 279.136 337.298 277.015 335.596 275.242 333.395 275.242ZM334.995 436.781C332.692 436.781 330.868 438.595 330.868 440.786 330.868 462.385 330.746 483.505 330.624 501.343 330.624 503.524 332.325 505.349 334.628 505.471 336.809 505.471 338.633 503.647 338.633 501.465 338.755 483.628 338.878 462.385 339 440.786 339 438.595 337.176 436.781 334.995 436.781ZM334.027 598.309C331.714 598.309 330.022 600.134 330.022 602.315 329.9 612.263 329.9 622.1 329.9 632.048 329.9 642.363 329.9 652.679 330.022 662.872 330.022 665.175 331.836 667 334.027 667 336.33 666.878 338.032 665.053 338.032 662.872 338.032 652.556 338.032 642.363 338.032 632.048 338.032 622.1 338.032 612.263 338.032 602.315 338.032 600.134 336.208 598.309 334.027 598.309Z" fill="#FFFFFF" fill-rule="evenodd" fill-opacity="1" transform="matrix(-1 1.22465e-16 1.22465e-16 1 2027 1562)"/><path d="M1399 1393.01C1396.4 1393.01 1393.79 1393.88 1391.8 1395.61L1305.01 1473.29C1301.01 1476.86 1302.82 1479.83 1309 1479.83L1335.87 1479.83 1335.87 2276.99 1461.41 2276.99 1461.41 1479.83 1489 1479.83C1495.17 1479.83 1496.99 1476.86 1492.99 1473.29L1406.2 1395.61C1404.21 1393.88 1401.6 1393.01 1399 1393.01Z" fill="#19768A" fill-rule="evenodd" fill-opacity="1"/><path d="M1398.95 1478.01C1397.35 1478.01 1396 1479.61 1396 1481.55L1396 1530.2C1396 1532.24 1397.35 1533.86 1398.95 1533.86 1400.65 1533.86 1402 1532.24 1402 1530.2L1402 1481.55C1402 1479.61 1400.65 1478.01 1398.95 1478.01ZM1398.95 1607.76C1397.35 1607.76 1396 1609.36 1396 1611.29L1396 1659.95C1396 1661.88 1397.35 1663.49 1398.95 1663.49 1400.65 1663.49 1402 1661.88 1402 1659.95L1402 1611.29C1402 1609.36 1400.65 1607.76 1398.95 1607.76ZM1398.95 1737.38C1397.35 1737.38 1396 1739 1396 1741.04L1396 1789.59C1396 1791.63 1397.35 1793.24 1398.95 1793.24 1400.65 1793.24 1402 1791.63 1402 1789.59L1402 1741.04C1402 1739 1400.65 1737.38 1398.95 1737.38ZM1398.95 1867.13C1397.35 1867.13 1396 1868.74 1396 1870.68L1396 1919.32C1396 1921.26 1397.35 1922.87 1398.95 1922.87 1400.65 1922.87 1402 1921.26 1402 1919.32L1402 1870.68C1402 1868.74 1400.65 1867.13 1398.95 1867.13ZM1398.95 1996.77C1397.35 1996.77 1396 1998.37 1396 2000.42L1396 2049.07C1396 2051.01 1397.35 2052.62 1398.95 2052.62 1400.65 2052.62 1402 2051.01 1402 2049.07L1402 2000.42C1402 1998.37 1400.65 1996.77 1398.95 1996.77ZM1398.95 2126.51C1397.35 2126.51 1396 2128.12 1396 2130.05L1396 2178.71C1396 2180.75 1397.35 2182.25 1398.95 2182.25 1400.65 2182.25 1402 2180.75 1402 2178.71L1402 2130.05C1402 2128.12 1400.65 2126.51 1398.95 2126.51ZM1398.95 2256.25C1397.35 2256.25 1396 2257.87 1396 2259.8L1396 2308.45C1396 2310.39 1397.35 2312 1398.95 2312 1400.65 2312 1402 2310.39 1402 2308.45L1402 2259.8C1402 2257.87 1400.65 2256.25 1398.95 2256.25Z" fill="#FFFFFF" fill-rule="evenodd" fill-opacity="1"/><path d="M680.868 1471C681.225 1471 681.593 1471.02 681.96 1471.05L826.134 1484.03C832.694 1484.65 834.275 1489.01 829.541 1493.62L807.313 1515.95C847.393 1551.99 901.073 1573.83 958.771 1573.83 1153.1 1574.07 1310.63 1731.2 1310.63 1925.34L1311 1925.34 1311 2314 1185.05 2314 1185.05 1925.95C1185.05 1800.85 1083.27 1699.54 958.771 1699.54 866.215 1699.41 781.32 1663.5 718.399 1604.77L693.742 1629.28C691.947 1631.08 690.172 1631.96 688.662 1631.96 686.285 1631.96 684.52 1629.83 684.153 1625.76L671.034 1481.85C670.575 1475.67 674.87 1471 680.868 1471Z" fill="#64CBD3" fill-rule="evenodd" fill-opacity="1"/><path d="M1250.99 2202.29C1253.3 2202.29 1255 2204.1 1255 2206.3L1255 2266.99C1255 2269.18 1253.3 2271 1250.99 2271 1248.8 2271 1246.98 2269.18 1246.98 2266.99L1246.98 2206.3C1246.98 2204.1 1248.8 2202.29 1250.99 2202.29ZM1250.99 2040.7C1253.3 2040.7 1255 2042.53 1255 2044.71L1255 2105.41C1255 2107.6 1253.3 2109.41 1250.99 2109.41 1248.8 2109.41 1246.98 2107.6 1246.98 2105.41L1246.98 2044.71C1246.98 2042.53 1248.8 2040.7 1250.99 2040.7ZM1247.08 1879.4C1249.04 1879.4 1250.66 1880.85 1250.99 1882.77 1253.66 1898.07 1255 1913.24 1255 1927.81L1255 1943.83C1255 1946.02 1253.3 1947.84 1250.99 1947.84 1248.8 1947.84 1246.98 1946.02 1246.98 1943.83L1246.98 1927.81C1246.98 1913.73 1245.65 1899.04 1242.97 1884.1 1242.61 1881.92 1244.06 1879.86 1246.25 1879.5 1246.53 1879.43 1246.82 1879.4 1247.08 1879.4ZM1179.56 1734.34C1180.74 1734.34 1181.91 1734.86 1182.73 1735.89 1195.48 1751.3 1207.02 1768.42 1216.98 1786.63 1217.95 1788.69 1217.23 1791.12 1215.28 1792.21 1214.68 1792.45 1214.06 1792.7 1213.34 1792.7 1212 1792.7 1210.54 1791.85 1209.81 1790.52 1200.22 1772.78 1188.93 1756.03 1176.41 1740.98 1175.08 1739.28 1175.32 1736.73 1177.02 1735.27 1177.76 1734.64 1178.67 1734.34 1179.56 1734.34ZM1044.49 1652.68C1044.7 1652.68 1044.91 1652.7 1045.12 1652.73 1065.04 1655.15 1084.84 1661.34 1103.9 1671.06 1105.97 1672.03 1106.7 1674.46 1105.73 1676.52 1104.99 1677.86 1103.54 1678.71 1102.09 1678.71 1101.47 1678.71 1100.87 1678.58 1100.26 1678.34 1081.92 1669 1063.1 1663.05 1044.02 1660.74 1041.84 1660.37 1040.26 1658.44 1040.63 1656.13 1040.85 1654.15 1042.55 1652.68 1044.49 1652.68ZM889.906 1623.61C890.355 1623.61 890.804 1623.68 891.232 1623.83 910.063 1630.63 929.496 1636.1 948.929 1639.86 951.112 1640.35 952.571 1642.53 952.081 1644.71 951.724 1646.54 950.021 1647.87 948.194 1647.87L947.348 1647.87C927.548 1643.87 907.635 1638.4 888.437 1631.49 886.376 1630.76 885.285 1628.33 886.009 1626.27 886.591 1624.64 888.223 1623.61 889.906 1623.61ZM752.049 1541C753.019 1541 753.977 1541.34 754.722 1542.02 769.779 1555.37 785.693 1567.75 802.208 1578.67 804.034 1580.01 804.513 1582.44 803.299 1584.38 802.575 1585.47 801.239 1586.09 799.902 1586.09 799.168 1586.09 798.444 1585.96 797.719 1585.47 780.949 1574.19 764.678 1561.68 749.377 1547.96 747.673 1546.51 747.551 1543.96 749.009 1542.25 749.846 1541.42 750.958 1541 752.049 1541Z" fill="#FFFFFF" fill-rule="evenodd" fill-opacity="1"/><path d="M1258.96 1488.01C1065.03 1488.01 907.775 1645.82 906.684 1838.6L874.628 1838.6C867.948 1838.6 866.01 1842.85 870.253 1847.95L962.911 1959.15C965.033 1961.7 967.827 1962.97 970.601 1962.97 973.386 1962.97 976.15 1961.7 978.21 1959.15L1070.86 1847.95C1075.11 1842.85 1073.17 1838.6 1066.62 1838.6L1032.37 1838.6C1033.34 1714.17 1124.78 1614.26 1249.25 1614.26L1259.2 1614.26C1384.28 1614.26 1486.04 1715.75 1486.04 1840.78L1486.04 2094.99 1610.51 2094.99 1610.51 1840.06 1610.99 1840.06C1610.99 1645.82 1453.37 1488.13 1258.96 1488.01Z" fill="#BFBFBF" fill-rule="evenodd" fill-opacity="1"/><path d="M1258.07 1555.01C1255.76 1555.01 1254.06 1556.83 1254.06 1559.02 1254.06 1561.33 1255.88 1563.03 1258.07 1563.03L1260.5 1563.03C1270.33 1563.03 1280.3 1563.52 1290.13 1564.36 1299.23 1565.34 1308.59 1566.56 1317.69 1568.25 1317.93 1568.25 1318.17 1568.38 1318.42 1568.38 1320.24 1568.38 1321.94 1566.92 1322.3 1564.98 1322.79 1562.79 1321.34 1560.72 1319.15 1560.36 1309.8 1558.53 1300.2 1557.2 1290.85 1556.35 1280.9 1555.49 1270.7 1555.01 1260.74 1555.01ZM1158.91 1571.69C1158.45 1571.69 1157.98 1571.76 1157.52 1571.91 1137.97 1578.48 1119.28 1586.98 1101.79 1597.19 1099.85 1598.41 1099.24 1600.84 1100.33 1602.79 1101.06 1604.13 1102.4 1604.73 1103.86 1604.73 1104.46 1604.73 1105.19 1604.61 1105.79 1604.25 1122.92 1594.27 1141.13 1586.01 1160.2 1579.57 1162.27 1578.83 1163.48 1576.53 1162.74 1574.34 1162.17 1572.71 1160.61 1571.69 1158.91 1571.69ZM1412.92 1594.34C1411.54 1594.34 1410.22 1595.05 1409.49 1596.35 1408.4 1598.29 1409 1600.84 1410.95 1601.93 1428.56 1611.78 1444.94 1623.33 1459.64 1636.34 1460.49 1637.07 1461.47 1637.44 1462.31 1637.44 1463.53 1637.44 1464.62 1636.94 1465.35 1635.97 1466.92 1634.39 1466.69 1631.84 1464.99 1630.27 1449.81 1616.89 1433.05 1604.97 1414.96 1594.89 1414.31 1594.52 1413.6 1594.34 1412.92 1594.34ZM1027.4 1661.98C1026.21 1661.98 1025.03 1662.48 1024.19 1663.45 1011.08 1679.63 999.911 1697.01 991.171 1715.37 990.192 1717.31 991.049 1719.75 993.109 1720.72 993.721 1720.96 994.322 1721.09 994.812 1721.09 996.393 1721.09 997.851 1720.23 998.453 1718.77 1006.96 1701.14 1017.76 1684.24 1030.51 1668.56 1031.84 1666.85 1031.61 1664.3 1029.91 1662.85 1029.17 1662.27 1028.28 1661.98 1027.4 1661.98ZM1523.85 1708.74C1523.24 1708.74 1522.63 1708.88 1522.06 1709.17 1520.11 1710.14 1519.26 1712.57 1520.23 1714.64 1529.34 1732.63 1536.02 1751.47 1540.27 1770.68 1540.75 1772.51 1542.33 1773.85 1544.28 1773.85 1544.53 1773.85 1544.88 1773.85 1545.13 1773.72 1547.31 1773.23 1548.65 1771.05 1548.17 1768.86 1543.79 1749.04 1536.87 1729.59 1527.52 1710.99 1526.75 1709.54 1525.31 1708.74 1523.85 1708.74ZM971.753 1810.68C969.55 1810.68 967.846 1812.34 967.734 1814.57 967.122 1827.1 967 1839.62 967 1850.07 967 1854.33 967 1858.47 967 1862.71 967.122 1866.97 967.122 1871.11 967.122 1875.37 967.122 1877.67 968.948 1879.49 971.13 1879.49 973.323 1879.49 975.139 1877.55 975.139 1875.37 975.139 1871.11 975.139 1866.85 975.139 1862.71 975.139 1858.47 975.139 1854.33 975.139 1850.07 975.139 1839.62 975.139 1827.34 975.75 1814.94 975.873 1812.75 974.17 1810.8 971.987 1810.68 971.906 1810.68 971.824 1810.68 971.753 1810.68ZM1549.86 1866.48C1547.68 1866.48 1545.85 1868.19 1545.85 1870.5 1545.85 1873.17 1545.85 1875.85 1545.85 1878.52L1545.85 1931.17C1545.85 1933.36 1547.55 1935.17 1549.86 1935.17 1552.05 1935.17 1553.87 1933.36 1553.87 1931.17L1553.87 1878.52C1553.87 1875.85 1553.87 1873.17 1553.87 1870.5 1553.99 1868.31 1552.17 1866.48 1549.86 1866.48ZM1549.86 2028.31C1547.55 2028.31 1545.85 2030 1545.85 2032.32L1545.85 2092.99C1545.85 2095.17 1547.55 2097 1549.86 2097 1552.05 2097 1553.87 2095.17 1553.87 2092.99L1553.87 2032.32C1553.87 2030 1552.05 2028.31 1549.86 2028.31Z" fill="#FFFFFF" fill-rule="evenodd" fill-opacity="1"/><path d="M1245 2729.67C1245 2728.75 1245.75 2728 1246.67 2728L1253.33 2728C1254.25 2728 1255 2728.75 1255 2729.67L1255 2792.33C1255 2793.25 1254.25 2794 1253.33 2794L1246.67 2794C1245.75 2794 1245 2793.25 1245 2792.33Z" fill="#FFFFFF" fill-rule="evenodd" fill-opacity="1"/><path d="M824 1982.57C824 1973.42 831.417 1966 840.567 1966L1222.43 1966C1231.58 1966 1239 1973.42 1239 1982.57L1239 2298.43C1239 2307.58 1231.58 2315 1222.43 2315L840.567 2315C831.417 2315 824 2307.58 824 2298.43Z" fill="#91E0E6" fill-rule="evenodd" fill-opacity="1"/><path d="M839.5 1993.76C839.5 1987.54 844.542 1982.5 850.761 1982.5L1211.24 1982.5C1217.46 1982.5 1222.5 1987.54 1222.5 1993.76L1222.5 2296.24C1222.5 2302.46 1217.46 2307.5 1211.24 2307.5L850.761 2307.5C844.542 2307.5 839.5 2302.46 839.5 2296.24Z" stroke="#FFFFFF" stroke-width="6.875" stroke-linecap="butt" stroke-linejoin="round" stroke-miterlimit="10" stroke-opacity="1" fill="none" fill-rule="evenodd"/><rect x="844" y="2023" width="372" height="192" fill="#91E0E6" fill-opacity="1"/><text fill="#FFFFFF" fill-opacity="1" font-family="Roboto,Roboto_MSFontService,sans-serif" font-style="normal" font-variant="normal" font-weight="700" font-stretch="normal" font-size="55" text-anchor="start" direction="ltr" writing-mode="lr-tb" unicode-bidi="normal" text-decoration="none" transform="matrix(1 0 0 1 878.289 2105)">Promotional </text><text fill="#FFFFFF" fill-opacity="1" font-family="Roboto,Roboto_MSFontService,sans-serif" font-style="normal" font-variant="normal" font-weight="700" font-stretch="normal" font-size="55" text-anchor="start" direction="ltr" writing-mode="lr-tb" unicode-bidi="normal" text-decoration="none" transform="matrix(1 0 0 1 914.085 2171)">Materials</text><rect x="824" y="2238" width="415" height="77.9998" fill="#EFFF41" fill-opacity="1"/><text fill="#213244" fill-opacity="1" font-family="Roboto,Roboto_MSFontService,sans-serif" font-style="normal" font-variant="normal" font-weight="400" font-stretch="normal" font-size="46" text-anchor="start" direction="ltr" writing-mode="lr-tb" unicode-bidi="normal" text-decoration="none" transform="matrix(1 0 0 1 1076.89 2296)">Exit</text><path d="M1259 1982.57C1259 1973.42 1266.42 1966 1275.57 1966L1940.43 1966C1949.58 1966 1957 1973.42 1957 1982.57L1957 2298.43C1957 2307.58 1949.58 2315 1940.43 2315L1275.57 2315C1266.42 2315 1259 2307.58 1259 2298.43Z" fill="#91E0E6" fill-rule="evenodd" fill-opacity="1"/><rect x="1282" y="2023" width="656" height="192" fill="#91E0E6" fill-opacity="1"/><text fill="#FFFFFF" fill-opacity="1" font-family="Roboto,Roboto_MSFontService,sans-serif" font-style="normal" font-variant="normal" font-weight="700" font-stretch="normal" font-size="55" text-anchor="start" direction="ltr" writing-mode="lr-tb" unicode-bidi="normal" text-decoration="none" transform="matrix(1 0 0 1 1345.9 2105)">Regulatory</text><text fill="#FFFFFF" fill-opacity="1" font-family="Roboto,Roboto_MSFontService,sans-serif" font-style="normal" font-variant="normal" font-weight="700" font-stretch="normal" font-size="55" text-anchor="start" direction="ltr" writing-mode="lr-tb" unicode-bidi="normal" text-decoration="none" transform="matrix(1 0 0 1 1613.45 2105)">-</text><text fill="#FFFFFF" fill-opacity="1" font-family="Roboto,Roboto_MSFontService,sans-serif" font-style="normal" font-variant="normal" font-weight="700" font-stretch="normal" font-size="55" text-anchor="start" direction="ltr" writing-mode="lr-tb" unicode-bidi="normal" text-decoration="none" transform="matrix(1 0 0 1 1634.65 2105)">Approved </text><text fill="#FFFFFF" fill-opacity="1" font-family="Roboto,Roboto_MSFontService,sans-serif" font-style="normal" font-variant="normal" font-weight="700" font-stretch="normal" font-size="55" text-anchor="start" direction="ltr" writing-mode="lr-tb" unicode-bidi="normal" text-decoration="none" transform="matrix(1 0 0 1 1504.32 2171)">Labeling</text><path d="M1004 2280.45 1015.5 2280.45 1015.5 2258 1038.5 2258 1038.5 2280.45 1050 2280.45 1027 2296Z" fill="#213244" fill-rule="evenodd" fill-opacity="1"/><path d="M1273.5 1993.76C1273.5 1987.54 1278.54 1982.5 1284.76 1982.5L1928.24 1982.5C1934.46 1982.5 1939.5 1987.54 1939.5 1993.76L1939.5 2296.24C1939.5 2302.46 1934.46 2307.5 1928.24 2307.5L1284.76 2307.5C1278.54 2307.5 1273.5 2302.46 1273.5 2296.24Z" stroke="#FFFFFF" stroke-width="6.875" stroke-linecap="butt" stroke-linejoin="round" stroke-miterlimit="10" stroke-opacity="1" fill="none" fill-rule="evenodd"/><rect x="1259" y="2238" width="699" height="77.9998" fill="#EFFF41" fill-opacity="1"/><text fill="#213244" fill-opacity="1" font-family="Roboto,Roboto_MSFontService,sans-serif" font-style="normal" font-variant="normal" font-weight="400" font-stretch="normal" font-size="46" text-anchor="start" direction="ltr" writing-mode="lr-tb" unicode-bidi="normal" text-decoration="none" transform="matrix(1 0 0 1 1388.49 2296)">Journey          begins</text><path d="M1298 2280.45 1309.75 2280.45 1309.75 2258 1333.25 2258 1333.25 2280.45 1345 2280.45 1321.5 2296Z" fill="#213244" fill-rule="evenodd" fill-opacity="1"/><path d="M1860 2280.45 1871.5 2280.45 1871.5 2258 1894.5 2258 1894.5 2280.45 1906 2280.45 1883 2296Z" fill="#213244" fill-rule="evenodd" fill-opacity="1"/><path d="M1579 2280.45 1590.5 2280.45 1590.5 2258 1613.5 2258 1613.5 2280.45 1625 2280.45 1602 2296Z" fill="#213244" fill-rule="evenodd" fill-opacity="1"/><path d="M1332 1307C1332 1268.89 1362.89 1238 1401 1238 1439.11 1238 1470 1268.89 1470 1307 1470 1345.11 1439.11 1376 1401 1376 1362.89 1376 1332 1345.11 1332 1307Z" fill="#00757F" fill-rule="evenodd" fill-opacity="1"/><path d="M1209.06 976.752 1329.37 1201.18 1317.25 1207.68 1196.94 983.248ZM1350.36 1182.13 1352.55 1258.96 1289.77 1214.61Z" fill="#404040" fill-rule="nonzero" fill-opacity="1"/><path d="M1134 567C1134 528.892 1164.89 498 1203 498 1241.11 498 1272 528.892 1272 567 1272 605.108 1241.11 636 1203 636 1164.89 636 1134 605.108 1134 567Z" fill="#BFBFBF" fill-rule="evenodd" fill-opacity="1"/><path d="M1134 911C1134 872.892 1164.89 842 1203 842 1241.11 842 1272 872.892 1272 911 1272 949.108 1241.11 980 1203 980 1164.89 980 1134 949.108 1134 911Z" fill="#BFBFBF" fill-rule="evenodd" fill-opacity="1"/><path d="M1209.88 636 1209.88 780.448 1196.13 780.448 1196.13 636ZM1237.38 773.573 1203 842.323 1168.63 773.573Z" fill="#404040" fill-rule="nonzero" fill-opacity="1"/><path d="M1531 567C1531 528.892 1561.67 498 1599.5 498 1637.33 498 1668 528.892 1668 567 1668 605.108 1637.33 636 1599.5 636 1561.67 636 1531 605.108 1531 567Z" fill="#BFBFBF" fill-rule="evenodd" fill-opacity="1"/><path d="M1531 911C1531 872.892 1561.67 842 1599.5 842 1637.33 842 1668 872.892 1668 911 1668 949.108 1637.33 980 1599.5 980 1561.67 980 1531 949.108 1531 911Z" fill="#BFBFBF" fill-rule="evenodd" fill-opacity="1"/><path d="M1605.88 636 1605.88 780.448 1592.13 780.448 1592.13 636ZM1633.38 773.573 1599 842.323 1564.63 773.573Z" fill="#404040" fill-rule="nonzero" fill-opacity="1"/><path d="M6.05923-3.24828 126.372 221.179 114.253 227.675-6.05923 3.24828ZM147.36 202.126 149.547 278.96 86.768 234.609Z" fill="#404040" fill-rule="nonzero" fill-opacity="1" transform="matrix(-1 0 0 1 1599.55 980)"/><path d="M1060 690.5 1142 690.5 1142 663 1197 718 1142 773 1142 745.5 1060 745.5Z" fill="#00757F" fill-rule="evenodd" fill-opacity="1"/><path d="M1748 745.5 1665 745.5 1665 773 1610 718 1665 663 1665 690.5 1748 690.5Z" fill="#00757F" fill-rule="evenodd" fill-opacity="1"/><g><g><g><path d="M1884 769.875 1884 752.125 1808.56 752.125C1806.12 752.125 1804.12 750.128 1804.12 747.688L1804.12 703.313C1804.12 700.872 1806.12 698.875 1808.56 698.875L1884 698.875 1884 681.125C1884 676.244 1880.01 672.25 1875.12 672.25L1867.36 672.25C1866.69 672.25 1866.25 671.806 1866.25 671.141L1866.25 664.484C1866.25 663.819 1866.69 663.375 1867.36 663.375L1872.91 663.375C1874.24 663.375 1875.12 662.488 1875.12 661.156L1875.12 645.625C1875.12 640.744 1871.13 636.75 1866.25 636.75L1804.12 636.75C1799.24 636.75 1795.25 640.744 1795.25 645.625L1795.25 661.156C1795.25 662.488 1796.14 663.375 1797.47 663.375L1803.02 663.375C1803.68 663.375 1804.12 663.819 1804.12 664.484L1804.12 671.141C1804.12 671.806 1803.68 672.25 1803.02 672.25L1795.25 672.25C1790.37 672.25 1786.38 676.244 1786.38 681.125L1786.38 787.625C1786.38 792.506 1790.37 796.5 1795.25 796.5L1826.31 796.5C1826.31 781.856 1838.29 769.875 1852.94 769.875L1884 769.875Z" fill="#00757F" fill-rule="nonzero" fill-opacity="1"/><path d="M1813 709.969 1813 741.031C1813 742.362 1813.89 743.25 1815.22 743.25L1884 743.25 1884 707.75 1815.22 707.75C1813.89 707.75 1813 708.638 1813 709.969Z" fill="#00757F" fill-rule="nonzero" fill-opacity="1"/><path d="M1872.91 805.375 1852.94 805.375C1848.06 805.375 1844.06 801.381 1844.06 796.5 1844.06 791.619 1848.06 787.625 1852.94 787.625L1872.91 787.625 1872.91 805.375ZM1892.88 778.75 1852.94 778.75C1843.18 778.75 1835.19 786.737 1835.19 796.5 1835.19 806.262 1843.18 814.25 1852.94 814.25L1892.88 814.25C1902.64 814.25 1910.62 806.262 1910.62 796.5 1910.62 786.737 1902.64 778.75 1892.88 778.75Z" fill="#00757F" fill-rule="nonzero" fill-opacity="1"/></g></g></g><g><g><g><path d="M144.375 175 65.625 175 65.625 35 144.375 35 144.375 175ZM96.25 17.5 113.75 17.5C116.156 17.5 118.125 19.4688 118.125 21.875 118.125 24.2813 116.156 26.25 113.75 26.25L96.25 26.25C93.8438 26.25 91.875 24.2813 91.875 21.875 91.875 19.4688 93.8438 17.5 96.25 17.5ZM153.125 8.75 56.875 8.75C54.4688 8.75 52.5 10.7188 52.5 13.125L52.5 196.875C52.5 199.281 54.4688 201.25 56.875 201.25L153.125 201.25C155.531 201.25 157.5 199.281 157.5 196.875L157.5 13.125C157.5 10.7188 155.531 8.75 153.125 8.75Z" fill="#00757F" fill-rule="nonzero" fill-opacity="1" transform="matrix(1.00476 0 0 1 863 613)"/></g></g></g><path d="M745.355 1195.44C750.09 1197.79 764.579 1204.1 782.996 1204.1 783.124 1204.1 783.249 1204.1 783.374 1204.1 794.205 1204.1 804.914 1201.7 814.699 1197.11L843.848 1226.88C840.089 1231.15 832.571 1240.72 829.388 1251.56L661.641 1251.56C658.429 1240.72 650.911 1231.15 647.152 1226.88L676.301 1197.14C681.149 1199.38 693.257 1204.04 709.18 1204.04 721.746 1204.04 734.139 1201.07 745.355 1195.44ZM828.125 1257.78C828.096 1258.12 828.039 1258.49 828.01 1258.83 826.721 1275.3 828.641 1283.81 837.335 1300.22 845.108 1314.85 845.108 1320.77 845.108 1333.73 845.053 1346.29 836.646 1363.38 821.01 1370.37 809.964 1375.33 801.357 1375.81 792.234 1376.29 787.615 1376.54 782.825 1376.82 777.69 1377.7 765.066 1379.82 754.509 1383.93 745.5 1390.21 736.49 1383.93 725.963 1379.82 713.31 1377.7 708.175 1376.82 703.414 1376.54 698.794 1376.29 689.669 1375.81 681.065 1375.33 669.99 1370.37 654.383 1363.38 645.947 1346.29 645.947 1333.73 645.947 1320.77 645.947 1314.85 653.694 1300.22 662.388 1283.81 664.308 1275.3 663.019 1258.83 662.99 1258.49 662.961 1258.12 662.903 1257.78ZM745.413 1188 743.808 1188.85C732.818 1194.59 721.17 1197.51 709.18 1197.51 690.532 1197.51 677.363 1190.35 677.219 1190.26L674.98 1189.02 640.239 1224.5 638 1226.8 640.239 1229.06C640.381 1229.23 655.214 1244.48 656.39 1259.34 657.566 1274.5 655.903 1281.92 647.812 1297.17 639.32 1313.24 639.32 1320.51 639.32 1333.73 639.32 1341.2 641.817 1349.74 646.234 1357.19 651.371 1365.87 658.658 1372.49 667.265 1376.34 679.457 1381.78 689.096 1382.31 698.421 1382.82 703.04 1383.08 707.428 1383.33 712.192 1384.15 724.385 1386.22 734.396 1390.21 742.804 1396.38L743.693 1397 747.336 1397 748.225 1396.38C756.632 1390.21 766.644 1386.22 778.837 1384.15 783.598 1383.33 787.989 1383.08 792.608 1382.82 801.933 1382.31 811.571 1381.78 823.764 1376.34 832.371 1372.49 839.658 1365.87 844.795 1357.19 849.212 1349.74 851.737 1341.2 851.737 1333.73 851.737 1320.51 851.737 1313.21 843.217 1297.17 835.125 1281.92 833.434 1274.5 834.639 1259.34 835.786 1244.48 850.617 1229.23 850.761 1229.06L853 1226.8 816.075 1189.11 813.868 1190.21C804.417 1195.02 793.96 1197.54 783.324 1197.54 783.206 1197.54 783.087 1197.54 782.969 1197.54 762.685 1197.54 747.165 1188.99 747.02 1188.91L745.413 1188Z" fill="#1D1D1B" fill-rule="evenodd" fill-opacity="1"/><path d="M745.029 1183 741.157 1185.01C730.828 1190.39 719.9 1193.14 708.684 1193.14 691.672 1193.14 679.394 1186.68 678.994 1186.48L673.657 1183.51 636.366 1221.57 631.003 1227.06 636.395 1232.52C639.033 1235.36 641.471 1238.42 643.652 1241.61 648.183 1248.35 650.824 1254.7 651.226 1259.97 652.373 1274.23 650.853 1280.83 643.194 1295.36 634.156 1312.43 634.156 1320.56 634.156 1334.07 634.156 1342.34 636.91 1351.71 641.702 1359.84 647.352 1369.38 655.356 1376.66 664.851 1380.9 670.504 1383.45 676.469 1385.26 682.608 1386.34 687.971 1387.27 692.906 1387.53 697.669 1387.78 702.172 1388.04 706.417 1388.29 710.894 1389.03 722.338 1390.98 731.717 1394.72 739.55 1400.44L741.644 1402 748.356 1402 750.479 1400.44C758.283 1394.72 767.662 1391.01 779.109 1389.06 783.612 1388.29 787.857 1388.07 792.36 1387.81 797.124 1387.56 802.029 1387.27 807.421 1386.34 813.56 1385.29 819.528 1383.45 825.178 1380.9 834.673 1376.66 842.677 1369.38 848.298 1359.86 853.119 1351.74 855.873 1342.34 855.873 1334.1 855.873 1320.56 855.873 1312.43 846.835 1295.36 839.147 1280.83 837.656 1274.23 838.776 1259.97 839.807 1246.85 853.492 1232.67 853.606 1232.52L859 1227.06 816.514 1183.65 811.237 1186.34C802.398 1190.87 792.594 1193.2 782.672 1193.2 782.612 1193.2 782.554 1193.2 782.494 1193.2 763.646 1193.2 748.959 1185.21 748.845 1185.12L745.029 1183Z" fill="#FFFFFF" fill-rule="evenodd" fill-opacity="1"/><path d="M745.355 1195.44C750.09 1197.79 764.579 1204.1 782.996 1204.1 783.124 1204.1 783.249 1204.1 783.374 1204.1 794.205 1204.1 804.914 1201.7 814.699 1197.11L843.848 1226.88C840.089 1231.15 832.571 1240.72 829.388 1251.56L661.641 1251.56C658.429 1240.72 650.911 1231.15 647.152 1226.88L676.301 1197.14C681.149 1199.38 693.257 1204.04 709.18 1204.04 721.746 1204.04 734.139 1201.07 745.355 1195.44ZM828.125 1257.78C828.096 1258.12 828.039 1258.49 828.01 1258.83 826.721 1275.3 828.641 1283.81 837.335 1300.22 845.108 1314.85 845.108 1320.77 845.108 1333.73 845.053 1346.29 836.646 1363.38 821.01 1370.37 809.964 1375.33 801.357 1375.81 792.234 1376.29 787.615 1376.54 782.825 1376.82 777.69 1377.7 765.066 1379.82 754.509 1383.93 745.5 1390.21 736.49 1383.93 725.963 1379.82 713.31 1377.7 708.175 1376.82 703.414 1376.54 698.794 1376.29 689.669 1375.81 681.065 1375.33 669.99 1370.37 654.383 1363.38 645.947 1346.29 645.947 1333.73 645.947 1320.77 645.947 1314.85 653.694 1300.22 662.388 1283.81 664.308 1275.3 663.019 1258.83 662.99 1258.49 662.961 1258.12 662.903 1257.78ZM745.413 1188 743.808 1188.85C732.818 1194.59 721.17 1197.51 709.18 1197.51 690.532 1197.51 677.363 1190.35 677.219 1190.26L674.98 1189.02 640.239 1224.5 638 1226.8 640.239 1229.06C640.381 1229.23 655.214 1244.48 656.39 1259.34 657.566 1274.5 655.903 1281.92 647.812 1297.17 639.32 1313.24 639.32 1320.51 639.32 1333.73 639.32 1341.2 641.817 1349.74 646.234 1357.19 651.371 1365.87 658.658 1372.49 667.265 1376.34 679.457 1381.78 689.096 1382.31 698.421 1382.82 703.04 1383.08 707.428 1383.33 712.192 1384.15 724.385 1386.22 734.396 1390.21 742.804 1396.38L743.693 1397 747.336 1397 748.225 1396.38C756.632 1390.21 766.644 1386.22 778.837 1384.15 783.598 1383.33 787.989 1383.08 792.608 1382.82 801.933 1382.31 811.571 1381.78 823.764 1376.34 832.371 1372.49 839.658 1365.87 844.795 1357.19 849.212 1349.74 851.737 1341.2 851.737 1333.73 851.737 1320.51 851.737 1313.21 843.217 1297.17 835.125 1281.92 833.434 1274.5 834.639 1259.34 835.786 1244.48 850.617 1229.23 850.761 1229.06L853 1226.8 816.075 1189.11 813.868 1190.21C804.417 1195.02 793.96 1197.54 783.324 1197.54 783.206 1197.54 783.087 1197.54 782.969 1197.54 762.685 1197.54 747.165 1188.99 747.02 1188.91L745.413 1188Z" fill="#019CA6" fill-rule="evenodd" fill-opacity="1"/><path d="M693.716 1215.77C696.222 1215.77 699.583 1216.67 699.583 1221.53L699.583 1222.07C699.583 1226.9 696.222 1227.8 693.716 1227.8L688.331 1227.8 688.331 1215.77ZM684.002 1212 684.002 1244 688.331 1244 688.331 1231.54 694.37 1231.54 699.298 1244 704 1244 698.588 1230.78C701.579 1229.74 704 1227.3 704 1222.18L704 1221.36C704 1213.6 698.473 1212 693.602 1212Z" fill="#019CA6" fill-rule="evenodd" fill-opacity="1"/><path d="M719.643 1215.77C724.598 1215.77 726.582 1219.57 726.582 1227.7L726.582 1229.3C726.582 1237.43 724.598 1241.23 719.643 1241.23L719.357 1241.23C714.402 1241.23 712.418 1237.46 712.418 1229.33L712.418 1227.7C712.418 1219.57 714.402 1215.77 719.357 1215.77ZM719.529 1212C711.74 1212 708 1216.62 708 1227.7L708 1229.3C708 1240.39 711.795 1245 719.529 1245 727.26 1245 731 1240.41 731 1229.33L731 1227.7C731 1216.59 727.289 1212 719.529 1212Z" fill="#019CA6" fill-rule="evenodd" fill-opacity="1"/><path d="M736 1212 736 1234.38C736 1241.92 739.369 1245 747.028 1245 754.658 1245 758 1241.92 758 1234.38L758 1212 753.623 1212 753.623 1234.15C753.623 1239.32 751.635 1241.18 747.028 1241.18 742.392 1241.18 740.377 1239.32 740.377 1234.15L740.377 1212Z" fill="#019CA6" fill-rule="evenodd" fill-opacity="1"/><path d="M762.003 1212 762.003 1215.77 770.248 1215.77 770.248 1244 774.722 1244 774.722 1215.77 782.998 1215.77 782.998 1212Z" fill="#019CA6" fill-rule="evenodd" fill-opacity="1"/><path d="M787.002 1212 787.002 1244 805.998 1244 805.998 1240.23 791.395 1240.23 791.395 1229.58 803.887 1229.58 803.887 1225.81 791.369 1225.81 791.369 1215.77 805.969 1215.77 805.969 1212Z" fill="#019CA6" fill-rule="evenodd" fill-opacity="1"/><text fill="#019CA6" fill-opacity="1" font-family="Roboto,Roboto_MSFontService,sans-serif" font-style="normal" font-variant="normal" font-weight="700" font-stretch="normal" font-size="92" text-anchor="start" direction="ltr" writing-mode="lr-tb" unicode-bidi="normal" text-decoration="none" transform="matrix(1 0 0 1 718.403 1372)">1</text><text fill="#000000" fill-opacity="1" font-family="Roboto,Roboto_MSFontService,sans-serif" font-style="normal" font-variant="normal" font-weight="400" font-stretch="normal" font-size="64" text-anchor="start" direction="ltr" writing-mode="lr-tb" unicode-bidi="normal" text-decoration="none" transform="matrix(1 0 0 1 992.505 1155)">Adjacent</text><text fill="#000000" fill-opacity="1" font-family="Roboto,Roboto_MSFontService,sans-serif" font-style="normal" font-variant="normal" font-weight="400" font-stretch="normal" font-size="64" text-anchor="start" direction="ltr" writing-mode="lr-tb" unicode-bidi="normal" text-decoration="none" transform="matrix(1 0 0 1 631.017 1155)">Support</text><text fill="#000000" fill-opacity="1" font-family="Roboto,Roboto_MSFontService,sans-serif" font-style="normal" font-variant="normal" font-weight="400" font-stretch="normal" font-size="64" text-anchor="start" direction="ltr" writing-mode="lr-tb" unicode-bidi="normal" text-decoration="none" transform="matrix(6.12323e-17 1 -1 6.12323e-17 1252.35 665)">MOA </text><text fill="#000000" fill-opacity="1" font-family="Roboto,Roboto_MSFontService,sans-serif" font-style="normal" font-variant="normal" font-weight="400" font-stretch="normal" font-size="64" text-anchor="start" direction="ltr" writing-mode="lr-tb" unicode-bidi="normal" text-decoration="none" transform="matrix(-1.83697e-16 -1 1 -1.83697e-16 1550.07 810)">MOA</text><path d="M2145 1964C2145 1925.89 2175.67 1895 2213.5 1895 2251.33 1895 2282 1925.89 2282 1964 2282 2002.11 2251.33 2033 2213.5 2033 2175.67 2033 2145 2002.11 2145 1964Z" fill="#213244" fill-rule="evenodd" fill-opacity="1"/><path d="M6.87468-0.0668222 8.78906 196.885-4.96029 197.018-6.87468 0.0668222ZM36.2209 189.743 2.51578 258.824-32.5258 190.411Z" fill="#404040" fill-rule="nonzero" fill-opacity="1" transform="matrix(-1 0 0 1 2216.52 1636)"/><path d="M2147 775C2147 736.892 2177.89 706 2216 706 2254.11 706 2285 736.892 2285 775 2285 813.108 2254.11 844 2216 844 2177.89 844 2147 813.108 2147 775Z" fill="#BFBFBF" fill-rule="evenodd" fill-opacity="1"/><path d="M2147 1171.5C2147 1133.67 2177.89 1103 2216 1103 2254.11 1103 2285 1133.67 2285 1171.5 2285 1209.33 2254.11 1240 2216 1240 2177.89 1240 2147 1209.33 2147 1171.5Z" fill="#BFBFBF" fill-rule="evenodd" fill-opacity="1"/><path d="M2147 1567.5C2147 1529.67 2177.89 1499 2216 1499 2254.11 1499 2285 1529.67 2285 1567.5 2285 1605.33 2254.11 1636 2216 1636 2177.89 1636 2147 1605.33 2147 1567.5Z" fill="#BFBFBF" fill-rule="evenodd" fill-opacity="1"/><path d="M2222.88 844 2222.88 1040.95 2209.13 1040.95 2209.13 844ZM2250.38 1034.07 2216 1102.82 2181.63 1034.07Z" fill="#404040" fill-rule="nonzero" fill-opacity="1"/><path d="M2222.88 1240 2222.88 1436.95 2209.13 1436.95 2209.13 1240ZM2250.38 1430.07 2216 1498.82 2181.63 1430.07Z" fill="#404040" fill-rule="nonzero" fill-opacity="1"/><path d="M2357 1000.5 2274 1000.5 2274 1028 2219 973 2274 918 2274 945.5 2357 945.5Z" fill="#213244" fill-rule="evenodd" fill-opacity="1"/><path d="M2358 1391.5 2275 1391.5 2275 1419 2220 1364 2275 1309 2275 1336.5 2358 1336.5Z" fill="#213244" fill-rule="evenodd" fill-opacity="1"/><g><g><g><path d="M142 150.875 142 133.125 66.5624 133.125C64.1218 133.125 62.1249 131.128 62.1249 128.687L62.1249 84.3124C62.1249 81.8718 64.1218 79.8749 66.5624 79.8749L142 79.8749 142 62.1249C142 57.2437 138.006 53.2499 133.125 53.2499L125.359 53.2499C124.694 53.2499 124.25 52.8062 124.25 52.1406L124.25 45.4843C124.25 44.8187 124.694 44.375 125.359 44.375L130.906 44.375C132.237 44.375 133.125 43.4875 133.125 42.1562L133.125 26.625C133.125 21.7437 129.131 17.75 124.25 17.75L62.1249 17.75C57.2437 17.75 53.2499 21.7437 53.2499 26.625L53.2499 42.1562C53.2499 43.4875 54.1374 44.375 55.4687 44.375L61.0156 44.375C61.6812 44.375 62.1249 44.8187 62.1249 45.4843L62.1249 52.1406C62.1249 52.8062 61.6812 53.2499 61.0156 53.2499L53.2499 53.2499C48.3687 53.2499 44.375 57.2437 44.375 62.1249L44.375 168.625C44.375 173.506 48.3687 177.5 53.2499 177.5L84.3124 177.5C84.3124 162.856 96.2936 150.875 110.937 150.875L142 150.875Z" fill="#213244" fill-rule="nonzero" fill-opacity="1" transform="matrix(1 0 0 1 2341 1257)"/><path d="M70.9999 90.9687 70.9999 122.031C70.9999 123.362 71.8874 124.25 73.2187 124.25L142 124.25 142 88.7499 73.2187 88.7499C71.8874 88.7499 70.9999 89.6374 70.9999 90.9687Z" fill="#213244" fill-rule="nonzero" fill-opacity="1" transform="matrix(1 0 0 1 2341 1257)"/><path d="M130.906 186.375 110.937 186.375C106.056 186.375 102.062 182.381 102.062 177.5 102.062 172.619 106.056 168.625 110.937 168.625L130.906 168.625 130.906 186.375ZM150.875 159.75 110.937 159.75C101.175 159.75 93.1874 167.737 93.1874 177.5 93.1874 187.262 101.175 195.25 110.937 195.25L150.875 195.25C160.637 195.25 168.625 187.262 168.625 177.5 168.625 167.737 160.637 159.75 150.875 159.75Z" fill="#213244" fill-rule="nonzero" fill-opacity="1" transform="matrix(1 0 0 1 2341 1257)"/></g></g></g><g><g><g><path d="M2476.38 1042 2397.62 1042 2397.62 902 2476.38 902 2476.38 1042ZM2428.25 884.5 2445.75 884.5C2448.16 884.5 2450.12 886.469 2450.12 888.875 2450.12 891.281 2448.16 893.25 2445.75 893.25L2428.25 893.25C2425.84 893.25 2423.88 891.281 2423.88 888.875 2423.88 886.469 2425.84 884.5 2428.25 884.5ZM2485.12 875.75 2388.88 875.75C2386.47 875.75 2384.5 877.719 2384.5 880.125L2384.5 1063.88C2384.5 1066.28 2386.47 1068.25 2388.88 1068.25L2485.12 1068.25C2487.53 1068.25 2489.5 1066.28 2489.5 1063.88L2489.5 880.125C2489.5 877.719 2487.53 875.75 2485.12 875.75Z" fill="#213244" fill-rule="nonzero" fill-opacity="1"/></g></g></g><path d="M1875.36 1195.44C1880.09 1197.79 1894.58 1204.1 1913 1204.1 1913.12 1204.1 1913.25 1204.1 1913.37 1204.1 1924.21 1204.1 1934.91 1201.7 1944.7 1197.11L1973.85 1226.88C1970.09 1231.15 1962.57 1240.72 1959.39 1251.56L1791.64 1251.56C1788.43 1240.72 1780.91 1231.15 1777.15 1226.88L1806.3 1197.14C1811.15 1199.38 1823.26 1204.04 1839.18 1204.04 1851.75 1204.04 1864.14 1201.07 1875.36 1195.44ZM1958.13 1257.78C1958.1 1258.12 1958.04 1258.49 1958.01 1258.83 1956.72 1275.3 1958.64 1283.81 1967.34 1300.22 1975.11 1314.85 1975.11 1320.77 1975.11 1333.73 1975.05 1346.29 1966.65 1363.38 1951.01 1370.37 1939.96 1375.33 1931.36 1375.81 1922.23 1376.29 1917.62 1376.54 1912.82 1376.82 1907.69 1377.7 1895.07 1379.82 1884.51 1383.93 1875.5 1390.21 1866.49 1383.93 1855.96 1379.82 1843.31 1377.7 1838.18 1376.82 1833.41 1376.54 1828.79 1376.29 1819.67 1375.81 1811.06 1375.33 1799.99 1370.37 1784.38 1363.38 1775.95 1346.29 1775.95 1333.73 1775.95 1320.77 1775.95 1314.85 1783.69 1300.22 1792.39 1283.81 1794.31 1275.3 1793.02 1258.83 1792.99 1258.49 1792.96 1258.12 1792.9 1257.78ZM1875.41 1188 1873.81 1188.85C1862.82 1194.59 1851.17 1197.51 1839.18 1197.51 1820.53 1197.51 1807.36 1190.35 1807.22 1190.26L1804.98 1189.02 1770.24 1224.5 1768 1226.8 1770.24 1229.06C1770.38 1229.23 1785.21 1244.48 1786.39 1259.34 1787.57 1274.5 1785.9 1281.92 1777.81 1297.17 1769.32 1313.24 1769.32 1320.51 1769.32 1333.73 1769.32 1341.2 1771.82 1349.74 1776.23 1357.19 1781.37 1365.87 1788.66 1372.49 1797.26 1376.34 1809.46 1381.78 1819.1 1382.31 1828.42 1382.82 1833.04 1383.08 1837.43 1383.33 1842.19 1384.15 1854.38 1386.22 1864.4 1390.21 1872.8 1396.38L1873.69 1397 1877.34 1397 1878.23 1396.38C1886.63 1390.21 1896.64 1386.22 1908.84 1384.15 1913.6 1383.33 1917.99 1383.08 1922.61 1382.82 1931.93 1382.31 1941.57 1381.78 1953.76 1376.34 1962.37 1372.49 1969.66 1365.87 1974.8 1357.19 1979.21 1349.74 1981.74 1341.2 1981.74 1333.73 1981.74 1320.51 1981.74 1313.21 1973.22 1297.17 1965.13 1281.92 1963.43 1274.5 1964.64 1259.34 1965.79 1244.48 1980.62 1229.23 1980.76 1229.06L1983 1226.8 1946.08 1189.11 1943.87 1190.21C1934.42 1195.02 1923.96 1197.54 1913.32 1197.54 1913.21 1197.54 1913.09 1197.54 1912.97 1197.54 1892.69 1197.54 1877.17 1188.99 1877.02 1188.91L1875.41 1188Z" fill="#1D1D1B" fill-rule="evenodd" fill-opacity="1"/><path d="M1876.03 1183 1872.16 1185.01C1861.83 1190.39 1850.9 1193.14 1839.68 1193.14 1822.67 1193.14 1810.39 1186.68 1809.99 1186.48L1804.66 1183.51 1767.37 1221.57 1762 1227.06 1767.39 1232.52C1770.03 1235.36 1772.47 1238.42 1774.65 1241.61 1779.18 1248.35 1781.82 1254.7 1782.23 1259.97 1783.37 1274.23 1781.85 1280.83 1774.19 1295.36 1765.16 1312.43 1765.16 1320.56 1765.16 1334.07 1765.16 1342.34 1767.91 1351.71 1772.7 1359.84 1778.35 1369.38 1786.36 1376.66 1795.85 1380.9 1801.5 1383.45 1807.47 1385.26 1813.61 1386.34 1818.97 1387.27 1823.91 1387.53 1828.67 1387.78 1833.17 1388.04 1837.42 1388.29 1841.89 1389.03 1853.34 1390.98 1862.72 1394.72 1870.55 1400.44L1872.64 1402 1879.36 1402 1881.48 1400.44C1889.28 1394.72 1898.66 1391.01 1910.11 1389.06 1914.61 1388.29 1918.86 1388.07 1923.36 1387.81 1928.12 1387.56 1933.03 1387.27 1938.42 1386.34 1944.56 1385.29 1950.53 1383.45 1956.18 1380.9 1965.67 1376.66 1973.68 1369.38 1979.3 1359.86 1984.12 1351.74 1986.87 1342.34 1986.87 1334.1 1986.87 1320.56 1986.87 1312.43 1977.84 1295.36 1970.15 1280.83 1968.66 1274.23 1969.78 1259.97 1970.81 1246.85 1984.49 1232.67 1984.61 1232.52L1990 1227.06 1947.51 1183.65 1942.24 1186.34C1933.4 1190.87 1923.59 1193.2 1913.67 1193.2 1913.61 1193.2 1913.55 1193.2 1913.49 1193.2 1894.65 1193.2 1879.96 1185.21 1879.85 1185.12L1876.03 1183Z" fill="#FFFFFF" fill-rule="evenodd" fill-opacity="1"/><path d="M1875.36 1195.44C1880.09 1197.79 1894.58 1204.1 1913 1204.1 1913.12 1204.1 1913.25 1204.1 1913.37 1204.1 1924.21 1204.1 1934.91 1201.7 1944.7 1197.11L1973.85 1226.88C1970.09 1231.15 1962.57 1240.72 1959.39 1251.56L1791.64 1251.56C1788.43 1240.72 1780.91 1231.15 1777.15 1226.88L1806.3 1197.14C1811.15 1199.38 1823.26 1204.04 1839.18 1204.04 1851.75 1204.04 1864.14 1201.07 1875.36 1195.44ZM1958.13 1257.78C1958.1 1258.12 1958.04 1258.49 1958.01 1258.83 1956.72 1275.3 1958.64 1283.81 1967.34 1300.22 1975.11 1314.85 1975.11 1320.77 1975.11 1333.73 1975.05 1346.29 1966.65 1363.38 1951.01 1370.37 1939.96 1375.33 1931.36 1375.81 1922.23 1376.29 1917.62 1376.54 1912.82 1376.82 1907.69 1377.7 1895.07 1379.82 1884.51 1383.93 1875.5 1390.21 1866.49 1383.93 1855.96 1379.82 1843.31 1377.7 1838.18 1376.82 1833.41 1376.54 1828.79 1376.29 1819.67 1375.81 1811.06 1375.33 1799.99 1370.37 1784.38 1363.38 1775.95 1346.29 1775.95 1333.73 1775.95 1320.77 1775.95 1314.85 1783.69 1300.22 1792.39 1283.81 1794.31 1275.3 1793.02 1258.83 1792.99 1258.49 1792.96 1258.12 1792.9 1257.78ZM1875.41 1188 1873.81 1188.85C1862.82 1194.59 1851.17 1197.51 1839.18 1197.51 1820.53 1197.51 1807.36 1190.35 1807.22 1190.26L1804.98 1189.02 1770.24 1224.5 1768 1226.8 1770.24 1229.06C1770.38 1229.23 1785.21 1244.48 1786.39 1259.34 1787.57 1274.5 1785.9 1281.92 1777.81 1297.17 1769.32 1313.24 1769.32 1320.51 1769.32 1333.73 1769.32 1341.2 1771.82 1349.74 1776.23 1357.19 1781.37 1365.87 1788.66 1372.49 1797.26 1376.34 1809.46 1381.78 1819.1 1382.31 1828.42 1382.82 1833.04 1383.08 1837.43 1383.33 1842.19 1384.15 1854.38 1386.22 1864.4 1390.21 1872.8 1396.38L1873.69 1397 1877.34 1397 1878.23 1396.38C1886.63 1390.21 1896.64 1386.22 1908.84 1384.15 1913.6 1383.33 1917.99 1383.08 1922.61 1382.82 1931.93 1382.31 1941.57 1381.78 1953.76 1376.34 1962.37 1372.49 1969.66 1365.87 1974.8 1357.19 1979.21 1349.74 1981.74 1341.2 1981.74 1333.73 1981.74 1320.51 1981.74 1313.21 1973.22 1297.17 1965.13 1281.92 1963.43 1274.5 1964.64 1259.34 1965.79 1244.48 1980.62 1229.23 1980.76 1229.06L1983 1226.8 1946.08 1189.11 1943.87 1190.21C1934.42 1195.02 1923.96 1197.54 1913.32 1197.54 1913.21 1197.54 1913.09 1197.54 1912.97 1197.54 1892.69 1197.54 1877.17 1188.99 1877.02 1188.91L1875.41 1188Z" fill="#0E2841" fill-rule="evenodd" fill-opacity="1"/><path d="M1823.72 1215.77C1826.22 1215.77 1829.58 1216.67 1829.58 1221.53L1829.58 1222.07C1829.58 1226.9 1826.22 1227.8 1823.72 1227.8L1818.33 1227.8 1818.33 1215.77ZM1814 1212 1814 1244 1818.33 1244 1818.33 1231.54 1824.37 1231.54 1829.3 1244 1834 1244 1828.59 1230.78C1831.58 1229.74 1834 1227.3 1834 1222.18L1834 1221.36C1834 1213.6 1828.47 1212 1823.6 1212Z" fill="#0E2841" fill-rule="evenodd" fill-opacity="1"/><path d="M1850.15 1215.77C1855.32 1215.77 1857.39 1219.57 1857.39 1227.7L1857.39 1229.3C1857.39 1237.43 1855.32 1241.23 1850.15 1241.23L1849.85 1241.23C1844.68 1241.23 1842.61 1237.46 1842.61 1229.33L1842.61 1227.7C1842.61 1219.57 1844.68 1215.77 1849.85 1215.77ZM1850.03 1212C1841.9 1212 1838 1216.62 1838 1227.7L1838 1229.3C1838 1240.39 1841.96 1245 1850.03 1245 1858.1 1245 1862 1240.41 1862 1229.33L1862 1227.7C1862 1216.59 1858.13 1212 1850.03 1212Z" fill="#0E2841" fill-rule="evenodd" fill-opacity="1"/><path d="M1867 1212 1867 1234.38C1867 1241.92 1870.37 1245 1878.03 1245 1885.66 1245 1889 1241.92 1889 1234.38L1889 1212 1884.62 1212 1884.62 1234.15C1884.62 1239.32 1882.63 1241.18 1878.03 1241.18 1873.39 1241.18 1871.38 1239.32 1871.38 1234.15L1871.38 1212Z" fill="#0E2841" fill-rule="evenodd" fill-opacity="1"/><path d="M1892 1212 1892 1215.77 1900.25 1215.77 1900.25 1244 1904.72 1244 1904.72 1215.77 1913 1215.77 1913 1212Z" fill="#0E2841" fill-rule="evenodd" fill-opacity="1"/><path d="M1917 1212 1917 1244 1936 1244 1936 1240.23 1921.4 1240.23 1921.4 1229.58 1933.89 1229.58 1933.89 1225.81 1921.37 1225.81 1921.37 1215.77 1935.97 1215.77 1935.97 1212Z" fill="#0E2841" fill-rule="evenodd" fill-opacity="1"/><text fill="#213244" fill-opacity="1" font-family="Roboto,Roboto_MSFontService,sans-serif" font-style="normal" font-variant="normal" font-weight="700" font-stretch="normal" font-size="92" text-anchor="start" direction="ltr" writing-mode="lr-tb" unicode-bidi="normal" text-decoration="none" transform="matrix(1 0 0 1 1856.11 1355)">3</text><text fill="#000000" fill-opacity="1" font-family="Roboto,Roboto_MSFontService,sans-serif" font-style="normal" font-variant="normal" font-weight="400" font-stretch="normal" font-size="64" text-anchor="start" direction="ltr" writing-mode="lr-tb" unicode-bidi="normal" text-decoration="none" transform="matrix(1 0 0 1 1717.83 1155)">Concurrent</text><text fill="#000000" fill-opacity="1" font-family="Roboto,Roboto_MSFontService,sans-serif" font-style="normal" font-variant="normal" font-weight="400" font-stretch="normal" font-size="64" text-anchor="start" direction="ltr" writing-mode="lr-tb" unicode-bidi="normal" text-decoration="none" transform="matrix(6.12323e-17 1 -1 6.12323e-17 2339.6 1109)">MOA</text><text fill="#00757F" fill-opacity="1" font-family="Roboto,Roboto_MSFontService,sans-serif" font-style="normal" font-variant="normal" font-weight="700" font-stretch="normal" font-size="92" text-anchor="start" direction="ltr" writing-mode="lr-tb" unicode-bidi="normal" text-decoration="none" transform="matrix(1 0 0 1 1089.34 1348)">2</text><path d="M1116.36 1190.44C1121.09 1192.79 1135.58 1199.1 1154 1199.1 1154.12 1199.1 1154.25 1199.1 1154.37 1199.1 1165.21 1199.1 1175.91 1196.7 1185.7 1192.11L1214.85 1221.88C1211.09 1226.15 1203.57 1235.72 1200.39 1246.56L1032.64 1246.56C1029.43 1235.72 1021.91 1226.15 1018.15 1221.88L1047.3 1192.14C1052.15 1194.38 1064.26 1199.04 1080.18 1199.04 1092.75 1199.04 1105.14 1196.07 1116.36 1190.44ZM1199.13 1252.78C1199.1 1253.12 1199.04 1253.49 1199.01 1253.83 1197.72 1270.3 1199.64 1278.81 1208.34 1295.22 1216.11 1309.85 1216.11 1315.77 1216.11 1328.73 1216.05 1341.29 1207.65 1358.38 1192.01 1365.37 1180.96 1370.33 1172.36 1370.81 1163.23 1371.29 1158.62 1371.54 1153.82 1371.82 1148.69 1372.7 1136.07 1374.82 1125.51 1378.93 1116.5 1385.21 1107.49 1378.93 1096.96 1374.82 1084.31 1372.7 1079.18 1371.82 1074.41 1371.54 1069.79 1371.29 1060.67 1370.81 1052.06 1370.33 1040.99 1365.37 1025.38 1358.38 1016.95 1341.29 1016.95 1328.73 1016.95 1315.77 1016.95 1309.85 1024.69 1295.22 1033.39 1278.81 1035.31 1270.3 1034.02 1253.83 1033.99 1253.49 1033.96 1253.12 1033.9 1252.78ZM1116.41 1183 1114.81 1183.85C1103.82 1189.59 1092.17 1192.51 1080.18 1192.51 1061.53 1192.51 1048.36 1185.35 1048.22 1185.26L1045.98 1184.02 1011.24 1219.5 1009 1221.8 1011.24 1224.06C1011.38 1224.23 1026.21 1239.48 1027.39 1254.34 1028.57 1269.5 1026.9 1276.92 1018.81 1292.17 1010.32 1308.24 1010.32 1315.51 1010.32 1328.73 1010.32 1336.2 1012.82 1344.74 1017.23 1352.19 1022.37 1360.87 1029.66 1367.49 1038.26 1371.34 1050.46 1376.78 1060.1 1377.31 1069.42 1377.82 1074.04 1378.08 1078.43 1378.33 1083.19 1379.15 1095.38 1381.22 1105.4 1385.21 1113.8 1391.38L1114.69 1392 1118.34 1392 1119.23 1391.38C1127.63 1385.21 1137.64 1381.22 1149.84 1379.15 1154.6 1378.33 1158.99 1378.08 1163.61 1377.82 1172.93 1377.31 1182.57 1376.78 1194.76 1371.34 1203.37 1367.49 1210.66 1360.87 1215.8 1352.19 1220.21 1344.74 1222.74 1336.2 1222.74 1328.73 1222.74 1315.51 1222.74 1308.21 1214.22 1292.17 1206.13 1276.92 1204.43 1269.5 1205.64 1254.34 1206.79 1239.48 1221.62 1224.23 1221.76 1224.06L1224 1221.8 1187.08 1184.1 1184.87 1185.21C1175.42 1190.02 1164.96 1192.54 1154.32 1192.54 1154.21 1192.54 1154.09 1192.54 1153.97 1192.54 1133.69 1192.54 1118.17 1183.99 1118.02 1183.91L1116.41 1183Z" fill="#00757F" fill-rule="evenodd" fill-opacity="1"/><path d="M1061.72 1210.77C1064.22 1210.77 1067.58 1211.67 1067.58 1216.53L1067.58 1217.07C1067.58 1221.9 1064.22 1222.8 1061.72 1222.8L1056.33 1222.8 1056.33 1210.77ZM1052 1207 1052 1239 1056.33 1239 1056.33 1226.54 1062.37 1226.54 1067.3 1239 1072 1239 1066.59 1225.78C1069.58 1224.74 1072 1222.3 1072 1217.18L1072 1216.36C1072 1208.6 1066.47 1207 1061.6 1207Z" fill="#00757F" fill-rule="evenodd" fill-opacity="1"/><path d="M1087.64 1209.77C1092.6 1209.77 1094.58 1213.57 1094.58 1221.7L1094.58 1223.3C1094.58 1231.43 1092.6 1235.23 1087.64 1235.23L1087.36 1235.23C1082.4 1235.23 1080.42 1231.46 1080.42 1223.33L1080.42 1221.7C1080.42 1213.57 1082.4 1209.77 1087.36 1209.77ZM1087.53 1206C1079.74 1206 1076 1210.62 1076 1221.7L1076 1223.3C1076 1234.39 1079.79 1239 1087.53 1239 1095.26 1239 1099 1234.41 1099 1223.33L1099 1221.7C1099 1210.59 1095.29 1206 1087.53 1206Z" fill="#00757F" fill-rule="evenodd" fill-opacity="1"/><path d="M1105 1207 1105 1228.7C1105 1236.01 1108.22 1239 1115.53 1239 1122.81 1239 1126 1236.01 1126 1228.7L1126 1207 1121.82 1207 1121.82 1228.48C1121.82 1233.49 1119.92 1235.29 1115.53 1235.29 1111.1 1235.29 1109.18 1233.49 1109.18 1228.48L1109.18 1207Z" fill="#00757F" fill-rule="evenodd" fill-opacity="1"/><path d="M1130 1207 1130 1210.77 1138.25 1210.77 1138.25 1239 1142.72 1239 1142.72 1210.77 1151 1210.77 1151 1207Z" fill="#00757F" fill-rule="evenodd" fill-opacity="1"/><path d="M1155 1207 1155 1239 1174 1239 1174 1235.23 1159.4 1235.23 1159.4 1224.58 1171.89 1224.58 1171.89 1220.81 1159.37 1220.81 1159.37 1210.77 1173.97 1210.77 1173.97 1207Z" fill="#00757F" fill-rule="evenodd" fill-opacity="1"/></g></g></svg>