<svg width="1137" height="376" xmlns="http://www.w3.org/2000/svg" xmlns:xlink="http://www.w3.org/1999/xlink" xml:space="preserve" overflow="hidden"><g transform="translate(-1214 -1145)"><g><path d="M1215 1165.61C1215 1156.44 1222.44 1149 1231.61 1149L1613.39 1149C1622.56 1149 1630 1156.44 1630 1165.61L1630 1482.39C1630 1491.56 1622.56 1499 1613.39 1499L1231.61 1499C1222.44 1499 1215 1491.56 1215 1482.39Z" fill="#97CDD2" fill-rule="evenodd" fill-opacity="1"/><path d="M1230.5 1177.73C1230.5 1171.53 1235.53 1166.5 1241.73 1166.5L1602.27 1166.5C1608.47 1166.5 1613.5 1171.53 1613.5 1177.73L1613.5 1479.27C1613.5 1485.47 1608.47 1490.5 1602.27 1490.5L1241.73 1490.5C1235.53 1490.5 1230.5 1485.47 1230.5 1479.27Z" stroke="#FFFFFF" stroke-width="6.875" stroke-linecap="butt" stroke-linejoin="round" stroke-miterlimit="10" stroke-opacity="1" fill="none" fill-rule="evenodd"/><text fill="#FFFFFF" fill-opacity="1" font-family="Roboto,Roboto_MSFontService,sans-serif" font-style="normal" font-variant="normal" font-weight="400" font-stretch="normal" font-size="55" text-anchor="start" direction="ltr" writing-mode="lr-tb" unicode-bidi="normal" text-decoration="none" transform="matrix(1 0 0 1 1275 1288)">Promotional </text><text fill="#FFFFFF" fill-opacity="1" font-family="Roboto,Roboto_MSFontService,sans-serif" font-style="normal" font-variant="normal" font-weight="400" font-stretch="normal" font-size="55" text-anchor="start" direction="ltr" writing-mode="lr-tb" unicode-bidi="normal" text-decoration="none" transform="matrix(1 0 0 1 1321.68 1354)">Labeling</text><rect x="1215" y="1421" width="415" height="78" fill="#E4FE63" fill-opacity="1"/><text fill="#213244" fill-opacity="1" font-family="Roboto,Roboto_MSFontService,sans-serif" font-style="normal" font-variant="normal" font-weight="400" font-stretch="normal" font-size="46" text-anchor="start" direction="ltr" writing-mode="lr-tb" unicode-bidi="normal" text-decoration="none" transform="matrix(1 0 0 1 1426.62 1479)">Exit</text><path d="M1356 1463.45 1367.5 1463.45 1367.5 1441 1390.5 1441 1390.5 1463.45 1402 1463.45 1379 1479Z" fill="#213244" fill-rule="evenodd" fill-opacity="1"/><path d="M1650 1165.61C1650 1156.44 1657.44 1149 1666.61 1149L2331.39 1149C2340.56 1149 2348 1156.44 2348 1165.61L2348 1482.39C2348 1491.56 2340.56 1499 2331.39 1499L1666.61 1499C1657.44 1499 1650 1491.56 1650 1482.39Z" fill="#97CDD2" fill-rule="evenodd" fill-opacity="1"/><text fill="#FFFFFF" fill-opacity="1" font-family="Roboto,Roboto_MSFontService,sans-serif" font-style="normal" font-variant="normal" font-weight="400" font-stretch="normal" font-size="55" text-anchor="start" direction="ltr" writing-mode="lr-tb" unicode-bidi="normal" text-decoration="none" transform="matrix(1 0 0 1 1822.81 1288)">FDA</text><text fill="#FFFFFF" fill-opacity="1" font-family="Roboto,Roboto_MSFontService,sans-serif" font-style="normal" font-variant="normal" font-weight="400" font-stretch="normal" font-size="55" text-anchor="start" direction="ltr" writing-mode="lr-tb" unicode-bidi="normal" text-decoration="none" transform="matrix(1 0 0 1 1925.37 1288)">–</text><text fill="#FFFFFF" fill-opacity="1" font-family="Roboto,Roboto_MSFontService,sans-serif" font-style="normal" font-variant="normal" font-weight="400" font-stretch="normal" font-size="55" text-anchor="start" direction="ltr" writing-mode="lr-tb" unicode-bidi="normal" text-decoration="none" transform="matrix(1 0 0 1 1961.46 1288)">Required</text><text fill="#FFFFFF" fill-opacity="1" font-family="Roboto,Roboto_MSFontService,sans-serif" font-style="normal" font-variant="normal" font-weight="400" font-stretch="normal" font-size="55" text-anchor="start" direction="ltr" writing-mode="lr-tb" unicode-bidi="normal" text-decoration="none" transform="matrix(1 0 0 1 1897.02 1354)">Labeling</text><path d="M1664.5 1177.73C1664.5 1171.53 1669.53 1166.5 1675.73 1166.5L2319.27 1166.5C2325.47 1166.5 2330.5 1171.53 2330.5 1177.73L2330.5 1479.27C2330.5 1485.47 2325.47 1490.5 2319.27 1490.5L1675.73 1490.5C1669.53 1490.5 1664.5 1485.47 1664.5 1479.27Z" stroke="#FFFFFF" stroke-width="6.875" stroke-linecap="butt" stroke-linejoin="round" stroke-miterlimit="10" stroke-opacity="1" fill="none" fill-rule="evenodd"/><rect x="1650" y="1421" width="699" height="78" fill="#E4FE63" fill-opacity="1"/><text fill="#213244" fill-opacity="1" font-family="Roboto,Roboto_MSFontService,sans-serif" font-style="normal" font-variant="normal" font-weight="400" font-stretch="normal" font-size="46" text-anchor="start" direction="ltr" writing-mode="lr-tb" unicode-bidi="normal" text-decoration="none" transform="matrix(1 0 0 1 1799 1477)">The </text><text fill="#213244" fill-opacity="1" font-family="Roboto,Roboto_MSFontService,sans-serif" font-style="normal" font-variant="normal" font-weight="400" font-stretch="normal" font-size="46" text-anchor="start" direction="ltr" writing-mode="lr-tb" unicode-bidi="normal" text-decoration="none" transform="matrix(1 0 0 1 1887.23 1477)">Journey Begins</text><path d="M1689 1463.45 1700.75 1463.45 1700.75 1441 1724.25 1441 1724.25 1463.45 1736 1463.45 1712.5 1479Z" fill="#213244" fill-rule="evenodd" fill-opacity="1"/><path d="M2251 1463.45 2262.5 1463.45 2262.5 1441 2285.5 1441 2285.5 1463.45 2297 1463.45 2274 1479Z" fill="#213244" fill-rule="evenodd" fill-opacity="1"/></g></g></svg>