<svg width="3717" height="1476" xmlns="http://www.w3.org/2000/svg" xmlns:xlink="http://www.w3.org/1999/xlink" xml:space="preserve" overflow="hidden"><defs><filter id="fx0" x="-10%" y="-10%" width="120%" height="120%" filterUnits="userSpaceOnUse" primitiveUnits="userSpaceOnUse"><feComponentTransfer color-interpolation-filters="sRGB"><feFuncR type="discrete" tableValues="0.000000 0.000000"/><feFuncG type="discrete" tableValues="0.000000 0.000000"/><feFuncB type="discrete" tableValues="0.000000 0.000000"/><feFuncA type="linear" slope="0.400000" intercept="0.000000"/></feComponentTransfer><feGaussianBlur stdDeviation="6.111111 6.111111"/></filter><filter id="fx1" x="-10%" y="-10%" width="120%" height="120%" filterUnits="userSpaceOnUse" primitiveUnits="userSpaceOnUse"><feComponentTransfer color-interpolation-filters="sRGB"><feFuncR type="discrete" tableValues="0.000000 0.000000"/><feFuncG type="discrete" tableValues="0.000000 0.000000"/><feFuncB type="discrete" tableValues="0.000000 0.000000"/><feFuncA type="linear" slope="0.400000" intercept="0.000000"/></feComponentTransfer><feGaussianBlur stdDeviation="6.111111 6.111111"/></filter><filter id="fx2" x="-10%" y="-10%" width="120%" height="120%" filterUnits="userSpaceOnUse" primitiveUnits="userSpaceOnUse"><feComponentTransfer color-interpolation-filters="sRGB"><feFuncR type="discrete" tableValues="0.000000 0.000000"/><feFuncG type="discrete" tableValues="0.000000 0.000000"/><feFuncB type="discrete" tableValues="0.000000 0.000000"/><feFuncA type="linear" slope="0.400000" intercept="0.000000"/></feComponentTransfer><feGaussianBlur stdDeviation="6.111111 6.111111"/></filter><filter id="fx3" x="-10%" y="-10%" width="120%" height="120%" filterUnits="userSpaceOnUse" primitiveUnits="userSpaceOnUse"><feComponentTransfer color-interpolation-filters="sRGB"><feFuncR type="discrete" tableValues="0.000000 0.000000"/><feFuncG type="discrete" tableValues="0.000000 0.000000"/><feFuncB type="discrete" tableValues="0.000000 0.000000"/><feFuncA type="linear" slope="0.400000" intercept="0.000000"/></feComponentTransfer><feGaussianBlur stdDeviation="6.111111 6.111111"/></filter><filter id="fx4" x="-10%" y="-10%" width="120%" height="120%" filterUnits="userSpaceOnUse" primitiveUnits="userSpaceOnUse"><feComponentTransfer color-interpolation-filters="sRGB"><feFuncR type="discrete" tableValues="0.000000 0.000000"/><feFuncG type="discrete" tableValues="0.000000 0.000000"/><feFuncB type="discrete" tableValues="0.000000 0.000000"/><feFuncA type="linear" slope="0.400000" intercept="0.000000"/></feComponentTransfer><feGaussianBlur stdDeviation="6.111111 6.111111"/></filter><filter id="fx5" x="-10%" y="-10%" width="120%" height="120%" filterUnits="userSpaceOnUse" primitiveUnits="userSpaceOnUse"><feComponentTransfer color-interpolation-filters="sRGB"><feFuncR type="discrete" tableValues="0.000000 0.000000"/><feFuncG type="discrete" tableValues="0.000000 0.000000"/><feFuncB type="discrete" tableValues="0.000000 0.000000"/><feFuncA type="linear" slope="0.400000" intercept="0.000000"/></feComponentTransfer><feGaussianBlur stdDeviation="6.111111 6.111111"/></filter><filter id="fx6" x="-10%" y="-10%" width="120%" height="120%" filterUnits="userSpaceOnUse" primitiveUnits="userSpaceOnUse"><feComponentTransfer color-interpolation-filters="sRGB"><feFuncR type="discrete" tableValues="0.000000 0.000000"/><feFuncG type="discrete" tableValues="0.000000 0.000000"/><feFuncB type="discrete" tableValues="0.000000 0.000000"/><feFuncA type="linear" slope="0.400000" intercept="0.000000"/></feComponentTransfer><feGaussianBlur stdDeviation="6.111111 6.111111"/></filter><filter id="fx7" x="-10%" y="-10%" width="120%" height="120%" filterUnits="userSpaceOnUse" primitiveUnits="userSpaceOnUse"><feComponentTransfer color-interpolation-filters="sRGB"><feFuncR type="discrete" tableValues="0.000000 0.000000"/><feFuncG type="discrete" tableValues="0.000000 0.000000"/><feFuncB type="discrete" tableValues="0.000000 0.000000"/><feFuncA type="linear" slope="0.400000" intercept="0.000000"/></feComponentTransfer><feGaussianBlur stdDeviation="6.111111 6.111111"/></filter><clipPath id="clip8"><rect x="1.3894" y="1.38934" width="195.667" height="271.667"/></clipPath><clipPath id="clip9"><rect x="1.3894" y="1.3894" width="599.667" height="506.667"/></clipPath><clipPath id="clip10"><rect x="1.3894" y="1.38916" width="471.667" height="373.667"/></clipPath><clipPath id="clip11"><rect x="1.38965" y="1.38953" width="135.667" height="135.667"/></clipPath><clipPath id="clip12"><rect x="1.3894" y="1.3894" width="95.6667" height="95.6665"/></clipPath><clipPath id="clip13"><rect x="1.38916" y="1.3894" width="95.667" height="95.6665"/></clipPath></defs><g transform="translate(-110 -595)"><g><text fill="#000000" fill-opacity="1" font-family="Roboto,Roboto_MSFontService,sans-serif" font-style="normal" font-variant="normal" font-weight="400" font-stretch="normal" font-size="83" text-anchor="start" direction="ltr" writing-mode="lr-tb" unicode-bidi="normal" text-decoration="none" transform="matrix(1 0 0 1 163.587 1997)">Estimate at day: k</text><text fill="#000000" fill-opacity="1" font-family="Roboto,Roboto_MSFontService,sans-serif" font-style="normal" font-variant="normal" font-weight="400" font-stretch="normal" font-size="83" text-anchor="start" direction="ltr" writing-mode="lr-tb" unicode-bidi="normal" text-decoration="none" transform="matrix(1 0 0 1 812.702 1997)">-</text><text fill="#000000" fill-opacity="1" font-family="Roboto,Roboto_MSFontService,sans-serif" font-style="normal" font-variant="normal" font-weight="400" font-stretch="normal" font-size="83" text-anchor="start" direction="ltr" writing-mode="lr-tb" unicode-bidi="normal" text-decoration="none" transform="matrix(1 0 0 1 835.619 1997)">n</text><path d="M274.5 1861.3C282.324 1852.18 306.079 1835.92 321.434 1806.51 336.788 1777.09 352.41 1746.92 366.624 1684.8 380.838 1622.68 392.999 1542.78 406.727 1433.77 420.454 1324.78 436.809 1135.12 448.982 1030.8 461.159 926.474 470.526 862.08 479.777 807.849 489.027 753.617 496.248 726.651 504.482 705.445 512.72 684.256 520.003 676.259 529.192 680.663 538.385 685.066 548.644 688.377 559.627 731.865 570.609 775.352 582.307 842.23 595.079 941.604 607.851 1040.98 624.679 1225.69 636.256 1328.09 647.834 1430.5 652.431 1486.09 664.546 1555.99 676.661 1625.9 694.091 1699.95 708.951 1747.56 723.811 1795.18 741.45 1822.54 753.708 1841.7 765.966 1860.86 777.703 1859.03 782.5 1862.5" stroke="#203144" stroke-width="6.875" stroke-linecap="butt" stroke-linejoin="round" stroke-miterlimit="10" stroke-opacity="1" fill="#209CA6" fill-rule="evenodd" fill-opacity="1"/><path d="M273 596 273 1865.3" stroke="#156082" stroke-width="10.3125" stroke-linecap="butt" stroke-linejoin="round" stroke-miterlimit="10" stroke-opacity="1" fill="none" fill-rule="evenodd"/><path d="M0 0 0.000360892 1182.69" stroke="#0E2841" stroke-width="3.4375" stroke-linecap="butt" stroke-linejoin="round" stroke-miterlimit="10" stroke-dasharray="13.75 10.3125" stroke-opacity="1" fill="none" fill-rule="evenodd" transform="matrix(1 0 0 -1 527.5 1862.19)"/><path d="M0 0 0.000360892 769.298" stroke="#0E2841" stroke-width="3.4375" stroke-linecap="butt" stroke-linejoin="round" stroke-miterlimit="10" stroke-dasharray="13.75 10.3125" stroke-opacity="1" fill="none" fill-rule="evenodd" transform="matrix(1 0 0 -1 1515.5 1861.8)"/><path d="M1808.5 1864.2C1837.27 1860.84 1923.54 1855.66 1981.11 1844.01 2038.69 1832.37 2099.96 1819.17 2153.98 1794.34 2208 1769.5 2253.47 1738.13 2305.25 1694.99 2357.02 1651.85 2418.71 1576.81 2464.62 1535.52 2510.53 1494.23 2545.86 1468.76 2580.75 1447.3 2615.64 1425.83 2642.88 1415.16 2673.93 1406.77 2705 1398.38 2732.46 1395.22 2767.13 1396.97 2801.8 1398.71 2840.51 1400.02 2881.93 1417.23 2923.36 1434.44 2967.46 1460.9 3015.63 1500.23 3063.81 1539.56 3127.27 1612.64 3170.94 1653.17 3214.61 1693.69 3231.96 1715.69 3277.65 1743.36 3323.35 1771.03 3389.08 1800.33 3445.12 1819.17 3501.17 1838.02 3567.54 1848.88 3613.93 1856.43 3660.32 1863.99 3705.25 1863.16 3723.5 1864.5" stroke="#747474" stroke-width="6.875" stroke-linecap="butt" stroke-linejoin="round" stroke-miterlimit="10" stroke-opacity="1" fill="#E4FE62" fill-rule="evenodd" fill-opacity="1"/><path d="M1679.5 1863.39C1689.31 1854.92 1719.1 1839.83 1738.35 1812.53 1757.61 1785.23 1777.19 1757.23 1795.02 1699.57 1812.84 1641.91 1828.09 1567.75 1845.3 1466.58 1862.52 1365.42 1883.03 1189.38 1898.29 1092.56 1913.56 995.729 1925.3 935.961 1936.9 885.626 1948.5 835.292 1957.56 810.263 1967.88 790.58 1978.21 770.914 1987.35 763.492 1998.87 767.579 2010.39 771.666 2023.26 774.739 2037.03 815.102 2050.8 855.465 2065.47 917.537 2081.49 1009.77 2097.5 1102.01 2118.6 1273.45 2133.12 1368.49 2147.64 1463.54 2153.4 1515.13 2168.59 1580.02 2183.78 1644.9 2205.64 1713.63 2224.27 1757.81 2242.91 1802.02 2265.03 1827.41 2280.4 1845.19 2295.77 1862.98 2310.48 1861.28 2316.5 1864.5" stroke="#203144" stroke-width="6.875" stroke-linecap="butt" stroke-linejoin="round" stroke-miterlimit="10" stroke-opacity="1" fill="#203144" fill-rule="evenodd" fill-opacity="0.8"/><path d="M0 0 0.000360892 1097.4" stroke="#FFFFFF" stroke-width="3.4375" stroke-linecap="butt" stroke-linejoin="round" stroke-miterlimit="10" stroke-dasharray="13.75 10.3125" stroke-opacity="1" fill="none" fill-rule="evenodd" transform="matrix(1 0 0 -1 1995.5 1863.9)"/><path d="M0 0 0.000360892 463.953" stroke="#0E2841" stroke-width="3.4375" stroke-linecap="butt" stroke-linejoin="round" stroke-miterlimit="10" stroke-dasharray="13.75 10.3125" stroke-opacity="1" fill="none" fill-rule="evenodd" transform="matrix(1 0 0 -1 2770.5 1860.45)"/><g clip-path="url(#clip8)" filter="url(#fx0)" transform="translate(3258 693)"><g><g><path d="M19.7227 46.2231C19.7227 31.5873 31.5873 19.7227 46.2231 19.7227L152.222 19.7227C166.858 19.7227 178.722 31.5873 178.722 46.2231L178.722 228.222C178.722 242.858 166.858 254.723 152.222 254.723L46.2231 254.723C31.5873 254.723 19.7227 242.858 19.7227 228.222Z" fill="#213244" fill-rule="evenodd" fill-opacity="1"/></g></g></g><path d="M3268 729.5C3268 714.865 3279.86 703 3294.5 703L3400.5 703C3415.14 703 3427 714.865 3427 729.5L3427 911.5C3427 926.135 3415.14 938 3400.5 938L3294.5 938C3279.86 938 3268 926.135 3268 911.5Z" fill="#213244" fill-rule="evenodd" fill-opacity="1"/><g><g><g><path d="M115.5 22.6875C115.5 31.8002 108.113 39.1875 99 39.1875 89.8873 39.1875 82.5 31.8002 82.5 22.6875 82.5 13.5748 89.8873 6.1875 99 6.1875 108.113 6.1875 115.5 13.5748 115.5 22.6875Z" fill="#E4FE63" fill-rule="nonzero" fill-opacity="1" transform="matrix(1.00505 0 0 1 3248 716)"/><path d="M143.963 107.662 132.412 58.575C132 56.925 131.175 55.275 129.938 54.0375 124.987 49.9125 119.213 47.025 112.612 44.9625 108.075 44.1375 103.537 43.3125 99 43.3125 94.4625 43.3125 89.925 44.1375 85.3875 45.375 78.7875 47.025 73.0125 50.325 68.0625 54.45 66.825 55.6875 66 57.3375 65.5875 58.9875L54.0375 108.075C54.0375 108.487 53.625 109.312 53.625 110.138 53.625 114.675 57.3375 118.388 61.875 118.388 65.5875 118.388 68.8875 115.5 69.7125 112.2L78.375 76.3125 78.375 191.812 94.875 191.812 94.875 117.562 103.125 117.562 103.125 191.812 119.625 191.812 119.625 75.9 128.288 111.787C129.113 115.088 132.412 117.975 136.125 117.975 140.662 117.975 144.375 114.263 144.375 109.725 144.375 108.9 143.963 108.075 143.963 107.662Z" fill="#E4FE63" fill-rule="nonzero" fill-opacity="1" transform="matrix(1.00505 0 0 1 3248 716)"/></g></g></g><g clip-path="url(#clip9)" filter="url(#fx1)" transform="translate(3052 948)"><g><g><path d="M19.7229 98.0576C19.7229 54.7945 54.7946 19.7228 98.0577 19.7228L504.388 19.7228C547.651 19.7228 582.723 54.7945 582.723 98.0576L582.723 411.388C582.723 454.651 547.651 489.723 504.388 489.723L98.0577 489.723C54.7946 489.723 19.7229 454.651 19.7229 411.388Z" fill="#97CDD2" fill-rule="evenodd" fill-opacity="1"/></g></g></g><path d="M3062 1036.33C3062 993.072 3097.07 958 3140.33 958L3546.67 958C3589.93 958 3625 993.072 3625 1036.33L3625 1349.67C3625 1392.93 3589.93 1428 3546.67 1428L3140.33 1428C3097.07 1428 3062 1392.93 3062 1349.67Z" fill="#97CDD2" fill-rule="evenodd" fill-opacity="1"/><g clip-path="url(#clip10)" filter="url(#fx2)" transform="translate(3092 1041)"><g><g><path d="M19.7227 75.8905C19.7227 44.8698 44.8699 19.7225 75.8906 19.7225L398.555 19.7225C429.575 19.7225 454.722 44.8698 454.722 75.8905L454.722 300.555C454.722 331.575 429.575 356.723 398.555 356.723L75.8906 356.723C44.8699 356.723 19.7227 331.575 19.7227 300.555Z" fill="#F2F2F2" fill-rule="evenodd" fill-opacity="1"/></g></g></g><path d="M3102 1107.17C3102 1076.15 3127.15 1051 3158.17 1051L3480.83 1051C3511.85 1051 3537 1076.15 3537 1107.17L3537 1331.83C3537 1362.85 3511.85 1388 3480.83 1388L3158.17 1388C3127.15 1388 3102 1362.85 3102 1331.83Z" fill="#F2F2F2" fill-rule="evenodd" fill-opacity="1"/><text fill="#000000" fill-opacity="1" font-family="Roboto,Roboto_MSFontService,sans-serif" font-style="normal" font-variant="normal" font-weight="400" font-stretch="normal" font-size="55" text-anchor="start" direction="ltr" writing-mode="lr-tb" unicode-bidi="normal" text-decoration="none" transform="matrix(1 0 0 1 3153.18 1031)">Kalman filter</text><g clip-path="url(#clip11)" filter="url(#fx3)" transform="translate(3251 1127)"><g><g><path d="M19.7229 36.2232C19.7229 27.1103 27.1103 19.7229 36.2232 19.7229L102.223 19.7229C111.335 19.7229 118.723 27.1103 118.723 36.2232L118.723 102.223C118.723 111.335 111.335 118.723 102.223 118.723L36.2232 118.723C27.1103 118.723 19.7229 111.335 19.7229 102.223Z" fill="#209CA6" fill-rule="evenodd" fill-opacity="1"/></g></g></g><path d="M3261 1153.5C3261 1144.39 3268.39 1137 3277.5 1137L3343.5 1137C3352.61 1137 3360 1144.39 3360 1153.5L3360 1219.5C3360 1228.61 3352.61 1236 3343.5 1236L3277.5 1236C3268.39 1236 3261 1228.61 3261 1219.5Z" fill="#209CA6" fill-rule="evenodd" fill-opacity="1"/><g clip-path="url(#clip12)" filter="url(#fx4)" transform="translate(3411 1147)"><g><g><path d="M19.7227 49.2227C19.7227 32.9303 32.9303 19.7228 49.2227 19.7228 65.5152 19.7228 78.7228 32.9303 78.7228 49.2227 78.7228 65.515 65.5152 78.7225 49.2227 78.7225 32.9303 78.7225 19.7227 65.515 19.7227 49.2227Z" fill="#FFFFFF" fill-rule="evenodd" fill-opacity="1"/></g></g></g><g filter="url(#fx5)" transform="translate(3368 1102)"><g><g><path d="M4.57959-30.0713 39.6763-30.0713 39.6763-24.1948 4.57959-24.1948ZM19.1694-9.60498 19.1694-44.6611 25.0864-44.6611 25.0864-9.60498Z" fill="#000000" fill-rule="nonzero" fill-opacity="1" transform="matrix(1 0 0 1 69.957 120)"/></g></g></g><path d="M3421 1186.5C3421 1170.21 3434.21 1157 3450.5 1157 3466.79 1157 3480 1170.21 3480 1186.5 3480 1202.79 3466.79 1216 3450.5 1216 3434.21 1216 3421 1202.79 3421 1186.5Z" fill="#FFFFFF" fill-rule="evenodd" fill-opacity="1"/><text fill="#000000" fill-opacity="1" font-family="Aptos,Aptos_MSFontService,sans-serif" font-style="normal" font-variant="normal" font-weight="400" font-stretch="normal" font-size="83" text-anchor="start" direction="ltr" writing-mode="lr-tb" unicode-bidi="normal" text-decoration="none" transform="matrix(1 0 0 1 3428.23 1213)">+</text><text fill="#000000" fill-opacity="1" font-family="Roboto,Roboto_MSFontService,sans-serif" font-style="normal" font-variant="normal" font-weight="400" font-stretch="normal" font-size="55" text-anchor="start" direction="ltr" writing-mode="lr-tb" unicode-bidi="normal" text-decoration="none" transform="matrix(1 0 0 1 3153.18 1333)">Model</text><path d="M2929.5 817.063 3245.23 817.326 3245.22 824.201 2929.5 823.938ZM3240.66 807.009 3268.14 820.782 3240.63 834.509Z" fill="#000000" fill-rule="nonzero" fill-opacity="1"/><path d="M3427.5 817.063 3736.32 817.063 3736.32 1133.92 3729.44 1133.92 3729.44 820.5 3732.88 823.938 3427.5 823.938ZM3746.63 1129.34 3732.88 1156.84 3719.13 1129.34Z" fill="#000000" fill-rule="nonzero" fill-opacity="1"/><g clip-path="url(#clip13)" filter="url(#fx6)" transform="translate(3693 1147)"><g><g><path d="M19.7227 49.2227C19.7227 32.9303 32.9303 19.7228 49.2227 19.7228 65.5152 19.7228 78.7228 32.9303 78.7228 49.2227 78.7228 65.515 65.5152 78.7225 49.2227 78.7225 32.9303 78.7225 19.7227 65.515 19.7227 49.2227Z" fill="#FFFFFF" fill-rule="evenodd" fill-opacity="1"/></g></g></g><g filter="url(#fx7)" transform="translate(3658 1102)"><g><g><path d="M4.01221-17.1431 4.01221-23.1411 24.2353-23.1411 24.2353-17.1431Z" fill="#000000" fill-rule="nonzero" fill-opacity="1" transform="matrix(1 0 0 1 69.9304 120)"/></g></g></g><path d="M3703 1186.5C3703 1170.21 3716.21 1157 3732.5 1157 3748.79 1157 3762 1170.21 3762 1186.5 3762 1202.79 3748.79 1216 3732.5 1216 3716.21 1216 3703 1202.79 3703 1186.5Z" fill="#FFFFFF" fill-rule="evenodd" fill-opacity="1"/><text fill="#000000" fill-opacity="1" font-family="Aptos,Aptos_MSFontService,sans-serif" font-style="normal" font-variant="normal" font-weight="400" font-stretch="normal" font-size="83" text-anchor="start" direction="ltr" writing-mode="lr-tb" unicode-bidi="normal" text-decoration="none" transform="matrix(1 0 0 1 3718.21 1213)">-</text><path d="M3480.5 1183.06 3680.8 1183.06 3680.8 1189.94 3480.5 1189.94ZM3676.21 1172.75 3703.71 1186.5 3676.21 1200.25Z" fill="#000000" fill-rule="nonzero" fill-opacity="1"/><path d="M0-3.4375 369.427-3.4375 369.427 244.378 362.552 244.378 362.552 0 365.99 3.4375 0 3.4375ZM379.74 239.794 365.99 267.294 352.24 239.794Z" fill="#000000" fill-rule="nonzero" fill-opacity="1" transform="matrix(1.83697e-16 1 1 -1.83697e-16 2994.5 820.5)"/><path d="M3359.5 1183.06 3398.99 1183.06 3398.99 1189.94 3359.5 1189.94ZM3394.41 1172.75 3421.91 1186.5 3394.41 1200.25Z" fill="#000000" fill-rule="nonzero" fill-opacity="1"/><g><g><g><path d="M554.5 1583.81C554.5 1599 542.188 1611.31 527 1611.31 511.812 1611.31 499.5 1599 499.5 1583.81 499.5 1568.62 511.812 1556.31 527 1556.31 542.188 1556.31 554.5 1568.62 554.5 1583.81Z" fill="#ADEBF2" fill-rule="nonzero" fill-opacity="1"/><path d="M601.938 1725.44 582.687 1643.62C582 1640.87 580.625 1638.12 578.562 1636.06 570.312 1629.19 560.687 1624.37 549.687 1620.94 542.125 1619.56 534.562 1618.19 527 1618.19 519.437 1618.19 511.875 1619.56 504.312 1621.62 493.312 1624.37 483.687 1629.87 475.437 1636.75 473.375 1638.81 472 1641.56 471.312 1644.31L452.062 1726.12C452.062 1726.81 451.375 1728.19 451.375 1729.56 451.375 1737.12 457.562 1743.31 465.125 1743.31 471.312 1743.31 476.812 1738.5 478.187 1733L492.625 1673.19 492.625 1865.69 520.125 1865.69 520.125 1741.94 533.875 1741.94 533.875 1865.69 561.375 1865.69 561.375 1672.5 575.812 1732.31C577.187 1737.81 582.687 1742.62 588.875 1742.62 596.437 1742.62 602.625 1736.44 602.625 1728.87 602.625 1727.5 601.938 1726.12 601.938 1725.44Z" fill="#ADEBF2" fill-rule="nonzero" fill-opacity="1"/></g></g></g><path d="M1057.5 1862.01C1071.27 1856.48 1112.59 1847.96 1140.16 1828.79 1167.73 1809.63 1197.06 1787.92 1222.93 1747.06 1248.8 1706.2 1270.57 1654.58 1295.37 1583.61 1320.16 1512.63 1349.7 1389.16 1371.68 1321.23 1393.67 1253.3 1410.59 1211.38 1427.29 1176.07 1444 1140.76 1457.04 1123.2 1471.91 1109.4 1486.79 1095.59 1499.94 1090.4 1516.54 1093.27 1533.14 1096.14 1551.68 1098.28 1571.52 1126.6 1591.35 1154.92 1612.47 1198.46 1635.54 1263.16 1658.61 1327.87 1689 1448.12 1709.91 1514.8 1730.82 1581.47 1739.13 1617.67 1761.01 1663.19 1782.89 1708.72 1814.36 1756.92 1841.2 1787.92 1868.04 1818.93 1899.82 1836.8 1922.03 1849.22 1944.25 1861.66 1965.76 1860.29 1974.5 1862.5" stroke="#203144" stroke-width="6.875" stroke-linecap="butt" stroke-linejoin="round" stroke-miterlimit="10" stroke-opacity="1" fill="#97CDD2" fill-rule="evenodd" fill-opacity="0.501961"/><g><g><g><path d="M2787.67 1647.42C2787.67 1658.83 2778.41 1668.08 2767 1668.08 2755.59 1668.08 2746.33 1658.83 2746.33 1647.42 2746.33 1636 2755.59 1626.75 2767 1626.75 2778.41 1626.75 2787.67 1636 2787.67 1647.42Z" stroke="#FFFFFF" stroke-width="2.58341" stroke-linecap="butt" stroke-linejoin="miter" stroke-miterlimit="4" stroke-opacity="1" fill="#AEC149" fill-rule="nonzero" fill-opacity="1"/><path d="M2823.32 1753.85 2808.85 1692.37C2808.33 1690.3 2807.3 1688.23 2805.75 1686.68 2799.55 1681.52 2792.32 1677.9 2784.05 1675.32 2778.37 1674.28 2772.68 1673.25 2767 1673.25 2761.32 1673.25 2755.63 1674.28 2749.95 1675.83 2741.68 1677.9 2734.45 1682.03 2728.25 1687.2 2726.7 1688.75 2725.67 1690.82 2725.15 1692.88L2710.68 1754.37C2710.68 1754.88 2710.17 1755.92 2710.17 1756.95 2710.17 1762.63 2714.82 1767.28 2720.5 1767.28 2725.15 1767.28 2729.28 1763.67 2730.32 1759.53L2741.17 1714.58 2741.17 1859.25 2761.83 1859.25 2761.83 1766.25 2772.17 1766.25 2772.17 1859.25 2792.83 1859.25 2792.83 1714.07 2803.68 1759.02C2804.72 1763.15 2808.85 1766.77 2813.5 1766.77 2819.18 1766.77 2823.83 1762.12 2823.83 1756.43 2823.83 1755.4 2823.32 1754.37 2823.32 1753.85Z" stroke="#FFFFFF" stroke-width="2.58341" stroke-linecap="butt" stroke-linejoin="miter" stroke-miterlimit="4" stroke-opacity="1" fill="#AEC149" fill-rule="nonzero" fill-opacity="1"/></g></g></g><g><g><g><path d="M2024.5 1583.81C2024.5 1599 2012.19 1611.31 1997 1611.31 1981.81 1611.31 1969.5 1599 1969.5 1583.81 1969.5 1568.62 1981.81 1556.31 1997 1556.31 2012.19 1556.31 2024.5 1568.62 2024.5 1583.81Z" fill="#2AD6E4" fill-rule="nonzero" fill-opacity="1"/><path d="M2071.94 1725.44 2052.69 1643.62C2052 1640.87 2050.62 1638.12 2048.56 1636.06 2040.31 1629.19 2030.69 1624.37 2019.69 1620.94 2012.12 1619.56 2004.56 1618.19 1997 1618.19 1989.44 1618.19 1981.87 1619.56 1974.31 1621.62 1963.31 1624.37 1953.69 1629.87 1945.44 1636.75 1943.37 1638.81 1942 1641.56 1941.31 1644.31L1922.06 1726.12C1922.06 1726.81 1921.37 1728.19 1921.37 1729.56 1921.37 1737.12 1927.56 1743.31 1935.12 1743.31 1941.31 1743.31 1946.81 1738.5 1948.19 1733L1962.62 1673.19 1962.62 1865.69 1990.12 1865.69 1990.12 1741.94 2003.87 1741.94 2003.87 1865.69 2031.37 1865.69 2031.37 1672.5 2045.81 1732.31C2047.19 1737.81 2052.69 1742.62 2058.88 1742.62 2066.44 1742.62 2072.62 1736.44 2072.62 1728.87 2072.62 1727.5 2071.94 1726.12 2071.94 1725.44Z" fill="#2AD6E4" fill-rule="nonzero" fill-opacity="1"/></g></g></g><text fill="#000000" fill-opacity="1" font-family="Roboto,Roboto_MSFontService,sans-serif" font-style="normal" font-variant="normal" font-weight="400" font-stretch="normal" font-size="83" text-anchor="start" direction="ltr" writing-mode="lr-tb" unicode-bidi="normal" text-decoration="none" transform="matrix(1 0 0 1 1287.43 1983)">Digital Twin</text><text fill="#000000" fill-opacity="1" font-family="Roboto,Roboto_MSFontService,sans-serif" font-style="normal" font-variant="normal" font-weight="400" font-stretch="normal" font-size="83" text-anchor="start" direction="ltr" writing-mode="lr-tb" unicode-bidi="normal" text-decoration="none" transform="matrix(1 0 0 1 2501.12 1983)">Measurement</text><text fill="#000000" fill-opacity="1" font-family="Roboto,Roboto_MSFontService,sans-serif" font-style="normal" font-variant="normal" font-weight="400" font-stretch="normal" font-size="83" text-anchor="start" direction="ltr" writing-mode="lr-tb" unicode-bidi="normal" text-decoration="none" transform="matrix(1 0 0 1 1835.99 708)">Forecast</text><g><g><g><path d="M144.667 28.4166C144.667 39.8305 135.414 49.0833 124 49.0833 112.586 49.0833 103.333 39.8305 103.333 28.4166 103.333 17.0028 112.586 7.74999 124 7.74999 135.414 7.74999 144.667 17.0028 144.667 28.4166Z" fill="#7FACB1" fill-rule="nonzero" fill-opacity="1" transform="matrix(1.00403 0 0 1 1390 1619)"/><path d="M180.317 134.85 165.85 73.3666C165.333 71.2999 164.3 69.2333 162.75 67.6833 156.55 62.5166 149.317 58.9 141.05 56.3166 135.367 55.2833 129.683 54.25 124 54.25 118.317 54.25 112.633 55.2833 106.95 56.8333 98.6833 58.9 91.4499 63.0333 85.2499 68.2 83.6999 69.75 82.6666 71.8166 82.1499 73.8833L67.6833 135.367C67.6833 135.883 67.1666 136.917 67.1666 137.95 67.1666 143.633 71.8166 148.283 77.4999 148.283 82.1499 148.283 86.2833 144.667 87.3166 140.533L98.1666 95.5833 98.1666 240.25 118.833 240.25 118.833 147.25 129.167 147.25 129.167 240.25 149.833 240.25 149.833 95.0666 160.683 140.017C161.717 144.15 165.85 147.767 170.5 147.767 176.183 147.767 180.833 143.117 180.833 137.433 180.833 136.4 180.317 135.367 180.317 134.85Z" fill="#7FACB1" fill-rule="nonzero" fill-opacity="1" transform="matrix(1.00403 0 0 1 1390 1619)"/></g></g></g><path d="M273 1862 3811.69 1862" stroke="#156082" stroke-width="10.3125" stroke-linecap="butt" stroke-linejoin="round" stroke-miterlimit="10" stroke-opacity="1" fill="none" fill-rule="evenodd"/></g></g></svg>