<svg width="3681" height="1540" xmlns="http://www.w3.org/2000/svg" xmlns:xlink="http://www.w3.org/1999/xlink" xml:space="preserve" overflow="hidden"><defs><filter id="fx0" x="-10%" y="-10%" width="120%" height="120%" filterUnits="userSpaceOnUse" primitiveUnits="userSpaceOnUse"><feComponentTransfer color-interpolation-filters="sRGB"><feFuncR type="discrete" tableValues="0.000000 0.000000"/><feFuncG type="discrete" tableValues="0.000000 0.000000"/><feFuncB type="discrete" tableValues="0.000000 0.000000"/><feFuncA type="linear" slope="0.400000" intercept="0.000000"/></feComponentTransfer><feGaussianBlur stdDeviation="6.111111 6.111111"/></filter><filter id="fx1" x="-10%" y="-10%" width="120%" height="120%" filterUnits="userSpaceOnUse" primitiveUnits="userSpaceOnUse"><feComponentTransfer color-interpolation-filters="sRGB"><feFuncR type="discrete" tableValues="0.000000 0.000000"/><feFuncG type="discrete" tableValues="0.000000 0.000000"/><feFuncB type="discrete" tableValues="0.000000 0.000000"/><feFuncA type="linear" slope="0.400000" intercept="0.000000"/></feComponentTransfer><feGaussianBlur stdDeviation="6.111111 6.111111"/></filter><filter id="fx2" x="-10%" y="-10%" width="120%" height="120%" filterUnits="userSpaceOnUse" primitiveUnits="userSpaceOnUse"><feComponentTransfer color-interpolation-filters="sRGB"><feFuncR type="discrete" tableValues="0.000000 0.000000"/><feFuncG type="discrete" tableValues="0.000000 0.000000"/><feFuncB type="discrete" tableValues="0.000000 0.000000"/><feFuncA type="linear" slope="0.400000" intercept="0.000000"/></feComponentTransfer><feGaussianBlur stdDeviation="6.111111 6.111111"/></filter><filter id="fx3" x="-10%" y="-10%" width="120%" height="120%" filterUnits="userSpaceOnUse" primitiveUnits="userSpaceOnUse"><feComponentTransfer color-interpolation-filters="sRGB"><feFuncR type="discrete" tableValues="0.000000 0.000000"/><feFuncG type="discrete" tableValues="0.000000 0.000000"/><feFuncB type="discrete" tableValues="0.000000 0.000000"/><feFuncA type="linear" slope="0.400000" intercept="0.000000"/></feComponentTransfer><feGaussianBlur stdDeviation="6.111111 6.111111"/></filter><filter id="fx4" x="-10%" y="-10%" width="120%" height="120%" filterUnits="userSpaceOnUse" primitiveUnits="userSpaceOnUse"><feComponentTransfer color-interpolation-filters="sRGB"><feFuncR type="discrete" tableValues="0.000000 0.000000"/><feFuncG type="discrete" tableValues="0.000000 0.000000"/><feFuncB type="discrete" tableValues="0.000000 0.000000"/><feFuncA type="linear" slope="0.400000" intercept="0.000000"/></feComponentTransfer><feGaussianBlur stdDeviation="6.111111 6.111111"/></filter><filter id="fx5" x="-10%" y="-10%" width="120%" height="120%" filterUnits="userSpaceOnUse" primitiveUnits="userSpaceOnUse"><feComponentTransfer color-interpolation-filters="sRGB"><feFuncR type="discrete" tableValues="0.000000 0.000000"/><feFuncG type="discrete" tableValues="0.000000 0.000000"/><feFuncB type="discrete" tableValues="0.000000 0.000000"/><feFuncA type="linear" slope="0.400000" intercept="0.000000"/></feComponentTransfer><feGaussianBlur stdDeviation="6.111111 6.111111"/></filter><filter id="fx6" x="-10%" y="-10%" width="120%" height="120%" filterUnits="userSpaceOnUse" primitiveUnits="userSpaceOnUse"><feComponentTransfer color-interpolation-filters="sRGB"><feFuncR type="discrete" tableValues="0.000000 0.000000"/><feFuncG type="discrete" tableValues="0.000000 0.000000"/><feFuncB type="discrete" tableValues="0.000000 0.000000"/><feFuncA type="linear" slope="0.400000" intercept="0.000000"/></feComponentTransfer><feGaussianBlur stdDeviation="6.111111 6.111111"/></filter><filter id="fx7" x="-10%" y="-10%" width="120%" height="120%" filterUnits="userSpaceOnUse" primitiveUnits="userSpaceOnUse"><feComponentTransfer color-interpolation-filters="sRGB"><feFuncR type="discrete" tableValues="0.000000 0.000000"/><feFuncG type="discrete" tableValues="0.000000 0.000000"/><feFuncB type="discrete" tableValues="0.000000 0.000000"/><feFuncA type="linear" slope="0.400000" intercept="0.000000"/></feComponentTransfer><feGaussianBlur stdDeviation="6.111111 6.111111"/></filter><filter id="fx8" x="-10%" y="-10%" width="120%" height="120%" filterUnits="userSpaceOnUse" primitiveUnits="userSpaceOnUse"><feComponentTransfer color-interpolation-filters="sRGB"><feFuncR type="discrete" tableValues="0.000000 0.000000"/><feFuncG type="discrete" tableValues="0.000000 0.000000"/><feFuncB type="discrete" tableValues="0.000000 0.000000"/><feFuncA type="linear" slope="0.400000" intercept="0.000000"/></feComponentTransfer><feGaussianBlur stdDeviation="6.111111 6.111111"/></filter><filter id="fx9" x="-10%" y="-10%" width="120%" height="120%" filterUnits="userSpaceOnUse" primitiveUnits="userSpaceOnUse"><feComponentTransfer color-interpolation-filters="sRGB"><feFuncR type="discrete" tableValues="0.000000 0.000000"/><feFuncG type="discrete" tableValues="0.000000 0.000000"/><feFuncB type="discrete" tableValues="0.000000 0.000000"/><feFuncA type="linear" slope="0.400000" intercept="0.000000"/></feComponentTransfer><feGaussianBlur stdDeviation="6.111111 6.111111"/></filter><filter id="fx10" x="-10%" y="-10%" width="120%" height="120%" filterUnits="userSpaceOnUse" primitiveUnits="userSpaceOnUse"><feComponentTransfer color-interpolation-filters="sRGB"><feFuncR type="discrete" tableValues="0.000000 0.000000"/><feFuncG type="discrete" tableValues="0.000000 0.000000"/><feFuncB type="discrete" tableValues="0.000000 0.000000"/><feFuncA type="linear" slope="0.400000" intercept="0.000000"/></feComponentTransfer><feGaussianBlur stdDeviation="6.111111 6.111111"/></filter><filter id="fx11" x="-10%" y="-10%" width="120%" height="120%" filterUnits="userSpaceOnUse" primitiveUnits="userSpaceOnUse"><feComponentTransfer color-interpolation-filters="sRGB"><feFuncR type="discrete" tableValues="0.000000 0.000000"/><feFuncG type="discrete" tableValues="0.000000 0.000000"/><feFuncB type="discrete" tableValues="0.000000 0.000000"/><feFuncA type="linear" slope="0.400000" intercept="0.000000"/></feComponentTransfer><feGaussianBlur stdDeviation="6.111111 6.111111"/></filter><filter id="fx12" x="-10%" y="-10%" width="120%" height="120%" filterUnits="userSpaceOnUse" primitiveUnits="userSpaceOnUse"><feComponentTransfer color-interpolation-filters="sRGB"><feFuncR type="discrete" tableValues="0.000000 0.000000"/><feFuncG type="discrete" tableValues="0.000000 0.000000"/><feFuncB type="discrete" tableValues="0.000000 0.000000"/><feFuncA type="linear" slope="0.400000" intercept="0.000000"/></feComponentTransfer><feGaussianBlur stdDeviation="6.111111 6.111111"/></filter><filter id="fx13" x="-10%" y="-10%" width="120%" height="120%" filterUnits="userSpaceOnUse" primitiveUnits="userSpaceOnUse"><feComponentTransfer color-interpolation-filters="sRGB"><feFuncR type="discrete" tableValues="0.000000 0.000000"/><feFuncG type="discrete" tableValues="0.000000 0.000000"/><feFuncB type="discrete" tableValues="0.000000 0.000000"/><feFuncA type="linear" slope="0.400000" intercept="0.000000"/></feComponentTransfer><feGaussianBlur stdDeviation="6.111111 6.111111"/></filter><filter id="fx14" x="-10%" y="-10%" width="120%" height="120%" filterUnits="userSpaceOnUse" primitiveUnits="userSpaceOnUse"><feComponentTransfer color-interpolation-filters="sRGB"><feFuncR type="discrete" tableValues="0.000000 0.000000"/><feFuncG type="discrete" tableValues="0.000000 0.000000"/><feFuncB type="discrete" tableValues="0.000000 0.000000"/><feFuncA type="linear" slope="0.400000" intercept="0.000000"/></feComponentTransfer><feGaussianBlur stdDeviation="6.111111 6.111111"/></filter><filter id="fx15" x="-10%" y="-10%" width="120%" height="120%" filterUnits="userSpaceOnUse" primitiveUnits="userSpaceOnUse"><feComponentTransfer color-interpolation-filters="sRGB"><feFuncR type="discrete" tableValues="0.000000 0.000000"/><feFuncG type="discrete" tableValues="0.000000 0.000000"/><feFuncB type="discrete" tableValues="0.000000 0.000000"/><feFuncA type="linear" slope="0.400000" intercept="0.000000"/></feComponentTransfer><feGaussianBlur stdDeviation="6.111111 6.111111"/></filter><filter id="fx16" x="-10%" y="-10%" width="120%" height="120%" filterUnits="userSpaceOnUse" primitiveUnits="userSpaceOnUse"><feComponentTransfer color-interpolation-filters="sRGB"><feFuncR type="discrete" tableValues="0.000000 0.000000"/><feFuncG type="discrete" tableValues="0.000000 0.000000"/><feFuncB type="discrete" tableValues="0.000000 0.000000"/><feFuncA type="linear" slope="0.400000" intercept="0.000000"/></feComponentTransfer><feGaussianBlur stdDeviation="6.111111 6.111111"/></filter><clipPath id="clip17"><rect x="389" y="385" width="3681" height="1540"/></clipPath><clipPath id="clip18"><rect x="389" y="385" width="3681" height="1540"/></clipPath><clipPath id="clip19"><rect x="1.3894" y="1.38937" width="301.667" height="426.667"/></clipPath><clipPath id="clip20"><rect x="1.38928" y="1.38947" width="3212.67" height="1092.67"/></clipPath><clipPath id="clip21"><rect x="1.38934" y="1.38934" width="2352.67" height="861.667"/></clipPath><clipPath id="clip22"><rect x="1.3894" y="1.38928" width="201.667" height="201.667"/></clipPath><clipPath id="clip23"><rect x="1.38928" y="1.38928" width="201.667" height="201.667"/></clipPath><clipPath id="clip24"><rect x="1.38928" y="1.3894" width="201.667" height="201.667"/></clipPath><clipPath id="clip25"><rect x="1.3894" y="1.38928" width="201.667" height="201.667"/></clipPath><clipPath id="clip26"><rect x="1.38953" y="1.38928" width="133.667" height="134.667"/></clipPath><clipPath id="clip27"><rect x="1.38965" y="1.38928" width="134.667" height="134.667"/></clipPath><clipPath id="clip28"><rect x="1.38928" y="1.38928" width="201.667" height="201.667"/></clipPath><clipPath id="clip29"><rect x="1.38965" y="1.38928" width="251.667" height="201.667"/></clipPath><clipPath id="clip30"><rect x="1.3894" y="1.38928" width="134.667" height="134.667"/></clipPath><clipPath id="clip31"><rect x="1.3894" y="1.38928" width="134.667" height="134.667"/></clipPath></defs><g clip-path="url(#clip17)" transform="translate(-389 -385)"><g clip-path="url(#clip18)"><g clip-path="url(#clip19)" filter="url(#fx0)" transform="translate(1727 386)"><g><g><path d="M19.7227 63.8903C19.7227 39.4972 39.4972 19.7227 63.8903 19.7227L240.555 19.7227C264.948 19.7227 284.723 39.4972 284.723 63.8903L284.723 365.555C284.723 389.948 264.948 409.723 240.555 409.723L63.8903 409.723C39.4972 409.723 19.7227 389.948 19.7227 365.555Z" fill="#213244" fill-rule="evenodd" fill-opacity="1"/></g></g></g><path d="M1737 440.168C1737 415.775 1756.77 396 1781.17 396L1957.83 396C1982.23 396 2002 415.775 2002 440.168L2002 741.833C2002 766.226 1982.23 786 1957.83 786L1781.17 786C1756.77 786 1737 766.226 1737 741.833Z" fill="#213244" fill-rule="evenodd" fill-opacity="1"/><g><g><g><path d="M1901.5 454.812C1901.5 470 1889.19 482.312 1874 482.312 1858.81 482.312 1846.5 470 1846.5 454.812 1846.5 439.625 1858.81 427.312 1874 427.312 1889.19 427.312 1901.5 439.625 1901.5 454.812Z" fill="#E4FE63" fill-rule="nonzero" fill-opacity="1"/><path d="M1948.94 596.438 1929.69 514.625C1929 511.875 1927.63 509.125 1925.56 507.062 1917.31 500.187 1907.69 495.375 1896.69 491.937 1889.13 490.562 1881.56 489.187 1874 489.187 1866.44 489.187 1858.88 490.562 1851.31 492.625 1840.31 495.375 1830.69 500.875 1822.44 507.75 1820.38 509.812 1819 512.562 1818.31 515.312L1799.06 597.125C1799.06 597.812 1798.38 599.188 1798.38 600.562 1798.38 608.125 1804.56 614.312 1812.13 614.312 1818.31 614.312 1823.81 609.5 1825.19 604L1839.63 544.188 1839.63 736.688 1867.13 736.688 1867.13 612.938 1880.88 612.938 1880.88 736.688 1908.38 736.688 1908.38 543.5 1922.81 603.312C1924.19 608.812 1929.69 613.625 1935.88 613.625 1943.44 613.625 1949.63 607.438 1949.63 599.875 1949.63 598.5 1948.94 597.125 1948.94 596.438Z" fill="#E4FE63" fill-rule="nonzero" fill-opacity="1"/></g></g></g><g clip-path="url(#clip20)" filter="url(#fx1)" transform="translate(855 829)"><g><g><path d="M19.7226 195.726C19.7226 98.5223 98.522 19.7228 195.726 19.7228L3019.72 19.7228C3116.92 19.7228 3195.72 98.5223 3195.72 195.726L3195.72 899.719C3195.72 996.923 3116.92 1075.72 3019.72 1075.72L195.726 1075.72C98.522 1075.72 19.7226 996.923 19.7226 899.719Z" fill="#97CDD2" fill-rule="evenodd" fill-opacity="1"/></g></g></g><path d="M865 1015C865 917.8 943.799 839 1041 839L3865 839C3962.2 839 4041 917.8 4041 1015L4041 1719C4041 1816.2 3962.2 1895 3865 1895L1041 1895C943.799 1895 865 1816.2 865 1719Z" fill="#97CDD2" fill-rule="evenodd" fill-opacity="1"/><g clip-path="url(#clip21)" filter="url(#fx2)" transform="translate(913 1000)"><g><g><path d="M19.7227 157.226C19.7227 81.2852 81.2851 19.7227 157.226 19.7227L2198.22 19.7227C2274.16 19.7227 2335.72 81.2852 2335.72 157.226L2335.72 707.219C2335.72 783.16 2274.16 844.723 2198.22 844.723L157.226 844.723C81.2851 844.723 19.7227 783.16 19.7227 707.219Z" fill="#F2F2F2" fill-rule="evenodd" fill-opacity="1"/></g></g></g><path d="M923 1147.5C923 1071.56 984.562 1010 1060.5 1010L3101.5 1010C3177.44 1010 3239 1071.56 3239 1147.5L3239 1697.5C3239 1773.44 3177.44 1835 3101.5 1835L1060.5 1835C984.562 1835 923 1773.44 923 1697.5Z" fill="#F2F2F2" fill-rule="evenodd" fill-opacity="1"/><text fill="#000000" fill-opacity="1" font-family="Times New Roman,Times New Roman_MSFontService,sans-serif" font-style="normal" font-variant="normal" font-weight="400" font-stretch="normal" font-size="83" text-anchor="start" direction="ltr" writing-mode="lr-tb" unicode-bidi="normal" text-decoration="none" transform="matrix(1 0 0 1 1044.93 973)">Kalman filter</text><g clip-path="url(#clip22)" filter="url(#fx3)" transform="translate(1268 1330)"><g><g><path d="M19.7228 47.2232C19.7228 32.0351 32.0352 19.7227 47.2233 19.7227L157.222 19.7227C172.41 19.7227 184.723 32.0351 184.723 47.2232L184.723 157.222C184.723 172.41 172.41 184.723 157.222 184.723L47.2233 184.723C32.0352 184.723 19.7228 172.41 19.7228 157.222Z" fill="#019CA6" fill-rule="evenodd" fill-opacity="1"/></g></g></g><path d="M1278 1367.5C1278 1352.31 1290.31 1340 1305.5 1340L1415.5 1340C1430.69 1340 1443 1352.31 1443 1367.5L1443 1477.5C1443 1492.69 1430.69 1505 1415.5 1505L1305.5 1505C1290.31 1505 1278 1492.69 1278 1477.5Z" fill="#019CA6" fill-rule="evenodd" fill-opacity="1"/><g clip-path="url(#clip23)" filter="url(#fx4)" transform="translate(1989 1583)"><g><g><path d="M19.7227 47.2232C19.7227 32.0351 32.0351 19.7227 47.2232 19.7227L157.222 19.7227C172.41 19.7227 184.723 32.0351 184.723 47.2232L184.723 157.222C184.723 172.41 172.41 184.723 157.222 184.723L47.2232 184.723C32.0351 184.723 19.7227 172.41 19.7227 157.222Z" fill="#019CA6" fill-rule="evenodd" fill-opacity="1"/></g></g></g><path d="M1999 1620.5C1999 1605.31 2011.31 1593 2026.5 1593L2136.5 1593C2151.69 1593 2164 1605.31 2164 1620.5L2164 1730.5C2164 1745.69 2151.69 1758 2136.5 1758L2026.5 1758C2011.31 1758 1999 1745.69 1999 1730.5Z" fill="#019CA6" fill-rule="evenodd" fill-opacity="1"/><g clip-path="url(#clip24)" filter="url(#fx5)" transform="translate(1989 1080)"><g><g><path d="M19.7227 47.2233C19.7227 32.0352 32.0351 19.7228 47.2232 19.7228L157.222 19.7228C172.41 19.7228 184.723 32.0352 184.723 47.2233L184.723 157.222C184.723 172.41 172.41 184.723 157.222 184.723L47.2232 184.723C32.0351 184.723 19.7227 172.41 19.7227 157.222Z" fill="#019CA6" fill-rule="evenodd" fill-opacity="1"/></g></g></g><path d="M1999 1117.5C1999 1102.31 2011.31 1090 2026.5 1090L2136.5 1090C2151.69 1090 2164 1102.31 2164 1117.5L2164 1227.5C2164 1242.69 2151.69 1255 2136.5 1255L2026.5 1255C2011.31 1255 1999 1242.69 1999 1227.5Z" fill="#019CA6" fill-rule="evenodd" fill-opacity="1"/><g clip-path="url(#clip25)" filter="url(#fx6)" transform="translate(2606 1330)"><g><g><path d="M19.7227 47.2232C19.7227 32.0351 32.0351 19.7227 47.2232 19.7227L157.222 19.7227C172.41 19.7227 184.723 32.0351 184.723 47.2232L184.723 157.222C184.723 172.41 172.41 184.723 157.222 184.723L47.2232 184.723C32.0351 184.723 19.7227 172.41 19.7227 157.222Z" fill="#019CA6" fill-rule="evenodd" fill-opacity="1"/></g></g></g><path d="M2616 1367.5C2616 1352.31 2628.31 1340 2643.5 1340L2753.5 1340C2768.69 1340 2781 1352.31 2781 1367.5L2781 1477.5C2781 1492.69 2768.69 1505 2753.5 1505L2643.5 1505C2628.31 1505 2616 1492.69 2616 1477.5Z" fill="#019CA6" fill-rule="evenodd" fill-opacity="1"/><g clip-path="url(#clip26)" filter="url(#fx7)" transform="translate(1534 1363)"><g><g><path d="M19.7229 68.7226C19.7229 41.6607 41.4371 19.7227 68.2229 19.7227 95.0087 19.7227 116.723 41.6607 116.723 68.7226 116.723 95.7846 95.0087 117.723 68.2229 117.723 41.4371 117.723 19.7229 95.7846 19.7229 68.7226Z" fill="#FFFFFF" fill-rule="evenodd" fill-opacity="1"/></g></g></g><g filter="url(#fx8)" transform="translate(1511 1338)"><g><g><path d="M4.57959-30.0713 39.6763-30.0713 39.6763-24.1948 4.57959-24.1948ZM19.1694-9.60498 19.1694-44.6611 25.0864-44.6611 25.0864-9.60498Z" fill="#000000" fill-rule="nonzero" fill-opacity="1" transform="matrix(1 0 0 1 69.1526 120)"/></g></g></g><path d="M1544 1422C1544 1394.94 1565.71 1373 1592.5 1373 1619.29 1373 1641 1394.94 1641 1422 1641 1449.06 1619.29 1471 1592.5 1471 1565.71 1471 1544 1449.06 1544 1422Z" fill="#FFFFFF" fill-rule="evenodd" fill-opacity="1"/><text fill="#000000" fill-opacity="1" font-family="Aptos,Aptos_MSFontService,sans-serif" font-style="normal" font-variant="normal" font-weight="400" font-stretch="normal" font-size="83" text-anchor="start" direction="ltr" writing-mode="lr-tb" unicode-bidi="normal" text-decoration="none" transform="matrix(1 0 0 1 1570.43 1449)">+</text><g clip-path="url(#clip27)" filter="url(#fx9)" transform="translate(2910 1363)"><g><g><path d="M19.7229 68.7226C19.7229 41.6607 41.6609 19.7227 68.7229 19.7227 95.7848 19.7227 117.723 41.6607 117.723 68.7226 117.723 95.7846 95.7848 117.723 68.7229 117.723 41.6609 117.723 19.7229 95.7846 19.7229 68.7226Z" fill="#FFFFFF" fill-rule="evenodd" fill-opacity="1"/></g></g></g><g filter="url(#fx10)" transform="translate(2887 1338)"><g><g><path d="M4.57959-30.0713 39.6763-30.0713 39.6763-24.1948 4.57959-24.1948ZM19.1694-9.60498 19.1694-44.6611 25.0864-44.6611 25.0864-9.60498Z" fill="#000000" fill-rule="nonzero" fill-opacity="1" transform="matrix(1 0 0 1 69.6477 120)"/></g></g></g><path d="M2920 1422C2920 1394.94 2941.94 1373 2969 1373 2996.06 1373 3018 1394.94 3018 1422 3018 1449.06 2996.06 1471 2969 1471 2941.94 1471 2920 1449.06 2920 1422Z" fill="#FFFFFF" fill-rule="evenodd" fill-opacity="1"/><text fill="#000000" fill-opacity="1" font-family="Aptos,Aptos_MSFontService,sans-serif" font-style="normal" font-variant="normal" font-weight="400" font-stretch="normal" font-size="83" text-anchor="start" direction="ltr" writing-mode="lr-tb" unicode-bidi="normal" text-decoration="none" transform="matrix(1 0 0 1 2946.92 1449)">+</text><text fill="#000000" fill-opacity="1" font-family="Times New Roman,Times New Roman_MSFontService,sans-serif" font-style="normal" font-variant="normal" font-weight="400" font-stretch="normal" font-size="83" text-anchor="start" direction="ltr" writing-mode="lr-tb" unicode-bidi="normal" text-decoration="none" transform="matrix(1 0 0 1 1044.93 1769)">Model</text><g clip-path="url(#clip28)" filter="url(#fx11)" transform="translate(1989 1330)"><g><g><path d="M19.7227 47.2232C19.7227 32.0351 32.0351 19.7227 47.2232 19.7227L157.222 19.7227C172.41 19.7227 184.723 32.0351 184.723 47.2232L184.723 157.222C184.723 172.41 172.41 184.723 157.222 184.723L47.2232 184.723C32.0351 184.723 19.7227 172.41 19.7227 157.222Z" fill="#FFFFFF" fill-rule="evenodd" fill-opacity="1"/></g></g></g><path d="M1999 1367.5C1999 1352.31 2011.31 1340 2026.5 1340L2136.5 1340C2151.69 1340 2164 1352.31 2164 1367.5L2164 1477.5C2164 1492.69 2151.69 1505 2136.5 1505L2026.5 1505C2011.31 1505 1999 1492.69 1999 1477.5Z" fill="#FFFFFF" fill-rule="evenodd" fill-opacity="1"/><g clip-path="url(#clip29)" filter="url(#fx12)" transform="translate(3339 1583)"><g><g><path d="M19.7229 47.2233C19.7229 32.0351 32.0354 19.7227 47.2236 19.7227L207.222 19.7227C222.41 19.7227 234.723 32.0351 234.723 47.2233L234.723 157.222C234.723 172.41 222.41 184.723 207.222 184.723L47.2236 184.723C32.0354 184.723 19.7229 172.41 19.7229 157.222Z" fill="#CAEEFB" fill-rule="evenodd" fill-opacity="1"/></g></g></g><path d="M3349 1620.5C3349 1605.31 3361.31 1593 3376.5 1593L3536.5 1593C3551.69 1593 3564 1605.31 3564 1620.5L3564 1730.5C3564 1745.69 3551.69 1758 3536.5 1758L3376.5 1758C3361.31 1758 3349 1745.69 3349 1730.5Z" fill="#CAEEFB" fill-rule="evenodd" fill-opacity="1"/><text fill="#000000" fill-opacity="1" font-family="Times New Roman,Times New Roman_MSFontService,sans-serif" font-style="normal" font-variant="normal" font-weight="400" font-stretch="normal" font-size="83" text-anchor="start" direction="ltr" writing-mode="lr-tb" unicode-bidi="normal" text-decoration="none" transform="matrix(1 0 0 1 2058.98 1452)">q</text><text fill="#000000" fill-opacity="1" font-family="Times New Roman,Times New Roman_MSFontService,sans-serif" font-style="normal" font-variant="normal" font-weight="400" font-stretch="normal" font-size="55" text-anchor="start" direction="ltr" writing-mode="lr-tb" unicode-bidi="normal" text-decoration="none" transform="matrix(1 0 0 1 2100.23 1427)">-</text><text fill="#000000" fill-opacity="1" font-family="Times New Roman,Times New Roman_MSFontService,sans-serif" font-style="normal" font-variant="normal" font-weight="400" font-stretch="normal" font-size="55" text-anchor="start" direction="ltr" writing-mode="lr-tb" unicode-bidi="normal" text-decoration="none" transform="matrix(1 0 0 1 2118.56 1427)">1</text><text fill="#000000" fill-opacity="1" font-family="Times New Roman,Times New Roman_MSFontService,sans-serif" font-style="italic" font-variant="normal" font-weight="400" font-stretch="normal" font-size="83" text-anchor="start" direction="ltr" writing-mode="lr-tb" unicode-bidi="normal" text-decoration="underline" transform="matrix(1 0 0 1 1322.76 1452)">B</text><text fill="#000000" fill-opacity="1" font-family="Times New Roman,Times New Roman_MSFontService,sans-serif" font-style="normal" font-variant="normal" font-weight="400" font-stretch="normal" font-size="55" text-anchor="start" direction="ltr" writing-mode="lr-tb" unicode-bidi="normal" text-decoration="none" transform="matrix(1 0 0 1 1373.17 1472)">d</text><text fill="#000000" fill-opacity="1" font-family="Times New Roman,Times New Roman_MSFontService,sans-serif" font-style="italic" font-variant="normal" font-weight="400" font-stretch="normal" font-size="83" text-anchor="start" direction="ltr" writing-mode="lr-tb" unicode-bidi="normal" text-decoration="underline" transform="matrix(1 0 0 1 2056.01 1705)">A</text><text fill="#000000" fill-opacity="1" font-family="Times New Roman,Times New Roman_MSFontService,sans-serif" font-style="normal" font-variant="normal" font-weight="400" font-stretch="normal" font-size="55" text-anchor="start" direction="ltr" writing-mode="lr-tb" unicode-bidi="normal" text-decoration="none" transform="matrix(1 0 0 1 2106.43 1725)">d</text><text fill="#000000" fill-opacity="1" font-family="Times New Roman,Times New Roman_MSFontService,sans-serif" font-style="italic" font-variant="normal" font-weight="400" font-stretch="normal" font-size="83" text-anchor="start" direction="ltr" writing-mode="lr-tb" unicode-bidi="normal" text-decoration="underline" transform="matrix(1 0 0 1 2051.3 1198)">D</text><text fill="#000000" fill-opacity="1" font-family="Times New Roman,Times New Roman_MSFontService,sans-serif" font-style="italic" font-variant="normal" font-weight="400" font-stretch="normal" font-size="83" text-anchor="start" direction="ltr" writing-mode="lr-tb" unicode-bidi="normal" text-decoration="underline" transform="matrix(1 0 0 1 2685.31 1452)">C</text><text fill="#000000" fill-opacity="1" font-family="Times New Roman,Times New Roman_MSFontService,sans-serif" font-style="italic" font-variant="normal" font-weight="400" font-stretch="normal" font-size="83" text-anchor="start" direction="ltr" writing-mode="lr-tb" unicode-bidi="normal" text-decoration="underline" transform="matrix(1 0 0 1 3382.68 1705)">K</text><text fill="#000000" fill-opacity="1" font-family="Times New Roman,Times New Roman_MSFontService,sans-serif" font-style="italic" font-variant="normal" font-weight="400" font-stretch="normal" font-size="83" text-anchor="start" direction="ltr" writing-mode="lr-tb" unicode-bidi="normal" text-decoration="none" transform="matrix(1 0 0 1 3437.68 1705)">(k)</text><text fill="#000000" fill-opacity="1" font-family="Cambria Math,Cambria Math_MSFontService,sans-serif" font-style="normal" font-variant="normal" font-weight="400" font-stretch="normal" font-size="83" text-anchor="start" direction="ltr" writing-mode="lr-tb" unicode-bidi="normal" text-decoration="none" transform="matrix(1 0 0 1 410.432 577)">­ЮЉб</text><path d="M410.226 592.498 435.226 592.498 460.226 592.498 460.226 597.498 435.226 597.498 410.226 597.498Z" fill="#000000" fill-rule="evenodd" fill-opacity="1"/><text fill="#000000" fill-opacity="1" font-family="Cambria Math,Cambria Math_MSFontService,sans-serif" font-style="normal" font-variant="normal" font-weight="400" font-stretch="normal" font-size="83" text-anchor="start" direction="ltr" writing-mode="lr-tb" unicode-bidi="normal" text-decoration="none" transform="matrix(1 0 0 1 460.07 577)">(</text><text fill="#000000" fill-opacity="1" font-family="Cambria Math,Cambria Math_MSFontService,sans-serif" font-style="normal" font-variant="normal" font-weight="400" font-stretch="normal" font-size="83" text-anchor="start" direction="ltr" writing-mode="lr-tb" unicode-bidi="normal" text-decoration="none" transform="matrix(1 0 0 1 494.445 577)">­ЮЉў</text><text fill="#000000" fill-opacity="1" font-family="Cambria Math,Cambria Math_MSFontService,sans-serif" font-style="normal" font-variant="normal" font-weight="400" font-stretch="normal" font-size="83" text-anchor="start" direction="ltr" writing-mode="lr-tb" unicode-bidi="normal" text-decoration="none" transform="matrix(1 0 0 1 542.111 577)">)</text><text fill="#000000" fill-opacity="1" font-family="Cambria Math,Cambria Math_MSFontService,sans-serif" font-style="normal" font-variant="normal" font-weight="400" font-stretch="normal" font-size="83" text-anchor="start" direction="ltr" writing-mode="lr-tb" unicode-bidi="normal" text-decoration="none" transform="matrix(1 0 0 1 1665.13 1343)">­ЮЉЦ</text><path d="M1665.13 1358.37 1712.13 1358.37 1712.13 1363.37 1665.13 1363.37Z" fill="#000000" fill-rule="evenodd" fill-opacity="1"/><path d="M19.8989-58.4404 33.6782-45.6743 31.4897-43.3643 17.1836-53.2124 16.7378-53.2124 2.18848-43.3643 0-45.6743 14.4683-58.4404Z" fill="#000000" fill-rule="nonzero" fill-opacity="1" transform="matrix(1 0 0 1 1675.15 1343)"/><text fill="#000000" fill-opacity="0" font-family="Arial,Arial_MSFontService,sans-serif" font-size="15.0762" direction="ltr" writing-mode="lr-tb" y="-45.2488">Яию</text><text fill="#000000" fill-opacity="1" font-family="Cambria Math,Cambria Math_MSFontService,sans-serif" font-style="normal" font-variant="normal" font-weight="400" font-stretch="normal" font-size="83" text-anchor="start" direction="ltr" writing-mode="lr-tb" unicode-bidi="normal" text-decoration="none" transform="matrix(1 0 0 1 1711.75 1343)"> </text><text fill="#000000" fill-opacity="1" font-family="Cambria Math,Cambria Math_MSFontService,sans-serif" font-style="normal" font-variant="normal" font-weight="400" font-stretch="normal" font-size="83" text-anchor="start" direction="ltr" writing-mode="lr-tb" unicode-bidi="normal" text-decoration="none" transform="matrix(1 0 0 1 1730.08 1343)">(</text><text fill="#000000" fill-opacity="1" font-family="Cambria Math,Cambria Math_MSFontService,sans-serif" font-style="normal" font-variant="normal" font-weight="400" font-stretch="normal" font-size="83" text-anchor="start" direction="ltr" writing-mode="lr-tb" unicode-bidi="normal" text-decoration="none" transform="matrix(1 0 0 1 1764.45 1343)">­ЮЉў</text><text fill="#000000" fill-opacity="1" font-family="Cambria Math,Cambria Math_MSFontService,sans-serif" font-style="normal" font-variant="normal" font-weight="400" font-stretch="normal" font-size="83" text-anchor="start" direction="ltr" writing-mode="lr-tb" unicode-bidi="normal" text-decoration="none" transform="matrix(1 0 0 1 1830.45 1343)">+</text><text fill="#000000" fill-opacity="1" font-family="Cambria Math,Cambria Math_MSFontService,sans-serif" font-style="normal" font-variant="normal" font-weight="400" font-stretch="normal" font-size="83" text-anchor="start" direction="ltr" writing-mode="lr-tb" unicode-bidi="normal" text-decoration="none" transform="matrix(1 0 0 1 1910.66 1343)">1</text><text fill="#000000" fill-opacity="1" font-family="Cambria Math,Cambria Math_MSFontService,sans-serif" font-style="normal" font-variant="normal" font-weight="400" font-stretch="normal" font-size="83" text-anchor="start" direction="ltr" writing-mode="lr-tb" unicode-bidi="normal" text-decoration="none" transform="matrix(1 0 0 1 1956.5 1343)">)</text><text fill="#000000" fill-opacity="1" font-family="Cambria Math,Cambria Math_MSFontService,sans-serif" font-style="normal" font-variant="normal" font-weight="400" font-stretch="normal" font-size="83" text-anchor="start" direction="ltr" writing-mode="lr-tb" unicode-bidi="normal" text-decoration="none" transform="matrix(1 0 0 1 3318.55 1345)">­ЮЉд</text><path d="M3318.15 1376.22 3366.15 1376.22 3366.15 1381.22 3318.15 1381.22Z" fill="#000000" fill-rule="evenodd" fill-opacity="1"/><path d="M19.8989-58.4404 33.6782-45.6743 31.4897-43.3643 17.1836-53.2124 16.7378-53.2124 2.18848-43.3643 0-45.6743 14.4683-58.4404Z" fill="#000000" fill-rule="nonzero" fill-opacity="1" transform="matrix(1 0 0 1 3329.37 1345)"/><text fill="#000000" fill-opacity="0" font-family="Arial,Arial_MSFontService,sans-serif" font-size="15.0762" direction="ltr" writing-mode="lr-tb" y="-45.2488">Яию</text><text fill="#000000" fill-opacity="1" font-family="Cambria Math,Cambria Math_MSFontService,sans-serif" font-style="normal" font-variant="normal" font-weight="400" font-stretch="normal" font-size="83" text-anchor="start" direction="ltr" writing-mode="lr-tb" unicode-bidi="normal" text-decoration="none" transform="matrix(1 0 0 1 3366.38 1345)"> </text><text fill="#000000" fill-opacity="1" font-family="Cambria Math,Cambria Math_MSFontService,sans-serif" font-style="normal" font-variant="normal" font-weight="400" font-stretch="normal" font-size="83" text-anchor="start" direction="ltr" writing-mode="lr-tb" unicode-bidi="normal" text-decoration="none" transform="matrix(1 0 0 1 3384.71 1345)">(</text><text fill="#000000" fill-opacity="1" font-family="Cambria Math,Cambria Math_MSFontService,sans-serif" font-style="normal" font-variant="normal" font-weight="400" font-stretch="normal" font-size="83" text-anchor="start" direction="ltr" writing-mode="lr-tb" unicode-bidi="normal" text-decoration="none" transform="matrix(1 0 0 1 3419.09 1345)">­ЮЉў</text><text fill="#000000" fill-opacity="1" font-family="Cambria Math,Cambria Math_MSFontService,sans-serif" font-style="normal" font-variant="normal" font-weight="400" font-stretch="normal" font-size="83" text-anchor="start" direction="ltr" writing-mode="lr-tb" unicode-bidi="normal" text-decoration="none" transform="matrix(1 0 0 1 3466.76 1345)">)</text><text fill="#000000" fill-opacity="1" font-family="Cambria Math,Cambria Math_MSFontService,sans-serif" font-style="normal" font-variant="normal" font-weight="400" font-stretch="normal" font-size="83" text-anchor="start" direction="ltr" writing-mode="lr-tb" unicode-bidi="normal" text-decoration="none" transform="matrix(1 0 0 1 3727.88 1604)">╬ћ</text><text fill="#000000" fill-opacity="1" font-family="Cambria Math,Cambria Math_MSFontService,sans-serif" font-style="normal" font-variant="normal" font-weight="400" font-stretch="normal" font-size="83" text-anchor="start" direction="ltr" writing-mode="lr-tb" unicode-bidi="normal" text-decoration="none" transform="matrix(1 0 0 1 3777.15 1604)"> </text><text fill="#000000" fill-opacity="1" font-family="Cambria Math,Cambria Math_MSFontService,sans-serif" font-style="normal" font-variant="normal" font-weight="400" font-stretch="normal" font-size="83" text-anchor="start" direction="ltr" writing-mode="lr-tb" unicode-bidi="normal" text-decoration="none" transform="matrix(1 0 0 1 3795.49 1604)">­ЮЉд</text><path d="M3795.48 1634.81 3843.48 1634.81 3843.48 1639.81 3795.48 1639.81Z" fill="#000000" fill-rule="evenodd" fill-opacity="1"/><text fill="#000000" fill-opacity="1" font-family="Cambria Math,Cambria Math_MSFontService,sans-serif" font-style="normal" font-variant="normal" font-weight="400" font-stretch="normal" font-size="83" text-anchor="start" direction="ltr" writing-mode="lr-tb" unicode-bidi="normal" text-decoration="none" transform="matrix(1 0 0 1 3843.31 1604)">(</text><text fill="#000000" fill-opacity="1" font-family="Cambria Math,Cambria Math_MSFontService,sans-serif" font-style="normal" font-variant="normal" font-weight="400" font-stretch="normal" font-size="83" text-anchor="start" direction="ltr" writing-mode="lr-tb" unicode-bidi="normal" text-decoration="none" transform="matrix(1 0 0 1 3877.69 1604)">­ЮЉў</text><text fill="#000000" fill-opacity="1" font-family="Cambria Math,Cambria Math_MSFontService,sans-serif" font-style="normal" font-variant="normal" font-weight="400" font-stretch="normal" font-size="83" text-anchor="start" direction="ltr" writing-mode="lr-tb" unicode-bidi="normal" text-decoration="none" transform="matrix(1 0 0 1 3925.36 1604)">)</text><text fill="#000000" fill-opacity="1" font-family="Cambria Math,Cambria Math_MSFontService,sans-serif" font-style="normal" font-variant="normal" font-weight="400" font-stretch="normal" font-size="83" text-anchor="start" direction="ltr" writing-mode="lr-tb" unicode-bidi="normal" text-decoration="none" transform="matrix(1 0 0 1 2233.5 1343)">­ЮЉЦ</text><path d="M2233.35 1358.37 2280.35 1358.37 2280.35 1363.37 2233.35 1363.37Z" fill="#000000" fill-rule="evenodd" fill-opacity="1"/><path d="M19.8989-58.4404 33.6782-45.6743 31.4897-43.3643 17.1836-53.2124 16.7378-53.2124 2.18848-43.3643 0-45.6743 14.4683-58.4404Z" fill="#000000" fill-rule="nonzero" fill-opacity="1" transform="matrix(1 0 0 1 2243.52 1343)"/><text fill="#000000" fill-opacity="0" font-family="Arial,Arial_MSFontService,sans-serif" font-size="15.0762" direction="ltr" writing-mode="lr-tb" y="-45.2488">Яию</text><text fill="#000000" fill-opacity="1" font-family="Cambria Math,Cambria Math_MSFontService,sans-serif" font-style="normal" font-variant="normal" font-weight="400" font-stretch="normal" font-size="83" text-anchor="start" direction="ltr" writing-mode="lr-tb" unicode-bidi="normal" text-decoration="none" transform="matrix(1 0 0 1 2280.11 1343)"> </text><text fill="#000000" fill-opacity="1" font-family="Cambria Math,Cambria Math_MSFontService,sans-serif" font-style="normal" font-variant="normal" font-weight="400" font-stretch="normal" font-size="83" text-anchor="start" direction="ltr" writing-mode="lr-tb" unicode-bidi="normal" text-decoration="none" transform="matrix(1 0 0 1 2298.45 1343)">(</text><text fill="#000000" fill-opacity="1" font-family="Cambria Math,Cambria Math_MSFontService,sans-serif" font-style="normal" font-variant="normal" font-weight="400" font-stretch="normal" font-size="83" text-anchor="start" direction="ltr" writing-mode="lr-tb" unicode-bidi="normal" text-decoration="none" transform="matrix(1 0 0 1 2332.82 1343)">­ЮЉў</text><text fill="#000000" fill-opacity="1" font-family="Cambria Math,Cambria Math_MSFontService,sans-serif" font-style="normal" font-variant="normal" font-weight="400" font-stretch="normal" font-size="83" text-anchor="start" direction="ltr" writing-mode="lr-tb" unicode-bidi="normal" text-decoration="none" transform="matrix(1 0 0 1 2380.49 1343)">)</text><text fill="#000000" fill-opacity="1" font-family="Cambria Math,Cambria Math_MSFontService,sans-serif" font-style="normal" font-variant="normal" font-weight="400" font-stretch="normal" font-size="83" text-anchor="start" direction="ltr" writing-mode="lr-tb" unicode-bidi="normal" text-decoration="none" transform="matrix(1 0 0 1 2199.17 474)">­ЮЉд</text><path d="M2199.06 504.627 2223.06 504.627 2247.06 504.627 2247.06 509.627 2223.06 509.627 2199.06 509.627Z" fill="#000000" fill-rule="evenodd" fill-opacity="1"/><text fill="#000000" fill-opacity="1" font-family="Cambria Math,Cambria Math_MSFontService,sans-serif" font-style="normal" font-variant="normal" font-weight="400" font-stretch="normal" font-size="83" text-anchor="start" direction="ltr" writing-mode="lr-tb" unicode-bidi="normal" text-decoration="none" transform="matrix(1 0 0 1 2246.99 474)">(</text><text fill="#000000" fill-opacity="1" font-family="Cambria Math,Cambria Math_MSFontService,sans-serif" font-style="normal" font-variant="normal" font-weight="400" font-stretch="normal" font-size="83" text-anchor="start" direction="ltr" writing-mode="lr-tb" unicode-bidi="normal" text-decoration="none" transform="matrix(1 0 0 1 2281.37 474)">­ЮЉў</text><text fill="#000000" fill-opacity="1" font-family="Cambria Math,Cambria Math_MSFontService,sans-serif" font-style="normal" font-variant="normal" font-weight="400" font-stretch="normal" font-size="83" text-anchor="start" direction="ltr" writing-mode="lr-tb" unicode-bidi="normal" text-decoration="none" transform="matrix(1 0 0 1 2329.03 474)">)</text><path d="M621.507 549.208 1715.14 552.347 1715.13 556.93 621.493 553.792ZM1710.59 540.875 1738.05 554.704 1710.51 568.375Z" fill="#000000" fill-rule="nonzero" fill-opacity="1"/><path d="M2002.5 545.208 3649.96 545.208 3649.96 1350.54 3645.38 1350.54 3645.38 547.5 3647.67 549.792 2002.5 549.792ZM3661.42 1345.95 3647.67 1373.45 3633.92 1345.95Z" fill="#000000" fill-rule="nonzero" fill-opacity="1"/><g clip-path="url(#clip30)" filter="url(#fx13)" transform="translate(3588 1363)"><g><g><path d="M19.7227 68.7226C19.7227 41.6607 41.6607 19.7227 68.7226 19.7227 95.7846 19.7227 117.723 41.6607 117.723 68.7226 117.723 95.7846 95.7846 117.723 68.7226 117.723 41.6607 117.723 19.7227 95.7846 19.7227 68.7226Z" fill="#FFFFFF" fill-rule="evenodd" fill-opacity="1"/></g></g></g><g filter="url(#fx14)" transform="translate(3574 1338)"><g><g><path d="M4.01221-17.1431 4.01221-23.1411 24.2353-23.1411 24.2353-17.1431Z" fill="#000000" fill-rule="nonzero" fill-opacity="1" transform="matrix(1 0 0 1 69.0017 120)"/></g></g></g><path d="M3598 1422C3598 1394.94 3619.94 1373 3647 1373 3674.06 1373 3696 1394.94 3696 1422 3696 1449.06 3674.06 1471 3647 1471 3619.94 1471 3598 1449.06 3598 1422Z" fill="#FFFFFF" fill-rule="evenodd" fill-opacity="1"/><text fill="#000000" fill-opacity="1" font-family="Aptos,Aptos_MSFontService,sans-serif" font-style="normal" font-variant="normal" font-weight="400" font-stretch="normal" font-size="83" text-anchor="start" direction="ltr" writing-mode="lr-tb" unicode-bidi="normal" text-decoration="none" transform="matrix(1 0 0 1 3633.28 1449)">-</text><path d="M3649.92 1471.5 3649.92 1677.73 3587.42 1677.73 3587.42 1673.15 3647.63 1673.15 3645.34 1675.44 3645.34 1471.5ZM3592 1689.19 3564.5 1675.44 3592 1661.69Z" fill="#000000" fill-rule="nonzero" fill-opacity="1"/><path d="M2164.5 1170.21 2971.88 1170.21 2971.88 1350.47 2967.3 1350.47 2967.3 1172.5 2969.59 1174.79 2164.5 1174.79ZM2983.34 1345.89 2969.59 1373.39 2955.84 1345.89Z" fill="#000000" fill-rule="nonzero" fill-opacity="1"/><path d="M0 2.29167-2.09006 2.29167 0.20161 0 0.20161 246.922-2.09006 244.631 840.683 244.631 840.683 249.214-4.38172 249.214-4.38172-2.29167 0-2.29167ZM836.1 233.172 863.6 246.922 836.1 260.672Z" fill="#000000" fill-rule="nonzero" fill-opacity="1" transform="matrix(1 0 0 -1 1135.5 1419.42)"/><path d="M0.0435958-2.29125 77.9045-0.809789 77.8173 3.77272-0.0435958 2.29125ZM73.54-12.3532 100.773 1.91742 73.0168 15.1418Z" fill="#000000" fill-rule="nonzero" fill-opacity="1" transform="matrix(1 0 0 -1 1443.5 1422.42)"/><path d="M2.31331e-06-2.29167 334.6-2.29133 334.6 2.292-2.31331e-06 2.29167ZM330.016-13.7497 357.516 0.000360892 330.016 13.7503Z" fill="#000000" fill-rule="nonzero" fill-opacity="1" transform="matrix(1 0 0 -1 1641.5 1422.5)"/><path d="M2181.5 1420.21 2594.1 1420.21 2594.1 1424.79 2181.5 1424.79ZM2589.52 1408.75 2617.02 1422.5 2589.52 1436.25Z" fill="#000000" fill-rule="nonzero" fill-opacity="1"/><path d="M2781.5 1420.21 2897.6 1420.21 2897.6 1424.79 2781.5 1424.79ZM2893.02 1408.75 2920.52 1422.5 2893.02 1436.25Z" fill="#000000" fill-rule="nonzero" fill-opacity="1"/><path d="M3018.5 1420.21 3576.14 1420.21 3576.14 1424.79 3018.5 1424.79ZM3571.56 1408.75 3599.06 1422.5 3571.56 1436.25Z" fill="#000000" fill-rule="nonzero" fill-opacity="1"/><g clip-path="url(#clip31)" filter="url(#fx15)" transform="translate(2433 1616)"><g><g><path d="M19.7227 68.7226C19.7227 41.6607 41.6607 19.7227 68.7226 19.7227 95.7846 19.7227 117.723 41.6607 117.723 68.7226 117.723 95.7846 95.7846 117.723 68.7226 117.723 41.6607 117.723 19.7227 95.7846 19.7227 68.7226Z" fill="#FFFFFF" fill-rule="evenodd" fill-opacity="1"/></g></g></g><g filter="url(#fx16)" transform="translate(2410 1591)"><g><g><path d="M4.57959-30.0713 39.6763-30.0713 39.6763-24.1948 4.57959-24.1948ZM19.1694-9.60498 19.1694-44.6611 25.0864-44.6611 25.0864-9.60498Z" fill="#000000" fill-rule="nonzero" fill-opacity="1" transform="matrix(1 0 0 1 69.98 120)"/></g></g></g><path d="M2443 1675C2443 1647.94 2464.94 1626 2492 1626 2519.06 1626 2541 1647.94 2541 1675 2541 1702.06 2519.06 1724 2492 1724 2464.94 1724 2443 1702.06 2443 1675Z" fill="#FFFFFF" fill-rule="evenodd" fill-opacity="1"/><text fill="#000000" fill-opacity="1" font-family="Aptos,Aptos_MSFontService,sans-serif" font-style="normal" font-variant="normal" font-weight="400" font-stretch="normal" font-size="83" text-anchor="start" direction="ltr" writing-mode="lr-tb" unicode-bidi="normal" text-decoration="none" transform="matrix(1 0 0 1 2470.26 1702)">+</text><path d="M1998.91 1677.73 1590.21 1677.73 1590.21 1494.42 1594.79 1494.42 1594.79 1675.44 1592.5 1673.15 1998.91 1673.15ZM1578.75 1499 1592.5 1471.5 1606.25 1499Z" fill="#000000" fill-rule="nonzero" fill-opacity="1"/><path d="M2444.03 1677.79 2187.42 1677.79 2187.42 1673.21 2444.03 1673.21ZM2192 1689.25 2164.5 1675.5 2192 1661.75Z" fill="#000000" fill-rule="nonzero" fill-opacity="1"/><path d="M2494.79 1418.5 2494.79 1604.27 2490.21 1604.27 2490.21 1418.5ZM2506.25 1599.68 2492.5 1627.18 2478.75 1599.68Z" fill="#000000" fill-rule="nonzero" fill-opacity="1"/><path d="M1.02297e-06-2.29167 785.557-2.29132 785.557 2.29202-1.02297e-06 2.29167ZM780.974-13.7497 808.474 0.000360892 780.974 13.7503Z" fill="#000000" fill-rule="nonzero" fill-opacity="1" transform="matrix(-1 0 0 1 3349.97 1675.5)"/><path d="M0-2.29167 870.527-2.29167 870.527 515.974 865.943 515.974 865.943 0 868.235 2.29167 0 2.29167ZM881.985 511.391 868.235 538.891 854.485 511.391Z" fill="#000000" fill-rule="nonzero" fill-opacity="1" transform="matrix(1.83697e-16 1 1 -1.83697e-16 739.5 554.5)"/><text fill="#000000" fill-opacity="1" font-family="Cambria Math,Cambria Math_MSFontService,sans-serif" font-style="normal" font-variant="normal" font-weight="400" font-stretch="normal" font-size="83" text-anchor="start" direction="ltr" writing-mode="lr-tb" unicode-bidi="normal" text-decoration="none" transform="matrix(1 0 0 1 2236.9 1621)">­ЮЉЦ</text><path d="M2236.75 1635.88 2283.75 1635.88 2283.75 1640.88 2236.75 1640.88Z" fill="#000000" fill-rule="evenodd" fill-opacity="1"/><path d="M29.3013-55.3603 32.4624-53.9824C31.1925-51.7669 29.9835-50.058 28.8352-48.8557 27.6869-47.6534 26.5859-46.8293 25.5322-46.3835 24.4785-45.9377 23.2762-45.7148 21.9253-45.7148 21.0337-45.7148 20.2502-45.7891 19.5747-45.9377 18.8992-46.0863 18.2373-46.3025 17.5889-46.5862 16.9404-46.8699 15.9272-47.39 14.5493-48.1465 13.6577-48.6328 12.9485-49.0111 12.4216-49.2812 11.8948-49.5514 11.3477-49.7743 10.7803-49.9499 10.2129-50.1256 9.61849-50.2134 8.99707-50.2134 8.10547-50.2134 7.36922-50.0783 6.78833-49.8081 6.20744-49.5379 5.61979-49.0651 5.02539-48.3896 4.43099-47.7142 3.80957-46.8226 3.16113-45.7148L0-47.0928C1.59408-49.6865 2.8977-51.49 3.91089-52.5032 4.92407-53.5163 5.95752-54.2458 7.01123-54.6916 8.06494-55.1374 9.32129-55.3603 10.7803-55.3603 11.5908-55.3603 12.3203-55.286 12.9687-55.1374 13.6172-54.9888 14.2183-54.793 14.7722-54.5498 15.3261-54.3066 16.2785-53.8203 17.6294-53.0908 18.575-52.5505 19.3383-52.1317 19.9192-51.8345 20.5001-51.5373 21.0877-51.3009 21.6821-51.1252 22.2765-50.9496 22.9655-50.8618 23.749-50.8618 24.8027-50.8618 25.7484-51.1928 26.5859-51.8547 27.4235-52.5167 28.3286-53.6852 29.3013-55.3603Z" fill="#000000" fill-rule="nonzero" fill-opacity="1" transform="matrix(1 0 0 1 2247.51 1621)"/><text fill="#000000" fill-opacity="0" font-family="Arial,Arial_MSFontService,sans-serif" font-size="9.64551" direction="ltr" writing-mode="lr-tb" y="-46.9205">Яиц</text><text fill="#000000" fill-opacity="1" font-family="Cambria Math,Cambria Math_MSFontService,sans-serif" font-style="normal" font-variant="normal" font-weight="400" font-stretch="normal" font-size="83" text-anchor="start" direction="ltr" writing-mode="lr-tb" unicode-bidi="normal" text-decoration="none" transform="matrix(1 0 0 1 2283.51 1621)"> </text><text fill="#000000" fill-opacity="1" font-family="Cambria Math,Cambria Math_MSFontService,sans-serif" font-style="normal" font-variant="normal" font-weight="400" font-stretch="normal" font-size="83" text-anchor="start" direction="ltr" writing-mode="lr-tb" unicode-bidi="normal" text-decoration="none" transform="matrix(1 0 0 1 2301.85 1621)">(</text><text fill="#000000" fill-opacity="1" font-family="Cambria Math,Cambria Math_MSFontService,sans-serif" font-style="normal" font-variant="normal" font-weight="400" font-stretch="normal" font-size="83" text-anchor="start" direction="ltr" writing-mode="lr-tb" unicode-bidi="normal" text-decoration="none" transform="matrix(1 0 0 1 2336.22 1621)">­ЮЉў</text><text fill="#000000" fill-opacity="1" font-family="Cambria Math,Cambria Math_MSFontService,sans-serif" font-style="normal" font-variant="normal" font-weight="400" font-stretch="normal" font-size="83" text-anchor="start" direction="ltr" writing-mode="lr-tb" unicode-bidi="normal" text-decoration="none" transform="matrix(1 0 0 1 2383.89 1621)">)</text><path d="M2478 1424C2478 1415.16 2485.16 1408 2494 1408 2502.84 1408 2510 1415.16 2510 1424 2510 1432.84 2502.84 1440 2494 1440 2485.16 1440 2478 1432.84 2478 1424Z" fill="#000000" fill-rule="evenodd" fill-opacity="1"/></g></g></svg>