<svg width="3377" height="2712" xmlns="http://www.w3.org/2000/svg" xmlns:xlink="http://www.w3.org/1999/xlink" xml:space="preserve" overflow="hidden"><g transform="translate(-110 123)"><g><path d="M1916.79 899 1441 1188.73 1925.8 1938 2405 1656.46 1916.79 899Z" stroke="#09333C" stroke-width="13.75" stroke-linecap="butt" stroke-linejoin="miter" stroke-miterlimit="8" stroke-opacity="1" fill="#64CBD2" fill-rule="evenodd" fill-opacity="1"/><path d="M956 1938 1439.5 1195 1923 1938Z" fill="#177C92" fill-rule="evenodd" fill-opacity="1"/><path d="M949 1940 1433 1196 1917 1940Z" stroke="#09333C" stroke-width="13.75" stroke-linecap="butt" stroke-linejoin="miter" stroke-miterlimit="8" stroke-opacity="1" fill="none" fill-rule="evenodd"/><path d="M0 0 483.817 289.592" stroke="#09333C" stroke-width="13.75" stroke-linecap="butt" stroke-linejoin="miter" stroke-miterlimit="8" stroke-opacity="1" fill="none" fill-rule="evenodd" transform="matrix(-1 0 0 1 1432.82 1650)"/><path d="M1433 1650 1916.5 906 2400 1650Z" stroke="#09333C" stroke-width="13.75" stroke-linecap="butt" stroke-linejoin="miter" stroke-miterlimit="8" stroke-opacity="1" fill="none" fill-rule="evenodd"/><path d="M113 2426C113 2336.53 185.53 2264 275 2264 364.47 2264 437 2336.53 437 2426 437 2515.47 364.47 2588 275 2588 185.53 2588 113 2515.47 113 2426Z" fill="#FFFFFF" fill-rule="evenodd" fill-opacity="1"/><path d="M3162 41.0001C3162-48.4701 3234.53-121 3324-121 3413.47-121 3486-48.4701 3486 41.0001 3486 130.47 3413.47 203 3324 203 3234.53 203 3162 130.47 3162 41.0001Z" fill="#FFFFFF" fill-rule="evenodd" fill-opacity="1"/></g></g></svg>