<svg width="7788" height="3644" xmlns="http://www.w3.org/2000/svg" xmlns:xlink="http://www.w3.org/1999/xlink" xml:space="preserve" overflow="hidden"><g transform="translate(-737 -1283)"><g><path d="M1734 2452.7C1734 2414.76 1764.76 2384 1802.7 2384L5684.3 2384C5722.24 2384 5753 2414.76 5753 2452.7L5753 2773.3C5753 2811.24 5722.24 2842 5684.3 2842L1802.7 2842C1764.76 2842 1734 2811.24 1734 2773.3Z" fill="#FFE8CB" fill-rule="evenodd" fill-opacity="1"/><path d="M1734 3080.85C1734 3042.83 1764.83 3012 1802.85 3012L5684.15 3012C5722.17 3012 5753 3042.83 5753 3080.85L5753 3402.15C5753 3440.17 5722.17 3471 5684.15 3471L1802.85 3471C1764.83 3471 1734 3440.17 1734 3402.15Z" fill="#FFE8CB" fill-rule="evenodd" fill-opacity="1"/><path d="M1949 3709.85C1949 3671.82 1979.82 3641 2017.85 3641L5501.15 3641C5539.18 3641 5570 3671.82 5570 3709.85L5570 4031.15C5570 4069.18 5539.18 4100 5501.15 4100L2017.85 4100C1979.82 4100 1949 4069.18 1949 4031.15Z" fill="#FFE8CB" fill-rule="evenodd" fill-opacity="1"/><path d="M8001.44 1370.89C8141.82 1426.62 8344.16 1655.28 8453.65 1879.97 8563.13 2104.66 8483 3874.57 8453.64 4321.25 8419.7 4447.08 8392.17 4522.92 8277.49 4560 8162.81 4597.08 5405.05 4590.82 5098.1 4560 4791.16 4529.18 4722.42 4496.28 4538.3 4100.1 4354.17 3703.92 4270.92 2855.49 3993.36 2182.92 4309.05 2000.69 4492.44 1654.71 4595.87 1583.75 4699.29 1512.8 4862.3 1409.76 5002.4 1370.89 5142.49 1332.02 7426.23 1286.05 8001.44 1370.89Z" stroke="#FFE8CB" stroke-width="27.5" stroke-linecap="butt" stroke-linejoin="round" stroke-miterlimit="10" stroke-opacity="1" fill="#92E1E7" fill-rule="evenodd" fill-opacity="1"/><path d="M1534 1823.7C1534 1785.76 1564.76 1755 1602.7 1755L4010.3 1755C4048.24 1755 4079 1785.76 4079 1823.7L4079 2144.3C4079 2182.24 4048.24 2213 4010.3 2213L1602.7 2213C1564.76 2213 1534 2182.24 1534 2144.3Z" fill="#FFE8CB" fill-rule="evenodd" fill-opacity="1"/><path d="M1425 2145 4225 2145 4219.18 2171.14C4207.7 2195.74 4180.83 2213 4149.51 2213L1500.49 2213C1469.17 2213 1442.3 2195.74 1430.82 2171.14Z" fill="#92E1E7" fill-rule="evenodd" fill-opacity="1"/><path d="M6435 3097.7C6435 3059.76 6465.76 3029 6503.7 3029L8155.3 3029C8193.24 3029 8224 3059.76 8224 3097.7L8224 3418.3C8224 3456.24 8193.24 3487 8155.3 3487L6503.7 3487C6465.76 3487 6435 3456.24 6435 3418.3Z" fill="#EFFF42" fill-rule="evenodd" fill-opacity="1"/><text fill="#213144" fill-opacity="1" font-family="Roboto Light,Roboto Light_MSFontService,sans-serif" font-style="normal" font-variant="normal" font-weight="300" font-stretch="normal" font-size="128" text-anchor="start" direction="ltr" writing-mode="lr-tb" unicode-bidi="normal" text-decoration="none" transform="matrix(1 0 0 1 7349.14 3298)">Kalman Filter</text><path d="M5004 2326.76 6431.5 2326.76 6431.5 2260 6579 2407.5 6431.5 2555 6431.5 2488.24 5004 2488.24Z" fill="#19768A" fill-rule="evenodd" fill-opacity="1"/><path d="M5870 3991.85C5870 3953.82 5900.82 3923 5938.85 3923L8155.15 3923C8193.17 3923 8224 3953.82 8224 3991.85L8224 4313.15C8224 4351.18 8193.17 4382 8155.15 4382L5938.85 4382C5900.82 4382 5870 4351.18 5870 4313.15Z" fill="#EFFF42" fill-rule="evenodd" fill-opacity="1"/><path d="M6559 2824C6787.09 2824 6972 3008.68 6972 3236.5 6972 3464.32 6787.09 3649 6559 3649 6330.91 3649 6146 3464.32 6146 3236.5 6146 3008.68 6330.91 2824 6559 2824Z" fill="#19768A" fill-rule="evenodd" fill-opacity="1"/><path d="M5010.5 3412C5238.32 3412 5423 3596.68 5423 3824.5 5423 4052.32 5238.32 4237 5010.5 4237 4782.68 4237 4598 4052.32 4598 3824.5 4598 3596.68 4782.68 3412 5010.5 3412Z" fill="#19768A" fill-rule="evenodd" fill-opacity="1"/><path d="M6129 3240.59 6036.37 3240.59C6034.8 3071.44 5920.74 2929.22 5765.3 2884.99L5706.31 3012.61C5814.53 3032.82 5896.68 3126.96 5898.36 3240.59L5813.83 3240.59 5971.42 3454.31 6129 3240.59ZM5923.46 3515.56 5839.17 3404.28C5770.89 3480.9 5657.77 3506.26 5561.15 3459.84L5598.87 3384.3 5337.14 3429.72 5458.23 3666 5499.53 3583.23C5644.65 3653.9 5813.59 3622.08 5923.46 3515.56ZM5689.82 2873.35 5426.69 2836 5470.62 2917.46C5310.98 3005.19 5240.51 3192.9 5295.43 3360.4L5433.31 3335.46C5387.32 3225.98 5430.43 3097.68 5536.02 3038.93L5576.04 3113.24 5689.82 2873.35Z" fill="#19768A" fill-rule="evenodd" fill-opacity="1"/><path d="M5010.5 2309C5238.32 2309 5423 2493.68 5423 2721.5 5423 2949.32 5238.32 3134 5010.5 3134 4782.68 3134 4598 2949.32 4598 2721.5 4598 2493.68 4782.68 2309 5010.5 2309Z" fill="#19768A" fill-rule="evenodd" fill-opacity="1"/><path d="M5967 3651C6195.09 3651 6380 3835.91 6380 4064 6380 4292.09 6195.09 4477 5967 4477 5738.91 4477 5554 4292.09 5554 4064 5554 3835.91 5738.91 3651 5967 3651Z" fill="#19768A" fill-rule="evenodd" fill-opacity="1"/><path d="M5967 1998C6195.09 1998 6380 2182.91 6380 2411 6380 2639.09 6195.09 2824 5967 2824 5738.91 2824 5554 2639.09 5554 2411 5554 2182.91 5738.91 1998 5967 1998Z" stroke="#92E1E7" stroke-width="18.3333" stroke-linecap="butt" stroke-linejoin="miter" stroke-miterlimit="4" stroke-opacity="1" fill="#19768A" fill-rule="evenodd" fill-opacity="1"/><text fill="#19768A" fill-opacity="1" font-family="Roboto Light,Roboto Light_MSFontService,sans-serif" font-style="normal" font-variant="normal" font-weight="300" font-stretch="normal" font-size="303" text-anchor="start" direction="ltr" writing-mode="lr-tb" unicode-bidi="normal" text-decoration="none" transform="matrix(1 0 0 1 5003.27 1665)">Modeling &amp; </text><text fill="#19768A" fill-opacity="1" font-family="Roboto Light,Roboto Light_MSFontService,sans-serif" font-style="normal" font-variant="normal" font-weight="300" font-stretch="normal" font-size="303" text-anchor="start" direction="ltr" writing-mode="lr-tb" unicode-bidi="normal" text-decoration="none" transform="matrix(1 0 0 1 6561.03 1665)">Simulation</text><text fill="#19768A" fill-opacity="1" font-family="Roboto Light,Roboto Light_MSFontService,sans-serif" font-style="normal" font-variant="normal" font-weight="300" font-stretch="normal" font-size="183" text-anchor="start" direction="ltr" writing-mode="lr-tb" unicode-bidi="normal" text-decoration="none" transform="matrix(1 0 0 1 5003.27 1915)">Foundational Rule</text><text fill="#19768A" fill-opacity="1" font-family="Roboto Light,Roboto Light_MSFontService,sans-serif" font-style="normal" font-variant="normal" font-weight="300" font-stretch="normal" font-size="183" text-anchor="start" direction="ltr" writing-mode="lr-tb" unicode-bidi="normal" text-decoration="none" transform="matrix(1 0 0 1 6451.03 1915)">-</text><text fill="#19768A" fill-opacity="1" font-family="Roboto Light,Roboto Light_MSFontService,sans-serif" font-style="normal" font-variant="normal" font-weight="300" font-stretch="normal" font-size="183" text-anchor="start" direction="ltr" writing-mode="lr-tb" unicode-bidi="normal" text-decoration="none" transform="matrix(1 0 0 1 6503.74 1915)">Based  AI</text><text fill="#EFFF42" fill-opacity="1" font-family="Roboto,Roboto_MSFontService,sans-serif" font-style="normal" font-variant="normal" font-weight="400" font-stretch="normal" font-size="110" text-anchor="start" direction="ltr" writing-mode="lr-tb" unicode-bidi="normal" text-decoration="none" transform="matrix(1 0 0 1 5633.44 2387)">Physiological</text><text fill="#EFFF42" fill-opacity="1" font-family="Roboto,Roboto_MSFontService,sans-serif" font-style="normal" font-variant="normal" font-weight="400" font-stretch="normal" font-size="110" text-anchor="start" direction="ltr" writing-mode="lr-tb" unicode-bidi="normal" text-decoration="none" transform="matrix(1 0 0 1 5831.1 2519)">Model</text><text fill="#EFFF42" fill-opacity="1" font-family="Roboto,Roboto_MSFontService,sans-serif" font-style="normal" font-variant="normal" font-weight="400" font-stretch="normal" font-size="110" text-anchor="start" direction="ltr" writing-mode="lr-tb" unicode-bidi="normal" text-decoration="none" transform="matrix(1 0 0 1 4831.77 3782)">Clinical</text><text fill="#EFFF42" fill-opacity="1" font-family="Roboto,Roboto_MSFontService,sans-serif" font-style="normal" font-variant="normal" font-weight="400" font-stretch="normal" font-size="110" text-anchor="start" direction="ltr" writing-mode="lr-tb" unicode-bidi="normal" text-decoration="none" transform="matrix(1 0 0 1 4670.78 3914)">Manifestation</text><text fill="#EFFF42" fill-opacity="1" font-family="Roboto,Roboto_MSFontService,sans-serif" font-style="normal" font-variant="normal" font-weight="400" font-stretch="normal" font-size="110" text-anchor="start" direction="ltr" writing-mode="lr-tb" unicode-bidi="normal" text-decoration="none" transform="matrix(1 0 0 1 4808.75 2694)">Working</text><text fill="#EFFF42" fill-opacity="1" font-family="Roboto,Roboto_MSFontService,sans-serif" font-style="normal" font-variant="normal" font-weight="400" font-stretch="normal" font-size="110" text-anchor="start" direction="ltr" writing-mode="lr-tb" unicode-bidi="normal" text-decoration="none" transform="matrix(1 0 0 1 4856.87 2826)">Model</text><text fill="#EFFF42" fill-opacity="1" font-family="Roboto,Roboto_MSFontService,sans-serif" font-style="normal" font-variant="normal" font-weight="400" font-stretch="normal" font-size="110" text-anchor="start" direction="ltr" writing-mode="lr-tb" unicode-bidi="normal" text-decoration="none" transform="matrix(1 0 0 1 6197.98 3236)">Computational</text><text fill="#EFFF42" fill-opacity="1" font-family="Roboto,Roboto_MSFontService,sans-serif" font-style="normal" font-variant="normal" font-weight="400" font-stretch="normal" font-size="110" text-anchor="start" direction="ltr" writing-mode="lr-tb" unicode-bidi="normal" text-decoration="none" transform="matrix(1 0 0 1 6405.95 3368)">Model</text><text fill="#EFFF42" fill-opacity="1" font-family="Roboto,Roboto_MSFontService,sans-serif" font-style="italic" font-variant="normal" font-weight="400" font-stretch="normal" font-size="110" text-anchor="start" direction="ltr" writing-mode="lr-tb" unicode-bidi="normal" text-decoration="none" transform="matrix(1 0 0 1 5757.99 4037)">In Silico</text><text fill="#EFFF42" fill-opacity="1" font-family="Roboto,Roboto_MSFontService,sans-serif" font-style="normal" font-variant="normal" font-weight="400" font-stretch="normal" font-size="110" text-anchor="start" direction="ltr" writing-mode="lr-tb" unicode-bidi="normal" text-decoration="none" transform="matrix(1 0 0 1 5837.93 4169)">Trial</text><path d="M6843 2253.85C6843 2215.83 6873.83 2185 6911.85 2185L8155.15 2185C8193.17 2185 8224 2215.83 8224 2253.85L8224 2575.15C8224 2613.17 8193.17 2644 8155.15 2644L6911.85 2644C6873.83 2644 6843 2613.17 6843 2575.15Z" fill="#EFFF42" fill-rule="evenodd" fill-opacity="1"/><text fill="#213144" fill-opacity="1" font-family="Roboto Light,Roboto Light_MSFontService,sans-serif" font-style="normal" font-variant="normal" font-weight="300" font-stretch="normal" font-size="128" text-anchor="start" direction="ltr" writing-mode="lr-tb" unicode-bidi="normal" text-decoration="none" transform="matrix(1 0 0 1 7711.42 2384)">Critical </text><text fill="#213144" fill-opacity="1" font-family="Roboto Light,Roboto Light_MSFontService,sans-serif" font-style="normal" font-variant="normal" font-weight="300" font-stretch="normal" font-size="128" text-anchor="start" direction="ltr" writing-mode="lr-tb" unicode-bidi="normal" text-decoration="none" transform="matrix(1 0 0 1 7421.53 2538)">Phenomena</text><text fill="#213144" fill-opacity="1" font-family="Roboto Light,Roboto Light_MSFontService,sans-serif" font-style="normal" font-variant="normal" font-weight="300" font-stretch="normal" font-size="128" text-anchor="start" direction="ltr" writing-mode="lr-tb" unicode-bidi="normal" text-decoration="none" transform="matrix(1 0 0 1 6641.58 4198)">Statistical Analysis Report</text><path d="M6972 1998C7200.09 1998 7385 2182.91 7385 2411 7385 2639.09 7200.09 2824 6972 2824 6743.91 2824 6559 2639.09 6559 2411 6559 2182.91 6743.91 1998 6972 1998Z" fill="#19768A" fill-rule="evenodd" fill-opacity="1"/><text fill="#EFFF42" fill-opacity="1" font-family="Roboto,Roboto_MSFontService,sans-serif" font-style="normal" font-variant="normal" font-weight="400" font-stretch="normal" font-size="128" text-anchor="start" direction="ltr" writing-mode="lr-tb" unicode-bidi="normal" text-decoration="none" transform="matrix(1 0 0 1 6733.1 2322)">Poincaré</text><text fill="#EFFF42" fill-opacity="1" font-family="Roboto,Roboto_MSFontService,sans-serif" font-style="normal" font-variant="normal" font-weight="400" font-stretch="normal" font-size="128" text-anchor="start" direction="ltr" writing-mode="lr-tb" unicode-bidi="normal" text-decoration="none" transform="matrix(1 0 0 1 6774.65 2476)">Normal </text><text fill="#EFFF42" fill-opacity="1" font-family="Roboto,Roboto_MSFontService,sans-serif" font-style="normal" font-variant="normal" font-weight="400" font-stretch="normal" font-size="128" text-anchor="start" direction="ltr" writing-mode="lr-tb" unicode-bidi="normal" text-decoration="none" transform="matrix(1 0 0 1 6802.15 2630)">Forms</text><text fill="#000000" fill-opacity="1" font-family="Roboto,Roboto_MSFontService,sans-serif" font-style="normal" font-variant="normal" font-weight="400" font-stretch="normal" font-size="202" text-anchor="start" direction="ltr" writing-mode="lr-tb" unicode-bidi="normal" text-decoration="none" transform="matrix(1 0 0 1 1284.69 1606)">Artificial Intelligence</text><path d="M742 2926.5C742 2243.05 1296.05 1689 1979.5 1689 2662.95 1689 3217 2243.05 3217 2926.5 3217 3609.95 2662.95 4164 1979.5 4164 1296.05 4164 742 3609.95 742 2926.5Z" fill="#213144" fill-rule="evenodd" fill-opacity="1"/><path d="M990 3174C990 2627.24 1433.24 2184 1980 2184 2526.76 2184 2970 2627.24 2970 3174 2970 3720.76 2526.76 4164 1980 4164 1433.24 4164 990 3720.76 990 3174Z" fill="#55616F" fill-rule="evenodd" fill-opacity="1"/><text fill="#FFFFFF" fill-opacity="1" font-family="Roboto,Roboto_MSFontService,sans-serif" font-style="normal" font-variant="normal" font-weight="400" font-stretch="normal" font-size="128" text-anchor="start" direction="ltr" writing-mode="lr-tb" unicode-bidi="normal" text-decoration="none" transform="matrix(1 0 0 1 1736.36 2404)">Machine </text><text fill="#FFFFFF" fill-opacity="1" font-family="Roboto,Roboto_MSFontService,sans-serif" font-style="normal" font-variant="normal" font-weight="400" font-stretch="normal" font-size="128" text-anchor="start" direction="ltr" writing-mode="lr-tb" unicode-bidi="normal" text-decoration="none" transform="matrix(1 0 0 1 1733.22 2558)">Learning</text><path d="M1221 3405.5C1221 2986.59 1560.59 2647 1979.5 2647 2398.41 2647 2738 2986.59 2738 3405.5 2738 3824.41 2398.41 4164 1979.5 4164 1560.59 4164 1221 3824.41 1221 3405.5Z" fill="#7A838E" fill-rule="evenodd" fill-opacity="1"/><text fill="#FFFFFF" fill-opacity="1" font-family="Roboto,Roboto_MSFontService,sans-serif" font-style="normal" font-variant="normal" font-weight="400" font-stretch="normal" font-size="128" text-anchor="start" direction="ltr" writing-mode="lr-tb" unicode-bidi="normal" text-decoration="none" transform="matrix(1 0 0 1 1834.91 2937)">Deep </text><text fill="#FFFFFF" fill-opacity="1" font-family="Roboto,Roboto_MSFontService,sans-serif" font-style="normal" font-variant="normal" font-weight="400" font-stretch="normal" font-size="128" text-anchor="start" direction="ltr" writing-mode="lr-tb" unicode-bidi="normal" text-decoration="none" transform="matrix(1 0 0 1 1733.23 3091)">Learning</text><path d="M1485 3669C1485 3395.62 1706.62 3174 1980 3174 2253.38 3174 2475 3395.62 2475 3669 2475 3942.38 2253.38 4164 1980 4164 1706.62 4164 1485 3942.38 1485 3669Z" fill="#989EA7" fill-rule="evenodd" fill-opacity="1"/><text fill="#FFFFFF" fill-opacity="1" font-family="Roboto,Roboto_MSFontService,sans-serif" font-style="normal" font-variant="normal" font-weight="400" font-stretch="normal" font-size="128" text-anchor="start" direction="ltr" writing-mode="lr-tb" unicode-bidi="normal" text-decoration="none" transform="matrix(1 0 0 1 1816.3 3671)">genAI</text><text fill="#213144" fill-opacity="1" font-family="Roboto Light,Roboto Light_MSFontService,sans-serif" font-style="normal" font-variant="normal" font-weight="300" font-stretch="normal" font-size="128" text-anchor="start" direction="ltr" writing-mode="lr-tb" unicode-bidi="normal" text-decoration="none" transform="matrix(1 0 0 1 3215.02 2595)">Predictive </text><text fill="#213144" fill-opacity="1" font-family="Roboto Light,Roboto Light_MSFontService,sans-serif" font-style="normal" font-variant="normal" font-weight="300" font-stretch="normal" font-size="128" text-anchor="start" direction="ltr" writing-mode="lr-tb" unicode-bidi="normal" text-decoration="none" transform="matrix(1 0 0 1 3257.99 2749)">Analytics</text><text fill="#213144" fill-opacity="1" font-family="Roboto Light,Roboto Light_MSFontService,sans-serif" font-style="normal" font-variant="normal" font-weight="300" font-stretch="normal" font-size="128" text-anchor="start" direction="ltr" writing-mode="lr-tb" unicode-bidi="normal" text-decoration="none" transform="matrix(1 0 0 1 3338.77 3223)">Feature</text><text fill="#213144" fill-opacity="1" font-family="Roboto Light,Roboto Light_MSFontService,sans-serif" font-style="normal" font-variant="normal" font-weight="300" font-stretch="normal" font-size="128" text-anchor="start" direction="ltr" writing-mode="lr-tb" unicode-bidi="normal" text-decoration="none" transform="matrix(1 0 0 1 3201.27 3377)">Extraction</text><text fill="#213144" fill-opacity="1" font-family="Roboto Light,Roboto Light_MSFontService,sans-serif" font-style="normal" font-variant="normal" font-weight="300" font-stretch="normal" font-size="128" text-anchor="start" direction="ltr" writing-mode="lr-tb" unicode-bidi="normal" text-decoration="none" transform="matrix(1 0 0 1 3245.96 3839)">Synthetic </text><text fill="#213144" fill-opacity="1" font-family="Roboto Light,Roboto Light_MSFontService,sans-serif" font-style="normal" font-variant="normal" font-weight="300" font-stretch="normal" font-size="128" text-anchor="start" direction="ltr" writing-mode="lr-tb" unicode-bidi="normal" text-decoration="none" transform="matrix(1 0 0 1 3322.73 3993)">Content</text><text fill="#213144" fill-opacity="1" font-family="Roboto Light,Roboto Light_MSFontService,sans-serif" font-style="normal" font-variant="normal" font-weight="300" font-stretch="normal" font-size="128" text-anchor="start" direction="ltr" writing-mode="lr-tb" unicode-bidi="normal" text-decoration="none" transform="matrix(1 0 0 1 2938.3 2035)">Decision </text><text fill="#213144" fill-opacity="1" font-family="Roboto Light,Roboto Light_MSFontService,sans-serif" font-style="normal" font-variant="normal" font-weight="300" font-stretch="normal" font-size="128" text-anchor="start" direction="ltr" writing-mode="lr-tb" unicode-bidi="normal" text-decoration="none" transform="matrix(1 0 0 1 3449.92 2035)">Trees</text><text fill="#FFFFFF" fill-opacity="1" font-family="Roboto,Roboto_MSFontService,sans-serif" font-style="normal" font-variant="normal" font-weight="400" font-stretch="normal" font-size="128" text-anchor="start" direction="ltr" writing-mode="lr-tb" unicode-bidi="normal" text-decoration="none" transform="matrix(1 0 0 1 1661.04 2029)">Rule</text><text fill="#FFFFFF" fill-opacity="1" font-family="Roboto,Roboto_MSFontService,sans-serif" font-style="normal" font-variant="normal" font-weight="400" font-stretch="normal" font-size="128" text-anchor="start" direction="ltr" writing-mode="lr-tb" unicode-bidi="normal" text-decoration="none" transform="matrix(1 0 0 1 1909.68 2029)">-</text><text fill="#FFFFFF" fill-opacity="1" font-family="Roboto,Roboto_MSFontService,sans-serif" font-style="normal" font-variant="normal" font-weight="400" font-stretch="normal" font-size="128" text-anchor="start" direction="ltr" writing-mode="lr-tb" unicode-bidi="normal" text-decoration="none" transform="matrix(1 0 0 1 1945.2 2029)">Based</text><text fill="#19768A" fill-opacity="1" font-family="Roboto Light,Roboto Light_MSFontService,sans-serif" font-style="normal" font-variant="normal" font-weight="300" font-stretch="normal" font-size="147" text-anchor="start" direction="ltr" writing-mode="lr-tb" unicode-bidi="normal" text-decoration="none" transform="matrix(1 0 0 1 6006.99 4800)">AREA OF EXPERTISE</text></g></g></svg>