<svg width="4015" height="1971" xmlns="http://www.w3.org/2000/svg" xmlns:xlink="http://www.w3.org/1999/xlink" xml:space="preserve" overflow="hidden"><g transform="translate(-155 -504)"><g><text fill="#000000" fill-opacity="1" font-family="Roboto,Roboto_MSFontService,sans-serif" font-style="normal" font-variant="normal" font-weight="400" font-stretch="normal" font-size="73" text-anchor="start" direction="ltr" writing-mode="lr-tb" unicode-bidi="normal" text-decoration="none" transform="matrix(0.652476 -0.757809 0.757809 0.652476 321.467 2053)">time</text><path d="M170 2275 302.974 2109 3844 2109 3711.03 2275Z" fill="#D9D9D9" fill-rule="evenodd" fill-opacity="1"/><path d="M1.76733-1.45887 13.4383 12.6798 9.9036 15.5975-1.76733 1.45887ZM22.1915 23.2837 33.8624 37.4223 30.3277 40.3401 18.6568 26.2014ZM42.6156 48.0263 54.2865 62.1649 50.7519 65.0826 39.0809 50.944ZM63.0397 72.7689 74.7106 86.9075 71.176 89.8252 59.5051 75.6866ZM83.4638 97.5115 95.1348 111.65 91.6001 114.568 79.9292 100.429ZM103.888 122.254 115.559 136.393 112.024 139.31 100.353 125.172ZM124.312 146.997 125.836 148.842 122.301 151.76 120.777 149.914ZM131.755 138.013 138.657 167.974 110.547 155.52Z" fill="#000000" fill-rule="nonzero" fill-opacity="1" transform="matrix(1 0 0 -1 173.5 2273.47)"/><path d="M1.71958-1.51486 282.083 316.737 278.644 319.767-1.71958 1.51486ZM287.651 305.723 295.512 335.447 267.016 323.902Z" fill="#000000" fill-rule="nonzero" fill-opacity="1" transform="matrix(1 0 0 -1 311.5 2103.95)"/><path d="M303.5 2107.5 3842.19 2107.5" stroke="#000000" stroke-width="4.58333" stroke-linecap="butt" stroke-linejoin="miter" stroke-miterlimit="8" stroke-opacity="1" fill="none" fill-rule="evenodd"/><path d="M611.5 1772.3C619.324 1763.18 643.079 1746.92 658.434 1717.51 673.788 1688.09 689.409 1657.92 703.624 1595.8 717.838 1533.68 729.999 1453.78 743.727 1344.77 757.454 1235.78 773.809 1046.12 785.983 941.798 798.159 837.474 807.526 773.08 816.777 718.848 826.027 664.617 833.249 637.651 841.482 616.445 849.72 595.256 857.003 587.259 866.192 591.663 875.385 596.066 885.644 599.377 896.627 642.865 907.609 686.352 919.307 753.23 932.079 852.604 944.851 951.979 961.679 1136.69 973.257 1239.09 984.834 1341.5 989.431 1397.09 1001.55 1466.99 1013.66 1536.9 1031.09 1610.95 1045.95 1658.56 1060.81 1706.18 1078.45 1733.54 1090.71 1752.7 1102.97 1771.86 1114.7 1770.03 1119.5 1773.5" stroke="#D9D9D9" stroke-width="6.875" stroke-linecap="butt" stroke-linejoin="round" stroke-miterlimit="10" stroke-dasharray="6.875 6.875" stroke-opacity="1" fill="#F2F2F2" fill-rule="evenodd" fill-opacity="1"/><path d="M172.5 2271.3C180.309 2262.18 204.017 2245.92 219.341 2216.51 234.666 2187.09 250.256 2156.92 264.442 2094.8 278.629 2032.68 290.766 1952.78 304.466 1843.77 318.166 1734.78 334.49 1545.12 346.639 1440.8 358.792 1336.47 368.14 1272.08 377.373 1217.85 386.605 1163.62 393.812 1136.65 402.03 1115.44 410.251 1094.26 417.52 1086.26 426.691 1090.66 435.865 1095.07 446.105 1098.38 457.065 1141.86 468.026 1185.35 479.701 1252.23 492.448 1351.6 505.195 1450.98 521.99 1635.69 533.544 1738.09 545.099 1840.5 549.687 1896.09 561.778 1965.99 573.869 2035.9 591.265 2109.95 606.096 2157.56 620.927 2205.18 638.531 2232.54 650.765 2251.7 662.999 2270.86 674.712 2269.03 679.5 2272.5" stroke="#203144" stroke-width="6.875" stroke-linecap="butt" stroke-linejoin="round" stroke-miterlimit="10" stroke-opacity="1" fill="#167178" fill-rule="evenodd" fill-opacity="0.8"/><path d="M171 1006 171 2275.3" stroke="#156082" stroke-width="10.3125" stroke-linecap="butt" stroke-linejoin="round" stroke-miterlimit="10" stroke-opacity="1" fill="none" fill-rule="evenodd"/><path d="M0 0 0.000360892 1182.69" stroke="#0E2841" stroke-width="3.4375" stroke-linecap="butt" stroke-linejoin="round" stroke-miterlimit="10" stroke-dasharray="13.75 10.3125" stroke-opacity="1" fill="none" fill-rule="evenodd" transform="matrix(1 0 0 -1 425.5 2272.19)"/><g><g><g><path d="M452.5 1993.81C452.5 2009 440.188 2021.31 425 2021.31 409.812 2021.31 397.5 2009 397.5 1993.81 397.5 1978.62 409.812 1966.31 425 1966.31 440.188 1966.31 452.5 1978.62 452.5 1993.81Z" fill="#ADEBF2" fill-rule="nonzero" fill-opacity="1"/><path d="M499.937 2135.44 480.687 2053.62C480 2050.88 478.625 2048.12 476.562 2046.06 468.312 2039.19 458.687 2034.37 447.687 2030.94 440.125 2029.56 432.562 2028.19 425 2028.19 417.437 2028.19 409.875 2029.56 402.312 2031.62 391.312 2034.37 381.687 2039.87 373.437 2046.75 371.375 2048.81 370 2051.56 369.312 2054.31L350.062 2136.12C350.062 2136.81 349.375 2138.19 349.375 2139.56 349.375 2147.12 355.562 2153.31 363.125 2153.31 369.312 2153.31 374.812 2148.5 376.187 2143L390.625 2083.19 390.625 2275.69 418.125 2275.69 418.125 2151.94 431.875 2151.94 431.875 2275.69 459.375 2275.69 459.375 2082.5 473.812 2142.31C475.187 2147.81 480.687 2152.62 486.875 2152.62 494.437 2152.62 500.625 2146.44 500.625 2138.88 500.625 2137.5 499.937 2136.12 499.937 2135.44Z" fill="#ADEBF2" fill-rule="nonzero" fill-opacity="1"/></g></g></g><path d="M171 2272 3709.69 2272" stroke="#156082" stroke-width="10.3125" stroke-linecap="butt" stroke-linejoin="round" stroke-miterlimit="10" stroke-opacity="1" fill="none" fill-rule="evenodd"/><path d="M2009.5 1774.39C2019.31 1765.92 2049.1 1750.83 2068.35 1723.53 2087.61 1696.23 2107.19 1668.23 2125.02 1610.57 2142.84 1552.91 2158.09 1478.75 2175.3 1377.58 2192.52 1276.42 2213.03 1100.38 2228.29 1003.56 2243.56 906.729 2255.3 846.961 2266.9 796.626 2278.5 746.292 2287.56 721.263 2297.88 701.58 2308.21 681.914 2317.35 674.492 2328.87 678.579 2340.39 682.666 2353.26 685.739 2367.03 726.102 2380.8 766.465 2395.47 828.537 2411.49 920.772 2427.5 1013.01 2448.6 1184.45 2463.12 1279.49 2477.64 1374.54 2483.4 1426.13 2498.59 1491.02 2513.78 1555.9 2535.64 1624.63 2554.27 1668.81 2572.91 1713.02 2595.03 1738.41 2610.4 1756.19 2625.77 1773.98 2640.48 1772.28 2646.5 1775.5" stroke="#203144" stroke-width="6.875" stroke-linecap="butt" stroke-linejoin="round" stroke-miterlimit="10" stroke-opacity="1" fill="#203144" fill-rule="evenodd" fill-opacity="0.8"/><path d="M0 0 0.000360892 1097.4" stroke="#FFFFFF" stroke-width="3.4375" stroke-linecap="butt" stroke-linejoin="round" stroke-miterlimit="10" stroke-dasharray="13.75 10.3125" stroke-opacity="1" fill="none" fill-rule="evenodd" transform="matrix(1 0 0 -1 2325.5 1774.9)"/><g><g><g><path d="M2354.5 1494.81C2354.5 1510 2342.19 1522.31 2327 1522.31 2311.81 1522.31 2299.5 1510 2299.5 1494.81 2299.5 1479.62 2311.81 1467.31 2327 1467.31 2342.19 1467.31 2354.5 1479.62 2354.5 1494.81Z" fill="#2AD6E4" fill-rule="nonzero" fill-opacity="1"/><path d="M2401.94 1636.44 2382.69 1554.63C2382 1551.88 2380.62 1549.13 2378.56 1547.06 2370.31 1540.19 2360.69 1535.38 2349.69 1531.94 2342.12 1530.56 2334.56 1529.19 2327 1529.19 2319.44 1529.19 2311.87 1530.56 2304.31 1532.63 2293.31 1535.38 2283.69 1540.88 2275.44 1547.75 2273.37 1549.81 2272 1552.56 2271.31 1555.31L2252.06 1637.13C2252.06 1637.81 2251.37 1639.19 2251.37 1640.56 2251.37 1648.13 2257.56 1654.31 2265.12 1654.31 2271.31 1654.31 2276.81 1649.5 2278.19 1644L2292.62 1584.19 2292.62 1776.69 2320.12 1776.69 2320.12 1652.94 2333.87 1652.94 2333.87 1776.69 2361.37 1776.69 2361.37 1583.5 2375.81 1643.31C2377.19 1648.81 2382.69 1653.63 2388.87 1653.63 2396.44 1653.63 2402.62 1647.44 2402.62 1639.88 2402.62 1638.5 2401.94 1637.13 2401.94 1636.44Z" fill="#2AD6E4" fill-rule="nonzero" fill-opacity="1"/></g></g></g><text fill="#000000" fill-opacity="1" font-family="Roboto,Roboto_MSFontService,sans-serif" font-style="normal" font-variant="normal" font-weight="400" font-stretch="normal" font-size="83" text-anchor="start" direction="ltr" writing-mode="lr-tb" unicode-bidi="normal" text-decoration="none" transform="matrix(1 0 0 1 1326.84 2224)">VP Prediction</text><text fill="#000000" fill-opacity="1" font-family="Roboto,Roboto_MSFontService,sans-serif" font-style="normal" font-variant="normal" font-weight="400" font-stretch="normal" font-size="83" text-anchor="start" direction="ltr" writing-mode="lr-tb" unicode-bidi="normal" text-decoration="none" transform="matrix(1 0 0 1 2441.91 2224)">PROM Literature Data</text><text fill="#000000" fill-opacity="1" font-family="Roboto,Roboto_MSFontService,sans-serif" font-style="normal" font-variant="normal" font-weight="400" font-stretch="normal" font-size="83" text-anchor="start" direction="ltr" writing-mode="lr-tb" unicode-bidi="normal" text-decoration="none" transform="matrix(1 0 0 1 1993.54 619)">Endpoint Forecast</text><path d="M1885.5 2105.2C1914.28 2101.84 2000.6 2096.66 2058.2 2085.01 2115.81 2073.37 2177.11 2060.17 2231.16 2035.34 2285.2 2010.5 2330.7 1979.13 2382.5 1935.99 2434.31 1892.85 2496.03 1817.81 2541.96 1776.52 2587.9 1735.23 2623.25 1709.76 2658.16 1688.3 2693.06 1666.83 2720.31 1656.16 2751.39 1647.77 2782.47 1639.38 2809.94 1636.22 2844.63 1637.97 2879.32 1639.71 2918.05 1641.02 2959.49 1658.23 3000.94 1675.44 3045.07 1701.9 3093.26 1741.23 3141.46 1780.56 3204.96 1853.64 3248.65 1894.17 3292.34 1934.69 3309.7 1956.69 3355.42 1984.36 3401.14 2012.03 3466.9 2041.33 3522.98 2060.17 3579.05 2079.02 3645.45 2089.88 3691.87 2097.43 3738.29 2104.99 3783.24 2104.16 3801.5 2105.5" stroke="#747474" stroke-width="6.875" stroke-linecap="butt" stroke-linejoin="round" stroke-miterlimit="10" stroke-opacity="1" fill="#E4FE62" fill-rule="evenodd" fill-opacity="1"/><path d="M1134.5 2103.01C1148.27 2097.48 1189.59 2088.96 1217.16 2069.79 1244.73 2050.63 1274.06 2028.92 1299.93 1988.06 1325.8 1947.2 1347.57 1895.58 1372.37 1824.61 1397.16 1753.63 1426.7 1630.16 1448.68 1562.23 1470.67 1494.3 1487.59 1452.38 1504.29 1417.07 1521 1381.76 1534.04 1364.2 1548.91 1350.4 1563.79 1336.59 1576.94 1331.4 1593.54 1334.27 1610.14 1337.14 1628.68 1339.28 1648.52 1367.6 1668.35 1395.92 1689.47 1439.46 1712.54 1504.16 1735.61 1568.87 1766 1689.12 1786.91 1755.8 1807.82 1822.47 1816.13 1858.67 1838.01 1904.19 1859.89 1949.72 1891.36 1997.92 1918.2 2028.92 1945.04 2059.93 1976.82 2077.8 1999.03 2090.22 2021.25 2102.66 2042.76 2101.29 2051.5 2103.5" stroke="#203144" stroke-width="6.875" stroke-linecap="butt" stroke-linejoin="round" stroke-miterlimit="10" stroke-opacity="1" fill="#97CDD2" fill-rule="evenodd" fill-opacity="0.501961"/><g><g><g><path d="M2864.67 1888.42C2864.67 1899.83 2855.41 1909.08 2844 1909.08 2832.59 1909.08 2823.33 1899.83 2823.33 1888.42 2823.33 1877 2832.59 1867.75 2844 1867.75 2855.41 1867.75 2864.67 1877 2864.67 1888.42Z" stroke="#FFFFFF" stroke-width="2.58341" stroke-linecap="butt" stroke-linejoin="miter" stroke-miterlimit="4" stroke-opacity="1" fill="#AEC149" fill-rule="nonzero" fill-opacity="1"/><path d="M2900.32 1994.85 2885.85 1933.37C2885.33 1931.3 2884.3 1929.23 2882.75 1927.68 2876.55 1922.52 2869.32 1918.9 2861.05 1916.32 2855.37 1915.28 2849.68 1914.25 2844 1914.25 2838.32 1914.25 2832.63 1915.28 2826.95 1916.83 2818.68 1918.9 2811.45 1923.03 2805.25 1928.2 2803.7 1929.75 2802.67 1931.82 2802.15 1933.88L2787.68 1995.37C2787.68 1995.88 2787.17 1996.92 2787.17 1997.95 2787.17 2003.63 2791.82 2008.28 2797.5 2008.28 2802.15 2008.28 2806.28 2004.67 2807.32 2000.53L2818.17 1955.58 2818.17 2100.25 2838.83 2100.25 2838.83 2007.25 2849.17 2007.25 2849.17 2100.25 2869.83 2100.25 2869.83 1955.07 2880.68 2000.02C2881.72 2004.15 2885.85 2007.77 2890.5 2007.77 2896.18 2007.77 2900.83 2003.12 2900.83 1997.43 2900.83 1996.4 2900.32 1995.37 2900.32 1994.85Z" stroke="#FFFFFF" stroke-width="2.58341" stroke-linecap="butt" stroke-linejoin="miter" stroke-miterlimit="4" stroke-opacity="1" fill="#AEC149" fill-rule="nonzero" fill-opacity="1"/></g></g></g><g><g><g><path d="M1612.67 1888.42C1612.67 1899.83 1603.41 1909.08 1592 1909.08 1580.59 1909.08 1571.33 1899.83 1571.33 1888.42 1571.33 1877 1580.59 1867.75 1592 1867.75 1603.41 1867.75 1612.67 1877 1612.67 1888.42Z" fill="#7FACB1" fill-rule="nonzero" fill-opacity="1"/><path d="M1648.32 1994.85 1633.85 1933.37C1633.33 1931.3 1632.3 1929.23 1630.75 1927.68 1624.55 1922.52 1617.32 1918.9 1609.05 1916.32 1603.37 1915.28 1597.68 1914.25 1592 1914.25 1586.32 1914.25 1580.63 1915.28 1574.95 1916.83 1566.68 1918.9 1559.45 1923.03 1553.25 1928.2 1551.7 1929.75 1550.67 1931.82 1550.15 1933.88L1535.68 1995.37C1535.68 1995.88 1535.17 1996.92 1535.17 1997.95 1535.17 2003.63 1539.82 2008.28 1545.5 2008.28 1550.15 2008.28 1554.28 2004.67 1555.32 2000.53L1566.17 1955.58 1566.17 2100.25 1586.83 2100.25 1586.83 2007.25 1597.17 2007.25 1597.17 2100.25 1617.83 2100.25 1617.83 1955.07 1628.68 2000.02C1629.72 2004.15 1633.85 2007.77 1638.5 2007.77 1644.18 2007.77 1648.83 2003.12 1648.83 1997.43 1648.83 1996.4 1648.32 1995.37 1648.32 1994.85Z" fill="#7FACB1" fill-rule="nonzero" fill-opacity="1"/></g></g></g><path d="M603 1773 4141.69 1773" stroke="#156082" stroke-width="10.3125" stroke-linecap="butt" stroke-linejoin="round" stroke-miterlimit="10" stroke-opacity="1" fill="none" fill-rule="evenodd"/><path d="M603 506 603 1775.3" stroke="#156082" stroke-width="10.3125" stroke-linecap="butt" stroke-linejoin="round" stroke-miterlimit="10" stroke-opacity="1" fill="none" fill-rule="evenodd"/><path d="M1.76733-1.45887 13.4383 12.6798 9.9036 15.5975-1.76733 1.45887ZM22.1915 23.2837 33.8624 37.4223 30.3277 40.3401 18.6568 26.2014ZM42.6156 48.0263 54.2865 62.1649 50.7519 65.0826 39.0809 50.944ZM63.0397 72.7689 74.7106 86.9075 71.176 89.8252 59.5051 75.6866ZM83.4638 97.5115 95.1348 111.65 91.6001 114.568 79.9292 100.429ZM103.888 122.254 115.559 136.393 112.024 139.31 100.353 125.172ZM124.312 146.997 125.836 148.842 122.301 151.76 120.777 149.914ZM131.755 138.013 138.657 167.974 110.547 155.52Z" fill="#000000" fill-rule="nonzero" fill-opacity="1" transform="matrix(1 0 0 -1 3705.5 2274.47)"/><path d="M1.71958-1.51486 282.083 316.737 278.644 319.767-1.71958 1.51486ZM287.651 305.723 295.512 335.447 267.016 323.902Z" fill="#000000" fill-rule="nonzero" fill-opacity="1" transform="matrix(1 0 0 -1 3843.5 2104.95)"/><path d="M0 0 0.000360892 769.298" stroke="#0E2841" stroke-width="3.4375" stroke-linecap="butt" stroke-linejoin="round" stroke-miterlimit="10" stroke-dasharray="13.75 10.3125" stroke-opacity="1" fill="none" fill-rule="evenodd" transform="matrix(1 0 0 -1 1587.5 2102.8)"/><path d="M0 0 0.000360892 463.953" stroke="#0E2841" stroke-width="3.4375" stroke-linecap="butt" stroke-linejoin="round" stroke-miterlimit="10" stroke-dasharray="13.75 10.3125" stroke-opacity="1" fill="none" fill-rule="evenodd" transform="matrix(1 0 0 -1 2843.5 2101.45)"/><path d="M0 0 0.000360892 1181.4" stroke="#A6A6A6" stroke-width="3.4375" stroke-linecap="butt" stroke-linejoin="round" stroke-miterlimit="10" stroke-dasharray="13.75 10.3125" stroke-opacity="1" fill="none" fill-rule="evenodd" transform="matrix(1 0 0 -1 864.5 1771.9)"/><path d="M897.415 1087.21 915.749 1087.21 915.749 1091.79 897.415 1091.79ZM929.499 1087.21 947.832 1087.21 947.832 1091.79 929.499 1091.79ZM961.582 1087.21 979.915 1087.21 979.915 1091.79 961.582 1091.79ZM993.665 1087.21 1012 1087.21 1012 1091.79 993.665 1091.79ZM1025.75 1087.21 1044.08 1087.21 1044.08 1091.79 1025.75 1091.79ZM1057.83 1087.21 1076.17 1087.21 1076.17 1091.79 1057.83 1091.79ZM1089.92 1087.21 1108.25 1087.21 1108.25 1091.79 1089.92 1091.79ZM1122 1087.21 1140.33 1087.21 1140.33 1091.79 1122 1091.79ZM1154.08 1087.21 1172.42 1087.21 1172.42 1091.79 1154.08 1091.79ZM1186.17 1087.21 1204.5 1087.21 1204.5 1091.79 1186.17 1091.79ZM1218.25 1087.21 1236.58 1087.21 1236.58 1091.79 1218.25 1091.79ZM1250.33 1087.21 1268.67 1087.21 1268.67 1091.79 1250.33 1091.79ZM1282.42 1087.21 1300.75 1087.21 1300.75 1091.79 1282.42 1091.79ZM1314.5 1087.21 1332.83 1087.21 1332.83 1091.79 1314.5 1091.79ZM1346.58 1087.21 1364.92 1087.21 1364.92 1091.79 1346.58 1091.79ZM1378.67 1087.21 1397 1087.21 1397 1091.79 1378.67 1091.79ZM1410.75 1087.21 1429.08 1087.21 1429.08 1091.79 1410.75 1091.79ZM1442.83 1087.21 1461.17 1087.21 1461.17 1091.79 1442.83 1091.79ZM1474.92 1087.21 1493.25 1087.21 1493.25 1091.79 1474.92 1091.79ZM1507 1087.21 1525.33 1087.21 1525.33 1091.79 1507 1091.79ZM1539.08 1087.21 1557.42 1087.21 1557.42 1091.79 1539.08 1091.79ZM1571.17 1087.21 1589.5 1087.21 1589.5 1091.79 1571.17 1091.79ZM1603.25 1087.21 1621.58 1087.21 1621.58 1091.79 1603.25 1091.79ZM1635.33 1087.21 1653.67 1087.21 1653.67 1091.79 1635.33 1091.79ZM1667.42 1087.21 1685.75 1087.21 1685.75 1091.79 1667.42 1091.79ZM1699.5 1087.21 1717.83 1087.21 1717.83 1091.79 1699.5 1091.79ZM1731.58 1087.21 1749.92 1087.21 1749.92 1091.79 1731.58 1091.79ZM1763.67 1087.21 1782 1087.21 1782 1091.79 1763.67 1091.79ZM1795.75 1087.21 1814.08 1087.21 1814.08 1091.79 1795.75 1091.79ZM1827.83 1087.21 1846.17 1087.21 1846.17 1091.79 1827.83 1091.79ZM1859.92 1087.21 1878.25 1087.21 1878.25 1091.79 1859.92 1091.79ZM1892 1087.21 1910.33 1087.21 1910.33 1091.79 1892 1091.79ZM1924.08 1087.21 1942.42 1087.21 1942.42 1091.79 1924.08 1091.79ZM1956.17 1087.21 1974.5 1087.21 1974.5 1091.79 1956.17 1091.79ZM1988.25 1087.21 2006.58 1087.21 2006.58 1091.79 1988.25 1091.79ZM2020.33 1087.21 2038.67 1087.21 2038.67 1091.79 2020.33 1091.79ZM2052.42 1087.21 2070.75 1087.21 2070.75 1091.79 2052.42 1091.79ZM2084.5 1087.21 2102.83 1087.21 2102.83 1091.79 2084.5 1091.79ZM2116.58 1087.21 2134.92 1087.21 2134.92 1091.79 2116.58 1091.79ZM2148.67 1087.21 2167 1087.21 2167 1091.79 2148.67 1091.79ZM2180.75 1087.21 2199.08 1087.21 2199.08 1091.79 2180.75 1091.79ZM2212.83 1087.21 2231.17 1087.21 2231.17 1091.79 2212.83 1091.79ZM2244.92 1087.21 2263.25 1087.21 2263.25 1091.79 2244.92 1091.79ZM2277 1087.21 2295.33 1087.21 2295.33 1091.79 2277 1091.79ZM902 1103.25 874.5 1089.5 902 1075.75ZM2297.34 1075.75 2324.84 1089.5 2297.34 1103.25Z" fill="#7F7F7F" fill-rule="nonzero" fill-opacity="1"/><text fill="#000000" fill-opacity="1" font-family="Roboto,Roboto_MSFontService,sans-serif" font-style="normal" font-variant="normal" font-weight="400" font-stretch="normal" font-size="83" text-anchor="start" direction="ltr" writing-mode="lr-tb" unicode-bidi="normal" text-decoration="none" transform="matrix(1 0 0 1 1270.56 1040)">Expected MCID</text><text fill="#000000" fill-opacity="1" font-family="Roboto,Roboto_MSFontService,sans-serif" font-style="normal" font-variant="normal" font-weight="400" font-stretch="normal" font-size="83" text-anchor="start" direction="ltr" writing-mode="lr-tb" unicode-bidi="normal" text-decoration="none" transform="matrix(1 0 0 1 205.657 2402)">Virtual Patient (VP)</text></g></g></svg>