<svg version="1.1" viewBox="0.0 0.0 960.0 540.0" fill="none" stroke="none" stroke-linecap="square" stroke-miterlimit="10" xmlns:xlink="http://www.w3.org/1999/xlink" xmlns="http://www.w3.org/2000/svg"><clipPath id="g30ffb247e2e_0_86.0"><path d="m0 0l960.0 0l0 540.0l-960.0 0l0 -540.0z" clip-rule="nonzero"/></clipPath><g clip-path="url(#g30ffb247e2e_0_86.0)"><path fill="#ffffff" d="m0 0l960.0 0l0 540.0l-960.0 0z" fill-rule="evenodd"/><path fill="#b2e7ef" d="m208.0003 319.54852l-59.962418 34.613647l0 4.133423l59.962418 34.633484l59.961823 -34.633484l0 -4.133423l-59.961823 -34.613647z" fill-rule="evenodd"/><path fill="#64cbd2" d="m208.0003 267.55447c-3.0903015 0 -6.180603 0.6803894 -8.521454 2.0417786c-2.0766144 1.1950378 -3.2320251 2.7426147 -3.4674377 4.309967l-18.923126 76.16217c-2.2327576 5.8959656 0.60772705 12.321594 8.501617 16.88556c6.160797 3.555725 14.285294 5.3332825 22.4104 5.3332825c8.124496 0 16.248993 -1.7775574 22.40979 -5.3332825c7.8938904 -4.563965 10.734375 -10.9895935 8.501633 -16.88556l-18.923141 -76.16217c-0.2354126 -1.5673523 -1.3908234 -3.1149292 -3.4674377 -4.309967c-2.3408508 -1.3613892 -5.4311523 -2.0417786 -8.5208435 -2.0417786z" fill-rule="evenodd"/><path fill="#92e1e6" d="m148.03789 354.16217l0 4.133423l59.962418 34.633484l0 -4.133423l-59.962418 -34.633484z" fill-rule="evenodd"/><path fill="#64cbd2" d="m267.96213 354.16217l-59.961823 34.633484l0 4.133423l59.961823 -34.633484l0 -4.133423z" fill-rule="evenodd"/><path fill="#b2e7ef" d="m208.0003 267.55447c-3.0903015 0 -6.180603 0.6803894 -8.521454 2.0417786c-4.6816864 2.7035828 -4.6816864 7.1306458 0 9.834198c2.3408508 1.3511963 5.4311523 2.0273743 8.521454 2.0273743c3.0896912 0 6.1799927 -0.676178 8.5208435 -2.0273743c4.6816864 -2.7035522 4.6816864 -7.130615 0 -9.834198c-2.3408508 -1.3613892 -5.4311523 -2.0417786 -8.5208435 -2.0417786z" fill-rule="evenodd"/><path fill="#5cadbd" d="m208.0003 270.3361c-1.8514252 0 -3.702835 0.40655518 -5.1128693 1.2190857c-2.8014526 1.6262207 -2.8014526 4.270935 0 5.8965454c1.4100342 0.81311035 3.261444 1.2196655 5.1128693 1.2196655c1.8508148 0 3.7022247 -0.40655518 5.112259 -1.2196655c2.8014526 -1.6256104 2.8014526 -4.2703247 0 -5.8965454c-1.4100342 -0.8125305 -3.261444 -1.2190857 -5.112259 -1.2190857z" fill-rule="evenodd"/><path fill="#e4ff63" d="m188.25444 305.15094l-6.4448395 25.91626c1.2340851 1.3710022 2.7425995 2.644104 4.505142 3.819336c5.9650116 3.9670715 13.825287 5.950592 21.685562 5.950592c7.859665 0 15.71994 -1.9835205 21.684952 -5.950592c1.7631378 -1.1752319 3.2710571 -2.4483337 4.505142 -3.819336l-6.4448395 -25.91626c-0.8029022 0.68518066 -1.7042847 1.3121338 -2.7419891 1.919281c-4.6720886 2.6933594 -10.837677 4.0403137 -17.003265 4.0403137c-6.1661987 0 -12.331787 -1.3469543 -17.003265 -4.0403137c-1.0383148 -0.6071472 -1.9396973 -1.2341003 -2.7425995 -1.919281z" fill-rule="evenodd"/><path fill="#3b727d" d="m596.6465 86.45542c-3.889038 -0.59970856 -7.852112 -0.71943665 -11.781982 -0.32487488c-12.481445 1.1776505 -24.244202 7.504463 -32.126465 17.250786c-7.9434204 9.701363 -11.753723 22.508911 -10.391907 34.947693c0.62597656 6.2301636 2.5776978 12.30954 5.5822754 17.743103l0.23492432 0.5305786l0.13891602 0.23161316l0.11206055 0.19488525l0.4432373 0.7728882l0.8629761 1.5066376l1.7490234 3.0552979l3.4638672 6.102371l13.937866 24.354095l27.835754 48.737534l13.932556 24.38881l6.9677124 12.1753845c0.66778564 1.1597595 0.90270996 1.6903687 1.27948 2.453003c0.15759277 0.34103394 0.38745117 0.6932373 0.53967285 1.0689697l0.3951416 1.0851746c0.15509033 0.3761902 0.30737305 0.7519531 0.4277954 1.1227722l0.31835938 1.1414185l0.3154297 1.1409912l0.17419434 1.1547241c1.09021 6.19516 -0.36395264 12.880157 -3.9151611 18.075409c-1.7772827 2.618103 -4.064026 4.873474 -6.6951294 6.6168823l-0.98095703 0.65982056l-0.51190186 0.34439087l-0.7675781 0.40856934l-1.5144043 0.8943176l-0.1920166 0.11248779l-0.11480713 0.053344727l-0.2662964 0.13357544l-0.5358887 0.2696228c-0.7225952 0.3474121 -1.4212036 0.7695923 -2.1571045 0.97283936c-0.7494507 0.2722168 -1.477417 0.6543274 -2.2373047 0.78286743c-3.4620972 1.0469055 -7.1708374 1.2742615 -10.770752 0.7191467c-2.6659546 -0.4111023 -5.268799 -1.2506104 -7.668396 -2.5057373c-2.8070679 -1.4541626 -5.320801 -3.4284668 -7.3498535 -5.819458c-0.4671631 -0.6374512 -1.0061035 -1.2504272 -1.4707642 -1.8845215c-0.42218018 -0.6986084 -0.81988525 -1.3253479 -1.3085327 -2.0341797l-3.4691772 -6.0676575l-27.835754 -48.737564l-27.870422 -48.74289l-6.9359436 -12.170471l-1.749054 -3.0552979l-0.8547058 -1.5408783l-0.44863892 -0.73820496l-0.11203003 -0.19488525l-0.14181519 -0.23205566l-0.30969238 -0.5065918c-0.85702515 -1.2955322 -1.6393127 -2.6150665 -2.536377 -3.881256c-0.97720337 -1.207489 -1.9143066 -2.4443207 -2.9310913 -3.6253662c-4.1163025 -4.616287 -9.162689 -8.461273 -14.699005 -11.182907c-4.442566 -2.212555 -9.230164 -3.7234497 -14.137024 -4.4801025c-1.0958862 -0.16899109 -2.1946716 -0.29994202 -3.2992249 -0.39331055c-0.09875488 -0.050750732 -0.23464966 -0.07170105 -0.33874512 -0.087753296c-0.20529175 -0.031661987 -0.41882324 -0.029067993 -0.60549927 0.048721313c-5.9957886 -0.4331665 -12.063141 0.2889557 -17.775024 2.1227112c-5.93277 1.9032898 -11.4010315 4.902466 -16.199188 8.816071c-4.800171 3.9458618 -8.832397 8.824219 -11.783325 14.25415c-2.9509277 5.4299164 -4.861969 11.410965 -5.5986023 17.57013c-0.6994629 6.1293793 -0.263031 12.43689 1.3895569 18.402039l0.60736084 2.2427979l0.82870483 2.1703644l0.8282471 2.1732483c0.31271362 0.7172394 0.66259766 1.4046783 1.0148926 2.095459l1.0549622 2.0661163l0.2783203 0.49879456l0.2211914 0.38934326l0.40856934 0.76753235l1.7494812 3.052414l13.866028 24.378555l27.790344 48.801575l13.863586 24.375214l6.927246 12.207611l3.5014343 6.1081543l0.8600769 1.5061951l0.5045471 1.0665283l0.53970337 1.0689697c0.19226074 0.34640503 0.30734253 0.7519531 0.43023682 1.0876465c2.3753357 5.8664246 2.2842102 12.619476 -0.14105225 18.51828c-2.4199219 5.8640747 -7.102722 10.64209 -12.9313965 13.233429c-4.2983093 1.9007568 -9.135376 2.4958496 -13.784882 1.7788696c-1.6105652 -0.24835205 -3.1999207 -0.6532898 -4.7349854 -1.2185974c-2.9666748 -1.0909424 -5.7416077 -2.753296 -8.058411 -4.871887c-0.31777954 -0.22366333 -0.5872803 -0.54940796 -0.85964966 -0.83709717l-0.822052 -0.8312988c-0.2772827 -0.2559204 -0.5071411 -0.60809326 -0.7448425 -0.8904419l-0.73950195 -0.9251404l-0.38153076 -0.48217773l-0.30966187 -0.5065918l-0.65448 -1.015625l-0.31503296 -0.4718933l-0.08804321 -0.120147705l-0.10958862 -0.19155884l-0.22451782 -0.38690186l-0.85427856 -1.5437622l-13.937897 -24.354095l-3.4638367 -6.102356l-0.8947754 -1.5115356l-0.4114685 -0.76797485l-0.6300354 -0.9437866l-1.2416077 -1.9883423c-0.43240356 -0.6320801 -0.82522583 -1.2906189 -1.3294983 -1.8982849c-3.7030945 -5.011383 -8.435455 -9.299377 -13.827911 -12.493195c-5.216797 -3.0660706 -11.013397 -5.1558533 -17.004547 -6.0797424c-0.17349243 -0.026733398 -0.3440857 -0.05303955 -0.5151367 -0.07644653c-6.172455 -0.88079834 -12.533325 -0.55914307 -18.554718 1.0166931c-1.5118103 0.43588257 -3.047638 0.7970276 -4.4849854 1.4220276c-1.4584961 0.5506592 -2.9115906 1.0666504 -4.295624 1.806427l-2.0661316 1.0549622l-0.5359192 0.2696228c-0.15731812 0.11782837 -0.34640503 0.19229126 -0.46121216 0.24563599l-0.7733154 0.44613647l-3.0524292 1.7494812l-12.178253 6.967285l-48.73755 27.835754l-119.61864 68.32803l37.765762 5.823639l93.657135 -53.545685l48.73468 -27.836182l12.178253 -6.967285l3.047058 -1.7147827l0.7762451 -0.44570923c0.117248535 -0.08850098 0.19689941 -0.14428711 0.30633545 -0.16293335l0.26675415 -0.13647461l1.0318298 -0.5099182c0.6985779 -0.42214966 1.4344788 -0.62542725 2.151703 -0.93814087c0.71725464 -0.31271362 1.4853516 -0.47549438 2.2212524 -0.678772c3.0796509 -0.8128052 6.3454895 -0.9515686 9.523254 -0.46154785c2.995575 0.46194458 5.9108887 1.4828186 8.513702 3.0327454c2.6820068 1.5740051 4.9983826 3.6954956 6.867279 6.203888c0.2723999 0.2876892 0.42996216 0.62875366 0.6647644 0.9491272l0.6197815 1.0102844c0.11450195 0.15975952 0.20254517 0.27990723 0.3414917 0.5115051l0.44613647 0.77334595l0.8600769 1.5061646l3.4980774 6.110626l13.903198 24.348755l0.8947754 1.5115051l0.18981934 0.38156128l0.10916138 0.19442749l0.1711731 0.27209473l0.6246948 0.9784851l1.2523193 1.9189453l0.6246948 0.9784851l0.7052307 0.91690063l1.449646 1.8102417c0.46420288 0.6369934 0.9371338 1.2368164 1.5214844 1.7857666l1.6123047 1.6577148c0.5496521 0.5436096 1.0621643 1.1170044 1.651886 1.6312561c4.609619 4.162445 10.031433 7.396332 15.83667 9.52594c3.0289307 1.109436 6.1629944 1.9213257 9.349396 2.4126892c2.917511 0.44989014 5.8764954 0.6308594 8.8402405 0.5313721c6.1957703 -0.17245483 12.398163 -1.5398254 18.037292 -4.0538025c5.63916 -2.513977 10.8402405 -6.0842285 15.157684 -10.527863c4.3443604 -4.406891 7.802185 -9.687622 10.166443 -15.421143c2.3589172 -5.698822 3.6238098 -11.847595 3.6644592 -18.04303c0.07287598 -6.193451 -1.0784912 -12.433563 -3.3315125 -18.1716c-0.31225586 -0.7201538 -0.55023193 -1.4613647 -0.86828613 -2.143921l-1.0495911 -2.1007996l-1.0603027 -2.031433l-0.8576355 -1.5413208l-3.4638367 -6.102356l-6.9272156 -12.207642l-13.897858 -24.383423l-27.758972 -48.793808l-13.897858 -24.383438l-1.714325 -3.0499573l-0.44863892 -0.7381897l-0.22451782 -0.3868866l-0.13357544 -0.26631165l-0.5045471 -1.0665131c-0.18984985 -0.38154602 -0.3874817 -0.69325256 -0.53970337 -1.0690002l-0.4277954 -1.1227722l-0.43026733 -1.0876312l-0.28320312 -1.1389618c-0.83462524 -3.053421 -1.079956 -6.261688 -0.7031555 -9.376968c0.72332764 -6.303314 3.9729614 -12.288101 8.850769 -16.257523c2.4203491 -1.9890442 5.3047485 -3.5513153 8.277924 -4.53743c3.0000916 -0.9494171 6.1921387 -1.3008575 9.361084 -1.060852c0.62301636 0.048706055 1.2424927 0.12054443 1.8583679 0.21551514c5.6615295 0.8730316 10.986298 3.7189484 14.748169 7.984543c0.50427246 0.60765076 0.9718323 1.2422028 1.4761047 1.8498383c0.4675293 0.634552 0.85165405 1.3302307 1.3138733 1.9994812l0.17364502 0.23695374l0.053344727 0.11479187l0.11203003 0.19490051l0.44326782 0.7728882l0.8600769 1.5061798l1.7490234 3.0552979l6.970642 12.175827l27.835754 48.737534l27.870422 48.74289l3.4638062 6.1023865c0.7876587 1.2848206 1.6393433 2.6150513 2.4699097 3.8710022c0.8970947 1.2661743 1.9089355 2.4790344 2.8514404 3.6811523c4.030884 4.7096863 8.99176 8.648071 14.477783 11.465546c4.7036743 2.439331 9.783447 4.0899963 14.988159 4.892578c0.89923096 0.13867188 1.8054199 0.25177002 2.7093506 0.3408203c6.1429443 0.6305237 12.439636 0.014831543 18.38617 -1.7472229c1.5010986 -0.3664856 2.9331055 -0.9567871 4.3916016 -1.5074768c1.453125 -0.5159607 2.8370972 -1.2557373 4.215332 -1.9579468l1.0289307 -0.51034546l0.501709 -0.27786255l0.2662964 -0.13360596l0.19488525 -0.11203003l1.5062256 -0.8600769l0.7728882 -0.4432373l0.9784546 -0.62472534l1.9487305 -1.2151184c5.147888 -3.4363708 9.641296 -7.888397 13.112854 -13.027863c6.9695435 -10.239319 9.80835 -23.158203 7.6792603 -35.40152l-0.38311768 -2.3147888l-0.60736084 -2.2427979l-0.63916016 -2.2477112c-0.24285889 -0.7094116 -0.520874 -1.4212952 -0.7935791 -2.1678772l-0.8286743 -2.1703796c-0.2775879 -0.7147522 -0.67041016 -1.3733215 -1.0231323 -2.0611877c-0.66748047 -1.3728943 -1.4557495 -2.9035034 -1.9923706 -3.7618408l-6.927246 -12.207626l-13.937866 -24.354095l-27.836243 -48.73465l-13.932495 -24.38881l-3.4692383 -6.0676575l-1.7518921 -3.0557556l-0.8601074 -1.5061798l-0.4432373 -0.7728882l-0.11206055 -0.19488525l-0.07977295 -0.15440369l-0.10180664 -0.26139832c-1.5171509 -2.7353668 -2.4631958 -5.7378845 -2.7988892 -8.820938c-0.6665039 -6.1979218 1.2491455 -12.669655 5.193054 -17.455063c3.8773804 -4.795662 9.878662 -8.064903 16.02826 -8.629295c1.9261475 -0.1855011 3.8759766 -0.121650696 5.79303 0.17396545c4.2504883 0.6554489 8.334412 2.4485855 11.603943 5.1847763l0.90704346 0.7408066c0.28308105 0.2183075 0.5149536 0.53824615 0.79022217 0.8263931l0.8220825 0.83130646c0.27770996 0.25300598 0.50427246 0.6076431 0.744812 0.8904419l0.7366333 0.92469025c0.27526855 0.2881546 0.43286133 0.62919617 0.6251221 0.97559357l0.6594238 0.98384094l0.17608643 0.24028778c0.024414062 0.07185364 0.13891602 0.23160553 0.19226074 0.3463974l0.4432373 0.7728958l6.970642 12.175827l13.897827 24.383438l3.5039062 6.0730133l1.7143555 3.0499573l0.2244873 0.3868866l0.30969238 0.5065918l0.6516113 1.0151978l1.3134155 2.002365c3.6954956 5.291458 8.6571045 9.685822 14.273804 12.807648c4.512146 2.5104218 9.466431 4.2453613 14.59021 5.0354614c1.2490845 0.19262695 2.5100098 0.32785034 3.7799072 0.40525818c6.425293 0.39285278 12.964539 -0.64430237 18.907776 -3.075882c1.527832 -0.539978 2.9485474 -1.3066559 4.3668213 -2.0381927l1.03479 -0.5479431l0.77038574 -0.40811157l1.5462646 -0.88941956l6.067627 -3.4691925l12.178711 -6.970169l2.133667 3.7480927l2.4701538 4.329895l15.9088745 -33.46347l0 0l-36.886475 -3.2902527l1.1937256 2.0875244l1.2769165 2.2394714l1.1907959 2.0870667l0.9481201 1.6263275l-12.175781 6.9706116l-6.107727 3.4985352l-1.5090942 0.8596344l-0.7728882 0.44325256c-0.22668457 0.10714722 -0.3414917 0.16049194 -0.53100586 0.23782349c-0.6478882 0.3234253 -1.2712402 0.71868896 -1.9753418 0.9268646c-2.7062988 1.0983276 -5.597229 1.5702057 -8.533936 1.3985748c-0.56365967 -0.030670166 -1.1286011 -0.091156006 -1.6895752 -0.17764282c-2.3131714 -0.3567047 -4.565979 -1.1629333 -6.6308594 -2.304306c-2.5323486 -1.4117737 -4.7713623 -3.3437347 -6.4110107 -5.7457123l-0.5953369 -0.9384308l-0.31500244 -0.4718933c-0.059143066 -0.07720947 -0.08850098 -0.117263794 -0.13897705 -0.23161316l-0.2244873 -0.3868866l-1.7490845 -3.0552979l-3.4691772 -6.0676727l-13.932556 -24.388794l-6.970581 -12.175827l-0.40856934 -0.76754c-0.08807373 -0.120147705 -0.14141846 -0.23493958 -0.25634766 -0.39179993l-0.30969238 -0.5065918l-1.2493896 -1.9569702c-0.43286133 -0.62919617 -0.8173828 -1.321991 -1.324585 -1.9300766l-1.4414062 -1.84449c-0.4729004 -0.5998459 -0.93707275 -1.2368393 -1.489685 -1.7808838l-1.6387329 -1.6973038c-0.5529785 -0.54115295 -1.057251 -1.1487961 -1.6469727 -1.6630478l-1.7774048 -1.5085068c-6.5856934 -5.476631 -14.656616 -9.03907 -23.088196 -10.339256z" fill-rule="evenodd"/><path fill="#ffffff" d="m577.78314 187.74092l3.8562012 6.763794l-3.8562012 -6.763794z" fill-rule="evenodd"/><path fill="#ffffff" d="m573.8415 180.86053l3.8884277 6.7658234l0 0z" fill-rule="evenodd"/><path fill="#ffffff" d="m213.67064 421.1255z" fill-rule="evenodd"/><path fill="#ffffff" d="m395.2976 331.4524l-0.9394531 2.8864136c0.60272217 0.19952393 1.2194824 0.32717896 1.776825 0.59072876l1.7153625 0.7588806c1.2034607 0.4312744 2.2599792 1.1240845 3.3648376 1.7148132c0.5548706 0.29870605 1.0618896 0.6581116 1.5718079 1.0179749l1.5288696 1.046875c0.9661865 0.81799316 1.9401855 1.6046448 2.866333 2.4519958l2.102539 -2.2127075c-1.0248718 -0.8981018 -2.0551147 -1.7615051 -3.1195984 -2.6331482l-1.6867676 -1.1748352c-0.576416 -0.3701172 -1.1074219 -0.80426025 -1.7316895 -1.113678c-1.2031555 -0.64434814 -2.3588867 -1.3850098 -3.6234741 -1.8612366l-1.8835144 -0.820343c-0.626709 -0.27426147 -1.3046265 -0.4468689 -1.9420776 -0.6517334z" fill-rule="evenodd"/><path fill="#ffffff" d="m631.90845 277.18353l-2.7839355 1.1218872l0.6813965 1.7627869c0.22998047 0.56240845 0.3423462 1.2161865 0.5322876 1.8079224l0.49719238 1.8054504c0.115234375 0.61572266 0.19866943 1.2265625 0.31341553 1.8452148c0.11810303 0.6161804 0.23291016 1.2348022 0.31097412 1.8803406l0.13458252 1.8531494c0.12634277 1.2539062 0.07141113 2.5124207 0.018920898 3.7742615l3.043335 0.15255737c0.03338623 -1.3684082 0.10479736 -2.7339172 -0.040649414 -4.094391l-0.14251709 -2.0319824c-0.07269287 -0.6802063 -0.2119751 -1.370697 -0.3242798 -2.024475c-0.10449219 -0.68515015 -0.21191406 -1.3707275 -0.35650635 -2.0265198l-0.5402832 -1.9867249c-0.21887207 -0.6347046 -0.32336426 -1.3198242 -0.5773926 -1.9569702l-0.7665405 -1.8825073z" fill-rule="evenodd"/><path fill="#ffffff" d="m629.1365 304.5282c-1.8850098 4.679596 -4.7598877 8.925293 -8.429932 12.376434l2.095459 2.19104c3.9630737 -3.7582092 7.1070557 -8.385742 9.119385 -13.430511l-2.784912 -1.1369629z" fill-rule="evenodd"/><path fill="#ffffff" d="m562.52997 155.00879l-2.6259155 1.4985199l7.7979736 13.644409l2.6287842 -1.4980774l-7.8008423 -13.644852z" fill-rule="evenodd"/><path fill="#ffffff" d="m576.4727 179.3274l-2.6312866 1.5332031l3.8884888 6.7658234c-0.0053710938 0.034698486 -0.0053710938 0.034698486 -0.0053710938 0.034698486c0.02935791 0.040039062 0.02935791 0.040039062 0.05871582 0.080093384l3.8562012 6.763794l2.6287842 -1.4980621l-3.880188 -6.8385468l-3.9153442 -6.8410034z" fill-rule="evenodd"/><path fill="#ffffff" d="m590.3701 203.71004l-2.6312866 1.5332031l7.7980347 13.644409l2.6341553 -1.5327606l-7.8009033 -13.644852z" fill-rule="evenodd"/><path fill="#ffffff" d="m604.3422 228.06868l-2.6688232 1.5274048l3.9206543 6.806305l3.8806763 6.835663l2.668396 -1.5245209l-3.920227 -6.809204l-3.8806763 -6.8356476z" fill-rule="evenodd"/><path fill="#ffffff" d="m618.2396 252.45131l-2.6606445 1.4931641l7.793152 13.676224l2.6341553 -1.5327759l-7.7666626 -13.636612z" fill-rule="evenodd"/><path fill="#ffffff" d="m610.9266 323.64304c-2.2287598 1.207489 -4.5324097 2.190277 -6.961853 2.8754272c-1.2156982 0.33944702 -2.4025269 0.7218323 -3.661377 0.8800049l-1.8451538 0.31341553c-0.61376953 0.082977295 -1.2481079 0.088775635 -1.8936768 0.1668396l0.24230957 2.9976196c0.6748657 -0.038024902 1.3493042 -0.073150635 2.0324097 -0.14544678l2.0265503 -0.35650635c1.3335571 -0.18215942 2.6611328 -0.57540894 3.9520874 -0.94174194c2.621399 -0.7591553 5.1435547 -1.8148193 7.5614014 -3.0967712l-1.4526978 -2.6928406z" fill-rule="evenodd"/><path fill="#ffffff" d="m571.6162 319.83685l-1.9450684 2.3435364c4.1869507 3.4667969 9.109863 6.058319 14.383972 7.5050964l0.8006592 -2.907837c-4.865967 -1.3483276 -9.396301 -3.7401733 -13.239563 -6.940796z" fill-rule="evenodd"/><path fill="#ffffff" d="m556.13324 297.29068l-2.6341553 1.5327759l3.8859863 6.800934c1.3404541 2.2877808 2.539734 4.5507812 3.949585 6.8492737l2.6047974 -1.572815c-1.3218384 -2.1783447 -2.6173706 -4.527252 -3.9255981 -6.7745056l-3.8806152 -6.835663z" fill-rule="evenodd"/><path fill="#ffffff" d="m542.23047 272.94275l-2.6287842 1.4980469l7.8009033 13.644867l2.6259155 -1.4985046l-7.7980347 -13.644409z" fill-rule="evenodd"/><path fill="#ffffff" d="m528.26373 248.5494l-2.6341553 1.5327759l3.9206543 6.8062897l3.880188 6.838562l2.6288452 -1.4980774l-3.880188 -6.8385468c0 0 0 0 -0.029785156 -0.03715515l-3.885559 -6.8038483z" fill-rule="evenodd"/><path fill="#ffffff" d="m514.36096 224.20146l-2.6287842 1.4980621l7.8009033 13.644852l2.6287842 -1.4980621l-7.8009033 -13.644852z" fill-rule="evenodd"/><path fill="#ffffff" d="m500.42355 199.84816l-2.6288147 1.4980621l3.8322144 6.6890564c-0.01071167 0.06939697 0.01864624 0.109451294 0.04800415 0.14949036c0.029785156 0.03715515 0.05911255 0.07720947 0.093811035 0.08256531l3.8268738 6.7237396l2.6288147 -1.4980621l-3.8806458 -6.8356476l-3.9202576 -6.809204z" fill-rule="evenodd"/><path fill="#ffffff" d="m483.4679 177.00386l-1.7558899 2.479309c4.0615234 2.9175415 7.491699 6.72348 9.95163 11.119858l2.6287842 -1.4980621c-2.6521912 -4.7427826 -6.381195 -8.914505 -10.824524 -12.101105z" fill-rule="evenodd"/><path fill="#ffffff" d="m467.46008 170.2639c-1.1508179 -0.17745972 -2.3132324 -0.27973938 -3.4640503 -0.4571991c-1.3684082 -0.03340149 -2.731018 -0.104400635 -4.1130066 -0.068847656l-2.0290833 0.14299011c-0.6777954 0.03756714 -1.3526611 0.07559204 -2.0431519 0.21482849l0.42114258 2.9896545c0.61572266 -0.115219116 1.2505798 -0.12390137 1.898529 -0.19863892l1.8536072 -0.13748169c1.2696533 -0.017349243 2.5257263 0.07273865 3.7582092 0.08517456c1.0611877 0.16363525 2.1339722 0.2521057 3.1980286 0.41618347c0.1763916 0.027191162 0.3527527 0.054397583 0.53115845 0.08782959l1.8349304 0.42504883l0.9203491 0.21296692c0.30404663 0.08239746 0.6085205 0.16191101 0.90722656 0.27902222l0.87005615 -2.8971252c-0.3338318 -0.11956787 -0.63253784 -0.23666382 -0.97125244 -0.32443237l-0.98687744 -0.22322083l-2.011322 -0.45224c-0.19039917 -0.032318115 -0.38076782 -0.06463623 -0.5744934 -0.09451294z" fill-rule="evenodd"/><path fill="#ffffff" d="m424.9718 195.47443l-0.6199341 1.9469757c-0.24249268 0.67012024 -0.34326172 1.3235931 -0.48406982 2.0064087l-0.44644165 1.9737396l-0.24404907 2.0434113c-0.07144165 0.6935272 -0.20690918 1.3416595 -0.20892334 2.0458832l-0.068115234 2.035019c-0.1027832 1.3577118 0.10870361 2.7313232 0.14715576 4.0752716l3.0376587 -0.27163696c-0.04916382 -1.2745667 -0.24734497 -2.5040283 -0.16015625 -3.7605286l0.046691895 -1.8962402c-0.008666992 -0.63482666 0.15615845 -1.2429047 0.21731567 -1.8699341l0.21731567 -1.8699188l0.42547607 -1.8378296c0.13012695 -0.61343384 0.2255249 -1.2322083 0.42260742 -1.8382721l0.59072876 -1.776825l-2.8732605 -1.0055237z" fill-rule="evenodd"/><path fill="#ffffff" d="m443.65485 173.96677c-4.8601685 2.4920044 -9.175751 6.0211945 -12.583832 10.2883l2.3885193 1.8839722c3.1121216 -3.9604797 7.099945 -7.1879425 11.57901 -9.493011l-1.3836975 -2.6792603z" fill-rule="evenodd"/><path fill="#ffffff" d="m429.166 222.65894l-2.7384033 1.3065186l0.92181396 1.7969208c0.28826904 0.64538574 0.6223755 1.2238312 0.9531555 1.804718l1.9442444 3.4021454l3.8806458 6.835663l2.6259155 -1.4985199l-3.877777 -6.835205l-1.9442139 -3.4021454c-0.3336792 -0.5813446 -0.63308716 -1.1544342 -0.8973694 -1.7250671l-0.8680115 -1.6850281z" fill-rule="evenodd"/><path fill="#ffffff" d="m442.8581 247.00992l-2.6341858 1.5327606l3.8860168 6.8009644l3.880188 6.8385468l2.660614 -1.4931641l-3.8772888 -6.8381042l-3.9153442 -6.8410034z" fill-rule="evenodd"/><path fill="#ffffff" d="m456.75012 271.42725l-2.6288147 1.4980774l7.766205 13.639496l2.660614 -1.4931641l-7.798004 -13.644409z" fill-rule="evenodd"/><path fill="#ffffff" d="m470.6475 295.8099l-2.6635132 1.4927063l3.8806458 6.835663l3.9153442 6.8410034l2.6288147 -1.4980774l-3.8806458 -6.835663l-3.8806458 -6.8356323z" fill-rule="evenodd"/><path fill="#ffffff" d="m484.50528 320.219l-2.6288147 1.4980774l7.8009033 13.644836l2.6288147 -1.4980774l-7.8009033 -13.644836z" fill-rule="evenodd"/><path fill="#ffffff" d="m501.0605 371.93997c-0.90304565 4.934601 -2.8681335 9.672882 -5.7265015 13.811615l2.5188904 1.7294006c3.0907593 -4.4936523 5.220337 -9.626892 6.2247314 -15.00769l-3.0171204 -0.5333252z" fill-rule="evenodd"/><path fill="#ffffff" d="m487.12863 394.1803c-1.0288086 0.72055054 -2.1138306 1.3643188 -3.1724243 2.0477295c-1.1090088 0.56903076 -2.218048 1.138092 -3.361786 1.7017822c-1.1599121 0.4190979 -2.333435 0.9456482 -3.5198364 1.3251343l-1.8025513 0.49761963c-0.62109375 0.14993286 -1.216156 0.3423462 -1.8265381 0.42288208l0.5970764 2.9812622c0.6851196 -0.104522705 1.311554 -0.28915405 1.9760437 -0.4708557l1.9862976 -0.53738403c1.2987366 -0.43618774 2.5465698 -0.9838257 3.81839 -1.4567261c1.2184753 -0.587677 2.4422913 -1.2100525 3.66568 -1.8295593c1.1357727 -0.7425232 2.3038025 -1.4445801 3.4098206 -2.2242737l-1.7701721 -2.457611z" fill-rule="evenodd"/><path fill="#ffffff" d="m447.6088 395.37997l-1.5959778 2.5750122c4.377411 2.827118 9.355499 4.6574707 14.513916 5.452942c0.24578857 0.037902832 0.4920044 0.072906494 0.738678 0.10501099l0.3925476 -3.0062866c-0.17105103 -0.023406982 -0.34210205 -0.046813965 -0.5126953 -0.07312012c-4.7882996 -0.7384033 -9.449951 -2.413391 -13.5364685 -5.0535583z" fill-rule="evenodd"/><path fill="#ffffff" d="m430.8492 374.25912l-2.6287842 1.4980469l3.8859863 6.8009644c0 0 0.02935791 0.040039062 0.02935791 0.040039062c0.63842773 1.119751 1.2686157 2.2737427 2.0454102 3.4177551l1.1080017 1.7220459c0.37417603 0.5491028 0.82263184 1.0770874 1.2281799 1.6339722l2.4071655 -1.884491c-0.37905884 -0.51730347 -0.80352783 -0.97055054 -1.1826172 -1.487854l-0.98526 -1.5965271c-0.6887512 -1.0238953 -1.3565369 -2.1836548 -1.9949646 -3.3034058l-3.9124756 -6.8405457z" fill-rule="evenodd"/><path fill="#ffffff" d="m416.95184 349.87646l-2.6341553 1.5327759l7.8013306 13.641968l2.6308289 -1.5303345l-7.798004 -13.644409z" fill-rule="evenodd"/><path fill="#ffffff" d="m395.2976 331.4524l-0.93411255 2.851715c0.5973816 0.23422241 1.2141418 0.36187744 1.7714844 0.62542725l1.7153625 0.7588806c1.2034607 0.4312744 2.2599792 1.1240845 3.3648376 1.7148132c0.5602112 0.26400757 1.0618896 0.6581116 1.5718079 1.0179749l1.5288696 1.046875c0.9661865 0.81799316 1.9401855 1.6046448 2.866333 2.4519958l2.102539 -2.2127075c-1.0248718 -0.8981018 -2.0497742 -1.7962036 -3.1195984 -2.6331482l-1.6867676 -1.1748352c-0.576416 -0.3701172 -1.1074219 -0.80426025 -1.7316895 -1.113678c-1.2031555 -0.64434814 -2.3588867 -1.3850098 -3.6234741 -1.8612366l-1.8835144 -0.820343c-0.626709 -0.27426147 -1.3046265 -0.4468689 -1.9420776 -0.6517334z" fill-rule="evenodd"/><path fill="#ffffff" d="m382.61194 329.60275c-5.4539185 0.18026733 -10.856689 1.6028442 -15.716858 4.094879l1.3861694 2.6825867c4.4737244 -2.2703857 9.433807 -3.5865784 14.431732 -3.7661133l-0.1010437 -3.0113525z" fill-rule="evenodd"/><path fill="#ffffff" d="m356.09033 339.78687l-6.8381042 3.8773193l-6.806305 3.9206848l1.4980774 2.6288147l6.8410034 -3.9153442l0.040039062 -0.02935791c0.034698486 0.005340576 0.034698486 0.005340576 0.07476807 -0.023986816l0.034698486 0.005340576c0.040039062 -0.02935791 0.082092285 -0.09094238 0.12213135 -0.12030029l6.5293274 -3.7177124l-1.495636 -2.6254578z" fill-rule="evenodd"/><path fill="#ffffff" d="m331.7424 353.6896l-13.644409 7.798004l1.4980774 2.6288147l13.644836 -7.8009033l-1.4985046 -2.6259155z" fill-rule="evenodd"/><path fill="#ffffff" d="m283.0016 381.55624l-13.639526 7.7661743l1.4927368 2.6635132l13.644836 -7.8009033l-1.4980469 -2.6287842z" fill-rule="evenodd"/><path fill="#ffffff" d="m282.9669 381.55087l-13.644867 7.8009033l1.4980774 2.6288147l13.644836 -7.8009033l-1.4980469 -2.6288147z" fill-rule="evenodd"/><path fill="#ffffff" d="m307.3544 367.62167l-6.843445 3.9120178l-6.800934 3.8859863l1.4980469 2.6288147l6.835663 -3.8806458l6.809204 -3.920227l-1.4985352 -2.625946z" fill-rule="evenodd"/><path fill="#ffffff" d="m331.70236 353.71896l-13.644409 7.7979736l1.4980469 2.6288147l13.644867 -7.800873l-1.4985046 -2.6259155z" fill-rule="evenodd"/><path fill="#ffffff" d="m212.25772 421.15332l-13.644852 7.800873l1.4985199 2.6259155l13.644409 -7.798004l-1.4980774 -2.6287842z" fill-rule="evenodd"/><path fill="#ffffff" d="m236.6457 407.22122l-6.8438873 3.9148865l-6.8009644 3.8860168l1.4985199 2.6259155l6.8005066 -3.8831177l6.8385468 -3.880188l-1.4927216 -2.6635132z" fill-rule="evenodd"/><path fill="#ffffff" d="m260.99365 393.31848l-13.644852 7.8009033l1.4985046 2.6259155l13.641525 -7.798462l-1.4951782 -2.628357z" fill-rule="evenodd"/><path fill="#ffffff" d="m356.09033 339.78687l-6.8381042 3.8773193l-6.806305 3.9206848l1.4980774 2.6288147l6.8410034 -3.9153442l0.040039062 -0.02935791c0.034698486 0.005340576 0.034698486 0.005340576 0.07476807 -0.023986816l0.034698486 0.005340576c0.040039062 -0.02935791 0.082092285 -0.09094238 0.12213135 -0.12030029l6.5293274 -3.7177124l-1.495636 -2.6254578z" fill-rule="evenodd"/><path fill="#ffffff" d="m382.61194 329.60275c-5.4539185 0.18026733 -10.856689 1.6028442 -15.716858 4.094879l1.3861694 2.6825867c4.4737244 -2.2703857 9.433807 -3.5865784 14.431732 -3.7661133l-0.1010437 -3.0113525z" fill-rule="evenodd"/><path fill="#ffffff" d="m416.9118 349.90582l-2.6288147 1.4980774l7.8013306 13.641937l2.6254883 -1.4956055l-7.798004 -13.644409z" fill-rule="evenodd"/><path fill="#ffffff" d="m430.8492 374.25912l-2.6287842 1.4980469l3.8859863 6.8009644c0 0 0.02935791 0.040039062 0.02935791 0.040039062c0.63842773 1.119751 1.2686157 2.2737427 2.0454102 3.4177551l1.1080017 1.7220459c0.37417603 0.5491028 0.82263184 1.0770874 1.2281799 1.6339722l2.4071655 -1.884491c-0.37905884 -0.51730347 -0.80352783 -0.97055054 -1.1826172 -1.487854l-0.98526 -1.5965271c-0.6887512 -1.0238953 -1.3565369 -2.1836548 -1.9949646 -3.3034058l-3.9124756 -6.8405457z" fill-rule="evenodd"/><path fill="#ffffff" d="m447.6088 395.37997l-1.5959778 2.5750122c4.377411 2.827118 9.355499 4.6574707 14.513916 5.452942c0.24578857 0.037902832 0.4920044 0.072906494 0.738678 0.10501099l0.3925476 -3.0062866c-0.17105103 -0.023406982 -0.34210205 -0.046813965 -0.5126953 -0.07312012c-4.7882996 -0.7384033 -9.449951 -2.413391 -13.5364685 -5.0535583z" fill-rule="evenodd"/><path fill="#ffffff" d="m487.12863 394.1803c-1.0288086 0.72055054 -2.1138306 1.3643188 -3.1724243 2.0477295c-1.1090088 0.56903076 -2.218048 1.138092 -3.361786 1.7017822c-1.1599121 0.4190979 -2.333435 0.9456482 -3.5198364 1.3251343l-1.8025513 0.49761963c-0.62109375 0.14993286 -1.216156 0.3423462 -1.8265381 0.42288208l0.5970764 2.9812622c0.6851196 -0.104522705 1.316925 -0.32382202 1.9760437 -0.4708557l1.9862976 -0.53738403c1.2987366 -0.43618774 2.5465698 -0.9838257 3.81839 -1.4567261c1.2184753 -0.587677 2.4422913 -1.2100525 3.66568 -1.8295593c1.1357727 -0.7425232 2.3038025 -1.4445801 3.4098206 -2.2242737l-1.7701721 -2.457611z" fill-rule="evenodd"/><path fill="#ffffff" d="m501.0605 371.93997c-0.90304565 4.934601 -2.8681335 9.672882 -5.7265015 13.811615l2.5188904 1.7294006c3.0907593 -4.4936523 5.220337 -9.626892 6.2247314 -15.00769l-3.0171204 -0.5333252z" fill-rule="evenodd"/><path fill="#ffffff" d="m484.51062 320.1843l-2.6288147 1.4980774l7.7608643 13.674194l2.6288147 -1.4980774l-7.7608643 -13.674194z" fill-rule="evenodd"/><path fill="#ffffff" d="m470.6475 295.8099l-2.6635132 1.4927063l3.8806458 6.835663l3.9153442 6.8410034l2.6288147 -1.4980774l-3.8806458 -6.835663l-3.8806458 -6.8356323z" fill-rule="evenodd"/><path fill="#ffffff" d="m456.75012 271.42725l-2.6635132 1.4927368l7.8009033 13.644836l2.6287842 -1.4980469l-7.7661743 -13.639526z" fill-rule="evenodd"/><path fill="#ffffff" d="m442.8581 247.00992l-2.6341858 1.5327606l3.8860168 6.8009644l3.880188 6.8385468l2.660614 -1.4931641l-3.8772888 -6.8381042l-3.9153442 -6.8410034z" fill-rule="evenodd"/><path fill="#ffffff" d="m429.166 222.65894l-2.7384033 1.3065186l0.92181396 1.7969208c0.28826904 0.64538574 0.6223755 1.2238312 0.9531555 1.804718l1.9442444 3.4021454l3.8806458 6.835663l2.6259155 -1.4985199l-3.877777 -6.835205l-1.9442139 -3.4021454c-0.3336792 -0.5813446 -0.63308716 -1.1544342 -0.8973694 -1.7250671l-0.8680115 -1.6850281z" fill-rule="evenodd"/><path fill="#ffffff" d="m443.65485 173.96677c-4.8601685 2.4920044 -9.175751 6.0211945 -12.583832 10.2883l2.3885193 1.8839722c3.1121216 -3.9604797 7.099945 -7.1879425 11.57901 -9.493011l-1.3836975 -2.6792603z" fill-rule="evenodd"/><path fill="#ffffff" d="m467.46008 170.2639c-1.1508179 -0.17745972 -2.3132324 -0.27973938 -3.4640503 -0.4571991c-1.3684082 -0.03340149 -2.731018 -0.104400635 -4.1130066 -0.068847656l-2.0290833 0.14299011c-0.6777954 0.03756714 -1.3526611 0.07559204 -2.0431519 0.21482849l0.42114258 2.9896545c0.61572266 -0.115219116 1.2505798 -0.12390137 1.898529 -0.19863892l1.8536072 -0.13748169c1.2696533 -0.017349243 2.5257263 0.07273865 3.7582092 0.08517456c1.0611877 0.16363525 2.1599731 0.25611877 3.2095947 0.41796875c0.17349243 0.026748657 0.34698486 0.053497314 0.5195923 0.08604431l1.8349304 0.42504883l0.9203491 0.21296692c0.30404663 0.08239746 0.6085205 0.16191101 0.90722656 0.27902222l0.87005615 -2.8971252c-0.3338318 -0.11956787 -0.63253784 -0.23666382 -0.97125244 -0.32443237l-0.98687744 -0.22322083l-2.011322 -0.45224c-0.19039917 -0.032318115 -0.38076782 -0.06463623 -0.5744934 -0.09451294z" fill-rule="evenodd"/><path fill="#ffffff" d="m424.9718 195.47443l-0.6199341 1.9469757c-0.24249268 0.67012024 -0.34326172 1.3235931 -0.48406982 2.0064087l-0.44644165 1.9737396l-0.24404907 2.0434113c-0.07144165 0.6935272 -0.20690918 1.3416595 -0.20892334 2.0458832l-0.068115234 2.035019c-0.1027832 1.3577118 0.10870361 2.7313232 0.14715576 4.0752716l3.0376587 -0.27163696c-0.04916382 -1.2745667 -0.24734497 -2.5040283 -0.16015625 -3.7605286l0.046691895 -1.8962402c-0.008666992 -0.63482666 0.15615845 -1.2429047 0.21731567 -1.8699341l0.21731567 -1.8699188l0.3907776 -1.8431854c0.16482544 -0.608078 0.2602234 -1.2268524 0.4573059 -1.8329163l0.59072876 -1.776825l-2.8732605 -1.0055237z" fill-rule="evenodd"/><path fill="#ffffff" d="m483.4679 177.00386l-1.7558899 2.479309c4.0615234 2.9175415 7.491699 6.72348 9.95163 11.119858l2.6287842 -1.4980621c-2.6521912 -4.7427826 -6.381195 -8.914505 -10.824524 -12.101105z" fill-rule="evenodd"/><path fill="#ffffff" d="m500.42355 199.84816l-2.6288147 1.4980621l3.8322144 6.6890564c-0.01071167 0.06939697 0.01864624 0.109451294 0.04800415 0.14949036c0.029785156 0.03715515 0.05911255 0.07720947 0.093811035 0.08256531l3.8268738 6.7237396l2.6288147 -1.4980621l-3.8806458 -6.8356476l-3.9202576 -6.809204z" fill-rule="evenodd"/><path fill="#ffffff" d="m514.3209 224.2308l-2.6287842 1.4980621l7.8009033 13.644852l2.6287842 -1.4980621l-7.8009033 -13.644852z" fill-rule="evenodd"/><path fill="#ffffff" d="m528.26373 248.5494l-2.6341553 1.5327759l3.9206543 6.8062897l3.880188 6.838562l2.6288452 -1.4980774l-3.880188 -6.8385468c0 0 0 0 -0.029785156 -0.03715515l-3.885559 -6.8038483z" fill-rule="evenodd"/><path fill="#ffffff" d="m463.74203 172.83424l0 0z" fill-rule="evenodd"/><path fill="#000000" fill-opacity="0.0" d="m463.74203 172.83424l0 0z" fill-rule="evenodd"/><path fill="#ffffff" d="m542.1611 272.93204l-2.6341553 1.5327759l7.8009033 13.644836l2.6341553 -1.5327454l-7.8009033 -13.644867z" fill-rule="evenodd"/><path fill="#ffffff" d="m571.6162 319.83685l-1.9450684 2.3435364c4.1869507 3.4667969 9.109863 6.058319 14.383972 7.5050964l0.8006592 -2.907837c-4.865967 -1.3483276 -9.396301 -3.7401733 -13.239563 -6.940796z" fill-rule="evenodd"/><path fill="#ffffff" d="m629.1365 304.5282c-1.8850098 4.679596 -4.7598877 8.925293 -8.429932 12.376434l2.095459 2.19104c3.9630737 -3.7582092 7.1070557 -8.385742 9.119385 -13.430511l-2.784912 -1.1369629z" fill-rule="evenodd"/><path fill="#ffffff" d="m631.9138 277.14883l-2.7893066 1.1565857l0.6813965 1.7627869c0.22998047 0.56240845 0.3423462 1.2161865 0.5322876 1.8079224l0.49719238 1.8054504c0.115234375 0.61572266 0.19866943 1.2265625 0.31341553 1.8452148c0.11810303 0.6161804 0.23291016 1.2348022 0.31097412 1.8803406l0.13458252 1.8531494c0.12634277 1.2539062 0.07141113 2.5124207 0.018920898 3.7742615l3.043335 0.15255737c0.03338623 -1.3684082 0.10479736 -2.7339172 -0.040649414 -4.094391l-0.14251709 -2.0319824c-0.07269287 -0.6802063 -0.2119751 -1.370697 -0.3242798 -2.024475c-0.10449219 -0.68515015 -0.21191406 -1.3707275 -0.35650635 -2.0265198l-0.5402832 -1.9867249c-0.21887207 -0.6347046 -0.32336426 -1.3198242 -0.5773926 -1.9569702l-0.76116943 -1.9172058z" fill-rule="evenodd"/><path fill="#ffffff" d="m618.245 252.41663l-2.6288452 1.4980621l7.8013306 13.6419525l2.628357 -1.4951782l-7.8008423 -13.644836z" fill-rule="evenodd"/><path fill="#ffffff" d="m590.4395 203.72073l-2.6288452 1.4980621l7.7662354 13.639511l2.6635132 -1.4927216l-7.8009033 -13.644852z" fill-rule="evenodd"/><path fill="#ffffff" d="m562.5753 154.94475l-2.6341553 1.5327759l7.8009033 13.644836l2.6341553 -1.5327606l-7.8009033 -13.644852z" fill-rule="evenodd"/><path fill="#ffffff" d="m603.96985 326.4836l-0.0053100586 0.034698486z" fill-rule="evenodd"/><path fill="#ffffff" d="m529.5501 256.88818l0 0z" fill-rule="evenodd"/><path fill="#ffffff" d="m604.89496 329.62192l-0.07733154 -0.18954468z" fill-rule="evenodd"/><path fill="#ffffff" d="m610.9266 323.64304c-2.2287598 1.207489 -4.5324097 2.190277 -6.961853 2.8754272c-1.2156982 0.33944702 -2.4025269 0.7218323 -3.661377 0.8800049l-1.8451538 0.31341553c-0.61376953 0.082977295 -1.2481079 0.088775635 -1.8936768 0.1668396l0.24230957 2.9976196c0.6748657 -0.038024902 1.3493042 -0.073150635 2.0324097 -0.14544678l2.0265503 -0.35650635c1.3335571 -0.18215942 2.6611328 -0.57540894 3.9520874 -0.94174194c2.621399 -0.7591553 5.1435547 -1.8148193 7.5614014 -3.0967712l-1.4526978 -2.6928406z" fill-rule="evenodd"/><path fill="#ffffff" d="m604.3422 228.06868l-2.6688232 1.5274048l3.9206543 6.806305l3.8806763 6.835663l2.668396 -1.5245209l-3.920227 -6.809204l-3.8806763 -6.8356476z" fill-rule="evenodd"/><path fill="#ffffff" d="m576.4727 179.3274l-2.6312866 1.5332031l3.8884888 6.7658234c-0.0053710938 0.034698486 -0.0053710938 0.034698486 -0.0053710938 0.034698486c0.02935791 0.040039062 0.02935791 0.040039062 0.05871582 0.080093384l3.8562012 6.763794l2.6287842 -1.4980621l-3.880188 -6.8385468l-3.9153442 -6.8410034z" fill-rule="evenodd"/><path fill="#ffffff" d="m556.13324 297.29068l-2.6341553 1.5327759l3.8859863 6.800934c1.3404541 2.2877808 2.539734 4.5507812 3.949585 6.8492737l2.6047974 -1.572815c-1.3218384 -2.1783447 -2.6173706 -4.527252 -3.9255981 -6.7745056l-3.8806152 -6.835663z" fill-rule="evenodd"/><path fill="#ffffff" d="m560.2052 304.0165l-0.19152832 0.10958862z" fill-rule="evenodd"/><path fill="#ffffff" d="m716.8267 157.5511l-6.803406 3.8826447l-6.8410034 3.9153442l1.4981079 2.6288147l6.8410034 -3.9153442l6.838562 -3.8802032l-1.5332642 -2.631256z" fill-rule="evenodd"/><path fill="#ffffff" d="m653.9165 168.9589l-2.0976562 2.1809082c0.4885254 0.49864197 1.0249023 0.8981018 1.5505371 1.3669586c0.53930664 0.39990234 1.0249023 0.8981018 1.604248 1.2686615c1.1474609 0.7749176 2.2573242 1.5825195 3.4609375 2.223999c2.395996 1.3937225 4.999939 2.322174 7.6331177 3.08049l0.7659302 -2.9131775c-2.3902588 -0.7208557 -4.767761 -1.5433655 -6.894043 -2.8244324c-1.1473389 -0.5647278 -2.1242065 -1.3133392 -3.180725 -2.006134c-0.5152588 -0.3251648 -0.9715576 -0.78330994 -1.4414062 -1.1725159c-0.46166992 -0.4234619 -0.9711304 -0.7862091 -1.40094 -1.2047577z" fill-rule="evenodd"/><path fill="#ffffff" d="m625.2423 121.32792l-2.6259155 1.4985123l3.8773193 6.838089l3.9207153 6.806305l2.6287842 -1.4980621l-3.9206543 -6.806305l-3.880249 -6.838539z" fill-rule="evenodd"/><path fill="#ffffff" d="m566.4904 104.19876c-4.3234863 3.3503494 -7.8463745 7.6707916 -10.288391 12.5457l2.7131958 1.3715897c2.2423706 -4.482376 5.4990845 -8.459038 9.430847 -11.553055l-1.8556519 -2.364235z" fill-rule="evenodd"/><path fill="#ffffff" d="m593.9266 96.55045c-0.69348145 -0.07142639 -1.3445435 -0.20733643 -2.043396 -0.24406433l-2.0325928 -0.06476593c-1.3654785 -0.07143402 -2.730835 0.10581207 -4.114868 0.1736145c-0.6777344 0.037574768 -1.328186 0.14745331 -2.013794 0.25487518l-2.029358 0.35607147c-1.3149414 0.29159546 -2.6425781 0.684845 -3.9334717 1.0511856l0.92785645 2.8901901c1.2157593 -0.33945465 2.4318848 -0.68180084 3.642273 -0.986557l1.8456421 -0.31632233c0.61328125 -0.080085754 1.2294922 -0.19820404 1.8692017 -0.23868561c1.2432251 -0.05695343 2.5020142 -0.21511078 3.758545 -0.12792206l1.8615112 0.041358948c0.6295166 0.026023865 1.248291 0.12143707 1.8670654 0.21685791l0.39538574 -3.0058365z" fill-rule="evenodd"/><path fill="#ffffff" d="m606.18097 100.27542l-1.3662109 2.6785202c4.4369507 2.3064194 8.411194 5.559799 11.4627075 9.556007l2.4042969 -1.8849564c-3.3504028 -4.323517 -7.6658936 -7.878189 -12.500793 -10.349571z" fill-rule="evenodd"/><path fill="#ffffff" d="m639.17975 145.68121l-2.6259155 1.4985046l7.7980347 13.644409l2.6287842 -1.4980621l-7.8009033 -13.644852z" fill-rule="evenodd"/><path fill="#ffffff" d="m692.4788 171.45384c-1.1539917 0.630188 -2.2872925 1.3375854 -3.4016724 1.94133l-1.6796875 0.833313c-0.26672363 0.13648987 -0.54125977 0.3043213 -0.83740234 0.40075684l-0.866272 0.3578186l-1.7545776 0.64711c-0.5946045 0.18952942 -1.1814575 0.34770203 -1.810791 0.5318756c-1.1863403 0.37950134 -2.4022217 0.50875854 -3.637085 0.7416687l0.3864746 2.984314c1.3756104 -0.24375916 2.7355957 -0.38630676 4.0372314 -0.822052c0.6611328 -0.17927551 1.3198242 -0.32339478 1.9863281 -0.5373688l1.9094238 -0.7298126l0.975708 -0.37644958c0.30145264 -0.13113403 0.6077881 -0.29408264 0.91748047 -0.4594574l1.8365479 -0.94825745c1.1890869 -0.6277466 2.2770386 -1.2710876 3.4368286 -1.9388733l-1.4985352 -2.6259155z" fill-rule="evenodd"/><path fill="#ffffff" d="m529.5501 256.88818l0 0z" fill-rule="evenodd"/><path fill="#ffffff" d="m529.5501 256.88818l0 0z" fill-rule="evenodd"/><path fill="#000000" fill-opacity="0.0" d="m529.5501 256.88818l0 0z" fill-rule="evenodd"/><path fill="#ffffff" d="m300.5108 371.5335l0.058685303 0.080078125l0.005340576 -0.034698486l-0.06402588 -0.04537964z" fill-rule="evenodd"/><path fill="#ffffff" d="m302.01416 374.12753l0.029327393 0.040039062" fill-rule="evenodd"/><path fill="#000000" fill-opacity="0.0" d="m302.01416 374.12753l0.029327393 0.040039062" fill-rule="evenodd"/><path fill="#ffffff" d="m434.76147 381.09943l-0.0718689 0.02444458" fill-rule="evenodd"/><path fill="#000000" fill-opacity="0.0" d="m434.76147 381.09943l-0.0718689 0.02444458" fill-rule="evenodd"/><path fill="#ffffff" d="m463.99042 169.84135l0.005340576 -0.034698486" fill-rule="evenodd"/><path fill="#000000" fill-opacity="0.0" d="m463.99042 169.84135l0.005340576 -0.034698486" fill-rule="evenodd"/><path fill="#ffffff" d="m504.3436 206.65712l-0.07473755 0.024002075" fill-rule="evenodd"/><path fill="#000000" fill-opacity="0.0" d="m504.3436 206.65712l-0.07473755 0.024002075" fill-rule="evenodd"/><path fill="#ffffff" d="m566.4904 104.19876c-4.3234863 3.3503494 -7.8463745 7.6707916 -10.288391 12.5457l2.7131958 1.3715897c2.2423706 -4.482376 5.4990845 -8.459038 9.430847 -11.553055l-1.8556519 -2.364235z" fill-rule="evenodd"/><path fill="#ffffff" d="m606.18097 100.27542l-1.3662109 2.6785202c4.4369507 2.3064194 8.411194 5.559799 11.4627075 9.556007l2.4042969 -1.8849564c-3.3504028 -4.323517 -7.6658936 -7.878189 -12.500793 -10.349571z" fill-rule="evenodd"/><path fill="#ffffff" d="m639.1397 145.71056l-2.6259155 1.4985046l7.7633057 13.639053l2.6635132 -1.4927063l-7.8009033 -13.644852z" fill-rule="evenodd"/><path fill="#ffffff" d="m653.9219 168.92421l-2.1030273 2.2155914c0.4885254 0.49864197 1.0249023 0.8981018 1.5505371 1.3669586c0.53930664 0.39990234 1.0249023 0.8981018 1.604248 1.2686615c1.1474609 0.7749176 2.2573242 1.5825195 3.4609375 2.223999c2.395996 1.3937225 4.999939 2.322174 7.6331177 3.08049l0.7659302 -2.9131775c-2.3902588 -0.7208557 -4.767761 -1.5433655 -6.894043 -2.8244324c-1.1473389 -0.5647278 -2.1242065 -1.3133392 -3.180725 -2.006134c-0.5152588 -0.3251648 -0.9715576 -0.78330994 -1.4414062 -1.1725159c-0.46166992 -0.4234619 -0.9711304 -0.78619385 -1.3955688 -1.2394409z" fill-rule="evenodd"/><path fill="#ffffff" d="m692.4788 171.45384c-1.1539917 0.630188 -2.2872925 1.3375854 -3.4016724 1.94133l-1.6796875 0.833313c-0.26672363 0.13648987 -0.54125977 0.3043213 -0.83740234 0.40075684l-0.866272 0.3578186l-1.7545776 0.64711c-0.5946045 0.18952942 -1.1814575 0.34770203 -1.810791 0.5318756c-1.1863403 0.37950134 -2.4022217 0.50875854 -3.637085 0.7416687l0.3864746 2.984314c1.3756104 -0.24375916 2.7355957 -0.38630676 4.0372314 -0.822052c0.6611328 -0.17927551 1.3198242 -0.32339478 1.9863281 -0.5373688l1.9094238 -0.7298126l0.975708 -0.37644958c0.30145264 -0.13113403 0.6077881 -0.29408264 0.91748047 -0.4594574l1.8365479 -0.94825745c1.1890869 -0.6277466 2.2770386 -1.2710876 3.4368286 -1.9388733l-1.4985352 -2.6259155z" fill-rule="evenodd"/><path fill="#ffffff" d="m585.76196 96.454765l-0.026489258 -0.039604187z" fill-rule="evenodd"/><path fill="#ffffff" d="m586.0438 99.42582l0.0053710938 -0.034698486" fill-rule="evenodd"/><path fill="#000000" fill-opacity="0.0" d="m586.0438 99.42582l0.0053710938 -0.034698486" fill-rule="evenodd"/><path fill="#ffffff" d="m555.5874 129.40747l-3.0115967 -0.35783386c-0.34484863 2.6968842 -0.3104248 5.4493103 -0.06048584 8.16687c0.14208984 1.3628998 0.42877197 2.7096252 0.6456299 4.048538c0.3585205 1.3222656 0.6848755 2.6425323 1.1176758 3.943695l2.8641968 -0.97036743c-0.41418457 -1.1917267 -0.682251 -2.4290009 -1.0299683 -3.6104584c-0.19281006 -1.2641754 -0.46575928 -2.469635 -0.5892334 -3.7230988c-0.21264648 -2.4986725 -0.28363037 -5.0139923 0.06378174 -7.497345z" fill-rule="evenodd"/><path fill="#ffffff" d="m498.40265 344.60162l-2.6634827 1.4927368c0.6731262 1.125061 1.3404541 2.2877502 1.8748169 3.3914185l0.833313 1.6796875c0.30477905 0.5383911 0.4624939 1.1281128 0.69207764 1.6934204c0.034698486 0.005340576 0.029785156 0.037139893 0.02444458 0.07183838c0.02645874 0.039611816 0.021087646 0.0743103 0.055786133 0.07965088l0.62802124 1.6480103c0.18954468 0.594635 0.3423462 1.2161865 0.52697754 1.8426208c0.15484619 0.58929443 0.34481812 1.1810303 0.4624939 1.8001099l0.31341553 1.8451843l2.9979248 -0.4553833l-0.32473755 -2.0216064c-0.17880249 -0.664032 -0.35809326 -1.3251648 -0.5402527 -1.9867249c-0.17883301 -0.664032 -0.32339478 -1.3198242 -0.5427246 -1.9516296l-0.7293701 -1.9122925c-0.2886963 -0.6424866 -0.46798706 -1.3036194 -0.79629517 -1.9196777l-0.9189148 -1.7964783c-0.5823364 -1.2531738 -1.2550354 -2.381134 -1.8934937 -3.500885z" fill-rule="evenodd"/><path fill="#b2e7ef" d="m685.1627 233.31042l-31.414307 17.306824l0 2.0667114l31.414307 17.316742l31.414001 -17.316742l0 -2.0667114l-31.414001 -17.306824z" fill-rule="evenodd"/><path fill="#64cbd2" d="m685.1627 207.3134c-1.6189575 0 -3.237976 0.3401947 -4.4643555 1.0208893c-1.0879517 0.5975189 -1.6932373 1.3713074 -1.8165894 2.1549835l-9.913818 38.081085c-1.1697388 2.9479828 0.31835938 6.160797 4.4539795 8.442795c3.2276611 1.777832 7.48407 2.666626 11.740784 2.666626c4.2564697 0 8.512878 -0.88879395 11.74054 -2.666626c4.135559 -2.2819977 5.6237183 -5.494812 4.4539795 -8.442795l-9.913818 -38.081085c-0.12335205 -0.78367615 -0.7286377 -1.5574646 -1.8165894 -2.1549835c-1.2263794 -0.6806946 -2.845398 -1.0208893 -4.4641113 -1.0208893z" fill-rule="evenodd"/><path fill="#92e1e6" d="m653.7484 250.61725l0 2.0667114l31.414307 17.316742l0 -2.0667114l-31.414307 -17.316742z" fill-rule="evenodd"/><path fill="#64cbd2" d="m716.5767 250.61725l-31.414001 17.316742l0 2.0667114l31.414001 -17.316742l0 -2.0667114z" fill-rule="evenodd"/><path fill="#b2e7ef" d="m685.1627 207.3134c-1.6189575 0 -3.237976 0.3401947 -4.4643555 1.0208893c-2.4527588 1.3517761 -2.4527588 3.5653229 0 4.917099c1.2263794 0.67559814 2.845398 1.0136871 4.4643555 1.0136871c1.6187134 0 3.237732 -0.338089 4.4641113 -1.0136871c2.4526978 -1.3517761 2.4526978 -3.5653229 0 -4.917099c-1.2263794 -0.6806946 -2.845398 -1.0208893 -4.4641113 -1.0208893z" fill-rule="evenodd"/><path fill="#5cadbd" d="m685.1627 208.70421c-0.96990967 0 -1.9398804 0.20327759 -2.6785889 0.60954285c-1.4677124 0.81311035 -1.4677124 2.1354675 0 2.9482727c0.7387085 0.40655518 1.7086792 0.60983276 2.6785889 0.60983276c0.9696655 0 1.9396362 -0.20327759 2.6783447 -0.60983276c1.4676514 -0.8128052 1.4676514 -2.1351624 0 -2.9482727c-0.7387085 -0.40626526 -1.7086792 -0.60954285 -2.6783447 -0.60954285z" fill-rule="evenodd"/><path fill="#e4ff63" d="m674.8179 226.11163l-3.3764038 12.95813c0.6464844 0.6855011 1.4368286 1.322052 2.3602295 1.909668c3.125061 1.9835358 7.243042 2.975296 11.361023 2.975296c4.117737 0 8.235718 -0.99176025 11.360779 -2.975296c0.92370605 -0.58761597 1.7136841 -1.2241669 2.3602295 -1.909668l-3.3764648 -12.95813c-0.42059326 0.34259033 -0.8928833 0.6560669 -1.4365234 0.9596405c-2.4476929 1.3466797 -5.6778564 2.0201569 -8.90802 2.0201569c-3.2304688 0 -6.4605713 -0.6734772 -8.907959 -2.0201569c-0.54400635 -0.3035736 -1.0162354 -0.6170502 -1.4368896 -0.9596405z" fill-rule="evenodd"/><path fill="#b2e7ef" d="m558.0866 374.85635l-31.414307 17.306824l0 2.0667114l31.414307 17.316742l31.414001 -17.316742l0 -2.0667114l-31.414001 -17.306824z" fill-rule="evenodd"/><path fill="#64cbd2" d="m558.0866 348.85934c-1.6189575 0 -3.237976 0.34017944 -4.4643555 1.020874c-1.0879517 0.5975342 -1.6932983 1.3713074 -1.8165894 2.1549988l-9.913818 38.081085c-1.1697388 2.9479675 0.31835938 6.1607666 4.4539795 8.44278c3.2276611 1.777832 7.48407 2.666626 11.740784 2.666626c4.2564697 0 8.512878 -0.88879395 11.74054 -2.666626c4.135559 -2.282013 5.6237183 -5.494812 4.4539795 -8.44278l-9.913818 -38.081085c-0.12335205 -0.7836914 -0.72869873 -1.5574646 -1.8165894 -2.1549988c-1.2263794 -0.6806946 -2.845398 -1.020874 -4.4641113 -1.020874z" fill-rule="evenodd"/><path fill="#92e1e6" d="m526.6723 392.16318l0 2.0667114l31.414307 17.316742l0 -2.0667114l-31.414307 -17.316742z" fill-rule="evenodd"/><path fill="#64cbd2" d="m589.5006 392.16318l-31.414001 17.316742l0 2.0667114l31.414001 -17.316742l0 -2.0667114z" fill-rule="evenodd"/><path fill="#b2e7ef" d="m558.0866 348.85934c-1.6189575 0 -3.237976 0.34017944 -4.4643555 1.020874c-2.4527588 1.3517761 -2.4527588 3.5653076 0 4.9171143c1.2263794 0.6755676 2.845398 1.0136719 4.4643555 1.0136719c1.6187134 0 3.237732 -0.33810425 4.4641113 -1.0136719c2.4526978 -1.3518066 2.4526978 -3.5653381 0 -4.9171143c-1.2263794 -0.6806946 -2.845398 -1.020874 -4.4641113 -1.020874z" fill-rule="evenodd"/><path fill="#5cadbd" d="m558.0866 350.25015c-0.96990967 0 -1.9398804 0.20327759 -2.6785889 0.6095276c-1.4677124 0.81311035 -1.4677124 2.1354675 0 2.9482727c0.7387085 0.40655518 1.7086792 0.60983276 2.6785889 0.60983276c0.9696655 0 1.9396362 -0.20327759 2.6783447 -0.60983276c1.4676514 -0.8128052 1.4676514 -2.1351624 0 -2.9482727c-0.7387085 -0.40625 -1.7086792 -0.6095276 -2.6783447 -0.6095276z" fill-rule="evenodd"/><path fill="#e4ff63" d="m547.74176 367.65756l-3.3764648 12.95813c0.6465454 0.68548584 1.4368896 1.322052 2.3602905 1.909668c3.125061 1.9835205 7.243042 2.9753113 11.361023 2.9753113c4.117676 0 8.235718 -0.9917908 11.360779 -2.9753113c0.92370605 -0.58761597 1.7136841 -1.2241821 2.3602295 -1.909668l-3.3764648 -12.95813c-0.42059326 0.34259033 -0.8928833 0.6560669 -1.4365234 0.95962524c-2.4476929 1.3466797 -5.6778564 2.020172 -8.90802 2.020172c-3.2304688 0 -6.4605713 -0.67349243 -8.907959 -2.020172c-0.54400635 -0.30355835 -1.0162354 -0.6170349 -1.4368896 -0.95962524z" fill-rule="evenodd"/><path fill="#b2e7ef" d="m495.25723 110.85635l-31.414307 17.306824l0 2.0667114l31.414307 17.316742l31.41397 -17.316742l0 -2.0667114l-31.41397 -17.306824z" fill-rule="evenodd"/><path fill="#64cbd2" d="m495.25723 84.85933c-1.6190186 0 -3.2380066 0.34020233 -4.464386 1.0208969c-1.0879517 0.5975189 -1.6932678 1.3712921 -1.8165894 2.1549835l-9.913818 38.081085c-1.1697388 2.9479752 0.3183899 6.1607895 4.4539795 8.442772c3.2276611 1.7778625 7.48407 2.6666412 11.740814 2.6666412c4.256439 0 8.512848 -0.8887787 11.7404785 -2.6666412c4.13562 -2.2819824 5.623749 -5.4947968 4.45401 -8.442772l-9.913818 -38.081085c-0.12335205 -0.7836914 -0.7286682 -1.5574646 -1.8165894 -2.1549835c-1.2263794 -0.6806946 -2.845398 -1.0208969 -4.464081 -1.0208969z" fill-rule="evenodd"/><path fill="#92e1e6" d="m463.84293 128.16318l0 2.0667114l31.414307 17.316742l0 -2.0667114l-31.414307 -17.316742z" fill-rule="evenodd"/><path fill="#64cbd2" d="m526.6712 128.16318l-31.41397 17.316742l0 2.0667114l31.41397 -17.316742l0 -2.0667114z" fill-rule="evenodd"/><path fill="#b2e7ef" d="m495.25723 84.85933c-1.6190186 0 -3.2380066 0.34020233 -4.464386 1.0208969c-2.4527283 1.3517761 -2.4527283 3.5653152 0 4.9170914c1.2263794 0.6755905 2.8453674 1.0136871 4.464386 1.0136871c1.6186829 0 3.2377014 -0.33809662 4.464081 -1.0136871c2.4527283 -1.3517761 2.4527283 -3.5653152 0 -4.9170914c-1.2263794 -0.6806946 -2.845398 -1.0208969 -4.464081 -1.0208969z" fill-rule="evenodd"/><path fill="#5cadbd" d="m495.25723 86.250145c-0.9699707 0 -1.9399109 0.20327759 -2.6786194 0.6095352c-1.4676819 0.81311035 -1.4676819 2.1354675 0 2.9482727c0.7387085 0.40655518 1.7086487 0.60983276 2.6786194 0.60983276c0.969635 0 1.9396057 -0.20327759 2.6783142 -0.60983276c1.4676819 -0.8128052 1.4676819 -2.1351624 0 -2.9482727c-0.7387085 -0.40625763 -1.7086792 -0.6095352 -2.6783142 -0.6095352z" fill-rule="evenodd"/><path fill="#e4ff63" d="m484.91238 103.65756l-3.3764648 12.95813c0.6465454 0.68549347 1.4368591 1.322052 2.36026 1.909668c3.125061 1.9835358 7.2430725 2.975296 11.361053 2.975296c4.117676 0 8.235687 -0.99176025 11.360748 -2.975296c0.92370605 -0.58761597 1.7137146 -1.2241745 2.3602295 -1.909668l-3.3764343 -12.95813c-0.4206543 0.34259796 -0.8928833 0.6560745 -1.4365234 0.9596405c-2.4477234 1.346672 -5.6778564 2.0201645 -8.90802 2.0201645c-3.2304688 0 -6.4606323 -0.67349243 -8.90802 -2.0201645c-0.5439453 -0.30356598 -1.0162048 -0.61704254 -1.4368286 -0.9596405z" fill-rule="evenodd"/></g></svg>