<svg width="2484" height="1174" xmlns="http://www.w3.org/2000/svg" xmlns:xlink="http://www.w3.org/1999/xlink" xml:space="preserve" overflow="hidden"><g transform="translate(-866 -540)"><g><path d="M2343.45 770C2387.99 770 2423.99 733.693 2423.99 689.005 2423.99 644.316 2387.99 608 2343.45 608 2299.01 608 2263 644.316 2263 689.005 2263 733.693 2299.01 770 2343.45 770Z" fill="#97CDD3" fill-rule="evenodd" fill-opacity="1"/><path d="M1759.95 1353C1804.77 1353 1840.99 1316.69 1840.99 1272 1840.99 1227.32 1804.77 1191 1759.95 1191 1715.23 1191 1679 1227.32 1679 1272 1679 1316.69 1715.23 1353 1759.95 1353Z" fill="#019CA6" fill-rule="evenodd" fill-opacity="1"/><path d="M2051.95 1645C2096.77 1645 2132.99 1608.69 2132.99 1564 2132.99 1519.32 2096.77 1483 2051.95 1483 2007.23 1483 1971 1519.32 1971 1564 1971 1608.69 2007.23 1645 2051.95 1645Z" fill="#213144" fill-rule="evenodd" fill-opacity="1"/><path d="M2634.95 1062C2679.77 1062 2715.99 1025.69 2715.99 981.004 2715.99 936.316 2679.77 900 2634.95 900 2590.23 900 2554 936.316 2554 981.004 2554 1025.69 2590.23 1062 2634.95 1062Z" fill="#EFFF40" fill-rule="evenodd" fill-opacity="1"/><path d="M2780.98 1126.56 2489.3 1418.24 2197.61 1126.56 2489.3 834.876Z" fill="#EFFF40" fill-rule="nonzero" fill-opacity="1"/><path d="M2489.3 1418.24 2197.61 1709.92 1905.93 1418.24 2197.61 1126.56Z" fill="#213144" fill-rule="nonzero" fill-opacity="1"/><path d="M2197.61 1126.56 1905.93 1418.24 1614.25 1126.56 1905.93 834.876Z" fill="#019CA6" fill-rule="nonzero" fill-opacity="1"/><path d="M2489.3 834.876 2197.61 1126.56 1905.93 834.876 2197.61 543.195Z" fill="#97CDD3" fill-rule="nonzero" fill-opacity="1"/><path d="M2632.95 1351C2677.77 1351 2713.99 1314.69 2713.99 1270 2713.99 1225.32 2677.77 1189 2632.95 1189 2588.23 1189 2552 1225.32 2552 1270 2552 1314.69 2588.23 1351 2632.95 1351Z" fill="#EFFF40" fill-rule="evenodd" fill-opacity="1"/><path d="M2341.45 1643C2385.99 1643 2421.99 1606.69 2421.99 1562 2421.99 1517.32 2385.99 1481 2341.45 1481 2297.01 1481 2261 1517.32 2261 1562 2261 1606.69 2297.01 1643 2341.45 1643Z" fill="#213144" fill-rule="evenodd" fill-opacity="1"/><path d="M2058.45 777C2102.99 777 2138.99 740.693 2138.99 696.004 2138.99 651.316 2102.99 615 2058.45 615 2014.01 615 1978 651.316 1978 696.004 1978 740.693 2014.01 777 2058.45 777Z" fill="#97CDD3" fill-rule="evenodd" fill-opacity="1"/><path d="M1766.95 1068C1811.77 1068 1847.99 1031.69 1847.99 987.005 1847.99 942.316 1811.77 906 1766.95 906 1722.23 906 1686 942.316 1686 987.005 1686 1031.69 1722.23 1068 1766.95 1068Z" fill="#019CA6" fill-rule="evenodd" fill-opacity="1"/><path d="M2633.06 1343C2672.71 1343 2704.99 1310.6 2704.99 1270.56 2704.99 1230.51 2672.71 1198.01 2633.06 1198.01 2593.29 1198.01 2561.01 1230.51 2561.01 1270.56 2561.01 1310.6 2593.29 1343 2633.06 1343Z" fill="#FFFFFF" fill-rule="evenodd" fill-opacity="1"/><path d="M1768 1062C1808.91 1062 1841.99 1028.92 1841.99 987.995 1841.99 947.187 1808.91 914 1768 914 1727.18 914 1694 947.187 1694 987.995 1694 1028.92 1727.18 1062 1768 1062Z" fill="#FFFFFF" fill-rule="evenodd" fill-opacity="1"/><path d="M2348.45 1358C2392.99 1358 2428.99 1321.69 2428.99 1277 2428.99 1232.32 2392.99 1196 2348.45 1196 2304.01 1196 2268 1232.32 2268 1277 2268 1321.69 2304.01 1358 2348.45 1358Z" fill="#213144" fill-rule="evenodd" fill-opacity="1"/><path d="M2337.95 1063C2382.77 1063 2418.99 1026.69 2418.99 982.004 2418.99 937.316 2382.77 901 2337.95 901 2293.23 901 2257 937.316 2257 982.004 2257 1026.69 2293.23 1063 2337.95 1063Z" fill="#EFFF40" fill-rule="evenodd" fill-opacity="1"/><path d="M2050.45 1073C2094.99 1073 2130.99 1036.69 2130.99 992.004 2130.99 947.316 2094.99 911 2050.45 911 2006.01 911 1970 947.316 1970 992.004 1970 1036.69 2006.01 1073 2050.45 1073Z" fill="#97CDD3" fill-rule="evenodd" fill-opacity="1"/><path d="M2053.95 1355C2098.77 1355 2134.99 1318.69 2134.99 1274 2134.99 1229.32 2098.77 1193 2053.95 1193 2009.23 1193 1973 1229.32 1973 1274 1973 1318.69 2009.23 1355 2053.95 1355Z" fill="#019CA6" fill-rule="evenodd" fill-opacity="1"/><text fill="#000000" fill-opacity="1" font-family="Roboto,Roboto_MSFontService,sans-serif" font-style="normal" font-variant="normal" font-weight="400" font-stretch="normal" font-size="92" text-anchor="start" direction="ltr" writing-mode="lr-tb" unicode-bidi="normal" text-decoration="none" transform="matrix(1 0 0 1 2869.57 785)">Pathfinder</text><text fill="#000000" fill-opacity="1" font-family="Roboto,Roboto_MSFontService,sans-serif" font-style="normal" font-variant="normal" font-weight="400" font-stretch="normal" font-size="55" text-anchor="start" direction="ltr" writing-mode="lr-tb" unicode-bidi="normal" text-decoration="none" transform="matrix(1 0 0 1 2844.94 860)">Explore new paths </text><text fill="#000000" fill-opacity="1" font-family="Roboto,Roboto_MSFontService,sans-serif" font-style="normal" font-variant="normal" font-weight="400" font-stretch="normal" font-size="55" text-anchor="start" direction="ltr" writing-mode="lr-tb" unicode-bidi="normal" text-decoration="none" transform="matrix(1 0 0 1 2811.71 926)">with what you know</text><text fill="#000000" fill-opacity="1" font-family="Roboto,Roboto_MSFontService,sans-serif" font-style="normal" font-variant="normal" font-weight="400" font-stretch="normal" font-size="92" text-anchor="start" direction="ltr" writing-mode="lr-tb" unicode-bidi="normal" text-decoration="none" transform="matrix(1 0 0 1 2909.67 1371)">Loonshot</text><text fill="#000000" fill-opacity="1" font-family="Roboto,Roboto_MSFontService,sans-serif" font-style="normal" font-variant="normal" font-weight="400" font-stretch="normal" font-size="55" text-anchor="start" direction="ltr" writing-mode="lr-tb" unicode-bidi="normal" text-decoration="none" transform="matrix(1 0 0 1 2755.56 1446)">Nurture the </text><text fill="#000000" fill-opacity="1" font-family="Roboto,Roboto_MSFontService,sans-serif" font-style="normal" font-variant="normal" font-weight="400" font-stretch="normal" font-size="55" text-anchor="start" direction="ltr" writing-mode="lr-tb" unicode-bidi="normal" text-decoration="none" transform="matrix(1 0 0 1 3044.88 1446)">cracy</text><text fill="#000000" fill-opacity="1" font-family="Roboto,Roboto_MSFontService,sans-serif" font-style="normal" font-variant="normal" font-weight="400" font-stretch="normal" font-size="55" text-anchor="start" direction="ltr" writing-mode="lr-tb" unicode-bidi="normal" text-decoration="none" transform="matrix(1 0 0 1 3190.4 1446)">idea</text><text fill="#000000" fill-opacity="1" font-family="Roboto,Roboto_MSFontService,sans-serif" font-style="normal" font-variant="normal" font-weight="400" font-stretch="normal" font-size="92" text-anchor="start" direction="ltr" writing-mode="lr-tb" unicode-bidi="normal" text-decoration="none" transform="matrix(1 0 0 1 923.999 819)">Earthwalks</text><text fill="#000000" fill-opacity="1" font-family="Roboto,Roboto_MSFontService,sans-serif" font-style="normal" font-variant="normal" font-weight="400" font-stretch="normal" font-size="55" text-anchor="start" direction="ltr" writing-mode="lr-tb" unicode-bidi="normal" text-decoration="none" transform="matrix(1 0 0 1 923.999 894)">Improve what already </text><text fill="#000000" fill-opacity="1" font-family="Roboto,Roboto_MSFontService,sans-serif" font-style="normal" font-variant="normal" font-weight="400" font-stretch="normal" font-size="55" text-anchor="start" direction="ltr" writing-mode="lr-tb" unicode-bidi="normal" text-decoration="none" transform="matrix(1 0 0 1 923.999 960)">works</text><text fill="#000000" fill-opacity="1" font-family="Roboto,Roboto_MSFontService,sans-serif" font-style="normal" font-variant="normal" font-weight="400" font-stretch="normal" font-size="92" text-anchor="start" direction="ltr" writing-mode="lr-tb" unicode-bidi="normal" text-decoration="none" transform="matrix(1 0 0 1 923.999 1458)">Moonshot</text><text fill="#000000" fill-opacity="1" font-family="Roboto,Roboto_MSFontService,sans-serif" font-style="normal" font-variant="normal" font-weight="400" font-stretch="normal" font-size="55" text-anchor="start" direction="ltr" writing-mode="lr-tb" unicode-bidi="normal" text-decoration="none" transform="matrix(1 0 0 1 923.999 1533)">Aim</text><text fill="#000000" fill-opacity="1" font-family="Roboto,Roboto_MSFontService,sans-serif" font-style="normal" font-variant="normal" font-weight="400" font-stretch="normal" font-size="55" text-anchor="start" direction="ltr" writing-mode="lr-tb" unicode-bidi="normal" text-decoration="none" transform="matrix(1 0 0 1 1035.14 1533)">high </text><text fill="#000000" fill-opacity="1" font-family="Roboto,Roboto_MSFontService,sans-serif" font-style="normal" font-variant="normal" font-weight="400" font-stretch="normal" font-size="55" text-anchor="start" direction="ltr" writing-mode="lr-tb" unicode-bidi="normal" text-decoration="none" transform="matrix(1 0 0 1 1153.74 1533)">within</text><text fill="#000000" fill-opacity="1" font-family="Roboto,Roboto_MSFontService,sans-serif" font-style="normal" font-variant="normal" font-weight="400" font-stretch="normal" font-size="55" text-anchor="start" direction="ltr" writing-mode="lr-tb" unicode-bidi="normal" text-decoration="none" transform="matrix(1 0 0 1 1313.58 1533)">the</text><text fill="#000000" fill-opacity="1" font-family="Roboto,Roboto_MSFontService,sans-serif" font-style="normal" font-variant="normal" font-weight="400" font-stretch="normal" font-size="55" text-anchor="start" direction="ltr" writing-mode="lr-tb" unicode-bidi="normal" text-decoration="none" transform="matrix(1 0 0 1 1404.68 1533)">known</text><path d="M2342.56 761C2382.49 761 2414.99 728.599 2414.99 688.559 2414.99 648.51 2382.49 616.009 2342.56 616.009 2302.51 616.009 2270.01 648.51 2270.01 688.559 2270.01 728.599 2302.51 761 2342.56 761Z" fill="#FFFFFF" fill-rule="evenodd" fill-opacity="1"/><path d="M2051 1638C2091.91 1638 2124.99 1604.92 2124.99 1564 2124.99 1523.19 2091.91 1490 2051 1490 2010.18 1490 1977 1523.19 1977 1564 1977 1604.92 2010.18 1638 2051 1638Z" fill="#FFFFFF" fill-rule="evenodd" fill-opacity="1"/><path d="M925 981 1623.68 981" stroke="#019CA6" stroke-width="2.29167" stroke-linecap="butt" stroke-linejoin="miter" stroke-miterlimit="8" stroke-opacity="1" fill="none" fill-rule="evenodd"/><path d="M925 1570 1907.61 1570" stroke="#A2B547" stroke-width="2.29167" stroke-linecap="butt" stroke-linejoin="miter" stroke-miterlimit="8" stroke-opacity="1" fill="none" fill-rule="evenodd"/><path d="M2781 1274 3291.64 1274" stroke="#E4FE63" stroke-width="2.29167" stroke-linecap="butt" stroke-linejoin="miter" stroke-miterlimit="8" stroke-opacity="1" fill="none" fill-rule="evenodd"/><path d="M2489 683 3291.32 683" stroke="#97CDD3" stroke-width="2.29167" stroke-linecap="butt" stroke-linejoin="miter" stroke-miterlimit="8" stroke-opacity="1" fill="none" fill-rule="evenodd"/></g></g></svg>