<svg version="1.1" viewBox="0.0 0.0 729.6010498687664 374.3989501312336" fill="none" stroke="none" stroke-linecap="square" stroke-miterlimit="10" xmlns:xlink="http://www.w3.org/1999/xlink" xmlns="http://www.w3.org/2000/svg"><clipPath id="g31009d68617_0_0.0"><path d="m0 0l729.6011 0l0 374.39896l-729.6011 0l0 -374.39896z" clip-rule="nonzero"/></clipPath><g clip-path="url(#g31009d68617_0_0.0)"><path fill="#ffffff" d="m0 0l729.6011 0l0 374.39896l-729.6011 0z" fill-rule="evenodd"/><path fill="#209ca6" d="m357.91068 86.58273l-222.87912 224.9491l256.13577 -0.20870972l256.13333 0.20870972l-222.87912 -224.9491z" fill-rule="evenodd"/><path fill="#ffffff" d="m411.67548 86.58273l160.92322 224.9491l15.414429 0l-175.51016 -224.9491z" fill-rule="evenodd"/><path fill="#ffffff" d="m369.83463 86.58273l-175.51016 224.9491l15.416901 0l160.92325 -224.9491z" fill-rule="evenodd"/><path fill="#ffffff" d="m388.47766 143.56726l-1.8041077 31.124557l11.242096 0l-1.2723083 -31.124557z" fill-rule="evenodd"/><path fill="#ffffff" d="m381.96933 256.65164l-3.1658936 54.674835l24.735626 0l-2.2489014 -54.674835z" fill-rule="evenodd"/><path fill="#ffffff" d="m385.6969 191.7945l-2.4552002 42.369156l17.131561 0l-1.7469482 -42.369156z" fill-rule="evenodd"/><path fill="#ffffff" d="m390.60733 106.435745l-1.2698364 22.158691l6.6846313 0l-0.91696167 -22.158691z" fill-rule="evenodd"/><path fill="#000000" fill-opacity="0.0" d="m57.631363 180.22072l165.25984 0l0 37.66928l-165.25984 0z" fill-rule="evenodd"/><path fill="#434343" d="m184.35518 189.86598l-2.5625 0l0 5.109375l-2.3125 0l0 -13.265625l4.671875 0q2.296875 0 3.53125 1.03125q1.25 1.03125 1.25 2.984375q0 1.328125 -0.640625 2.234375q-0.640625 0.890625 -1.78125 1.375l2.96875 5.515625l0 0.125l-2.46875 0l-2.65625 -5.109375zm-2.5625 -1.84375l2.359375 0q1.171875 0 1.828125 -0.59375q0.65625 -0.59375 0.65625 -1.609375q0 -1.0625 -0.609375 -1.640625q-0.609375 -0.59375 -1.8125 -0.609375l-2.421875 0l0 4.453125zm8.766937 3.375q0 -0.921875 0.5 -1.6875q0.5 -0.78125 1.984375 -1.828125q-0.78125 -0.984375 -1.09375 -1.65625q-0.296875 -0.6875 -0.296875 -1.328125q0 -1.5625 0.9375 -2.46875q0.953125 -0.90625 2.5625 -0.90625q1.453125 0 2.375 0.859375q0.921875 0.859375 0.921875 2.109375q0 0.828125 -0.421875 1.53125q-0.421875 0.6875 -1.375 1.390625l-0.90625 0.640625l2.5625 3.03125q0.5625 -1.09375 0.5625 -2.4375l1.921875 0q0 2.453125 -1.15625 4.015625l1.953125 2.3125l-2.5625 0l-0.75 -0.890625q-1.421875 1.078125 -3.390625 1.078125q-1.96875 0 -3.15625 -1.046875q-1.171875 -1.046875 -1.171875 -2.71875zm4.390625 2.0q1.125 0 2.09375 -0.75l-2.890625 -3.421875l-0.28125 0.203125q-1.09375 0.828125 -1.09375 1.890625q0 0.921875 0.59375 1.5q0.59375 0.578125 1.578125 0.578125zm-1.21875 -8.546875q0 0.765625 0.9375 1.921875l1.015625 -0.703125l0.28125 -0.21875q0.5625 -0.5 0.5625 -1.28125q0 -0.53125 -0.390625 -0.890625q-0.390625 -0.375 -1.0 -0.375q-0.640625 0 -1.03125 0.4375q-0.375 0.4375 -0.375 1.109375zm9.314957 10.125l0 -13.265625l3.921875 0q1.75 0 3.109375 0.78125q1.375 0.78125 2.109375 2.234375q0.75 1.4375 0.75 3.296875l0 0.65625q0 1.890625 -0.75 3.328125q-0.75 1.421875 -2.140625 2.203125q-1.390625 0.765625 -3.171875 0.765625l-3.828125 0zm2.3125 -11.40625l0 9.5625l1.5 0q1.8125 0 2.78125 -1.125q0.96875 -1.140625 0.984375 -3.265625l0 -0.734375q0 -2.15625 -0.9375 -3.296875q-0.9375 -1.140625 -2.71875 -1.140625l-1.609375 0z" fill-rule="nonzero"/><path fill="#434343" d="m104.173386 211.86598l-2.5625 0l0 5.109375l-2.3125 0l0 -13.265625l4.671875 0q2.296875 0 3.53125 1.03125q1.25 1.03125 1.25 2.984375q0 1.328125 -0.640625 2.234375q-0.640625 0.890625 -1.78125 1.375l2.96875 5.515625l0 0.125l-2.46875 0l-2.65625 -5.109375zm-2.5625 -1.84375l2.359375 0q1.171875 0 1.828125 -0.59375q0.65625 -0.59375 0.65625 -1.609375q0 -1.0625 -0.609375 -1.640625q-0.609375 -0.59375 -1.8125 -0.609375l-2.421875 0l0 4.453125zm8.704437 1.9375q0 -1.453125 0.578125 -2.609375q0.578125 -1.171875 1.609375 -1.78125q1.03125 -0.625 2.390625 -0.625q1.984375 0 3.234375 1.28125q1.25 1.28125 1.34375 3.40625l0.015625 0.515625q0 1.453125 -0.5625 2.609375q-0.5625 1.140625 -1.609375 1.78125q-1.046875 0.625 -2.40625 0.625q-2.09375 0 -3.34375 -1.390625q-1.25 -1.390625 -1.25 -3.703125l0 -0.109375zm2.21875 0.1875q0 1.515625 0.625 2.390625q0.625 0.859375 1.75 0.859375q1.125 0 1.734375 -0.875q0.625 -0.875 0.625 -2.5625q0 -1.5 -0.640625 -2.375q-0.640625 -0.875 -1.734375 -0.875q-1.09375 0 -1.734375 0.859375q-0.625 0.859375 -0.625 2.578125zm14.699799 4.828125q-0.140625 -0.28125 -0.25 -0.921875q-1.046875 1.109375 -2.578125 1.109375q-1.484375 0 -2.4375 -0.84375q-0.9375 -0.859375 -0.9375 -2.109375q0 -1.578125 1.171875 -2.40625q1.171875 -0.84375 3.359375 -0.84375l1.359375 0l0 -0.65625q0 -0.765625 -0.4375 -1.21875q-0.421875 -0.46875 -1.296875 -0.46875q-0.765625 0 -1.25 0.390625q-0.46875 0.375 -0.46875 0.953125l-2.21875 0q0 -0.8125 0.53125 -1.515625q0.546875 -0.703125 1.46875 -1.09375q0.921875 -0.40625 2.0625 -0.40625q1.734375 0 2.75 0.875q1.03125 0.859375 1.0625 2.4375l0 4.4375q0 1.328125 0.375 2.125l0 0.15625l-2.265625 0zm-2.421875 -1.59375q0.65625 0 1.234375 -0.3125q0.578125 -0.328125 0.875 -0.859375l0 -1.859375l-1.203125 0q-1.234375 0 -1.859375 0.4375q-0.609375 0.421875 -0.609375 1.203125q0 0.640625 0.421875 1.015625q0.421875 0.375 1.140625 0.375zm6.2183228 -3.40625q0 -2.28125 1.046875 -3.65625q1.0625 -1.375 2.84375 -1.375q1.5625 0 2.53125 1.078125l0 -5.046875l2.21875 0l0 14.0l-2.015625 0l-0.109375 -1.015625q-0.984375 1.203125 -2.640625 1.203125q-1.734375 0 -2.8125 -1.390625q-1.0625 -1.40625 -1.0625 -3.796875zm2.21875 0.1875q0 1.5 0.578125 2.34375q0.578125 0.84375 1.640625 0.84375q1.359375 0 1.984375 -1.203125l0 -4.21875q-0.609375 -1.171875 -1.96875 -1.171875q-1.078125 0 -1.65625 0.859375q-0.578125 0.84375 -0.578125 2.546875zm10.811829 -5.046875l0.0625 1.03125q1.03125 -1.203125 2.84375 -1.203125q1.96875 0 2.703125 1.5q1.078125 -1.5 3.015625 -1.5q1.640625 0 2.4375 0.90625q0.796875 0.890625 0.8125 2.640625l0 6.484375l-2.21875 0l0 -6.40625q0 -0.9375 -0.40625 -1.375q-0.40625 -0.4375 -1.359375 -0.4375q-0.75 0 -1.234375 0.40625q-0.46875 0.390625 -0.671875 1.046875l0.015625 6.765625l-2.21875 0l0 -6.484375q-0.046875 -1.734375 -1.765625 -1.734375q-1.328125 0 -1.890625 1.078125l0 7.140625l-2.21875 0l0 -9.859375l2.09375 0zm20.029999 9.859375q-0.140625 -0.28125 -0.25 -0.921875q-1.046875 1.109375 -2.578125 1.109375q-1.484375 0 -2.4375 -0.84375q-0.9375 -0.859375 -0.9375 -2.109375q0 -1.578125 1.171875 -2.40625q1.171875 -0.84375 3.359375 -0.84375l1.359375 0l0 -0.65625q0 -0.765625 -0.4375 -1.21875q-0.421875 -0.46875 -1.296875 -0.46875q-0.765625 0 -1.25 0.390625q-0.46875 0.375 -0.46875 0.953125l-2.21875 0q0 -0.8125 0.53125 -1.515625q0.546875 -0.703125 1.46875 -1.09375q0.921875 -0.40625 2.0625 -0.40625q1.734375 0 2.75 0.875q1.03125 0.859375 1.0625 2.4375l0 4.4375q0 1.328125 0.375 2.125l0 0.15625l-2.265625 0zm-2.421875 -1.59375q0.65625 0 1.234375 -0.3125q0.578125 -0.328125 0.875 -0.859375l0 -1.859375l-1.203125 0q-1.234375 0 -1.859375 0.4375q-0.609375 0.421875 -0.609375 1.203125q0 0.640625 0.421875 1.015625q0.421875 0.375 1.140625 0.375zm15.265198 -3.234375q0 2.28125 -1.046875 3.65625q-1.03125 1.359375 -2.78125 1.359375q-1.625 0 -2.59375 -1.078125l0 4.6875l-2.21875 0l0 -13.65625l2.046875 0l0.09375 1.0q0.96875 -1.171875 2.640625 -1.171875q1.8125 0 2.828125 1.34375q1.03125 1.34375 1.03125 3.71875l0 0.140625zm-2.203125 -0.1875q0 -1.484375 -0.59375 -2.34375q-0.578125 -0.859375 -1.671875 -0.859375q-1.359375 0 -1.953125 1.109375l0 4.375q0.59375 1.15625 1.96875 1.15625q1.0625 0 1.65625 -0.84375q0.59375 -0.859375 0.59375 -2.59375zm12.706375 0.1875q0 2.28125 -1.046875 3.65625q-1.03125 1.359375 -2.78125 1.359375q-1.625 0 -2.59375 -1.078125l0 4.6875l-2.21875 0l0 -13.65625l2.046875 0l0.09375 1.0q0.96875 -1.171875 2.640625 -1.171875q1.8125 0 2.828125 1.34375q1.03125 1.34375 1.03125 3.71875l0 0.140625zm-2.203125 -0.1875q0 -1.484375 -0.59375 -2.34375q-0.578125 -0.859375 -1.671875 -0.859375q-1.359375 0 -1.953125 1.109375l0 4.375q0.59375 1.15625 1.96875 1.15625q1.0625 0 1.65625 -0.84375q0.59375 -0.859375 0.59375 -2.59375zm6.425125 5.015625l-2.203125 0l0 -9.859375l2.203125 0l0 9.859375zm-2.34375 -12.421875q0 -0.5 0.3125 -0.828125q0.328125 -0.34375 0.921875 -0.34375q0.609375 0 0.9375 0.34375q0.328125 0.328125 0.328125 0.828125q0 0.5 -0.328125 0.84375q-0.328125 0.328125 -0.9375 0.328125q-0.59375 0 -0.921875 -0.328125q-0.3125 -0.34375 -0.3125 -0.84375zm6.811142 2.5625l0.0625 1.140625q1.09375 -1.3125 2.875 -1.3125q3.078125 0 3.125 3.515625l0 6.515625l-2.203125 0l0 -6.390625q0 -0.9375 -0.40625 -1.375q-0.40625 -0.453125 -1.328125 -0.453125q-1.34375 0 -2.0 1.203125l0 7.015625l-2.203125 0l0 -9.859375l2.078125 0zm7.938217 4.859375q0 -2.296875 1.078125 -3.65625q1.078125 -1.375 2.859375 -1.375q1.6875 0 2.65625 1.171875l0.09375 -1.0l2.0 0l0 9.5625q0 1.9375 -1.21875 3.046875q-1.203125 1.125 -3.25 1.125q-1.078125 0 -2.109375 -0.453125q-1.03125 -0.4375 -1.578125 -1.171875l1.046875 -1.328125q1.03125 1.203125 2.515625 1.203125q1.109375 0 1.734375 -0.59375q0.640625 -0.59375 0.640625 -1.75l0 -0.671875q-0.953125 1.078125 -2.546875 1.078125q-1.734375 0 -2.828125 -1.375q-1.09375 -1.375 -1.09375 -3.8125zm2.203125 0.1875q0 1.484375 0.59375 2.34375q0.609375 0.84375 1.6875 0.84375q1.34375 0 1.984375 -1.140625l0 -4.34375q-0.625 -1.109375 -1.96875 -1.109375q-1.09375 0 -1.703125 0.859375q-0.59375 0.859375 -0.59375 2.546875z" fill-rule="nonzero"/><g filter="url(#shadowFilter-g31009d68617_0_0.1)"><use xlink:href="#g31009d68617_0_0.1" transform="matrix(1.0 0.0 0.0 1.0 0.0 2.0)"/></g><defs><filter id="shadowFilter-g31009d68617_0_0.1" filterUnits="userSpaceOnUse"><feGaussianBlur in="SourceAlpha" stdDeviation="3.0" result="blur"/><feComponentTransfer in="blur" color-interpolation-filters="sRGB"><feFuncR type="linear" slope="0" intercept="0.03529412"/><feFuncG type="linear" slope="0" intercept="0.4627451"/><feFuncB type="linear" slope="0" intercept="0.5411765"/><feFuncA type="linear" slope="0.5" intercept="0"/></feComponentTransfer></filter></defs><g id="g31009d68617_0_0.1"><path fill="#7bc5b2" d="m218.74826 186.8409c0 0.13487244 -0.12138367 0.24276733 -0.25624084 0.24276733c-0.13487244 0 -0.24275208 -0.12138367 -0.24275208 -0.25624084c0 -0.13487244 0.12136841 -0.24276733 0.25624084 -0.24276733c0.13485718 0 0.24275208 0.12138367 0.24275208 0.25624084z" fill-rule="evenodd"/></g><path fill="#92e1e6" d="m283.0171 182.9118c13.225128 0 23.995117 10.7699585 23.995117 23.995102c0 13.227631 -10.769989 23.995102 -23.995117 23.995102c-13.225128 0 -23.995087 -10.767471 -23.995087 -23.995102c0 -13.225143 10.7699585 -23.995102 23.995087 -23.995102zm1.8339233 93.880585c5.561432 0.20626831 9.733734 1.8339233 9.733734 3.8169556c0 2.099823 -5.0296326 3.8169556 -11.182495 3.8169556c-6.18515 0 -11.0954895 -1.7171326 -11.0954895 -3.8169556c0 -1.8935547 4.023224 -3.461609 9.201935 -3.78714l0 0.62124634c-3.314972 0.29571533 -6.065857 1.3891296 -6.065857 2.661438c0 1.5108643 3.5212097 2.7533875 7.9594116 2.7533875c4.408386 0 8.076233 -1.2425232 8.076233 -2.7533875c0 -1.3592834 -2.9298096 -2.514801 -6.627472 -2.7210693l0 -0.59143066zm-1.8041077 -117.341415c-2.3085632 0 -4.082855 1.89357 -4.082855 4.202133c0 1.8339233 1.0934143 3.401947 2.9273376 3.963562l0 11.9826355c-14.4079895 0.7107086 -26.005463 12.663528 -26.005463 27.307602c0 14.557098 11.21228 26.422943 25.650116 27.31009l0 41.80504c-8.135864 0.325531 -14.703705 2.7235718 -14.703705 5.650879c0 3.1658936 7.397827 5.710541 16.569916 5.710541c9.169647 0 16.656921 -2.5446472 16.656921 -5.710541c0 -2.9869385 -6.6871033 -5.4421387 -15.20816 -5.6806946l0 -41.775223c14.437805 -0.887146 25.652588 -12.752991 25.652588 -27.31009c0 -14.6440735 -11.599945 -26.626709 -26.007935 -27.307602l0 -11.9826355c1.8339233 -0.561615 2.750885 -2.1296387 2.750885 -3.963562c0 -2.3085632 -1.8935547 -4.202133 -4.199646 -4.202133z" fill-rule="evenodd"/><g filter="url(#shadowFilter-g31009d68617_0_0.2)"><use xlink:href="#g31009d68617_0_0.2" transform="matrix(1.0 0.0 0.0 1.0 0.0 2.0)"/></g><defs><filter id="shadowFilter-g31009d68617_0_0.2" filterUnits="userSpaceOnUse"><feGaussianBlur in="SourceAlpha" stdDeviation="3.0" result="blur"/><feComponentTransfer in="blur" color-interpolation-filters="sRGB"><feFuncR type="linear" slope="0" intercept="0.03529412"/><feFuncG type="linear" slope="0" intercept="0.4627451"/><feFuncB type="linear" slope="0" intercept="0.5411765"/><feFuncA type="linear" slope="0.5" intercept="0"/></feComponentTransfer></filter></defs><g id="g31009d68617_0_0.2"><path fill="#09768a" d="m294.7122 177.33664c-3.5471802 -1.4366608 -7.4249268 -2.2312775 -11.4869995 -2.2312775c-4.055725 0 -7.927124 0.7946167 -11.467926 2.2249298c4.1129456 0.20341492 8.009735 1.2268829 11.537842 2.898758c6.1217346 2.8987732 11.131012 7.7745514 14.195068 13.807297c2.1168518 4.15744 3.3119812 8.861588 3.3119812 13.845428c0 4.062088 -0.7946167 7.9398193 -2.2312927 11.480637c5.015625 -2.9114685 9.122223 -7.2087708 11.80484 -12.364258c1.2523193 -2.3965607 2.186798 -4.983841 2.7652588 -7.7046204c-2.1295776 -9.999466 -9.141266 -18.18721 -18.428772 -21.956894z" fill-rule="evenodd"/></g><g filter="url(#shadowFilter-g31009d68617_0_0.3)"><use xlink:href="#g31009d68617_0_0.3" transform="matrix(1.0 0.0 0.0 1.0 0.0 2.0)"/></g><defs><filter id="shadowFilter-g31009d68617_0_0.3" filterUnits="userSpaceOnUse"><feGaussianBlur in="SourceAlpha" stdDeviation="3.0" result="blur"/><feComponentTransfer in="blur" color-interpolation-filters="sRGB"><feFuncR type="linear" slope="0" intercept="0.03529412"/><feFuncG type="linear" slope="0" intercept="0.4627451"/><feFuncB type="linear" slope="0" intercept="0.5411765"/><feFuncA type="linear" slope="0.5" intercept="0"/></feComponentTransfer></filter></defs><g id="g31009d68617_0_0.3"><path fill="#92e1e6" d="m283.2451 235.62463c-6.8718567 -3.2611084 -12.338806 -9.001434 -15.237579 -16.070358c-1.4620972 -3.5789642 -2.2694397 -7.4884796 -2.2694397 -11.588715c0 -5.021988 1.2078247 -9.764267 3.3564758 -13.940781c-5.5877686 2.898758 -10.164764 7.475769 -13.069885 13.057159c-1.0489044 2.015152 -1.8753052 4.15744 -2.460144 6.4014435c3.2929077 12.682114 14.519257 22.173035 28.065918 22.846863c0.5149231 0.025436401 1.0298157 0.038146973 1.5447388 0.038146973c0.5594177 0 1.1124573 -0.012710571 1.6655273 -0.04449463c-0.54034424 -0.2224884 -1.0743408 -0.45133972 -1.5956116 -0.6992645z" fill-rule="evenodd"/></g><g filter="url(#shadowFilter-g31009d68617_0_0.4)"><use xlink:href="#g31009d68617_0_0.4" transform="matrix(1.0 0.0 0.0 1.0 0.0 2.0)"/></g><defs><filter id="shadowFilter-g31009d68617_0_0.4" filterUnits="userSpaceOnUse"><feGaussianBlur in="SourceAlpha" stdDeviation="3.0" result="blur"/><feComponentTransfer in="blur" color-interpolation-filters="sRGB"><feFuncR type="linear" slope="0" intercept="0.03529412"/><feFuncG type="linear" slope="0" intercept="0.4627451"/><feFuncB type="linear" slope="0" intercept="0.5411765"/><feFuncA type="linear" slope="0.5" intercept="0"/></feComponentTransfer></filter></defs><g id="g31009d68617_0_0.4"><path fill="#64cbd2" d="m313.14767 199.38275c-0.5784607 2.7207794 -1.5129395 5.3080597 -2.7652588 7.7046204c-2.6826477 5.155487 -6.789215 9.452774 -11.80484 12.364258c-4.5134583 2.6254272 -9.751556 4.125656 -15.345673 4.125656c-5.517853 0 -10.692383 -1.4620972 -15.167694 -4.017578c2.8987732 7.068924 8.365753 12.809235 15.23761 16.070358c0.52127075 0.2479248 1.0552673 0.47676086 1.595581 0.6992645c13.495819 -0.7247009 24.664978 -10.196548 27.94516 -22.840515c0.6420288 -2.4601288 0.9789734 -5.0410614 0.9789734 -7.7046204c0 -2.1931458 -0.23522949 -4.335434 -0.67385864 -6.4014435z" fill-rule="evenodd"/></g><g filter="url(#shadowFilter-g31009d68617_0_0.5)"><use xlink:href="#g31009d68617_0_0.5" transform="matrix(1.0 0.0 0.0 1.0 0.0 2.0)"/></g><defs><filter id="shadowFilter-g31009d68617_0_0.5" filterUnits="userSpaceOnUse"><feGaussianBlur in="SourceAlpha" stdDeviation="3.0" result="blur"/><feComponentTransfer in="blur" color-interpolation-filters="sRGB"><feFuncR type="linear" slope="0" intercept="0.03529412"/><feFuncG type="linear" slope="0" intercept="0.4627451"/><feFuncB type="linear" slope="0" intercept="0.5411765"/><feFuncA type="linear" slope="0.5" intercept="0"/></feComponentTransfer></filter></defs><g id="g31009d68617_0_0.5"><path fill="#eeff41" d="m283.22513 180.24419c-3.5281067 -1.671875 -7.4248962 -2.695343 -11.537842 -2.8987732c-9.293854 3.763321 -16.318298 11.957413 -18.447876 21.963257c-0.43862915 2.0660095 -0.6738281 4.2082977 -0.6738281 6.4014435c0 2.663559 0.34327698 5.2444763 0.9789734 7.7046204c0.58483887 -2.2440033 1.4112396 -4.3862915 2.460144 -6.4014435c2.9051208 -5.5814056 7.4821167 -10.1584015 13.069885 -13.057175c4.21463 -2.1931458 9.001434 -3.4327545 14.080627 -3.4327545c5.155487 0 10.005829 1.2777557 14.264984 3.5281067c-3.0640564 -6.0327454 -8.073334 -10.908508 -14.195068 -13.8072815z" fill-rule="evenodd"/></g><path fill="#000000" fill-opacity="0.0" d="m39.394135 96.29578l262.26773 0l0 37.66928l-262.26773 0z" fill-rule="evenodd"/><path fill="#434343" d="m125.01163 111.050415l-2.296875 0l0 -13.265625l2.296875 0l0 13.265625zm4.6715393 -9.859375l0.0625 1.140625q1.09375 -1.3125 2.875 -1.3125q3.078125 0 3.125 3.515625l0 6.515625l-2.203125 0l0 -6.390625q0 -0.9375 -0.40625 -1.375q-0.40625 -0.453125 -1.328125 -0.453125q-1.34375 0 -2.0 1.203125l0 7.015625l-2.203125 0l0 -9.859375l2.078125 0zm11.094467 -2.390625l0 2.390625l1.734375 0l0 1.640625l-1.734375 0l0 5.5q0 0.5625 0.21875 0.8125q0.234375 0.25 0.796875 0.25q0.390625 0 0.78125 -0.078125l0 1.703125q-0.75 0.21875 -1.453125 0.21875q-2.5625 0 -2.5625 -2.8125l0 -5.59375l-1.609375 0l0 -1.640625l1.609375 0l0 -2.390625l2.21875 0zm7.7660675 12.4375q-2.09375 0 -3.40625 -1.328125q-1.3125 -1.328125 -1.3125 -3.53125l0 -0.28125q0 -1.46875 0.5625 -2.625q0.578125 -1.171875 1.609375 -1.8125q1.03125 -0.640625 2.296875 -0.640625q2.015625 0 3.109375 1.28125q1.09375 1.28125 1.09375 3.625l0 0.890625l-6.4375 0q0.109375 1.234375 0.8125 1.953125q0.71875 0.703125 1.8125 0.703125q1.515625 0 2.46875 -1.234375l1.203125 1.140625q-0.59375 0.875 -1.59375 1.375q-0.984375 0.484375 -2.21875 0.484375zm-0.265625 -8.453125q-0.90625 0 -1.46875 0.640625q-0.5625 0.640625 -0.703125 1.78125l4.203125 0l0 -0.171875q-0.0625 -1.109375 -0.59375 -1.671875q-0.515625 -0.578125 -1.4375 -0.578125zm8.292587 8.265625l-2.203125 0l0 -14.0l2.203125 0l0 14.0zm4.764267 0l-2.203125 0l0 -14.0l2.203125 0l0 14.0zm4.764267 0l-2.203125 0l0 -9.859375l2.203125 0l0 9.859375zm-2.34375 -12.421875q0 -0.5 0.3125 -0.828125q0.328125 -0.34375 0.921875 -0.34375q0.609375 0 0.9375 0.34375q0.328125 0.328125 0.328125 0.828125q0 0.5 -0.328125 0.84375q-0.328125 0.328125 -0.9375 0.328125q-0.59375 0 -0.921875 -0.328125q-0.3125 -0.34375 -0.3125 -0.84375zm4.373642 7.421875q0 -2.296875 1.078125 -3.65625q1.078125 -1.375 2.859375 -1.375q1.6875 0 2.65625 1.171875l0.09375 -1.0l2.0 0l0 9.5625q0 1.9375 -1.21875 3.046875q-1.203125 1.125 -3.25 1.125q-1.078125 0 -2.109375 -0.453125q-1.03125 -0.4375 -1.578125 -1.171875l1.046875 -1.328125q1.03125 1.203125 2.515625 1.203125q1.109375 0 1.734375 -0.59375q0.640625 -0.59375 0.640625 -1.75l0 -0.671875q-0.953125 1.078125 -2.546875 1.078125q-1.734375 0 -2.828125 -1.375q-1.09375 -1.375 -1.09375 -3.8125zm2.203125 0.1875q0 1.484375 0.59375 2.34375q0.609375 0.84375 1.6875 0.84375q1.34375 0 1.984375 -1.140625l0 -4.34375q-0.625 -1.109375 -1.96875 -1.109375q-1.09375 0 -1.703125 0.859375q-0.59375 0.859375 -0.59375 2.546875zm13.091751 5.0q-2.09375 0 -3.40625 -1.328125q-1.3125 -1.328125 -1.3125 -3.53125l0 -0.28125q0 -1.46875 0.5625 -2.625q0.578125 -1.171875 1.609375 -1.8125q1.03125 -0.640625 2.296875 -0.640625q2.015625 0 3.109375 1.28125q1.09375 1.28125 1.09375 3.625l0 0.890625l-6.4375 0q0.109375 1.234375 0.8125 1.953125q0.71875 0.703125 1.8125 0.703125q1.515625 0 2.46875 -1.234375l1.203125 1.140625q-0.59375 0.875 -1.59375 1.375q-0.984375 0.484375 -2.21875 0.484375zm-0.265625 -8.453125q-0.90625 0 -1.46875 0.640625q-0.5625 0.640625 -0.703125 1.78125l4.203125 0l0 -0.171875q-0.0625 -1.109375 -0.59375 -1.671875q-0.515625 -0.578125 -1.4375 -0.578125zm7.9957123 -1.59375l0.0625 1.140625q1.09375 -1.3125 2.875 -1.3125q3.078125 0 3.125 3.515625l0 6.515625l-2.203125 0l0 -6.390625q0 -0.9375 -0.40625 -1.375q-0.40625 -0.453125 -1.328125 -0.453125q-1.34375 0 -2.0 1.203125l0 7.015625l-2.203125 0l0 -9.859375l2.078125 0zm11.094467 -2.390625l0 2.390625l1.734375 0l0 1.640625l-1.734375 0l0 5.5q0 0.5625 0.21875 0.8125q0.234375 0.25 0.796875 0.25q0.390625 0 0.78125 -0.078125l0 1.703125q-0.75 0.21875 -1.453125 0.21875q-2.5625 0 -2.5625 -2.8125l0 -5.59375l-1.609375 0l0 -1.640625l1.609375 0l0 -2.390625l2.21875 0zm10.599411 7.328125l0 4.921875l-2.3125 0l0 -13.265625l5.078125 0q2.21875 0 3.53125 1.15625q1.3125 1.15625 1.3125 3.0625q0 1.953125 -1.28125 3.046875q-1.28125 1.078125 -3.59375 1.078125l-2.734375 0zm0 -1.859375l2.765625 0q1.234375 0 1.875 -0.578125q0.65625 -0.578125 0.65625 -1.671875q0 -1.078125 -0.65625 -1.71875q-0.65625 -0.640625 -1.8125 -0.65625l-2.828125 0l0 4.625zm14.564957 -1.046875q-0.4375 -0.078125 -0.90625 -0.078125q-1.515625 0 -2.046875 1.171875l0 6.734375l-2.21875 0l0 -9.859375l2.125 0l0.046875 1.109375q0.796875 -1.28125 2.21875 -1.28125q0.484375 0 0.78125 0.125l0 2.078125zm5.557541 8.015625q-2.09375 0 -3.40625 -1.328125q-1.3125 -1.328125 -1.3125 -3.53125l0 -0.28125q0 -1.46875 0.5625 -2.625q0.578125 -1.171875 1.609375 -1.8125q1.03125 -0.640625 2.296875 -0.640625q2.015625 0 3.109375 1.28125q1.09375 1.28125 1.09375 3.625l0 0.890625l-6.4375 0q0.109375 1.234375 0.8125 1.953125q0.71875 0.703125 1.8125 0.703125q1.515625 0 2.46875 -1.234375l1.203125 1.140625q-0.59375 0.875 -1.59375 1.375q-0.984375 0.484375 -2.21875 0.484375zm-0.265625 -8.453125q-0.90625 0 -1.46875 0.640625q-0.5625 0.640625 -0.703125 1.78125l4.203125 0l0 -0.171875q-0.0625 -1.109375 -0.59375 -1.671875q-0.515625 -0.578125 -1.4375 -0.578125zm5.5269623 3.265625q0 -2.28125 1.046875 -3.65625q1.0625 -1.375 2.84375 -1.375q1.5625 0 2.53125 1.078125l0 -5.046875l2.21875 0l0 14.0l-2.015625 0l-0.109375 -1.015625q-0.984375 1.203125 -2.640625 1.203125q-1.734375 0 -2.8125 -1.390625q-1.0625 -1.40625 -1.0625 -3.796875zm2.21875 0.1875q0 1.5 0.578125 2.34375q0.578125 0.84375 1.640625 0.84375q1.359375 0 1.984375 -1.203125l0 -4.21875q-0.609375 -1.171875 -1.96875 -1.171875q-1.078125 0 -1.65625 0.859375q-0.578125 0.84375 -0.578125 2.546875zm11.077454 4.8125l-2.203125 0l0 -9.859375l2.203125 0l0 9.859375zm-2.34375 -12.421875q0 -0.5 0.3125 -0.828125q0.328125 -0.34375 0.921875 -0.34375q0.609375 0 0.9375 0.34375q0.328125 0.328125 0.328125 0.828125q0 0.5 -0.328125 0.84375q-0.328125 0.328125 -0.9375 0.328125q-0.59375 0 -0.921875 -0.328125q-0.3125 -0.34375 -0.3125 -0.84375zm8.811142 10.84375q0.828125 0 1.375 -0.484375q0.546875 -0.484375 0.578125 -1.203125l2.09375 0q-0.046875 0.921875 -0.59375 1.71875q-0.53125 0.796875 -1.453125 1.265625q-0.90625 0.46875 -1.984375 0.46875q-2.0625 0 -3.28125 -1.34375q-1.203125 -1.34375 -1.203125 -3.703125l0 -0.21875q0 -2.25 1.203125 -3.59375q1.203125 -1.359375 3.28125 -1.359375q1.75 0 2.859375 1.03125q1.109375 1.015625 1.171875 2.671875l-2.09375 0q-0.03125 -0.84375 -0.578125 -1.390625q-0.546875 -0.546875 -1.375 -0.546875q-1.078125 0 -1.671875 0.78125q-0.578125 0.78125 -0.578125 2.359375l0 0.359375q0 1.609375 0.578125 2.40625q0.578125 0.78125 1.671875 0.78125zm8.484131 -10.671875l0 2.390625l1.734375 0l0 1.640625l-1.734375 0l0 5.5q0 0.5625 0.21875 0.8125q0.234375 0.25 0.796875 0.25q0.390625 0 0.78125 -0.078125l0 1.703125q-0.75 0.21875 -1.453125 0.21875q-2.5625 0 -2.5625 -2.8125l0 -5.59375l-1.609375 0l0 -1.640625l1.609375 0l0 -2.390625l2.21875 0zm5.781708 12.25l-2.203125 0l0 -9.859375l2.203125 0l0 9.859375zm-2.34375 -12.421875q0 -0.5 0.3125 -0.828125q0.328125 -0.34375 0.921875 -0.34375q0.609375 0 0.9375 0.34375q0.328125 0.328125 0.328125 0.828125q0 0.5 -0.328125 0.84375q-0.328125 0.328125 -0.9375 0.328125q-0.59375 0 -0.921875 -0.328125q-0.3125 -0.34375 -0.3125 -0.84375zm8.233002 9.609375l2.09375 -7.046875l2.28125 0l-3.421875 9.859375l-1.921875 0l-3.4375 -9.859375l2.296875 0l2.109375 7.046875zm9.968811 3.0q-2.09375 0 -3.40625 -1.328125q-1.3125 -1.328125 -1.3125 -3.53125l0 -0.28125q0 -1.46875 0.5625 -2.625q0.578125 -1.171875 1.609375 -1.8125q1.03125 -0.640625 2.296875 -0.640625q2.015625 0 3.109375 1.28125q1.09375 1.28125 1.09375 3.625l0 0.890625l-6.4375 0q0.109375 1.234375 0.8125 1.953125q0.71875 0.703125 1.8125 0.703125q1.515625 0 2.46875 -1.234375l1.203125 1.140625q-0.59375 0.875 -1.59375 1.375q-0.984375 0.484375 -2.21875 0.484375zm-0.265625 -8.453125q-0.90625 0 -1.46875 0.640625q-0.5625 0.640625 -0.703125 1.78125l4.203125 0l0 -0.171875q-0.0625 -1.109375 -0.59375 -1.671875q-0.515625 -0.578125 -1.4375 -0.578125z" fill-rule="nonzero"/><path fill="#434343" d="m213.59683 133.05042l-2.296875 0l0 -5.8906174l-5.921875 0l0 5.8906174l-2.3125 0l0 -13.265617l2.3125 0l0 5.515625l5.921875 0l0 -5.515625l2.296875 0l0 13.265617zm6.848068 0.1875q-2.09375 0 -3.40625 -1.328125q-1.3125 -1.328125 -1.3125 -3.53125l0 -0.28125q0 -1.4687424 0.5625 -2.6249924q0.578125 -1.171875 1.609375 -1.8125q1.03125 -0.640625 2.296875 -0.640625q2.015625 0 3.109375 1.28125q1.09375 1.28125 1.09375 3.625l0 0.8906174l-6.4375 0q0.109375 1.234375 0.8125 1.953125q0.71875 0.703125 1.8125 0.703125q1.515625 0 2.46875 -1.234375l1.203125 1.140625q-0.59375 0.875 -1.59375 1.375q-0.984375 0.484375 -2.21875 0.484375zm-0.265625 -8.453117q-0.90625 0 -1.46875 0.640625q-0.5625 0.640625 -0.703125 1.78125l4.203125 0l0 -0.171875q-0.0625 -1.109375 -0.59375 -1.671875q-0.515625 -0.578125 -1.4375 -0.578125zm11.823837 8.265617q-0.140625 -0.28125 -0.25 -0.921875q-1.046875 1.109375 -2.578125 1.109375q-1.484375 0 -2.4375 -0.84375q-0.9375 -0.859375 -0.9375 -2.109375q0 -1.578125 1.171875 -2.4062424q1.171875 -0.84375 3.359375 -0.84375l1.359375 0l0 -0.65625q0 -0.765625 -0.4375 -1.21875q-0.421875 -0.46875 -1.296875 -0.46875q-0.765625 0 -1.25 0.390625q-0.46875 0.375 -0.46875 0.953125l-2.21875 0q0 -0.8125 0.53125 -1.515625q0.546875 -0.703125 1.46875 -1.09375q0.921875 -0.40625 2.0625 -0.40625q1.734375 0 2.75 0.875q1.03125 0.859375 1.0625 2.4375l0 4.4374924q0 1.328125 0.375 2.125l0 0.15625l-2.265625 0zm-2.421875 -1.59375q0.65625 0 1.234375 -0.3125q0.578125 -0.328125 0.875 -0.859375l0 -1.859375l-1.203125 0q-1.234375 0 -1.859375 0.4375q-0.609375 0.421875 -0.609375 1.203125q0 0.640625 0.421875 1.015625q0.421875 0.375 1.140625 0.375zm8.983948 1.59375l-2.203125 0l0 -13.999992l2.203125 0l0 13.999992zm5.186142 -12.249992l0 2.390625l1.734375 0l0 1.640625l-1.734375 0l0 5.4999924q0 0.5625 0.21875 0.8125q0.234375 0.25 0.796875 0.25q0.390625 0 0.78125 -0.078125l0 1.703125q-0.75 0.21875 -1.453125 0.21875q-2.5625 0 -2.5625 -2.8125l0 -5.5937424l-1.609375 0l0 -1.640625l1.609375 0l0 -2.390625l2.21875 0zm5.6098175 3.46875q1.09375 -1.25 2.75 -1.25q3.140625 0 3.1875 3.59375l0 6.4374924l-2.203125 0l0 -6.3593674q0 -1.015625 -0.453125 -1.4375q-0.4375 -0.421875 -1.296875 -0.421875q-1.328125 0 -1.984375 1.171875l0 7.0468674l-2.203125 0l0 -13.999992l2.203125 0l0 5.21875zm12.232513 7.2031174q0.828125 0 1.375 -0.484375q0.546875 -0.484375 0.578125 -1.203125l2.09375 0q-0.046875 0.921875 -0.59375 1.71875q-0.53125 0.796875 -1.453125 1.265625q-0.90625 0.46875 -1.984375 0.46875q-2.0625 0 -3.28125 -1.34375q-1.203125 -1.34375 -1.203125 -3.703125l0 -0.21874237q0 -2.25 1.203125 -3.59375q1.203125 -1.359375 3.28125 -1.359375q1.75 0 2.859375 1.03125q1.109375 1.015625 1.171875 2.671875l-2.09375 0q-0.03125 -0.84375 -0.578125 -1.390625q-0.546875 -0.546875 -1.375 -0.546875q-1.078125 0 -1.671875 0.78125q-0.578125 0.78125 -0.578125 2.359375l0 0.35936737q0 1.609375 0.578125 2.40625q0.578125 0.78125 1.671875 0.78125zm11.593506 1.578125q-0.140625 -0.28125 -0.25 -0.921875q-1.046875 1.109375 -2.578125 1.109375q-1.484375 0 -2.4375 -0.84375q-0.9375 -0.859375 -0.9375 -2.109375q0 -1.578125 1.171875 -2.4062424q1.171875 -0.84375 3.359375 -0.84375l1.359375 0l0 -0.65625q0 -0.765625 -0.4375 -1.21875q-0.421875 -0.46875 -1.296875 -0.46875q-0.765625 0 -1.25 0.390625q-0.46875 0.375 -0.46875 0.953125l-2.21875 0q0 -0.8125 0.53125 -1.515625q0.546875 -0.703125 1.46875 -1.09375q0.921875 -0.40625 2.0625 -0.40625q1.734375 0 2.75 0.875q1.03125 0.859375 1.0625 2.4375l0 4.4374924q0 1.328125 0.375 2.125l0 0.15625l-2.265625 0zm-2.421875 -1.59375q0.65625 0 1.234375 -0.3125q0.578125 -0.328125 0.875 -0.859375l0 -1.859375l-1.203125 0q-1.234375 0 -1.859375 0.4375q-0.609375 0.421875 -0.609375 1.203125q0 0.640625 0.421875 1.015625q0.421875 0.375 1.140625 0.375zm11.796448 -6.2343674q-0.4375 -0.078125 -0.90625 -0.078125q-1.515625 0 -2.046875 1.171875l0 6.7343674l-2.21875 0l0 -9.859367l2.125 0l0.046875 1.109375q0.796875 -1.28125 2.21875 -1.28125q0.484375 0 0.78125 0.125l0 2.078125zm5.5575256 8.015617q-2.09375 0 -3.40625 -1.328125q-1.3125 -1.328125 -1.3125 -3.53125l0 -0.28125q0 -1.4687424 0.5625 -2.6249924q0.578125 -1.171875 1.609375 -1.8125q1.03125 -0.640625 2.296875 -0.640625q2.015625 0 3.109375 1.28125q1.09375 1.28125 1.09375 3.625l0 0.8906174l-6.4375 0q0.109375 1.234375 0.8125 1.953125q0.71875 0.703125 1.8125 0.703125q1.515625 0 2.46875 -1.234375l1.203125 1.140625q-0.59375 0.875 -1.59375 1.375q-0.984375 0.484375 -2.21875 0.484375zm-0.265625 -8.453117q-0.90625 0 -1.46875 0.640625q-0.5625 0.640625 -0.703125 1.78125l4.203125 0l0 -0.171875q-0.0625 -1.109375 -0.59375 -1.671875q-0.515625 -0.578125 -1.4375 -0.578125z" fill-rule="nonzero"/><path fill="#000000" fill-opacity="0.0" d="m523.23883 145.79265l206.36218 0l0 37.669296l-206.36218 0z" fill-rule="evenodd"/><path fill="#434343" d="m535.8951 155.62543l0 4.921875l-2.3125 0l0 -13.265625l5.078125 0q2.21875 0 3.53125 1.15625q1.3125 1.15625 1.3125 3.0625q0 1.953125 -1.28125 3.046875q-1.28125 1.078125 -3.59375 1.078125l-2.734375 0zm0 -1.859375l2.765625 0q1.234375 0 1.875 -0.578125q0.65625 -0.578125 0.65625 -1.671875q0 -1.078125 -0.65625 -1.71875q-0.65625 -0.640625 -1.8125 -0.65625l-2.828125 0l0 4.625zm14.564941 -1.046875q-0.4375 -0.078125 -0.90625 -0.078125q-1.515625 0 -2.046875 1.171875l0 6.734375l-2.21875 0l0 -9.859375l2.125 0l0.046875 1.109375q0.796875 -1.28125 2.21875 -1.28125q0.484375 0 0.78125 0.125l0 2.078125zm5.557556 8.015625q-2.09375 0 -3.40625 -1.328125q-1.3125 -1.328125 -1.3125 -3.53125l0 -0.28125q0 -1.46875 0.5625 -2.625q0.578125 -1.171875 1.609375 -1.8125q1.03125 -0.640625 2.296875 -0.640625q2.015625 0 3.109375 1.28125q1.09375 1.28125 1.09375 3.625l0 0.890625l-6.4375 0q0.109375 1.234375 0.8125 1.953125q0.71875 0.703125 1.8125 0.703125q1.515625 0 2.46875 -1.234375l1.203125 1.140625q-0.59375 0.875 -1.59375 1.375q-0.984375 0.484375 -2.21875 0.484375zm-0.265625 -8.453125q-0.90625 0 -1.46875 0.640625q-0.5625 0.640625 -0.703125 1.78125l4.203125 0l0 -0.171875q-0.0625 -1.109375 -0.59375 -1.671875q-0.515625 -0.578125 -1.4375 -0.578125zm10.230103 3.515625l-4.78125 0l0 -1.78125l4.78125 0l0 1.78125zm12.361145 4.75q-0.140625 -0.28125 -0.25 -0.921875q-1.046875 1.109375 -2.578125 1.109375q-1.484375 0 -2.4375 -0.84375q-0.9375 -0.859375 -0.9375 -2.109375q0 -1.578125 1.171875 -2.40625q1.171875 -0.84375 3.359375 -0.84375l1.359375 0l0 -0.65625q0 -0.765625 -0.4375 -1.21875q-0.421875 -0.46875 -1.296875 -0.46875q-0.765625 0 -1.25 0.390625q-0.46875 0.375 -0.46875 0.953125l-2.21875 0q0 -0.8125 0.53125 -1.515625q0.546875 -0.703125 1.46875 -1.09375q0.921875 -0.40625 2.0625 -0.40625q1.734375 0 2.75 0.875q1.03125 0.859375 1.0625 2.4375l0 4.4375q0 1.328125 0.375 2.125l0 0.15625l-2.265625 0zm-2.421875 -1.59375q0.65625 0 1.234375 -0.3125q0.578125 -0.328125 0.875 -0.859375l0 -1.859375l-1.203125 0q-1.234375 0 -1.859375 0.4375q-0.609375 0.421875 -0.609375 1.203125q0 0.640625 0.421875 1.015625q0.421875 0.375 1.140625 0.375zm8.687073 -8.265625l0.0625 1.140625q1.09375 -1.3125 2.875 -1.3125q3.078125 0 3.125 3.515625l0 6.515625l-2.203125 0l0 -6.390625q0 -0.9375 -0.40625 -1.375q-0.40625 -0.453125 -1.328125 -0.453125q-1.34375 0 -2.0 1.203125l0 7.015625l-2.203125 0l0 -9.859375l2.078125 0zm7.9069824 4.859375q0 -2.28125 1.046875 -3.65625q1.0625 -1.375 2.84375 -1.375q1.5625 0 2.53125 1.078125l0 -5.046875l2.21875 0l0 14.0l-2.015625 0l-0.109375 -1.015625q-0.984375 1.203125 -2.640625 1.203125q-1.734375 0 -2.8125 -1.390625q-1.0625 -1.40625 -1.0625 -3.796875zm2.21875 0.1875q0 1.5 0.578125 2.34375q0.578125 0.84375 1.640625 0.84375q1.359375 0 1.984375 -1.203125l0 -4.21875q-0.609375 -1.171875 -1.96875 -1.171875q-1.078125 0 -1.65625 0.859375q-0.578125 0.84375 -0.578125 2.546875z" fill-rule="nonzero"/><path fill="#434343" d="m543.7076 178.2348q-0.203125 2.109375 -1.578125 3.3125q-1.359375 1.1875 -3.625 1.1875q-1.578125 0 -2.796875 -0.75q-1.203125 -0.765625 -1.859375 -2.140625q-0.65625 -1.390625 -0.6875 -3.21875l0 -1.234375q0 -1.875 0.671875 -3.296875q0.671875 -1.4375 1.90625 -2.21875q1.25 -0.78125 2.875 -0.78125q2.203125 0 3.53125 1.203125q1.34375 1.1875 1.5625 3.375l-2.296875 0q-0.15625 -1.4375 -0.828125 -2.0625q-0.671875 -0.640625 -1.96875 -0.640625q-1.5 0 -2.3125 1.109375q-0.796875 1.09375 -0.8125 3.203125l0 1.1875q0 2.140625 0.765625 3.28125q0.765625 1.125 2.25 1.125q1.359375 0 2.03125 -0.609375q0.6875 -0.609375 0.875 -2.03125l2.296875 0zm4.1950073 4.3125l-2.203125 0l0 -14.0l2.203125 0l0 14.0zm4.764282 0l-2.203125 0l0 -9.859375l2.203125 0l0 9.859375zm-2.34375 -12.421875q0 -0.5 0.3125 -0.828125q0.328125 -0.34375 0.921875 -0.34375q0.609375 0 0.9375 0.34375q0.328125 0.328125 0.328125 0.828125q0 0.5 -0.328125 0.84375q-0.328125 0.328125 -0.9375 0.328125q-0.59375 0 -0.921875 -0.328125q-0.3125 -0.34375 -0.3125 -0.84375zm6.811157 2.5625l0.0625 1.140625q1.09375 -1.3125 2.875 -1.3125q3.078125 0 3.125 3.515625l0 6.515625l-2.203125 0l0 -6.390625q0 -0.9375 -0.40625 -1.375q-0.40625 -0.453125 -1.328125 -0.453125q-1.34375 0 -2.0 1.203125l0 7.015625l-2.203125 0l0 -9.859375l2.078125 0zm10.672607 9.859375l-2.203125 0l0 -9.859375l2.203125 0l0 9.859375zm-2.34375 -12.421875q0 -0.5 0.3125 -0.828125q0.328125 -0.34375 0.921875 -0.34375q0.609375 0 0.9375 0.34375q0.328125 0.328125 0.328125 0.828125q0 0.5 -0.328125 0.84375q-0.328125 0.328125 -0.9375 0.328125q-0.59375 0 -0.921875 -0.328125q-0.3125 -0.34375 -0.3125 -0.84375zm8.811096 10.84375q0.828125 0 1.375 -0.484375q0.546875 -0.484375 0.578125 -1.203125l2.09375 0q-0.046875 0.921875 -0.59375 1.71875q-0.53125 0.796875 -1.453125 1.265625q-0.90625 0.46875 -1.984375 0.46875q-2.0625 0 -3.28125 -1.34375q-1.203125 -1.34375 -1.203125 -3.703125l0 -0.21875q0 -2.25 1.203125 -3.59375q1.203125 -1.359375 3.28125 -1.359375q1.75 0 2.859375 1.03125q1.109375 1.015625 1.171875 2.671875l-2.09375 0q-0.03125 -0.84375 -0.578125 -1.390625q-0.546875 -0.546875 -1.375 -0.546875q-1.078125 0 -1.671875 0.78125q-0.578125 0.78125 -0.578125 2.359375l0 0.359375q0 1.609375 0.578125 2.40625q0.578125 0.78125 1.671875 0.78125zm11.593506 1.578125q-0.140625 -0.28125 -0.25 -0.921875q-1.046875 1.109375 -2.578125 1.109375q-1.484375 0 -2.4375 -0.84375q-0.9375 -0.859375 -0.9375 -2.109375q0 -1.578125 1.171875 -2.40625q1.171875 -0.84375 3.359375 -0.84375l1.359375 0l0 -0.65625q0 -0.765625 -0.4375 -1.21875q-0.421875 -0.46875 -1.296875 -0.46875q-0.765625 0 -1.25 0.390625q-0.46875 0.375 -0.46875 0.953125l-2.21875 0q0 -0.8125 0.53125 -1.515625q0.546875 -0.703125 1.46875 -1.09375q0.921875 -0.40625 2.0625 -0.40625q1.734375 0 2.75 0.875q1.03125 0.859375 1.0625 2.4375l0 4.4375q0 1.328125 0.375 2.125l0 0.15625l-2.265625 0zm-2.421875 -1.59375q0.65625 0 1.234375 -0.3125q0.578125 -0.328125 0.875 -0.859375l0 -1.859375l-1.203125 0q-1.234375 0 -1.859375 0.4375q-0.609375 0.421875 -0.609375 1.203125q0 0.640625 0.421875 1.015625q0.421875 0.375 1.140625 0.375zm8.983948 1.59375l-2.203125 0l0 -14.0l2.203125 0l0 14.0zm7.2695312 0l0 -13.265625l3.921875 0q1.75 0 3.109375 0.78125q1.375 0.78125 2.109375 2.234375q0.75 1.4375 0.75 3.296875l0 0.65625q0 1.890625 -0.75 3.328125q-0.75 1.421875 -2.140625 2.203125q-1.390625 0.765625 -3.171875 0.765625l-3.828125 0zm2.3125 -11.40625l0 9.5625l1.5 0q1.8125 0 2.78125 -1.125q0.96875 -1.140625 0.984375 -3.265625l0 -0.734375q0 -2.15625 -0.9375 -3.296875q-0.9375 -1.140625 -2.71875 -1.140625l-1.609375 0zm14.000977 11.59375q-2.09375 0 -3.40625 -1.328125q-1.3125 -1.328125 -1.3125 -3.53125l0 -0.28125q0 -1.46875 0.5625 -2.625q0.578125 -1.171875 1.609375 -1.8125q1.03125 -0.640625 2.296875 -0.640625q2.015625 0 3.109375 1.28125q1.09375 1.28125 1.09375 3.625l0 0.890625l-6.4375 0q0.109375 1.234375 0.8125 1.953125q0.71875 0.703125 1.8125 0.703125q1.515625 0 2.46875 -1.234375l1.203125 1.140625q-0.59375 0.875 -1.59375 1.375q-0.984375 0.484375 -2.21875 0.484375zm-0.265625 -8.453125q-0.90625 0 -1.46875 0.640625q-0.5625 0.640625 -0.703125 1.78125l4.203125 0l0 -0.171875q-0.0625 -1.109375 -0.59375 -1.671875q-0.515625 -0.578125 -1.4375 -0.578125zm9.299133 5.453125l2.09375 -7.046875l2.28125 0l-3.421875 9.859375l-1.921875 0l-3.4375 -9.859375l2.296875 0l2.109375 7.046875zm9.968811 3.0q-2.09375 0 -3.40625 -1.328125q-1.3125 -1.328125 -1.3125 -3.53125l0 -0.28125q0 -1.46875 0.5625 -2.625q0.578125 -1.171875 1.609375 -1.8125q1.03125 -0.640625 2.296875 -0.640625q2.015625 0 3.109375 1.28125q1.09375 1.28125 1.09375 3.625l0 0.890625l-6.4375 0q0.109375 1.234375 0.8125 1.953125q0.71875 0.703125 1.8125 0.703125q1.515625 0 2.46875 -1.234375l1.203125 1.140625q-0.59375 0.875 -1.59375 1.375q-0.984375 0.484375 -2.21875 0.484375zm-0.265625 -8.453125q-0.90625 0 -1.46875 0.640625q-0.5625 0.640625 -0.703125 1.78125l4.203125 0l0 -0.171875q-0.0625 -1.109375 -0.59375 -1.671875q-0.515625 -0.578125 -1.4375 -0.578125zm8.2925415 8.265625l-2.203125 0l0 -14.0l2.203125 0l0 14.0zm1.9986572 -5.015625q0 -1.453125 0.578125 -2.609375q0.578125 -1.171875 1.609375 -1.78125q1.03125 -0.625 2.390625 -0.625q1.984375 0 3.234375 1.28125q1.25 1.28125 1.34375 3.40625l0.015625 0.515625q0 1.453125 -0.5625 2.609375q-0.5625 1.140625 -1.609375 1.78125q-1.046875 0.625 -2.40625 0.625q-2.09375 0 -3.34375 -1.390625q-1.25 -1.390625 -1.25 -3.703125l0 -0.109375zm2.21875 0.1875q0 1.515625 0.625 2.390625q0.625 0.859375 1.75 0.859375q1.125 0 1.734375 -0.875q0.625 -0.875 0.625 -2.5625q0 -1.5 -0.640625 -2.375q-0.640625 -0.875 -1.734375 -0.875q-1.09375 0 -1.734375 0.859375q-0.625 0.859375 -0.625 2.578125zm17.44983 0q0 2.28125 -1.046875 3.65625q-1.03125 1.359375 -2.78125 1.359375q-1.625 0 -2.59375 -1.078125l0 4.6875l-2.21875 0l0 -13.65625l2.046875 0l0.09375 1.0q0.96875 -1.171875 2.640625 -1.171875q1.8125 0 2.828125 1.34375q1.03125 1.34375 1.03125 3.71875l0 0.140625zm-2.203125 -0.1875q0 -1.484375 -0.59375 -2.34375q-0.578125 -0.859375 -1.671875 -0.859375q-1.359375 0 -1.953125 1.109375l0 4.375q0.59375 1.15625 1.96875 1.15625q1.0625 0 1.65625 -0.84375q0.59375 -0.859375 0.59375 -2.59375zm6.159485 -4.84375l0.0625 1.03125q1.03125 -1.203125 2.84375 -1.203125q1.96875 0 2.703125 1.5q1.078125 -1.5 3.015625 -1.5q1.640625 0 2.4375 0.90625q0.796875 0.890625 0.8125 2.640625l0 6.484375l-2.21875 0l0 -6.40625q0 -0.9375 -0.40625 -1.375q-0.40625 -0.4375 -1.359375 -0.4375q-0.75 0 -1.234375 0.40625q-0.46875 0.390625 -0.671875 1.046875l0.015625 6.765625l-2.21875 0l0 -6.484375q-0.046875 -1.734375 -1.765625 -1.734375q-1.328125 0 -1.890625 1.078125l0 7.140625l-2.21875 0l0 -9.859375l2.09375 0zm18.483093 10.046875q-2.09375 0 -3.40625 -1.328125q-1.3125 -1.328125 -1.3125 -3.53125l0 -0.28125q0 -1.46875 0.5625 -2.625q0.578125 -1.171875 1.609375 -1.8125q1.03125 -0.640625 2.296875 -0.640625q2.015625 0 3.109375 1.28125q1.09375 1.28125 1.09375 3.625l0 0.890625l-6.4375 0q0.109375 1.234375 0.8125 1.953125q0.71875 0.703125 1.8125 0.703125q1.515625 0 2.46875 -1.234375l1.203125 1.140625q-0.59375 0.875 -1.59375 1.375q-0.984375 0.484375 -2.21875 0.484375zm-0.265625 -8.453125q-0.90625 0 -1.46875 0.640625q-0.5625 0.640625 -0.703125 1.78125l4.203125 0l0 -0.171875q-0.0625 -1.109375 -0.59375 -1.671875q-0.515625 -0.578125 -1.4375 -0.578125zm7.9957275 -1.59375l0.0625 1.140625q1.09375 -1.3125 2.875 -1.3125q3.078125 0 3.125 3.515625l0 6.515625l-2.203125 0l0 -6.390625q0 -0.9375 -0.40625 -1.375q-0.40625 -0.453125 -1.328125 -0.453125q-1.34375 0 -2.0 1.203125l0 7.015625l-2.203125 0l0 -9.859375l2.078125 0zm11.094482 -2.390625l0 2.390625l1.734375 0l0 1.640625l-1.734375 0l0 5.5q0 0.5625 0.21875 0.8125q0.234375 0.25 0.796875 0.25q0.390625 0 0.78125 -0.078125l0 1.703125q-0.75 0.21875 -1.453125 0.21875q-2.5625 0 -2.5625 -2.8125l0 -5.59375l-1.609375 0l0 -1.640625l1.609375 0l0 -2.390625l2.21875 0z" fill-rule="nonzero"/><path fill="#000000" fill-opacity="0.0" d="m280.7641 1.7509664l225.12256 0l0 37.669495l-225.12256 0z" fill-rule="evenodd"/><path fill="#434343" d="m302.2384 25.661963l6.015625 0l0 1.84375l-8.328125 0l0 -13.265626l2.3125 0l0 11.421876zm9.921448 1.84375l-2.203125 0l0 -9.859375l2.203125 0l0 9.859375zm-2.34375 -12.421876q0 -0.5 0.3125 -0.828125q0.328125 -0.34375 0.921875 -0.34375q0.609375 0 0.9375 0.34375q0.328125 0.328125 0.328125 0.828125q0 0.5 -0.328125 0.84375q-0.328125 0.32812595 -0.9375 0.32812595q-0.59375 0 -0.921875 -0.32812595q-0.3125 -0.34375 -0.3125 -0.84375zm5.5298767 12.421876l0 -8.21875l-1.5 0l0 -1.640625l1.5 0l0 -0.90625q0 -1.625001 0.90625 -2.515626q0.921875 -0.90625 2.5625 -0.90625q0.578125 0 1.234375 0.171875l-0.046875 1.734375q-0.375 -0.078125 -0.84375 -0.078125q-1.59375 0 -1.59375 1.625001l0 0.875l2.0 0l0 1.640625l-2.0 0l0 8.21875l-2.21875 0zm9.957245 0.1875q-2.09375 0 -3.40625 -1.328125q-1.3125 -1.328125 -1.3125 -3.53125l0 -0.28125q0 -1.46875 0.5625 -2.625q0.578125 -1.171875 1.609375 -1.8125q1.03125 -0.640625 2.296875 -0.640625q2.015625 0 3.109375 1.28125q1.09375 1.28125 1.09375 3.625l0 0.890625l-6.4375 0q0.109375 1.234375 0.8125 1.953125q0.71875 0.703125 1.8125 0.703125q1.515625 0 2.46875 -1.234375l1.203125 1.140625q-0.59375 0.875 -1.59375 1.375q-0.984375 0.484375 -2.21875 0.484375zm-0.265625 -8.453125q-0.90625 0 -1.46875 0.640625q-0.5625 0.640625 -0.703125 1.78125l4.203125 0l0 -0.171875q-0.0625 -1.109375 -0.59375 -1.671875q-0.515625 -0.578125 -1.4375 -0.578125zm9.995728 6.6875q0.828125 0 1.375 -0.484375q0.546875 -0.484375 0.578125 -1.203125l2.09375 0q-0.046875 0.921875 -0.59375 1.71875q-0.53125 0.796875 -1.453125 1.265625q-0.90625 0.46875 -1.984375 0.46875q-2.0625 0 -3.28125 -1.34375q-1.203125 -1.34375 -1.203125 -3.703125l0 -0.21875q0 -2.25 1.203125 -3.59375q1.203125 -1.359375 3.28125 -1.359375q1.75 0 2.859375 1.03125q1.109375 1.015625 1.171875 2.671875l-2.09375 0q-0.03125 -0.84375 -0.578125 -1.390625q-0.546875 -0.546875 -1.375 -0.546875q-1.078125 0 -1.671875 0.78125q-0.578125 0.78125 -0.578125 2.359375l0 0.359375q0 1.609375 0.578125 2.40625q0.578125 0.78125 1.671875 0.78125zm9.156006 -1.59375l2.015625 -6.6875l2.359375 0l-3.921875 11.359375q-0.90625 2.484375 -3.0625 2.484375q-0.484375 0 -1.0625 -0.171875l0 -1.703125l0.421875 0.015625q0.828125 0 1.25 -0.3125q0.421875 -0.296875 0.671875 -1.015625l0.328125 -0.84375l-3.46875 -9.8125l2.390625 0l2.078125 6.6875zm9.573059 1.59375q0.828125 0 1.375 -0.484375q0.546875 -0.484375 0.578125 -1.203125l2.09375 0q-0.046875 0.921875 -0.59375 1.71875q-0.53125 0.796875 -1.453125 1.265625q-0.90625 0.46875 -1.984375 0.46875q-2.0625 0 -3.28125 -1.34375q-1.203125 -1.34375 -1.203125 -3.703125l0 -0.21875q0 -2.25 1.203125 -3.59375q1.203125 -1.359375 3.28125 -1.359375q1.75 0 2.859375 1.03125q1.109375 1.015625 1.171875 2.671875l-2.09375 0q-0.03125 -0.84375 -0.578125 -1.390625q-0.546875 -0.546875 -1.375 -0.546875q-1.078125 0 -1.671875 0.78125q-0.578125 0.78125 -0.578125 2.359375l0 0.359375q0 1.609375 0.578125 2.40625q0.578125 0.78125 1.671875 0.78125zm8.062256 1.578125l-2.203125 0l0 -14.000001l2.203125 0l0 14.000001zm6.7486267 0.1875q-2.09375 0 -3.40625 -1.328125q-1.3125 -1.328125 -1.3125 -3.53125l0 -0.28125q0 -1.46875 0.5625 -2.625q0.578125 -1.171875 1.609375 -1.8125q1.03125 -0.640625 2.296875 -0.640625q2.015625 0 3.109375 1.28125q1.09375 1.28125 1.09375 3.625l0 0.890625l-6.4375 0q0.109375 1.234375 0.8125 1.953125q0.71875 0.703125 1.8125 0.703125q1.515625 0 2.46875 -1.234375l1.203125 1.140625q-0.59375 0.875 -1.59375 1.375q-0.984375 0.484375 -2.21875 0.484375zm-0.265625 -8.453125q-0.90625 0 -1.46875 0.640625q-0.5625 0.640625 -0.703125 1.78125l4.203125 0l0 -0.171875q-0.0625 -1.109375 -0.59375 -1.671875q-0.515625 -0.578125 -1.4375 -0.578125zm13.797821 -5.000001l3.8125 10.171876l3.828125 -10.171876l2.96875 0l0 13.265626l-2.296875 0l0 -4.375l0.234375 -5.84375l-3.921875 10.21875l-1.640625 0l-3.90625 -10.21875l0.21875 5.84375l0 4.375l-2.296875 0l0 -13.265626l3.0 0zm19.005188 13.265626q-0.140625 -0.28125 -0.25 -0.921875q-1.046875 1.109375 -2.578125 1.109375q-1.484375 0 -2.4375 -0.84375q-0.9375 -0.859375 -0.9375 -2.109375q0 -1.578125 1.171875 -2.40625q1.171875 -0.84375 3.359375 -0.84375l1.359375 0l0 -0.65625q0 -0.765625 -0.4375 -1.21875q-0.421875 -0.46875 -1.296875 -0.46875q-0.765625 0 -1.25 0.390625q-0.46875 0.375 -0.46875 0.953125l-2.21875 0q0 -0.8125 0.53125 -1.515625q0.546875 -0.703125 1.46875 -1.09375q0.921875 -0.40625 2.0625 -0.40625q1.734375 0 2.75 0.875q1.03125 0.859375 1.0625 2.4375l0 4.4375q0 1.328125 0.375 2.125l0 0.15625l-2.265625 0zm-2.421875 -1.59375q0.65625 0 1.234375 -0.3125q0.578125 -0.328125 0.875 -0.859375l0 -1.859375l-1.203125 0q-1.234375 0 -1.859375 0.4375q-0.609375 0.421875 -0.609375 1.203125q0 0.640625 0.421875 1.015625q0.421875 0.375 1.140625 0.375zm8.687073 -8.265625l0.0625 1.140625q1.09375 -1.3125 2.875 -1.3125q3.078125 0 3.125 3.515625l0 6.515625l-2.203125 0l0 -6.390625q0 -0.9375 -0.40625 -1.375q-0.40625 -0.453125 -1.328125 -0.453125q-1.34375 0 -2.0 1.203125l0 7.015625l-2.203125 0l0 -9.859375l2.078125 0zm14.203857 9.859375q-0.140625 -0.28125 -0.25 -0.921875q-1.046875 1.109375 -2.578125 1.109375q-1.484375 0 -2.4375 -0.84375q-0.9375 -0.859375 -0.9375 -2.109375q0 -1.578125 1.171875 -2.40625q1.171875 -0.84375 3.359375 -0.84375l1.359375 0l0 -0.65625q0 -0.765625 -0.4375 -1.21875q-0.421875 -0.46875 -1.296875 -0.46875q-0.765625 0 -1.25 0.390625q-0.46875 0.375 -0.46875 0.953125l-2.21875 0q0 -0.8125 0.53125 -1.515625q0.546875 -0.703125 1.46875 -1.09375q0.921875 -0.40625 2.0625 -0.40625q1.734375 0 2.75 0.875q1.03125 0.859375 1.0625 2.4375l0 4.4375q0 1.328125 0.375 2.125l0 0.15625l-2.265625 0zm-2.421875 -1.59375q0.65625 0 1.234375 -0.3125q0.578125 -0.328125 0.875 -0.859375l0 -1.859375l-1.203125 0q-1.234375 0 -1.859375 0.4375q-0.609375 0.421875 -0.609375 1.203125q0 0.640625 0.421875 1.015625q0.421875 0.375 1.140625 0.375zm6.2495728 -3.40625q0 -2.296875 1.078125 -3.65625q1.078125 -1.375 2.859375 -1.375q1.6875 0 2.65625 1.171875l0.09375 -1.0l2.0 0l0 9.5625q0 1.9375 -1.21875 3.046875q-1.203125 1.125 -3.25 1.125q-1.078125 0 -2.109375 -0.453125q-1.03125 -0.4375 -1.578125 -1.171875l1.046875 -1.328125q1.03125 1.203125 2.515625 1.203125q1.109375 0 1.734375 -0.59375q0.640625 -0.59375 0.640625 -1.75l0 -0.671875q-0.953125 1.078125 -2.546875 1.078125q-1.734375 0 -2.828125 -1.375q-1.09375 -1.375 -1.09375 -3.8125zm2.203125 0.1875q0 1.484375 0.59375 2.34375q0.609375 0.84375 1.6875 0.84375q1.34375 0 1.984375 -1.140625l0 -4.34375q-0.625 -1.109375 -1.96875 -1.109375q-1.09375 0 -1.703125 0.859375q-0.59375 0.859375 -0.59375 2.546875zm13.091736 5.0q-2.09375 0 -3.40625 -1.328125q-1.3125 -1.328125 -1.3125 -3.53125l0 -0.28125q0 -1.46875 0.5625 -2.625q0.578125 -1.171875 1.609375 -1.8125q1.03125 -0.640625 2.296875 -0.640625q2.015625 0 3.109375 1.28125q1.09375 1.28125 1.09375 3.625l0 0.890625l-6.4375 0q0.109375 1.234375 0.8125 1.953125q0.71875 0.703125 1.8125 0.703125q1.515625 0 2.46875 -1.234375l1.203125 1.140625q-0.59375 0.875 -1.59375 1.375q-0.984375 0.484375 -2.21875 0.484375zm-0.265625 -8.453125q-0.90625 0 -1.46875 0.640625q-0.5625 0.640625 -0.703125 1.78125l4.203125 0l0 -0.171875q-0.0625 -1.109375 -0.59375 -1.671875q-0.515625 -0.578125 -1.4375 -0.578125zm8.026978 -1.59375l0.0625 1.03125q1.03125 -1.203125 2.84375 -1.203125q1.96875 0 2.703125 1.5q1.078125 -1.5 3.015625 -1.5q1.640625 0 2.4375 0.90625q0.796875 0.890625 0.8125 2.640625l0 6.484375l-2.21875 0l0 -6.40625q0 -0.9375 -0.40625 -1.375q-0.40625 -0.4375 -1.359375 -0.4375q-0.75 0 -1.234375 0.40625q-0.46875 0.390625 -0.671875 1.046875l0.015625 6.765625l-2.21875 0l0 -6.484375q-0.046875 -1.734375 -1.765625 -1.734375q-1.328125 0 -1.890625 1.078125l0 7.140625l-2.21875 0l0 -9.859375l2.09375 0zm18.483124 10.046875q-2.09375 0 -3.40625 -1.328125q-1.3125 -1.328125 -1.3125 -3.53125l0 -0.28125q0 -1.46875 0.5625 -2.625q0.578125 -1.171875 1.609375 -1.8125q1.03125 -0.640625 2.296875 -0.640625q2.015625 0 3.109375 1.28125q1.09375 1.28125 1.09375 3.625l0 0.890625l-6.4375 0q0.109375 1.234375 0.8125 1.953125q0.71875 0.703125 1.8125 0.703125q1.515625 0 2.46875 -1.234375l1.203125 1.140625q-0.59375 0.875 -1.59375 1.375q-0.984375 0.484375 -2.21875 0.484375zm-0.265625 -8.453125q-0.90625 0 -1.46875 0.640625q-0.5625 0.640625 -0.703125 1.78125l4.203125 0l0 -0.171875q-0.0625 -1.109375 -0.59375 -1.671875q-0.515625 -0.578125 -1.4375 -0.578125zm7.995697 -1.59375l0.0625 1.140625q1.09375 -1.3125 2.875 -1.3125q3.078125 0 3.125 3.515625l0 6.515625l-2.203125 0l0 -6.390625q0 -0.9375 -0.40625 -1.375q-0.40625 -0.453125 -1.328125 -0.453125q-1.34375 0 -2.0 1.203125l0 7.015625l-2.203125 0l0 -9.859375l2.078125 0zm11.094482 -2.390626l0 2.390626l1.734375 0l0 1.640625l-1.734375 0l0 5.5q0 0.5625 0.21875 0.8125q0.234375 0.25 0.796875 0.25q0.390625 0 0.78125 -0.078125l0 1.703125q-0.75 0.21875 -1.453125 0.21875q-2.5625 0 -2.5625 -2.8125l0 -5.59375l-1.609375 0l0 -1.640625l1.609375 0l0 -2.390626l2.21875 0z" fill-rule="nonzero"/><path fill="#92e1e6" d="m478.36127 144.45439c11.381561 0 20.650208 9.267563 20.650208 20.647781c0 11.38237 -9.268646 20.647797 -20.650208 20.647797c-11.381531 0 -20.650177 -9.265427 -20.650177 -20.647797c0 -11.3802185 9.268646 -20.647781 20.650177 -20.647781zm1.5782776 80.784256c4.7861633 0.17747498 8.376862 1.5780792 8.376862 3.2844849c0 1.8068848 -4.328491 3.2844849 -9.623657 3.2844849c-5.322937 0 -9.548767 -1.4776001 -9.548767 -3.2844849c0 -1.629425 3.4623718 -2.978714 7.9191895 -3.2588348l0 0.5345917c-2.8528748 0.25445557 -5.2203064 1.1953278 -5.2203064 2.2901611c0 1.3001099 3.0303955 2.369278 6.849884 2.369278c3.7938538 0 6.950409 -1.0691681 6.950409 -2.369278c0 -1.1696777 -2.5213928 -2.1640015 -5.7036133 -2.3414917l0 -0.50891113zm-1.5526123 -100.9723c-1.9867249 0 -3.5136719 1.6294174 -3.5136719 3.6159286c0 1.5780945 0.940979 2.9273834 2.519226 3.4106445l0 10.311066c-12.399506 0.61157227 -22.38028 10.896973 -22.38028 23.498184c0 12.526382 9.649292 22.736954 22.074463 23.500336l0 35.97325c-7.001709 0.28012085 -12.653992 2.3436127 -12.653992 4.8625793c0 2.7242432 6.366577 4.9138947 14.260071 4.9138947c7.891388 0 14.334961 -2.1896515 14.334961 -4.9138947c0 -2.570282 -5.754944 -4.682968 -13.088165 -4.8882446l0 -35.947586c12.425201 -0.76338196 22.07663 -10.973953 22.07663 -23.500336c0 -12.601212 -9.98291 -22.912277 -22.382446 -23.498184l0 -10.311066c1.5782776 -0.4832611 2.3674316 -1.83255 2.3674316 -3.4106445c0 -1.9865112 -1.6296082 -3.6159286 -3.6142273 -3.6159286z" fill-rule="evenodd"/><g filter="url(#shadowFilter-g31009d68617_0_0.6)"><use xlink:href="#g31009d68617_0_0.6" transform="matrix(1.0 0.0 0.0 1.0 0.0 2.0)"/></g><defs><filter id="shadowFilter-g31009d68617_0_0.6" filterUnits="userSpaceOnUse"><feGaussianBlur in="SourceAlpha" stdDeviation="3.0" result="blur"/><feComponentTransfer in="blur" color-interpolation-filters="sRGB"><feFuncR type="linear" slope="0" intercept="0.03529412"/><feFuncG type="linear" slope="0" intercept="0.4627451"/><feFuncB type="linear" slope="0" intercept="0.5411765"/><feFuncA type="linear" slope="0.5" intercept="0"/></feComponentTransfer></filter></defs><g id="g31009d68617_0_0.6"><path fill="#09768a" d="m488.4261 139.65697c-3.0527039 -1.2362518 -6.3898926 -1.9200134 -9.885712 -1.9200134c-3.4903564 0 -6.8220825 0.6837616 -9.869324 1.9145508c3.5396118 0.17503357 6.893219 1.0557404 9.929504 2.4943848c5.2683716 2.4943848 9.579346 6.6900024 12.216248 11.881165c1.8217773 3.5774841 2.8502808 7.6253967 2.8502808 11.914001c0 3.4954224 -0.6838379 6.8322144 -1.920227 9.879089c4.316437 -2.5053253 7.850586 -6.2031555 10.159241 -10.63945c1.0777588 -2.0622406 1.881958 -4.2885895 2.3797913 -6.629822c-1.8327026 -8.604553 -7.866974 -15.650101 -15.859802 -18.893906z" fill-rule="evenodd"/></g><g filter="url(#shadowFilter-g31009d68617_0_0.7)"><use xlink:href="#g31009d68617_0_0.7" transform="matrix(1.0 0.0 0.0 1.0 0.0 2.0)"/></g><defs><filter id="shadowFilter-g31009d68617_0_0.7" filterUnits="userSpaceOnUse"><feGaussianBlur in="SourceAlpha" stdDeviation="3.0" result="blur"/><feComponentTransfer in="blur" color-interpolation-filters="sRGB"><feFuncR type="linear" slope="0" intercept="0.03529412"/><feFuncG type="linear" slope="0" intercept="0.4627451"/><feFuncB type="linear" slope="0" intercept="0.5411765"/><feFuncA type="linear" slope="0.5" intercept="0"/></feComponentTransfer></filter></defs><g id="g31009d68617_0_0.7"><path fill="#92e1e6" d="m478.5575 189.81378c-5.91391 -2.8061829 -10.618774 -7.745743 -13.113464 -13.828552c-1.2583008 -3.0796814 -1.953064 -6.4438324 -1.953064 -9.972076c0 -4.3214264 1.0394287 -8.402161 2.8885498 -11.996048c-4.8088074 2.4943848 -8.747772 6.432907 -11.247925 11.235687c-0.90267944 1.7340393 -1.6138916 3.5774841 -2.1171875 5.5084534c2.8338623 10.912949 12.49527 19.07988 24.153534 19.659729c0.44311523 0.021881104 0.886261 0.032821655 1.3293762 0.032821655c0.4814453 0 0.95739746 -0.010940552 1.4333496 -0.03829956c-0.46499634 -0.19145203 -0.92456055 -0.38838196 -1.373169 -0.6017151z" fill-rule="evenodd"/></g><g filter="url(#shadowFilter-g31009d68617_0_0.8)"><use xlink:href="#g31009d68617_0_0.8" transform="matrix(1.0 0.0 0.0 1.0 0.0 2.0)"/></g><defs><filter id="shadowFilter-g31009d68617_0_0.8" filterUnits="userSpaceOnUse"><feGaussianBlur in="SourceAlpha" stdDeviation="3.0" result="blur"/><feComponentTransfer in="blur" color-interpolation-filters="sRGB"><feFuncR type="linear" slope="0" intercept="0.03529412"/><feFuncG type="linear" slope="0" intercept="0.4627451"/><feFuncB type="linear" slope="0" intercept="0.5411765"/><feFuncA type="linear" slope="0.5" intercept="0"/></feComponentTransfer></filter></defs><g id="g31009d68617_0_0.8"><path fill="#64cbd2" d="m504.29166 158.62764c-0.49783325 2.3412323 -1.3020325 4.567581 -2.3797913 6.629837c-2.3086548 4.4362946 -5.842804 8.1341095 -10.159241 10.639435c-3.8842468 2.2591858 -8.392181 3.5501404 -13.206482 3.5501404c-4.748657 0 -9.201874 -1.2581482 -13.053314 -3.457138c2.49469 6.0828094 7.1995544 11.022354 13.113495 13.828537c0.4486084 0.21333313 0.9081421 0.41026306 1.373169 0.6017151c11.614471 -0.6235962 21.226654 -8.774124 24.049591 -19.654251c0.55255127 -2.1169434 0.8424988 -4.3378296 0.8424988 -6.629822c0 -1.887207 -0.2024231 -3.7306519 -0.57992554 -5.5084534z" fill-rule="evenodd"/></g><g filter="url(#shadowFilter-g31009d68617_0_0.9)"><use xlink:href="#g31009d68617_0_0.9" transform="matrix(1.0 0.0 0.0 1.0 0.0 2.0)"/></g><defs><filter id="shadowFilter-g31009d68617_0_0.9" filterUnits="userSpaceOnUse"><feGaussianBlur in="SourceAlpha" stdDeviation="3.0" result="blur"/><feComponentTransfer in="blur" color-interpolation-filters="sRGB"><feFuncR type="linear" slope="0" intercept="0.03529412"/><feFuncG type="linear" slope="0" intercept="0.4627451"/><feFuncB type="linear" slope="0" intercept="0.5411765"/><feFuncA type="linear" slope="0.5" intercept="0"/></feComponentTransfer></filter></defs><g id="g31009d68617_0_0.9"><path fill="#eeff41" d="m478.5403 142.1589c-3.0362854 -1.4386444 -6.389862 -2.319336 -9.929474 -2.4943848c-7.998291 3.238327 -14.043518 10.289352 -15.876221 18.899368c-0.37750244 1.7778015 -0.579895 3.6212463 -0.579895 5.5084534c0 2.2919922 0.29541016 4.512863 0.8424988 6.629822c0.5032959 -1.9309692 1.214508 -3.774414 2.1171875 -5.5084534c2.5001526 -4.80278 6.4391174 -8.7413025 11.247925 -11.235687c3.6271362 -1.887207 7.746643 -2.9538727 12.117798 -2.9538727c4.4368286 0 8.611023 1.0994873 12.276459 3.0359344c-2.6369324 -5.1911774 -6.9479065 -9.386795 -12.216278 -11.88118z" fill-rule="evenodd"/></g><path fill="#92e1e6" d="m351.95343 103.82363c8.020294 0 14.551636 6.531357 14.551636 14.551628c0 8.021782 -6.5313416 14.551636 -14.551636 14.551636c-8.020264 0 -14.551605 -6.529854 -14.551605 -14.551636c0 -8.020271 6.5313416 -14.551628 14.551605 -14.551628zm1.1121826 56.933098c3.3726807 0.1250763 5.9029236 1.1121674 5.9029236 2.3147583c0 1.273407 -3.050171 2.3147583 -6.7815247 2.3147583c-3.7509155 0 -6.72876 -1.0413513 -6.72876 -2.3147583c0 -1.148346 2.4398499 -2.0992584 5.5804443 -2.2966766l0 0.37675476c-2.0103455 0.17932129 -3.6786194 0.8424072 -3.6786194 1.6139984c0 0.91625977 2.135437 1.669754 4.826935 1.669754c2.6734314 0 4.897766 -0.75349426 4.897766 -1.669754c0 -0.8243408 -1.7767639 -1.5250854 -4.019165 -1.650177l0 -0.35865784zm-1.0940857 -71.16072c-1.4000244 0 -2.4760132 1.1483383 -2.4760132 2.5483475c0 1.1121674 0.66308594 2.0630875 1.775238 2.4036713l0 7.2667694c-8.737579 0.4310074 -15.770782 7.679695 -15.770782 16.560463c0 8.828026 6.799591 16.023972 15.555298 16.561966l0 25.352325c-4.9339294 0.19741821 -8.916931 1.6516724 -8.916931 3.4269257c0 1.9199219 4.486328 3.4631042 10.048676 3.4631042c5.560852 0 10.101471 -1.5431824 10.101471 -3.4631042c0 -1.8114166 -4.055359 -3.3003387 -9.22287 -3.4450073l0 -25.334244c8.755676 -0.5379944 15.556793 -7.73394 15.556793 -16.561966c0 -8.880768 -7.0346985 -16.147545 -15.772308 -16.560463l0 -7.2667694c1.1121826 -0.3405838 1.6682739 -1.2915039 1.6682739 -2.4036713c0 -1.4000092 -1.148346 -2.5483475 -2.5468445 -2.5483475z" fill-rule="evenodd"/><g filter="url(#shadowFilter-g31009d68617_0_0.10)"><use xlink:href="#g31009d68617_0_0.10" transform="matrix(1.0 0.0 0.0 1.0 0.0 2.0)"/></g><defs><filter id="shadowFilter-g31009d68617_0_0.10" filterUnits="userSpaceOnUse"><feGaussianBlur in="SourceAlpha" stdDeviation="3.0" result="blur"/><feComponentTransfer in="blur" color-interpolation-filters="sRGB"><feFuncR type="linear" slope="0" intercept="0.03529412"/><feFuncG type="linear" slope="0" intercept="0.4627451"/><feFuncB type="linear" slope="0" intercept="0.5411765"/><feFuncA type="linear" slope="0.5" intercept="0"/></feComponentTransfer></filter></defs><g id="g31009d68617_0_0.10"><path fill="#09768a" d="m359.04584 100.44263c-2.1511536 -0.8712616 -4.502777 -1.3531494 -6.9661865 -1.3531494c-2.4595642 0 -4.8073425 0.48188782 -6.954651 1.349289c2.4942627 0.12336731 4.8574524 0.74404144 6.99704 1.7579346c3.712494 1.7579346 6.750305 4.714813 8.60849 8.373314c1.2837524 2.5212479 2.0085144 5.374031 2.0085144 8.396446c0 2.463417 -0.48190308 4.8150406 -1.3531494 6.9623413c3.041687 -1.7656479 5.532074 -4.371704 7.1589355 -7.498207c0.75946045 -1.4533768 1.3261719 -3.0224075 1.6769714 -4.6724014c-1.2914429 -6.0640945 -5.54364 -11.029488 -11.175964 -13.315567z" fill-rule="evenodd"/></g><g filter="url(#shadowFilter-g31009d68617_0_0.11)"><use xlink:href="#g31009d68617_0_0.11" transform="matrix(1.0 0.0 0.0 1.0 0.0 2.0)"/></g><defs><filter id="shadowFilter-g31009d68617_0_0.11" filterUnits="userSpaceOnUse"><feGaussianBlur in="SourceAlpha" stdDeviation="3.0" result="blur"/><feComponentTransfer in="blur" color-interpolation-filters="sRGB"><feFuncR type="linear" slope="0" intercept="0.03529412"/><feFuncG type="linear" slope="0" intercept="0.4627451"/><feFuncB type="linear" slope="0" intercept="0.5411765"/><feFuncA type="linear" slope="0.5" intercept="0"/></feComponentTransfer></filter></defs><g id="g31009d68617_0_0.11"><path fill="#92e1e6" d="m352.0917 135.79088c-4.167389 -1.9776764 -7.482788 -5.458847 -9.240692 -9.745728c-0.88668823 -2.170433 -1.3762817 -4.5413284 -1.3762817 -7.027878c0 -3.0455475 0.7324524 -5.921463 2.035492 -8.454269c-3.3886414 1.757927 -6.164337 4.533615 -7.926117 7.9184036c-0.6361084 1.2220764 -1.1372681 2.5212479 -1.4919434 3.882103c1.9969482 7.6909637 8.805084 13.446655 17.020355 13.855286c0.31225586 0.015426636 0.6245117 0.023132324 0.9367981 0.023132324c0.3392334 0 0.6746216 -0.0077056885 1.0100403 -0.026977539c-0.32769775 -0.13493347 -0.6515198 -0.27371216 -0.96765137 -0.42407227z" fill-rule="evenodd"/></g><g filter="url(#shadowFilter-g31009d68617_0_0.12)"><use xlink:href="#g31009d68617_0_0.12" transform="matrix(1.0 0.0 0.0 1.0 0.0 2.0)"/></g><defs><filter id="shadowFilter-g31009d68617_0_0.12" filterUnits="userSpaceOnUse"><feGaussianBlur in="SourceAlpha" stdDeviation="3.0" result="blur"/><feComponentTransfer in="blur" color-interpolation-filters="sRGB"><feFuncR type="linear" slope="0" intercept="0.03529412"/><feFuncG type="linear" slope="0" intercept="0.4627451"/><feFuncB type="linear" slope="0" intercept="0.5411765"/><feFuncA type="linear" slope="0.5" intercept="0"/></feComponentTransfer></filter></defs><g id="g31009d68617_0_0.12"><path fill="#64cbd2" d="m370.2259 113.8123c-0.35083008 1.6499939 -0.9175415 3.2190247 -1.6769714 4.6724014c-1.6268616 3.126503 -4.117279 5.732559 -7.158966 7.4981995c-2.7371216 1.5921631 -5.9137573 2.501976 -9.306244 2.501976c-3.3462524 0 -6.484314 -0.8866806 -9.198303 -2.4364395c1.7579346 4.286888 5.0733337 7.768059 9.240692 9.745735c0.3161316 0.15034485 0.6399536 0.2891388 0.96765137 0.424057c8.184418 -0.43946838 14.957855 -6.1835938 16.947083 -13.851425c0.38937378 -1.4919281 0.59368896 -3.057106 0.59368896 -4.6724014c0 -1.3300171 -0.14263916 -2.6291885 -0.40863037 -3.882103z" fill-rule="evenodd"/></g><g filter="url(#shadowFilter-g31009d68617_0_0.13)"><use xlink:href="#g31009d68617_0_0.13" transform="matrix(1.0 0.0 0.0 1.0 0.0 2.0)"/></g><defs><filter id="shadowFilter-g31009d68617_0_0.13" filterUnits="userSpaceOnUse"><feGaussianBlur in="SourceAlpha" stdDeviation="3.0" result="blur"/><feComponentTransfer in="blur" color-interpolation-filters="sRGB"><feFuncR type="linear" slope="0" intercept="0.03529412"/><feFuncG type="linear" slope="0" intercept="0.4627451"/><feFuncB type="linear" slope="0" intercept="0.5411765"/><feFuncA type="linear" slope="0.5" intercept="0"/></feComponentTransfer></filter></defs><g id="g31009d68617_0_0.13"><path fill="#eeff41" d="m352.0796 102.20588c-2.1395874 -1.0139008 -4.5027466 -1.6345749 -6.9970093 -1.7579346c-5.6362 2.2822266 -9.896088 7.2514725 -11.187561 13.3194275c-0.2659912 1.2529144 -0.40863037 2.5520859 -0.40863037 3.882103c0 1.6152954 0.2081604 3.1804733 0.59368896 4.6724014c0.35464478 -1.3608551 0.85583496 -2.6600342 1.4919128 -3.882103c1.7617798 -3.3847961 4.5374756 -6.1604767 7.926117 -7.9184113c2.5559387 -1.3300171 5.4588623 -2.0817642 8.539093 -2.0817642c3.1264954 0 6.0679626 0.77487946 8.650879 2.139595c-1.8581543 -3.6585083 -4.895996 -6.6153793 -8.60849 -8.373314z" fill-rule="evenodd"/></g><path fill="#92e1e6" d="m393.23682 52.79919c6.5715637 0 11.923157 5.351597 11.923157 11.923168c0 6.5728073 -5.351593 11.923164 -11.923157 11.923164c-6.571594 0 -11.923187 -5.350357 -11.923187 -11.923164c0 -6.5715714 5.351593 -11.923168 11.923187 -11.923168zm0.9112549 46.649265c2.7634888 0.10248566 4.8367004 0.9112778 4.8367004 1.8966446c0 1.043396 -2.499237 1.8966446 -5.5565796 1.8966446c-3.0733948 0 -5.513336 -0.8532486 -5.513336 -1.8966446c0 -0.94091034 1.999115 -1.7200699 4.572418 -1.8818283l0 0.30870056c-1.6472168 0.14694214 -3.0141296 0.6902466 -3.0141296 1.322464c0 0.7507553 1.7497253 1.3681488 3.9550476 1.3681488c2.1905212 0 4.013092 -0.6173935 4.013092 -1.3681488c0 -0.6754303 -1.4558411 -1.2496109 -3.293213 -1.3520966l0 -0.29388428zm-0.89645386 -58.30695c-1.1471252 0 -2.0287476 0.94091415 -2.0287476 2.0880356c0 0.9112778 0.54330444 1.6904335 1.4545898 1.9694977l0 5.954174c-7.159363 0.3531494 -12.922119 6.292507 -12.922119 13.569145c0 7.2334213 5.5713806 13.129562 12.745514 13.570381l0 20.772934c-4.042694 0.16175842 -7.306244 1.3533325 -7.306244 2.8079147c0 1.5731277 3.6759644 2.837555 8.233582 2.837555c4.5563965 0 8.276825 -1.2644272 8.276825 -2.837555c0 -1.4842224 -3.322815 -2.704193 -7.556946 -2.8227386l0 -20.75811c7.174164 -0.4408188 12.746796 -6.33696 12.746796 -13.570381c0 -7.276638 -5.764038 -13.230812 -12.92337 -13.569145l0 -5.954174c0.9112854 -0.27906418 1.3669434 -1.0582199 1.3669434 -1.9694977c0 -1.1471214 -0.94091797 -2.0880356 -2.0868225 -2.0880356z" fill-rule="evenodd"/><g filter="url(#shadowFilter-g31009d68617_0_0.14)"><use xlink:href="#g31009d68617_0_0.14" transform="matrix(1.0 0.0 0.0 1.0 0.0 2.0)"/></g><defs><filter id="shadowFilter-g31009d68617_0_0.14" filterUnits="userSpaceOnUse"><feGaussianBlur in="SourceAlpha" stdDeviation="3.0" result="blur"/><feComponentTransfer in="blur" color-interpolation-filters="sRGB"><feFuncR type="linear" slope="0" intercept="0.03529412"/><feFuncG type="linear" slope="0" intercept="0.4627451"/><feFuncB type="linear" slope="0" intercept="0.5411765"/><feFuncA type="linear" slope="0.5" intercept="0"/></feComponentTransfer></filter></defs><g id="g31009d68617_0_0.14"><path fill="#09768a" d="m399.0481 50.028896c-1.7625732 -0.71388245 -3.6894226 -1.1087265 -5.7078857 -1.1087265c-2.0152893 0 -3.9389954 0.39484406 -5.6984253 1.1055679c2.0437317 0.10108185 3.9800415 0.609642 5.733185 1.4403954c3.04187 1.4403992 5.5309753 3.8631744 7.0534973 6.8608437c1.0518799 2.065834 1.6457214 4.4033203 1.6457214 6.879795c0 2.0184479 -0.39483643 3.9452972 -1.1087036 5.704727c2.4922485 -1.4467087 4.5328064 -3.5820389 5.865814 -6.143799c0.62228394 -1.1908531 1.0866089 -2.476471 1.374054 -3.8284264c-1.0581665 -4.9687386 -4.5422974 -9.037228 -9.157257 -10.9103775z" fill-rule="evenodd"/></g><g filter="url(#shadowFilter-g31009d68617_0_0.15)"><use xlink:href="#g31009d68617_0_0.15" transform="matrix(1.0 0.0 0.0 1.0 0.0 2.0)"/></g><defs><filter id="shadowFilter-g31009d68617_0_0.15" filterUnits="userSpaceOnUse"><feGaussianBlur in="SourceAlpha" stdDeviation="3.0" result="blur"/><feComponentTransfer in="blur" color-interpolation-filters="sRGB"><feFuncR type="linear" slope="0" intercept="0.03529412"/><feFuncG type="linear" slope="0" intercept="0.4627451"/><feFuncB type="linear" slope="0" intercept="0.5411765"/><feFuncA type="linear" slope="0.5" intercept="0"/></feComponentTransfer></filter></defs><g id="g31009d68617_0_0.15"><path fill="#92e1e6" d="m393.3501 78.992195c-3.4146118 -1.6204453 -6.1311646 -4.472809 -7.5715637 -7.985359c-0.72650146 -1.778389 -1.1276855 -3.7210312 -1.1276855 -5.7584305c0 -2.49543 0.6001892 -4.8518677 1.6678467 -6.9271774c-2.7765503 1.4403954 -5.050873 3.7147102 -6.4944153 6.488106c-0.5212097 1.0013275 -0.93185425 2.065834 -1.2224426 3.1808777c1.6362305 6.3017426 7.2145996 11.0177765 13.945953 11.352608c0.25585938 0.012634277 0.51171875 0.018951416 0.7675781 0.018951416c0.2779541 0 0.5527649 -0.0063171387 0.8275757 -0.022109985c-0.26849365 -0.110557556 -0.5338135 -0.22427368 -0.7928467 -0.34746552z" fill-rule="evenodd"/></g><g filter="url(#shadowFilter-g31009d68617_0_0.16)"><use xlink:href="#g31009d68617_0_0.16" transform="matrix(1.0 0.0 0.0 1.0 0.0 2.0)"/></g><defs><filter id="shadowFilter-g31009d68617_0_0.16" filterUnits="userSpaceOnUse"><feGaussianBlur in="SourceAlpha" stdDeviation="3.0" result="blur"/><feComponentTransfer in="blur" color-interpolation-filters="sRGB"><feFuncR type="linear" slope="0" intercept="0.03529412"/><feFuncG type="linear" slope="0" intercept="0.4627451"/><feFuncB type="linear" slope="0" intercept="0.5411765"/><feFuncA type="linear" slope="0.5" intercept="0"/></feComponentTransfer></filter></defs><g id="g31009d68617_0_0.16"><path fill="#64cbd2" d="m408.2087 60.98361c-0.28744507 1.3519516 -0.75180054 2.6375694 -1.3740845 3.8284264c-1.3329773 2.56176 -3.3735657 4.6970825 -5.865814 6.143799c-2.2427368 1.304573 -4.8455505 2.0500412 -7.6252747 2.0500412c-2.7417908 0 -5.3130493 -0.7265167 -7.536804 -1.9963455c1.4403992 3.5125504 4.1569214 6.3649216 7.5715637 7.985367c0.2590027 0.12319183 0.524353 0.23690796 0.7928467 0.34746552c6.7060547 -0.3600998 12.256012 -5.0666656 13.885925 -11.349449c0.31903076 -1.2224426 0.4864502 -2.5049057 0.4864502 -3.8284302c0 -1.0897713 -0.11685181 -2.154274 -0.33480835 -3.1808739z" fill-rule="evenodd"/></g><g filter="url(#shadowFilter-g31009d68617_0_0.17)"><use xlink:href="#g31009d68617_0_0.17" transform="matrix(1.0 0.0 0.0 1.0 0.0 2.0)"/></g><defs><filter id="shadowFilter-g31009d68617_0_0.17" filterUnits="userSpaceOnUse"><feGaussianBlur in="SourceAlpha" stdDeviation="3.0" result="blur"/><feComponentTransfer in="blur" color-interpolation-filters="sRGB"><feFuncR type="linear" slope="0" intercept="0.03529412"/><feFuncG type="linear" slope="0" intercept="0.4627451"/><feFuncB type="linear" slope="0" intercept="0.5411765"/><feFuncA type="linear" slope="0.5" intercept="0"/></feComponentTransfer></filter></defs><g id="g31009d68617_0_0.17"><path fill="#eeff41" d="m393.34018 51.47365c-1.7531128 -0.83075714 -3.6894226 -1.3393173 -5.7331543 -1.4403992c-4.6181335 1.8699913 -8.108551 5.9416428 -9.166748 10.91354c-0.21795654 1.0265999 -0.33483887 2.0911026 -0.33483887 3.1808777c0 1.3235245 0.17059326 2.60598 0.4864502 3.8284225c0.2906189 -1.1150436 0.7012634 -2.1795425 1.2224426 -3.1808777c1.443573 -2.7733955 3.7178955 -5.0477066 6.494446 -6.488106c2.0942688 -1.0897713 4.472809 -1.7057304 6.9966736 -1.7057304c2.561737 0 4.9718933 0.6349106 7.088257 1.7531128c-1.522522 -2.9976692 -4.011627 -5.4204407 -7.053528 -6.86084z" fill-rule="evenodd"/></g></g></svg>