<svg width="2640" height="1032" xmlns="http://www.w3.org/2000/svg" xmlns:xlink="http://www.w3.org/1999/xlink" xml:space="preserve" overflow="hidden"><defs><clipPath id="clip0"><path d="M2756.91 1097.7 2804.83 1276.54 2625.99 1324.46 2578.07 1145.62Z" fill-rule="nonzero" clip-rule="nonzero"/></clipPath><clipPath id="clip1"><path d="M2756.91 1097.7 2804.83 1276.54 2625.99 1324.46 2578.07 1145.62Z" fill-rule="evenodd" clip-rule="evenodd"/></clipPath><clipPath id="clip2"><path d="M2756.91 1097.7 2804.83 1276.54 2625.99 1324.46 2578.07 1145.62Z" fill-rule="evenodd" clip-rule="evenodd"/></clipPath></defs><g transform="translate(-330 -375)"><g><rect x="1268" y="383" width="1250" height="311" fill="#19768A" fill-opacity="1"/><path d="M334 540.98 334 771 803 690.669 803 379 334 540.98Z" fill="#19768A" fill-rule="evenodd" fill-opacity="1"/><text fill="#FFFFFF" fill-opacity="1" font-family="Roboto,Roboto_MSFontService,sans-serif" font-style="normal" font-variant="normal" font-weight="400" font-stretch="normal" font-size="110" text-anchor="start" direction="ltr" writing-mode="lr-tb" unicode-bidi="normal" text-decoration="none" transform="matrix(1 0 0 1 1383.6 584)">Models &amp; AI</text><rect x="830" y="383" width="413" height="311" fill="#19768A" fill-opacity="1"/><rect x="907" y="428" width="259" height="220" fill="#19768A" fill-opacity="1"/><text fill="#FFFFFF" fill-opacity="1" font-family="Roboto,Roboto_MSFontService,sans-serif" font-style="normal" font-variant="normal" font-weight="400" font-stretch="normal" font-size="160" text-anchor="start" direction="ltr" writing-mode="lr-tb" unicode-bidi="normal" text-decoration="none" transform="matrix(1 0 0 1 991.376 594)">1</text><path d="M2545 719 2812 719 2968 875 2812 1031 2545 1031Z" fill="#56B3B9" fill-rule="evenodd" fill-opacity="1"/><rect x="1270" y="719" width="1249" height="312" fill="#56B3B9" fill-opacity="1"/><path d="M334 798.53 334 1029.56 803 1030 803 718 334 798.53Z" fill="#56B3B9" fill-rule="evenodd" fill-opacity="1"/><path d="M2735.5 831.799 2737.91 836.608C2738.43 837.687 2739.31 838.542 2740.36 839.066L2745.17 841.505 2740.36 843.914C2739.31 844.439 2738.43 845.284 2737.91 846.372L2735.5 851.182 2733.06 846.372C2732.54 845.284 2731.68 844.439 2730.61 843.914L2725.8 841.505 2730.61 839.066C2731.68 838.542 2732.54 837.687 2733.06 836.608L2735.5 831.799ZM2735.48 814C2733.54 814 2731.59 815.01 2730.58 817.041L2724.06 830.06 2711.05 836.579C2707 838.6 2707 844.381 2711.05 846.401L2724.06 852.921 2730.58 865.94C2731.59 867.98 2733.54 869 2735.48 869 2737.43 869 2739.38 867.98 2740.39 865.94L2746.91 852.921 2759.95 846.401C2764 844.381 2764 838.6 2759.95 836.579L2746.91 830.06 2740.39 817.041C2739.38 815.01 2737.43 814 2735.48 814Z" fill="#56B3B9" fill-rule="evenodd" fill-opacity="1"/><path d="M2779.31 875.796 2781.7 880.604C2782.22 881.692 2783.1 882.566 2784.2 883.101L2789.04 885.5 2784.2 887.88C2783.1 888.404 2782.22 889.288 2781.7 890.367L2779.31 895.185 2776.9 890.367C2776.37 889.288 2775.53 888.434 2774.48 887.909L2769.67 885.5 2774.48 883.072C2775.53 882.537 2776.37 881.692 2776.9 880.604L2779.31 875.796ZM2779.3 858C2777.36 858 2775.42 859.02 2774.42 861.04L2767.96 874.067 2755.02 880.575C2751 882.596 2751 888.375 2755.02 890.396L2767.96 896.914 2774.42 909.93C2775.42 911.97 2777.36 912.99 2779.3 912.99 2781.23 912.99 2783.17 911.97 2784.17 909.93L2790.64 896.943 2803.89 890.425C2807.99 888.434 2807.99 882.537 2803.89 880.546L2790.64 874.038 2784.17 861.04C2783.17 859.02 2781.23 858 2779.3 858Z" fill="#56B3B9" fill-rule="evenodd" fill-opacity="1"/><path d="M2713.01 792.022C2713.79 792.022 2714.57 792.022 2715.39 792.051 2696.55 808.88 2685.75 833.054 2685.77 858.492 2685.77 900.759 2715.36 937.122 2756.4 945.293 2743.41 953.572 2728.39 957.978 2713.01 957.978 2667.73 957.978 2630.9 920.769 2630.9 875 2630.9 829.24 2667.73 792.022 2713.01 792.022ZM2713.01 781.01C2688.28 781.01 2664.93 790.815 2647.32 808.617 2629.71 826.419 2620 850.009 2620 875 2620 900.001 2629.71 923.581 2647.32 941.383 2664.93 959.185 2688.25 968.99 2713.01 968.99 2735.59 968.961 2757.39 960.595 2774.27 945.468 2778 942.151 2775.76 935.984 2770.82 935.828 2729.93 934.69 2696.67 900.001 2696.67 858.492 2696.67 832.003 2710.4 806.857 2732.51 792.819 2736.7 790.173 2735.5 783.685 2730.65 782.741 2724.84 781.593 2718.94 781.039 2713.01 781.01Z" fill="#56B3B9" fill-rule="evenodd" fill-opacity="1"/><rect x="830" y="720" width="413" height="311" fill="#56B3B9" fill-opacity="1"/><rect x="907" y="765" width="259" height="220" fill="#56B3B9" fill-opacity="1"/><text fill="#FFFFFF" fill-opacity="1" font-family="Roboto,Roboto_MSFontService,sans-serif" font-style="normal" font-variant="normal" font-weight="400" font-stretch="normal" font-size="160" text-anchor="start" direction="ltr" writing-mode="lr-tb" unicode-bidi="normal" text-decoration="none" transform="matrix(1 0 0 1 991.376 931)">2</text><rect x="1351" y="783" width="1008" height="197" fill="#56B3B9" fill-opacity="1"/><text fill="#FFFFFF" fill-opacity="1" font-family="Roboto,Roboto_MSFontService,sans-serif" font-style="normal" font-variant="normal" font-weight="400" font-stretch="normal" font-size="110" text-anchor="start" direction="ltr" writing-mode="lr-tb" unicode-bidi="normal" text-decoration="none" transform="matrix(1 0 0 1 1383.6 920)">Smart Medication</text><path d="M2544 383 2810.5 383 2966 538.5 2810.5 694 2544 694Z" fill="#19768A" fill-rule="evenodd" fill-opacity="1"/><rect x="1270" y="1057" width="1249" height="311" fill="#92E1E7" fill-opacity="1"/><path d="M334 1287.73 334 1057.44 803 1057 803 1368 334 1287.73Z" fill="#92E1E7" fill-rule="evenodd" fill-opacity="1"/><rect x="830" y="1057" width="413" height="311" fill="#92E1E7" fill-opacity="1"/><text fill="#FFFFFF" fill-opacity="1" font-family="Roboto,Roboto_MSFontService,sans-serif" font-style="normal" font-variant="normal" font-weight="400" font-stretch="normal" font-size="160" text-anchor="start" direction="ltr" writing-mode="lr-tb" unicode-bidi="normal" text-decoration="none" transform="matrix(1 0 0 1 991.376 1268)">3</text><text fill="#FFFFFF" fill-opacity="1" font-family="Roboto,Roboto_MSFontService,sans-serif" font-style="normal" font-variant="normal" font-weight="400" font-stretch="normal" font-size="110" text-anchor="start" direction="ltr" writing-mode="lr-tb" unicode-bidi="normal" text-decoration="none" transform="matrix(1 0 0 1 1383.6 1258)">DTx</text><text fill="#FFFFFF" fill-opacity="1" font-family="Roboto,Roboto_MSFontService,sans-serif" font-style="normal" font-variant="normal" font-weight="400" font-stretch="normal" font-size="110" text-anchor="start" direction="ltr" writing-mode="lr-tb" unicode-bidi="normal" text-decoration="none" transform="matrix(1 0 0 1 1603.6 1258)">R&amp;D</text><path d="M2596.01 962 2597.6 971.897 2599.21 982 2607.2 973.791 2615 965.583 2605.6 963.688 2596.01 962Z" fill="#FFFFFF" fill-rule="evenodd" fill-opacity="1"/><path d="M2693 744C2687.01 744 2682.01 749.228 2682.01 755.5 2682.01 761.771 2687.01 767 2693 767 2699.2 767 2704 761.771 2704 755.5 2704 749.228 2699.2 744 2693 744Z" fill="#FFFFFF" fill-rule="evenodd" fill-opacity="1"/><path d="M2691.5 756.651C2760.33 756.651 2816.34 812.443 2816.34 881.003 2816.34 949.557 2760.33 1005.36 2691.5 1005.36 2622.67 1005.36 2566.66 949.557 2566.66 881.003 2566.66 812.443 2622.67 756.651 2691.5 756.651ZM2691.5 755C2621.64 755 2565 811.617 2565 881.003 2565 950.59 2621.64 1007 2691.5 1007 2761.15 1007 2817.99 950.59 2817.99 881.003 2817.99 811.617 2761.15 755 2691.5 755Z" fill="#FFFFFF" fill-rule="evenodd" fill-opacity="1"/><g><g><g><path d="M2726.56 950.833 2656.44 950.833 2656.44 826.167 2726.56 826.167 2726.56 950.833ZM2683.71 810.583 2699.29 810.583C2701.43 810.583 2703.19 812.337 2703.19 814.479 2703.19 816.622 2701.43 818.375 2699.29 818.375L2683.71 818.375C2681.57 818.375 2679.81 816.622 2679.81 814.479 2679.81 812.337 2681.57 810.583 2683.71 810.583ZM2734.35 802.792 2648.65 802.792C2646.5 802.792 2644.75 804.545 2644.75 806.688L2644.75 970.313C2644.75 972.455 2646.5 974.208 2648.65 974.208L2734.35 974.208C2736.5 974.208 2738.25 972.455 2738.25 970.313L2738.25 806.688C2738.25 804.545 2736.5 802.792 2734.35 802.792Z" fill="#FFFFFF" fill-rule="nonzero" fill-opacity="1"/></g></g></g><g><g><g><path d="M2709.33 904.292 2709.33 898.375 2684.19 898.375C2683.37 898.375 2682.71 897.709 2682.71 896.896L2682.71 882.104C2682.71 881.291 2683.37 880.625 2684.19 880.625L2709.33 880.625 2709.33 874.708C2709.33 873.081 2708 871.75 2706.38 871.75L2703.79 871.75C2703.56 871.75 2703.42 871.602 2703.42 871.38L2703.42 869.161C2703.42 868.94 2703.56 868.792 2703.79 868.792L2705.64 868.792C2706.08 868.792 2706.38 868.496 2706.38 868.052L2706.38 862.875C2706.38 861.248 2705.04 859.917 2703.42 859.917L2682.71 859.917C2681.08 859.917 2679.75 861.248 2679.75 862.875L2679.75 868.052C2679.75 868.496 2680.05 868.792 2680.49 868.792L2682.34 868.792C2682.56 868.792 2682.71 868.94 2682.71 869.161L2682.71 871.38C2682.71 871.602 2682.56 871.75 2682.34 871.75L2679.75 871.75C2678.12 871.75 2676.79 873.081 2676.79 874.708L2676.79 910.208C2676.79 911.835 2678.12 913.167 2679.75 913.167L2690.1 913.167C2690.1 908.285 2694.1 904.292 2698.98 904.292L2709.33 904.292Z" fill="#FFFFFF" fill-rule="nonzero" fill-opacity="1"/><path d="M2685.67 884.323 2685.67 894.677C2685.67 895.121 2685.96 895.417 2686.41 895.417L2709.33 895.417 2709.33 883.583 2686.41 883.583C2685.96 883.583 2685.67 883.879 2685.67 884.323Z" fill="#FFFFFF" fill-rule="nonzero" fill-opacity="1"/><path d="M2705.64 916.125 2698.98 916.125C2697.35 916.125 2696.02 914.794 2696.02 913.167 2696.02 911.54 2697.35 910.208 2698.98 910.208L2705.64 910.208 2705.64 916.125ZM2712.29 907.25 2698.98 907.25C2695.73 907.25 2693.06 909.912 2693.06 913.167 2693.06 916.421 2695.73 919.083 2698.98 919.083L2712.29 919.083C2715.55 919.083 2718.21 916.421 2718.21 913.167 2718.21 909.912 2715.55 907.25 2712.29 907.25Z" fill="#FFFFFF" fill-rule="nonzero" fill-opacity="1"/></g></g></g><path d="M2544 1059 2810.5 1059 2966 1214.5 2810.5 1370 2544 1370Z" fill="#92E1E7" fill-rule="evenodd" fill-opacity="1"/><path d="M2714.01 1145.4 2736.05 1189.17C2736.87 1190.75 2738.37 1191.84 2740.13 1192.1L2789.28 1199.11 2753.76 1233.04C2752.46 1234.3 2751.88 1236.07 2752.2 1237.82L2760.61 1285.83 2716.53 1263.12C2715.74 1262.72 2714.88 1262.52 2714.02 1262.52 2713.16 1262.52 2712.31 1262.72 2711.54 1263.12L2667.46 1285.83 2675.84 1237.82C2676.16 1236.07 2675.57 1234.27 2674.27 1233.04L2638.76 1199.11 2687.91 1192.1C2689.67 1191.84 2691.17 1190.75 2691.98 1189.17L2714.01 1145.4ZM2714 1128.01C2712.08 1128.01 2710.16 1129 2709.16 1130.97L2683.52 1181.87 2626.25 1190.04C2621.8 1190.66 2620.01 1196.11 2623.24 1199.2L2664.69 1238.79 2654.89 1294.68C2654.28 1298.17 2657.06 1300.99 2660.24 1300.99 2661.06 1300.99 2661.92 1300.8 2662.76 1300.37L2714.01 1273.95 2765.28 1300.37C2766.11 1300.8 2766.97 1300.99 2767.8 1300.99 2770.95 1300.99 2773.73 1298.17 2773.11 1294.7L2763.34 1238.79 2804.76 1199.23C2808 1196.11 2806.23 1190.66 2801.78 1190.04L2744.49 1181.87 2718.84 1130.97C2717.84 1129 2715.93 1128.01 2714 1128.01Z" fill="#92E1E7" fill-rule="evenodd" fill-opacity="1"/><path d="M2782.63 1111.01 2774.21 1118.8 2766.01 1126.6 2776.11 1128.19 2785.99 1129.99 2784.31 1120.6 2782.63 1111.01Z" fill="#FFFFFF" fill-rule="evenodd" fill-opacity="1"/><path d="M2689.5 1326.01C2683.23 1326.01 2678.01 1330.8 2678.01 1337 2678.01 1343 2683.23 1347.99 2689.5 1347.99 2695.98 1347.99 2701 1343 2701 1337 2701 1330.8 2695.98 1326.01 2689.5 1326.01Z" fill="#FFFFFF" fill-rule="evenodd" fill-opacity="1"/><path d="M2690.5 1086.86C2759.33 1086.86 2815.34 1142.83 2815.34 1211.6 2815.34 1280.38 2759.33 1336.34 2690.5 1336.34 2621.47 1336.34 2565.45 1280.38 2565.45 1211.6 2565.45 1142.83 2621.47 1086.86 2690.5 1086.86ZM2690.5 1085.01C2620.64 1085.01 2564.01 1141.8 2564.01 1211.6 2564.01 1281.2 2620.64 1337.99 2690.5 1337.99 2760.16 1337.99 2817 1281.2 2817 1211.6 2817 1141.8 2760.16 1085.01 2690.5 1085.01Z" fill="#FFFFFF" fill-rule="evenodd" fill-opacity="1"/><g clip-path="url(#clip0)"><g clip-path="url(#clip1)"><g clip-path="url(#clip2)"><path d="M139.826 121.696C136.74 118.611 132.111 117.068 127.868 118.032L119.189 109.546C126.904 99.5172 131.147 87.174 131.147 74.445 131.34 42.2369 105.303 16.2005 73.2879 16.0076 41.2726 15.8147 15.2362 41.8512 15.0433 73.8664 14.8504 105.882 40.8869 131.918 72.9021 132.111 85.6311 132.111 98.1672 127.868 108.389 120.154L116.875 128.639C116.103 133.075 117.453 137.511 120.539 140.79L144.647 164.898C149.854 170.105 158.533 170.105 163.74 164.898 168.948 159.69 168.948 151.012 163.74 145.804L139.826 121.696ZM73.2879 120.539C47.6371 120.539 27.0008 99.9029 27.0008 74.2522 27.0008 48.6014 47.6371 27.9651 73.2879 27.9651 98.9386 27.9651 119.575 48.6014 119.575 74.2522 119.575 99.7101 98.7457 120.539 73.2879 120.539Z" fill="#FFFFFF" fill-rule="nonzero" fill-opacity="1" transform="matrix(0.258819 0.965926 -0.96593 0.25882 2756.91 1097.7)"/><path d="M114.753 71.3592 103.76 71.3592C102.796 71.5521 101.832 72.1307 101.253 72.9021L93.9242 80.8095 87.7526 59.4017C87.174 57.666 85.2453 56.5088 83.5096 57.0874 82.5453 57.4731 81.5809 58.0517 81.1952 59.2089L69.6235 89.874 61.7161 47.4442C61.3304 45.5156 59.5946 44.3584 57.8588 44.7442 56.7017 44.937 55.7373 45.9013 55.1588 47.0585L46.8657 71.3592 31.8224 71.3592 31.8224 79.0737 49.3729 79.0737C50.9158 78.8809 52.2658 77.7237 52.6515 76.1808L57.4731 61.5232 65.1876 102.989C65.3805 104.532 66.7305 105.689 68.2734 105.689L68.6591 105.689C70.0092 105.689 71.3592 104.917 71.9378 103.567L84.281 71.1664 89.2955 88.524C89.874 90.2598 91.6098 91.417 93.5384 90.8384 94.117 90.6455 94.6956 90.2598 95.0813 89.874L105.496 79.0737 114.946 79.0737 114.946 71.3592Z" fill="#FFFFFF" fill-rule="nonzero" fill-opacity="1" transform="matrix(0.258819 0.965926 -0.96593 0.25882 2756.91 1097.7)"/></g></g></g><path d="M2658 1187C2658 1161.59 2678.82 1141 2704.5 1141 2730.18 1141 2751 1161.59 2751 1187 2751 1212.41 2730.18 1233 2704.5 1233 2678.82 1233 2658 1212.41 2658 1187Z" fill="#92E1E7" fill-rule="evenodd" fill-opacity="1"/><g><g><g><path d="M2718.5 1214 2691.5 1214 2691.5 1166 2718.5 1166 2718.5 1214ZM2702 1160 2708 1160C2708.82 1160 2709.5 1160.68 2709.5 1161.5 2709.5 1162.33 2708.82 1163 2708 1163L2702 1163C2701.17 1163 2700.5 1162.33 2700.5 1161.5 2700.5 1160.68 2701.17 1160 2702 1160ZM2721.5 1157 2688.5 1157C2687.67 1157 2687 1157.68 2687 1158.5L2687 1221.5C2687 1222.33 2687.67 1223 2688.5 1223L2721.5 1223C2722.32 1223 2723 1222.33 2723 1221.5L2723 1158.5C2723 1157.68 2722.32 1157 2721.5 1157Z" fill="#FFFFFF" fill-rule="nonzero" fill-opacity="1"/></g></g></g><rect x="2671" y="454" width="35" height="40.9999" fill="#19768A" fill-opacity="1"/><path d="M2814.5 527C2808.23 527 2803 532.017 2803 538.5 2803 544.771 2808.23 550 2814.5 550 2820.77 550 2825.99 544.771 2825.99 538.5 2825.99 532.017 2820.98 527 2814.5 527Z" fill="#FFFFFF" fill-rule="evenodd" fill-opacity="1"/><path d="M2605.43 463 2607.21 452.89 2608.99 443 2599.5 444.682 2590 446.37 2597.72 454.785 2605.43 463Z" fill="#FFFFFF" fill-rule="evenodd" fill-opacity="1"/><path d="M2690.5 663.342C2621.67 663.342 2565.66 607.331 2565.66 538.5 2565.66 469.67 2621.67 413.658 2690.5 413.658 2759.33 413.658 2815.34 469.67 2815.34 538.5 2815.34 607.331 2759.33 663.342 2690.5 663.342ZM2690.5 664.994C2760.16 664.994 2817 608.362 2817 538.5 2817 468.848 2760.16 412.007 2690.5 412.007 2620.85 412.007 2564.01 468.848 2564.01 538.5 2564.01 608.362 2620.85 664.994 2690.5 664.994Z" fill="#FFFFFF" fill-rule="evenodd" fill-opacity="1"/><g><g><g><path d="M2696.73 528.424 2684.66 528.424C2681.93 528.424 2679.59 526.671 2678.81 524.139L2675.11 512.256C2674.53 510.308 2674.14 508.36 2674.14 506.413L2674.14 504.465C2674.14 501.153 2676.86 498.426 2680.18 498.426L2700.43 498.426C2703.75 498.426 2706.47 501.153 2706.47 504.465L2706.47 506.607C2706.47 508.555 2706.28 510.308 2705.69 512.256L2702.19 524.333C2701.8 526.476 2699.27 528.424 2696.73 528.424Z" fill="#FFFFFF" fill-rule="nonzero" fill-opacity="1"/><path d="M2704.14 549.461 2704.14 549.461C2704.52 547.319 2704.33 544.981 2703.75 542.839L2701.99 536.605C2701.21 534.073 2698.88 532.32 2696.15 532.32L2685.05 532.32C2682.32 532.32 2679.98 534.073 2679.2 536.605L2677.45 542.839C2676.86 544.981 2676.67 547.319 2677.06 549.461 2677.45 552.383 2679.98 554.526 2683.1 554.526L2698.29 554.526C2701.21 554.526 2703.75 552.383 2704.14 549.461Z" fill="#FFFFFF" fill-rule="nonzero" fill-opacity="1"/><path d="M2705.11 594.848 2701.99 595.237C2699.66 595.627 2697.51 594.069 2697.12 591.731L2691.86 566.993C2691.86 566.798 2691.86 566.798 2691.86 566.603L2691.28 562.513C2690.89 559.98 2692.64 557.838 2695.18 557.448L2702.19 556.474C2704.72 556.084 2706.86 557.838 2707.25 560.37L2707.84 564.46C2707.84 564.655 2707.84 564.655 2707.84 564.85L2709.2 589.978C2709.2 592.51 2707.45 594.458 2705.11 594.848Z" fill="#FFFFFF" fill-rule="nonzero" fill-opacity="1"/><path d="M2710.56 634.78 2710.56 634.78C2708.23 635.17 2706.08 633.611 2705.5 631.469L2700.24 609.457C2700.24 609.263 2700.24 609.263 2700.24 609.068L2699.07 602.445C2698.68 599.912 2700.24 597.77 2702.77 597.38L2705.89 596.796C2708.42 596.406 2710.56 597.965 2710.95 600.497L2712.12 607.12C2712.12 607.315 2712.12 607.315 2712.12 607.509L2714.26 630.105C2714.46 632.248 2712.9 634.391 2710.56 634.78Z" fill="#FFFFFF" fill-rule="nonzero" fill-opacity="1"/><path d="M2703.55 645.104C2703.55 640.624 2707.25 637.118 2711.54 637.118 2716.02 637.118 2719.52 640.819 2719.52 645.104L2703.55 645.104Z" fill="#FFFFFF" fill-rule="nonzero" fill-opacity="1"/><path d="M2676.09 594.848 2679.2 595.237C2681.54 595.627 2683.68 594.069 2684.07 591.731L2689.33 566.993C2689.33 566.798 2689.33 566.798 2689.33 566.603L2689.92 562.513C2690.31 559.98 2688.55 557.838 2686.02 557.448L2679.01 556.474C2676.48 556.084 2674.33 557.838 2673.94 560.37L2673.36 564.46C2673.36 564.655 2673.36 564.655 2673.36 564.85L2671.99 589.978C2671.99 592.51 2673.75 594.458 2676.09 594.848Z" fill="#FFFFFF" fill-rule="nonzero" fill-opacity="1"/><path d="M2670.63 634.78 2670.63 634.78C2672.97 635.17 2675.11 633.611 2675.7 631.469L2680.96 609.457C2680.96 609.263 2680.96 609.263 2680.96 609.068L2682.12 602.445C2682.51 599.912 2680.96 597.77 2678.42 597.38L2675.31 596.796C2672.77 596.406 2670.63 597.965 2670.24 600.497L2669.07 607.12C2669.07 607.315 2669.07 607.315 2669.07 607.509L2666.93 630.105C2666.74 632.248 2668.29 634.391 2670.63 634.78Z" fill="#FFFFFF" fill-rule="nonzero" fill-opacity="1"/><path d="M2661.48 645.104 2677.45 645.104C2677.45 640.624 2673.94 637.118 2669.46 637.118 2664.98 637.118 2661.48 640.624 2661.48 645.104Z" fill="#FFFFFF" fill-rule="nonzero" fill-opacity="1"/><path d="M2701.6 476.999C2701.6 470.766 2696.54 465.896 2690.5 465.896 2684.46 465.896 2679.4 470.766 2679.4 476.999L2681.54 489.466C2681.93 492.193 2684.27 494.141 2687.19 494.141L2693.81 494.141C2696.54 494.141 2698.88 492.193 2699.46 489.466L2701.6 476.999Z" fill="#FFFFFF" fill-rule="nonzero" fill-opacity="1"/><path d="M2642.78 524.918 2642.19 524.333C2640.63 522.385 2641.02 519.464 2642.78 517.905L2655.83 508.166 2664.01 502.711C2666.74 501.153 2670.24 501.932 2671.99 504.854 2673.94 507.386 2673.55 511.087 2671.02 513.035L2662.84 518.49 2649.01 527.06C2646.87 527.84 2644.14 527.06 2642.78 524.918Z" fill="#FFFFFF" fill-rule="nonzero" fill-opacity="1"/><path d="M2639.46 520.243 2636.54 516.152C2635.96 515.568 2635.57 514.789 2634.98 514.204L2623.49 502.906C2622.32 501.737 2620.76 501.348 2619.4 501.932 2619.99 499.595 2619.01 496.673 2616.28 494.141 2613.56 491.803 2607.71 489.66 2604.99 492.582L2617.45 503.88C2616.87 505.244 2617.06 506.607 2618.04 507.776L2627.78 520.632C2628.36 521.217 2628.75 521.996 2629.34 522.58L2632.84 526.086C2634.21 527.645 2636.54 527.645 2638.1 526.476L2639.27 525.502C2640.63 524.139 2640.63 521.801 2639.46 520.243Z" fill="#FFFFFF" fill-rule="nonzero" fill-opacity="1"/><path d="M2738.42 525.112 2739 524.333C2740.56 522.385 2740.17 519.464 2738.42 517.905L2725.37 508.166 2717.19 502.711C2714.46 501.153 2710.95 501.932 2709.2 504.854 2707.25 507.386 2707.64 511.087 2710.17 513.035L2718.36 518.684 2732.19 527.255C2734.52 528.034 2737.25 527.255 2738.42 525.112Z" fill="#FFFFFF" fill-rule="nonzero" fill-opacity="1"/><path d="M2776.4 492.777C2773.68 489.66 2767.64 491.803 2765.11 494.335 2762.38 496.868 2761.4 499.79 2761.99 502.127 2760.62 501.543 2758.87 501.932 2757.9 503.101L2746.41 514.399C2745.82 514.983 2745.24 515.568 2744.85 516.347L2741.93 520.438C2740.56 521.996 2740.76 524.333 2742.31 525.697L2743.48 526.671C2745.04 527.84 2747.38 527.84 2748.74 526.281L2752.25 522.775C2752.83 522.191 2753.42 521.606 2753.81 520.827L2763.55 507.971C2764.52 506.802 2764.72 505.244 2764.13 504.075L2776.4 492.777Z" fill="#FFFFFF" fill-rule="nonzero" fill-opacity="1"/></g></g></g><g><g><g><path d="M2710.94 468.812 2706.77 461.562 2706.77 461.26C2707.13 451.231 2699.28 442.833 2689.25 442.471 2679.22 442.108 2670.82 449.902 2670.46 459.931 2670.46 460.354 2670.46 460.837 2670.46 461.26 2670.46 467 2673.06 472.377 2677.59 475.881L2677.59 491.167 2696.68 491.167 2696.68 483.917 2699.64 483.917C2703.57 483.917 2706.77 480.715 2706.77 476.788 2706.77 476.727 2706.77 476.727 2706.77 476.667L2706.77 473.042 2709.43 473.042C2711 472.86 2712.39 471.048 2710.94 468.812ZM2673.18 455.219 2676.5 455.219 2676.5 452.802C2675.84 452.319 2675.71 451.352 2676.2 450.687 2676.68 450.023 2677.65 449.902 2678.31 450.385 2678.98 450.869 2679.1 451.835 2678.61 452.5 2678.55 452.621 2678.43 452.742 2678.31 452.802L2678.31 455.219 2680.73 455.219 2680.73 459.448C2681.39 459.931 2681.51 460.898 2681.03 461.562 2680.55 462.227 2679.58 462.348 2678.92 461.865 2678.25 461.381 2678.13 460.415 2678.61 459.75 2678.68 459.629 2678.8 459.508 2678.92 459.448L2678.92 457.031 2672.63 457.031C2672.81 456.427 2672.94 455.823 2673.18 455.219ZM2689.97 465.429C2689.13 465.429 2688.46 464.765 2688.46 463.919 2688.46 463.858 2688.46 463.737 2688.46 463.677L2686.89 462.106 2684.35 464.644 2684.35 469.115C2685.02 469.598 2685.14 470.565 2684.66 471.229 2684.17 471.894 2683.21 472.015 2682.54 471.531 2681.88 471.048 2681.76 470.081 2682.24 469.417 2682.3 469.296 2682.42 469.175 2682.54 469.115L2682.54 468.51 2678.49 468.51 2675.65 465.188C2674.81 465.248 2674.08 464.644 2674.02 463.798 2673.96 462.952 2674.57 462.227 2675.41 462.167 2676.26 462.106 2676.98 462.71 2677.04 463.556 2677.04 463.677 2677.04 463.858 2677.04 463.979L2679.34 466.698 2682.54 466.698 2682.54 463.919 2685.62 460.837 2683.75 458.904 2683.75 447.969C2683.09 447.485 2682.96 446.519 2683.45 445.854 2683.93 445.19 2684.9 445.069 2685.56 445.552 2686.23 446.035 2686.35 447.002 2685.86 447.667 2685.8 447.787 2685.68 447.908 2685.56 447.969L2685.56 449.781 2690.4 449.781 2690.4 454.01C2691.06 454.494 2691.18 455.46 2690.7 456.125 2690.21 456.79 2689.25 456.91 2688.58 456.427 2687.92 455.944 2687.8 454.977 2688.28 454.312 2688.34 454.192 2688.46 454.071 2688.58 454.01L2688.58 451.594 2685.56 451.594 2685.56 458.179 2689.79 462.408C2689.85 462.408 2689.91 462.408 2689.97 462.408 2690.82 462.408 2691.48 463.073 2691.48 463.919 2691.48 464.765 2690.82 465.429 2689.97 465.429ZM2697.34 453.225C2696.5 453.225 2695.83 452.56 2695.83 451.715 2695.83 451.654 2695.83 451.654 2695.83 451.594L2693.42 449.419 2693.42 445.008C2694.02 445.19 2694.62 445.431 2695.23 445.673L2695.23 448.633 2697.04 450.265C2697.16 450.265 2697.22 450.265 2697.34 450.265 2698.19 450.265 2698.85 450.929 2698.85 451.775 2698.85 452.621 2698.19 453.225 2697.34 453.225Z" fill="#FFFFFF" fill-rule="nonzero" fill-opacity="1"/></g></g></g></g></g></svg>
