<svg width="683" height="682" xmlns="http://www.w3.org/2000/svg" xmlns:xlink="http://www.w3.org/1999/xlink" xml:space="preserve" overflow="hidden"><g transform="translate(-1448 -1155)"><g><rect x="1452" y="1157" width="677" height="677" fill="#FFFFFF" fill-opacity="1"/><g><g><g><path d="M1665.84 1457.69 1743.88 1425.03 1730.81 1393.41 1551.38 1467.66 1564.44 1499.28 1645.56 1465.59 1586.44 1608.25C1585.06 1611.69 1586.78 1615.81 1590.22 1617.19 1591.25 1617.88 1591.94 1617.88 1592.97 1617.88 1595.72 1617.88 1598.12 1616.16 1599.16 1613.75L1628.72 1542.25 1650.38 1542.25 1650.38 1624.75C1650.38 1628.53 1653.47 1631.63 1657.25 1631.63 1661.03 1631.63 1664.12 1628.53 1664.12 1624.75L1664.12 1542.25 1685.78 1542.25 1715.34 1613.75C1716.38 1616.5 1719.12 1617.88 1721.53 1617.88 1722.56 1617.88 1723.25 1617.88 1724.28 1617.19 1727.72 1615.81 1729.44 1611.69 1728.06 1608.25L1665.84 1457.69ZM1634.56 1528.5 1650.38 1490 1650.38 1528.5 1634.56 1528.5ZM1664.12 1528.5 1664.12 1490 1680.28 1528.5 1664.12 1528.5Z" fill="#000000" fill-rule="nonzero" fill-opacity="1"/><path d="M1533.83 1500.93 1528.57 1488.23 1542.54 1482.44 1547.8 1495.15Z" fill="#000000" fill-rule="nonzero" fill-opacity="1"/><path d="M1773.09 1368.66 1740.44 1381.38 1759 1426.06 1791.31 1413Z" fill="#000000" fill-rule="nonzero" fill-opacity="1"/></g></g></g><g><g><g><path d="M88.9999 18.5416C50.0869 18.5416 18.5416 50.0869 18.5416 88.9999 18.5416 127.913 50.0869 159.458 88.9999 159.458 127.913 159.458 159.458 127.913 159.458 88.9999 159.458 50.0869 127.913 18.5416 88.9999 18.5416ZM129.174 69.635C125.759 69.6366 122.989 66.8695 122.987 63.4545 122.986 60.0393 125.753 57.2694 129.168 57.2677 132.583 57.266 135.353 60.0332 135.354 63.4482 135.356 65.5052 134.334 67.428 132.628 68.5781 131.609 69.2701 130.406 69.6383 129.174 69.635ZM121.963 100.536C121.964 106.226 117.353 110.839 111.663 110.84 105.974 110.841 101.361 106.23 101.36 100.54 101.359 94.8507 105.97 90.2377 111.66 90.2366 111.66 90.2366 111.661 90.2366 111.661 90.2366 117.35 90.2366 121.962 94.8477 121.963 100.536ZM25.9583 88.9999C25.997 54.1991 54.1991 25.997 88.9999 25.9583 90.5648 25.9583 92.1111 26.0362 93.6464 26.1437 110.828 42.536 120.54 65.2532 120.521 88.9999 120.521 89.2502 120.521 89.4615 120.521 89.6915 114.531 84.795 105.706 85.6815 100.809 91.6713 95.9127 97.6612 96.7992 106.486 102.789 111.383 106.786 114.65 112.257 115.454 117.026 113.475 112.834 128.133 104.77 141.391 93.6835 151.856 92.1352 151.971 90.5778 152.041 88.9999 152.041 54.1991 152.003 25.997 123.801 25.9583 88.9999Z" fill="#000000" fill-rule="nonzero" fill-opacity="1" transform="matrix(1 0 0 1 1798 1260)"/><path d="M99.919 119.388C99.919 113.642 95.2612 108.984 89.5153 108.984 83.7694 108.984 79.1116 113.642 79.1116 119.388 79.1116 125.134 83.7694 129.791 89.5153 129.791 95.2586 129.785 99.9129 125.131 99.919 119.388ZM82.8199 119.388C82.8199 115.69 85.8176 112.692 89.5153 112.692 93.2131 112.692 96.2107 115.69 96.2107 119.388 96.2107 123.086 93.2131 126.083 89.5153 126.083 85.8176 126.083 82.8199 123.086 82.8199 119.388Z" fill="#000000" fill-rule="nonzero" fill-opacity="1" transform="matrix(1 0 0 1 1798 1260)"/><path d="M64.8957 46.3541C57.7275 46.3541 51.9166 52.165 51.9166 59.3332 51.9166 66.5014 57.7275 72.3124 64.8957 72.3124 72.0639 72.3124 77.8749 66.5014 77.8749 59.3332 77.8667 52.1684 72.0606 46.3623 64.8957 46.3541ZM64.8957 68.6041C59.7756 68.6041 55.6249 64.4533 55.6249 59.3332 55.6249 54.2132 59.7756 50.0624 64.8957 50.0624 70.0158 50.0624 74.1665 54.2132 74.1665 59.3332 74.1665 64.4533 70.0158 68.6041 64.8957 68.6041Z" fill="#000000" fill-rule="nonzero" fill-opacity="1" transform="matrix(1 0 0 1 1798 1260)"/><path d="M47.0754 96.0049C41.3295 96.0049 36.6716 100.663 36.6716 106.409 36.6716 112.154 41.3295 116.812 47.0754 116.812 52.8212 116.812 57.4791 112.154 57.4791 106.409 57.473 100.665 52.8186 96.011 47.0754 96.0049ZM47.0754 113.104C43.3776 113.104 40.38 110.106 40.38 106.409 40.38 102.711 43.3776 99.7132 47.0754 99.7132 50.7731 99.7132 53.7707 102.711 53.7707 106.409 53.7707 110.106 50.7731 113.104 47.0754 113.104Z" fill="#000000" fill-rule="nonzero" fill-opacity="1" transform="matrix(1 0 0 1 1798 1260)"/></g></g></g><g><g><g><path d="M2015.87 1437.09 1972.91 1480.06C1967.06 1485.91 1965 1493.81 1966.37 1501.38L1951.25 1516.5C1934.06 1503.09 1912.06 1495.19 1888.69 1495.19 1831.97 1495.19 1785.56 1541.59 1785.56 1598.31 1785.56 1655.03 1831.97 1701.44 1888.69 1701.44 1945.41 1701.44 1991.81 1655.03 1991.81 1598.31 1991.81 1574.94 1983.91 1553.28 1970.5 1535.75L1985.62 1520.63C1993.19 1522 2001.09 1519.94 2006.94 1514.09L2049.91 1471.13C2054.72 1466.31 2057.12 1460.13 2057.12 1453.94 2057.12 1447.75 2054.72 1441.56 2049.91 1436.75 2040.28 1427.81 2025.16 1427.81 2015.87 1437.09ZM1970.84 1598.66C1970.84 1644.03 1933.72 1681.16 1888.34 1681.16 1842.97 1681.16 1805.84 1644.03 1805.84 1598.66 1805.84 1553.28 1842.97 1516.16 1888.34 1516.16 1933.72 1516.16 1970.84 1553.28 1970.84 1598.66Z" fill="#000000" fill-rule="nonzero" fill-opacity="1"/></g></g></g><g><g><g><path d="M1889.92 1657.17C1896.45 1652.01 1902.68 1646.48 1908.58 1640.62 1917.14 1632.47 1924.7 1623.34 1931.12 1613.42 1937.08 1603.82 1942.77 1591.37 1938.85 1579.99 1935.68 1570.58 1926.87 1562.58 1916.76 1561.61 1903.98 1560.34 1894.73 1571.16 1889.5 1581.51 1884.72 1572.04 1876.81 1562.27 1865.38 1561.55 1855.24 1560.92 1845.8 1568.06 1841.43 1576.92 1835.96 1588.05 1840.42 1600.56 1846.17 1610.56 1852.13 1620.98 1860.05 1630.15 1868.42 1638.62 1875.02 1645.37 1882.06 1651.68 1889.5 1657.49ZM1865.67 1606.52 1870.14 1593.11 1872.79 1585.15C1873.47 1583.07 1874.53 1580.3 1877.39 1581.5 1879.12 1582.23 1879.22 1584.01 1879.52 1585.58L1880.76 1592.18 1884.33 1611.24 1886.7 1623.9 1895.34 1601.05 1897.25 1596.02C1897.8 1594.53 1898.36 1593.04 1900.23 1592.88 1902.59 1592.64 1903.29 1594.66 1903.82 1596.45L1905.65 1602.74 1909.28 1615.23 1912.87 1611.29C1914.02 1609.78 1915.31 1608.4 1916.73 1607.15 1918.22 1606.1 1920.97 1606.58 1922.69 1606.58L1928.23 1606.58C1927.13 1608.56 1925.91 1610.56 1924.58 1612.54L1919.74 1612.54C1916.57 1616.04 1913.53 1619.76 1910.16 1623.08 1909.1 1624.35 1907.23 1624.51 1905.96 1623.46 1905.72 1623.25 1905.5 1623 1905.33 1622.73 1905.01 1622.09 1904.78 1621.41 1904.63 1620.7L1902.15 1612.2 1900.12 1605.22C1896.32 1615.25 1892.67 1625.29 1888.76 1635.27 1888.54 1636.08 1888.06 1636.8 1887.4 1637.33 1886.04 1638.26 1884.19 1637.91 1883.26 1636.56 1883.02 1636.21 1882.86 1635.82 1882.78 1635.4 1882.44 1634.03 1882.26 1632.6 1881.99 1631.23L1878.22 1611.12 1875.41 1596.09 1871.21 1608.71C1870.57 1610.59 1870.06 1612.42 1867.65 1612.54 1865.46 1612.64 1863.25 1612.54 1861.08 1612.54L1854.38 1612.54C1853.06 1610.56 1851.83 1608.56 1850.73 1606.58Z" fill="#000000" fill-rule="nonzero" fill-opacity="1"/></g></g></g></g></g></svg>