<svg width="335" height="335" xmlns="http://www.w3.org/2000/svg" xmlns:xlink="http://www.w3.org/1999/xlink" xml:space="preserve" overflow="hidden"><g transform="translate(-2030 -1072)"><g><g><g><g><path d="M2323.75 1179.59 2234.38 1179.59 2234.38 1155.53C2234.35 1147.95 2228.21 1141.8 2220.62 1141.78L2076.25 1141.78C2068.67 1141.8 2062.52 1147.95 2062.5 1155.53L2062.5 1248.37C2062.52 1255.96 2068.67 1262.1 2076.25 1262.12L2096.88 1262.12 2096.88 1296.5 2131.25 1262.12 2165.62 1262.12 2165.62 1286.18C2165.65 1293.77 2171.79 1299.91 2179.38 1299.93L2268.75 1299.93 2303.12 1334.31 2303.12 1299.93 2323.75 1299.93C2331.33 1299.91 2337.48 1293.77 2337.5 1286.18L2337.5 1193.35C2337.48 1185.76 2331.34 1179.62 2323.75 1179.59ZM2165.62 1193.34 2165.62 1255.25 2128.41 1255.25 2126.4 1257.26 2103.75 1279.91 2103.75 1255.25 2076.25 1255.25C2072.45 1255.25 2069.38 1252.17 2069.38 1248.37L2069.38 1155.53C2069.38 1151.74 2072.45 1148.66 2076.25 1148.66L2220.62 1148.66C2224.42 1148.66 2227.5 1151.74 2227.5 1155.53L2227.5 1179.6 2179.38 1179.6C2171.79 1179.62 2165.65 1185.76 2165.62 1193.35ZM2330.62 1286.18C2330.62 1289.98 2327.55 1293.06 2323.75 1293.06L2296.25 1293.06 2296.25 1317.72 2273.62 1295.06 2271.61 1293.05 2179.38 1293.05C2175.58 1293.05 2172.5 1289.97 2172.5 1286.17L2172.5 1193.35C2172.5 1189.55 2175.58 1186.47 2179.38 1186.47L2323.75 1186.47C2327.55 1186.47 2330.62 1189.55 2330.62 1193.35Z" fill="#000000" fill-rule="nonzero" fill-opacity="1"/></g></g></g><g><g><g><path d="M55.2944 73.2337 38.442 73.2337C36.8835 73.2337 35.6201 74.4971 35.6201 76.0557 35.6201 77.6142 36.8835 78.8776 38.442 78.8776L55.2944 78.8776C56.853 78.8776 58.1164 77.6142 58.1164 76.0557 58.1164 74.4971 56.853 73.2337 55.2944 73.2337Z" fill="#000000" fill-rule="nonzero" fill-opacity="1" transform="matrix(1 0 0 1 2079 1151)"/><path d="M46.8687 88.446C50.0689 88.4456 52.7308 85.9846 52.9816 82.7943L40.7548 82.7943C41.0058 85.985 43.6682 88.4461 46.8687 88.446Z" fill="#000000" fill-rule="nonzero" fill-opacity="1" transform="matrix(1 0 0 1 2079 1151)"/><path d="M71.3214 43.5474 71.3214 42.7014C71.0773 29.3448 60.2272 18.6194 46.8687 18.5297 33.5093 18.6183 22.6577 29.3439 22.4131 42.7014L22.4131 43.5474C22.5043 46.4442 23.0799 49.3055 24.1159 52.0123 25.1072 54.5667 26.5466 56.9237 28.3664 58.9722 30.6048 61.4201 33.0595 66.1671 34.0945 68.2742 34.4118 68.9136 35.0639 69.318 35.7777 69.318L57.9568 69.318C58.6707 69.3177 59.323 68.9134 59.6409 68.2742 60.6749 66.168 63.1297 61.4201 65.3681 58.9722 67.1879 56.9237 68.6273 54.5667 69.6186 52.0123 70.6542 49.3053 71.2297 46.4442 71.3214 43.5474ZM65.6785 43.4495C65.5934 45.7038 65.1383 47.9288 64.3311 50.0353 63.585 51.9338 62.5086 53.6852 61.1518 55.2083 58.9961 57.8069 57.1497 60.6472 55.6499 63.6722L38.0817 63.6722C36.5822 60.647 34.7358 57.8067 32.5798 55.2083 31.2228 53.6854 30.1467 51.9339 29.4014 50.0353 28.5947 47.9293 28.1402 45.705 28.056 43.4514L28.056 42.7464C28.2461 32.476 36.5947 24.2326 46.8667 24.1726 57.1396 24.2321 65.4885 32.4771 65.6765 42.7484Z" fill="#000000" fill-rule="nonzero" fill-opacity="1" transform="matrix(1 0 0 1 2079 1151)"/><path d="M47.0606 14.6875C48.1422 14.6875 49.019 13.8107 49.019 12.7291L49.019 5.87499C49.019 4.79343 48.1422 3.91666 47.0606 3.91666 45.979 3.91666 45.1023 4.79343 45.1023 5.87499L45.1023 12.7291C45.1023 13.8107 45.979 14.6875 47.0606 14.6875Z" fill="#000000" fill-rule="nonzero" fill-opacity="1" transform="matrix(1 0 0 1 2079 1151)"/><path d="M23.8192 23.3041C24.5706 24.0821 25.8103 24.1036 26.5882 23.3523 27.3662 22.6009 27.3877 21.3612 26.6364 20.5832 26.6207 20.5669 26.6046 20.5508 26.5882 20.535L21.7375 15.6843C20.9595 14.9329 19.7198 14.9544 18.9684 15.7324 18.2354 16.4913 18.2354 17.6945 18.9684 18.4533Z" fill="#000000" fill-rule="nonzero" fill-opacity="1" transform="matrix(1 0 0 1 2079 1151)"/><path d="M68.944 24.2451C69.4633 24.245 69.9613 24.0386 70.3285 23.6713L75.1744 18.8244C75.9101 18.0316 75.8636 16.7925 75.0707 16.0569 74.3189 15.3594 73.1563 15.36 72.4053 16.0583L67.5624 20.9022C66.7978 21.6672 66.798 22.9071 67.5628 23.6717 67.93 24.0388 68.4278 24.245 68.9469 24.2451Z" fill="#000000" fill-rule="nonzero" fill-opacity="1" transform="matrix(1 0 0 1 2079 1151)"/><path d="M16.6458 40.6353 9.79165 40.6353C8.71009 40.6353 7.83332 41.5121 7.83332 42.5937 7.83332 43.6753 8.71009 44.552 9.79165 44.552L16.6458 44.552C17.7274 44.552 18.6041 43.6753 18.6041 42.5937 18.6041 41.5121 17.7274 40.6353 16.6458 40.6353Z" fill="#000000" fill-rule="nonzero" fill-opacity="1" transform="matrix(1 0 0 1 2079 1151)"/><path d="M23.8192 61.8206 18.9723 66.6674C18.1759 67.3994 18.1238 68.6382 18.8557 69.4344 19.5875 70.2308 20.8263 70.283 21.6227 69.5512 21.6626 69.5145 21.7008 69.4763 21.7375 69.4365L26.5843 64.5896C27.3623 63.8382 27.3838 62.5985 26.6325 61.8206 25.8811 61.0426 24.6414 61.0211 23.8634 61.7724 23.8471 61.7882 23.831 61.8042 23.8153 61.8206Z" fill="#000000" fill-rule="nonzero" fill-opacity="1" transform="matrix(1 0 0 1 2079 1151)"/><path d="M70.3285 61.4495C69.5921 60.6574 68.353 60.6123 67.5608 61.3487 66.7688 62.0851 66.7236 63.3243 67.4602 64.1164 67.493 64.1517 67.527 64.1857 67.5624 64.2185L72.4083 69.0644C73.1862 69.8158 74.4259 69.7943 75.1773 69.0163 75.9103 68.2574 75.9103 67.0542 75.1773 66.2953Z" fill="#000000" fill-rule="nonzero" fill-opacity="1" transform="matrix(1 0 0 1 2079 1151)"/><path d="M83.9634 40.5688 77.1092 40.5688C76.0277 40.5688 75.1509 41.4455 75.1509 42.5271 75.1509 43.6087 76.0277 44.4854 77.1092 44.4854L83.9634 44.4854C85.045 44.4854 85.9217 43.6087 85.9217 42.5271 85.9217 41.4455 85.045 40.5688 83.9634 40.5688Z" fill="#000000" fill-rule="nonzero" fill-opacity="1" transform="matrix(1 0 0 1 2079 1151)"/></g></g></g><g><g><g><path d="M53.7864 86.729C53.1874 86.729 52.4687 86.6092 51.9895 86.1301 51.0312 85.2915 50.9114 83.7342 51.7499 82.7759L56.4218 77.3853C57.2603 76.4269 58.8176 76.3072 59.7759 77.1457 60.7343 77.9842 60.8541 79.5415 60.0155 80.4999L55.3437 85.8905C54.9843 86.3696 54.3853 86.6092 53.7864 86.729Z" fill="#000000" fill-rule="nonzero" fill-opacity="1" transform="matrix(1.0087 0 0 1 2194 1180)"/><path d="M46.4791 83.9738C45.6405 84.0936 44.9218 83.854 44.203 83.2551 43.0051 82.1769 42.8853 80.2603 43.9635 79.0624L49.4739 72.7134C50.552 71.5155 52.4687 71.3957 53.6666 72.4738 54.8645 73.552 54.9843 75.4686 53.9062 76.6665L48.3958 83.0155C47.9166 83.6144 47.1978 83.9738 46.4791 83.9738Z" fill="#000000" fill-rule="nonzero" fill-opacity="1" transform="matrix(1.0087 0 0 1 2194 1180)"/><path d="M38.9322 79.5415C37.9739 79.6613 37.0156 79.3019 36.2968 78.703 34.8593 77.3853 34.6197 75.1092 35.9374 73.6717L41.4478 67.3228C42.7656 65.8853 45.0416 65.6457 46.4791 66.9634 47.9166 68.2811 48.1562 70.5572 46.8385 71.9947L41.3281 78.3436C40.7291 79.0624 39.7708 79.5415 38.9322 79.5415Z" fill="#000000" fill-rule="nonzero" fill-opacity="1" transform="matrix(1.0087 0 0 1 2194 1180)"/><path d="M30.1874 75.1092C29.2291 75.229 28.2708 74.8697 27.552 74.2707 26.1145 72.953 25.875 70.677 27.1927 69.2395L33.5416 62.052C34.8593 60.6145 37.1354 60.3749 38.5728 61.6926 40.0103 63.0103 40.2499 65.2863 38.9322 66.7238L32.5833 73.9113C31.8645 74.6301 31.026 74.9894 30.1874 75.1092Z" fill="#000000" fill-rule="nonzero" fill-opacity="1" transform="matrix(1.0087 0 0 1 2194 1180)"/><path d="M5.51041 48.7551 14.7344 54.3853C15.8125 55.1041 17.3698 54.7447 17.9687 53.5468L29.1093 35.0989C29.8281 34.0208 29.4687 32.4635 28.2708 31.8645L19.1666 26.2343 5.51041 48.7551Z" fill="#000000" fill-rule="nonzero" fill-opacity="1" transform="matrix(1.0087 0 0 1 2194 1180)"/><path d="M83.1353 64.4478 63.8488 47.9166 62.5311 46.7187 54.2655 56.1822C53.0676 57.6197 51.3905 58.4582 49.4739 58.578 49.2343 58.578 48.9947 58.578 48.8749 58.578 47.078 58.578 45.401 57.9791 44.203 56.7812 41.2083 54.1457 40.9687 49.5937 43.4843 46.5989L50.552 38.4531C45.0416 37.7343 37.9739 40.6093 30.6666 37.0156L20.2448 54.2655 28.3906 63.7291 31.5052 60.1353C32.5833 58.8176 34.2604 58.0989 36.0572 58.0989 37.4947 58.0989 38.9322 58.578 40.0103 59.5364 41.3281 60.6145 41.927 62.1718 42.0468 63.8488 42.6458 63.6093 43.3645 63.4895 44.0833 63.4895 45.5208 63.4895 46.9583 63.9686 48.0364 64.927 49.3541 66.1249 50.0728 67.6822 50.0728 69.3593 50.552 69.2395 51.151 69.1197 51.6301 69.1197 52.9478 69.1197 54.1457 69.5988 55.2239 70.4374 56.302 71.3957 56.9009 72.7134 57.0207 74.1509 57.3801 74.0311 57.8593 73.9113 58.3384 73.9113 59.5364 73.9113 60.6145 74.2707 61.453 75.1092 62.4114 75.9478 63.0103 77.1457 63.1301 78.3436 63.2499 79.6613 62.7707 80.8592 61.9322 81.8176L57.8593 86.4894 59.5364 87.8071C60.3749 88.2863 61.3332 88.6457 62.4114 88.5259 65.0468 88.2863 66.9634 86.0103 66.7238 83.3749 66.7238 83.3749 66.7238 83.2551 66.7238 83.2551 67.0832 83.3749 67.5624 83.3749 67.9218 83.3749 70.5572 83.1353 72.4738 80.8592 72.2343 78.2238 72.2343 78.2238 72.2343 78.104 72.2343 78.104 72.5936 78.2238 73.0728 78.2238 73.4322 78.2238 76.0676 77.9842 77.9842 75.7082 77.7447 73.0728 77.7447 72.8332 77.6249 72.5936 77.6249 72.354 78.3436 72.7134 79.1822 72.953 80.1405 72.8332 82.7759 72.5936 84.6926 70.3176 84.453 67.6822 84.5728 66.3645 83.9738 65.2863 83.1353 64.4478Z" fill="#000000" fill-rule="nonzero" fill-opacity="1" transform="matrix(1.0087 0 0 1 2194 1180)"/><path d="M109.489 48.7551 100.265 54.3853C99.1873 55.1041 97.63 54.7447 97.0311 53.5468L85.8905 35.0989C85.1717 34.0208 85.5311 32.4635 86.729 31.8645L95.953 26.2343 109.489 48.7551Z" fill="#000000" fill-rule="nonzero" fill-opacity="1" transform="matrix(1.0087 0 0 1 2194 1180)"/><path d="M84.453 37.4947C74.5103 41.0885 67.3228 37.6145 59.2968 36.0572 59.177 36.0572 58.6978 35.9374 58.6978 35.9374 57.2603 35.8176 55.703 36.2968 54.6249 37.4947L45.1614 48.276C43.3645 50.3124 43.6041 53.3072 45.6405 54.9843 46.7187 55.8228 47.9166 56.302 49.2343 56.1822 50.4322 56.0624 51.6301 55.5832 52.4687 54.5051 52.4687 54.5051 62.2916 43.2447 62.2916 43.2447L84.6926 62.5311C85.2915 63.1301 85.5311 63.3697 86.0103 64.0884L94.6353 54.1457 84.453 37.4947Z" fill="#000000" fill-rule="nonzero" fill-opacity="1" transform="matrix(1.0087 0 0 1 2194 1180)"/></g></g></g></g></g></svg>