<svg width="335" height="334" xmlns="http://www.w3.org/2000/svg" xmlns:xlink="http://www.w3.org/1999/xlink" xml:space="preserve" overflow="hidden"><g transform="translate(-1512 -1155)"><g><g><g><g><path d="M1741.88 1365 1741.88 1358.12 1717.82 1358.12 1717.82 1395.94 1710.94 1395.94 1710.94 1402.81 1776.26 1402.81 1776.26 1285.94 1747.24 1285.94 1740.37 1292.81 1769.38 1292.81 1769.38 1327.19 1714.37 1327.19 1714.37 1334.06 1769.38 1334.06 1769.38 1358.12 1759.07 1358.12 1759.07 1365 1769.38 1365 1769.38 1395.94 1724.69 1395.94 1724.69 1365 1741.88 1365Z" fill="#000000" fill-rule="nonzero" fill-opacity="1"/><path d="M1788.49 1244.69 1781.62 1251.56 1807.19 1251.56 1807.19 1433.75 1586.81 1433.75C1590.58 1430.06 1593.04 1425.23 1593.79 1420L1594.06 1416.56 1594.06 1251.56 1709.14 1251.56 1716.02 1244.69 1594.06 1244.69 1594.06 1234.37C1594.06 1221.08 1583.29 1210.31 1570 1210.31 1556.71 1210.31 1545.94 1221.08 1545.94 1234.37L1545.94 1416.56 1546.21 1420C1547.86 1431.24 1557.14 1439.8 1568.47 1440.53L1814.06 1440.62 1814.06 1244.69ZM1552.81 1234.37C1552.81 1224.88 1560.51 1217.19 1570 1217.19 1579.49 1217.19 1587.19 1224.88 1587.19 1234.37L1587.19 1399.75C1577.94 1390.26 1562.76 1390.06 1553.26 1399.3 1553.11 1399.45 1552.96 1399.6 1552.81 1399.75ZM1552.81 1416.56C1552.81 1407.07 1560.51 1399.37 1570 1399.37 1579.49 1399.37 1587.19 1407.07 1587.19 1416.56 1587.19 1426.05 1579.49 1433.75 1570 1433.75 1560.51 1433.74 1552.82 1426.05 1552.81 1416.56Z" fill="#000000" fill-rule="nonzero" fill-opacity="1"/><path d="M1667.97 1292.81 1674.83 1285.94 1625 1285.94 1625 1402.81 1690.32 1402.81 1690.32 1395.94 1683.44 1395.94 1683.44 1358.12 1659.38 1358.12 1659.38 1365 1676.57 1365 1676.57 1395.94 1631.87 1395.94 1631.87 1365 1642.19 1365 1642.19 1358.12 1631.87 1358.12 1631.87 1334.31 1653.03 1334.31 1655.3 1327.44 1631.87 1327.44 1631.87 1292.81 1667.97 1292.81Z" fill="#000000" fill-rule="nonzero" fill-opacity="1"/><path d="M1664.53 1332.35 1696.91 1321.67 1798.13 1220.13C1800.79 1217.79 1801.06 1213.73 1798.72 1211.06 1798.58 1210.91 1798.44 1210.77 1798.3 1210.63L1786.27 1198.6C1783.65 1195.93 1779.37 1195.89 1776.7 1198.5 1776.67 1198.53 1776.64 1198.57 1776.6 1198.6L1675.22 1300.14ZM1781.43 1203.49 1793.23 1215.3 1782.66 1225.87 1770.86 1214.06ZM1764.85 1220.07 1766 1218.92 1777.93 1230.84 1776.74 1232.12 1702.4 1306.47C1701.08 1300.52 1696.41 1295.88 1690.45 1294.62ZM1681.23 1303.85 1682.64 1302.44C1684.03 1301.6 1685.61 1301.15 1687.24 1301.14 1689.54 1301.14 1691.74 1302.07 1693.36 1303.71 1696.29 1306.55 1696.74 1311.09 1694.42 1314.45L1693.21 1315.66 1678.86 1320.39 1676.52 1318.06Z" fill="#000000" fill-rule="nonzero" fill-opacity="1"/></g></g></g><g><g><g><path d="M52.0064 21.7521C49.4668 21.7521 47.3689 23.8501 47.3689 26.3896 47.3689 28.9292 49.4668 31.0271 52.0064 31.0271 54.546 31.0271 56.6439 28.9292 56.6439 26.3896 56.6439 23.8501 54.546 21.7521 52.0064 21.7521Z" fill="#000000" fill-rule="nonzero" fill-opacity="1" transform="matrix(1 0 0 1.00943 1615 1324)"/><path d="M42.7313 48.8043C42.7313 51.3655 40.6551 53.4418 38.0938 53.4418 35.5326 53.4418 33.4563 51.3655 33.4563 48.8043 33.4563 46.243 35.5326 44.1668 38.0938 44.1668 40.6551 44.1668 42.7313 46.243 42.7313 48.8043Z" fill="#000000" fill-rule="nonzero" fill-opacity="1" transform="matrix(1 0 0 1.00943 1615 1324)"/><path d="M65.146 27.9355 62.3855 29.2605C62.1647 30.1438 61.723 30.9167 61.2814 31.6897L62.2751 34.5605 60.0668 36.7688 57.196 35.7751C56.423 36.2167 55.6501 36.548 54.7668 36.7688L53.4418 39.4188 50.3501 39.4188 49.0251 36.6584C48.1418 36.4376 47.3689 36.1063 46.5959 35.6647L43.7251 36.6584 41.5168 34.4501 42.5105 31.5792C42.0688 30.8063 41.7376 30.0334 41.5168 29.1501L38.7563 27.8251 38.7563 24.7334 41.5168 23.4084C41.7376 22.525 42.0688 21.7521 42.5105 20.9792L41.6272 18.1084 43.8355 15.9 46.7063 16.8938C47.4793 16.4521 48.2522 16.1209 49.1355 15.9L50.4605 13.1396 53.5522 13.1396 54.8772 15.7896C55.7605 16.0105 56.5335 16.3417 57.3064 16.7834L60.1772 15.7896 62.3855 17.998 61.3918 20.8688C61.8335 21.6417 62.1647 22.4146 62.3855 23.298L65.146 24.623 65.146 27.9355ZM51.2334 50.3501 48.473 51.6751C48.2522 52.5584 47.9209 53.3314 47.4793 54.1043L48.3626 56.9751 46.1543 59.1835 43.2834 58.1897C42.5105 58.6314 41.7376 58.9626 40.8543 59.1835L39.6397 61.8335 36.548 61.8335 35.223 59.073C34.3397 58.8522 33.5667 58.521 32.7938 58.0793L29.923 58.9626 27.7146 56.7543 28.7084 53.8834C28.2667 53.1105 27.9355 52.3376 27.7146 51.4543L24.9542 50.1293 24.9542 47.0376 27.7146 45.7126C27.9355 44.8293 28.2667 44.0563 28.7084 43.2834L27.7146 40.4126 29.923 38.2042 32.7938 39.198C33.5667 38.7563 34.3397 38.4251 35.223 38.2042L36.548 35.4438 39.7501 35.4438 41.0751 38.2042C41.9584 38.4251 42.7313 38.7563 43.5043 39.198L46.3751 38.2042 48.5834 40.4126 47.5897 43.2834C48.0314 44.0563 48.3626 44.8293 48.5834 45.7126L51.3439 47.0376 51.2334 50.3501ZM89.4377 54.4355 81.8189 41.1855 81.8189 40.6334C82.2606 28.4876 76.0772 17.1146 65.5876 10.8209 55.098 4.63751 42.1793 4.63751 31.6897 10.8209 21.2 17.0042 15.0167 28.4876 15.4584 40.6334 15.4584 51.123 20.2063 60.9501 28.4876 67.3543L28.4876 95.2898 63.3793 95.2898 63.3793 82.0398 68.7897 82.0398C72.3231 82.0398 75.6356 80.6043 78.0647 78.1752 80.4939 75.6356 81.8189 72.3231 81.8189 68.7897L81.8189 62.1647 86.6773 62.1647C89.5481 61.8335 92.0877 58.521 89.4377 54.4355Z" fill="#000000" fill-rule="nonzero" fill-opacity="1" transform="matrix(1 0 0 1.00943 1615 1324)"/></g></g></g></g></g></svg>