<svg width="1224" height="976" xmlns="http://www.w3.org/2000/svg" xmlns:xlink="http://www.w3.org/1999/xlink" xml:space="preserve" overflow="hidden"><g transform="translate(-600 -284)"><g><path d="M1723.43 635.614C1746.5 678.904 1831.09 722.71 1817.54 755.549 1803.99 788.389 1696.16 807.595 1642.15 832.651 1588.14 857.707 1524.86 908.741 1493.49 905.885 1462.12 903.03 1471.93 844.856 1453.92 815.517 1435.92 786.177 1389.04 776.252 1385.48 729.849 1381.91 683.446 1398.31 564.226 1432.54 537.098 1460.34 493.55 1511.22 475.443 1552.31 468.562 1593.41 461.682 1650.6 467.972 1679.12 495.814 1707.64 523.656 1700.36 592.325 1723.43 635.614Z" fill="#F2AA84" fill-rule="evenodd" fill-opacity="1"/><path d="M1437.65 760.481C1465.28 735.071 1473.93 642.026 1521.34 632.866 1568.75 623.706 1655.18 681.303 1722.11 705.522 1772.13 746.727 1824.47 848.194 1821.5 880.09 1818.53 911.987 1743.34 891.299 1704.27 896.904 1673.17 925.446 1664.81 1037.53 1634.92 1051.34 1605.04 1065.16 1571.66 994.117 1524.96 979.804 1478.26 965.492 1382.94 997.882 1354.7 965.469 1326.46 933.056 1341.72 819.49 1355.55 785.326 1369.37 751.161 1410.01 785.891 1437.65 760.481Z" fill="#FF9EAE" fill-rule="evenodd" fill-opacity="0.501961"/><rect x="1404" y="1108" width="396" height="99" fill="#F2AA84" fill-opacity="1"/><text fill="#19768A" fill-opacity="1" font-family="Aptos,Aptos_MSFontService,sans-serif" font-style="normal" font-variant="normal" font-weight="400" font-stretch="normal" font-size="83" text-anchor="start" direction="ltr" writing-mode="lr-tb" unicode-bidi="normal" text-decoration="none" transform="matrix(1 0 0 1 1536.6 1184)">sad</text><rect x="1405" y="310" width="396" height="99" fill="#FF9EAE" fill-opacity="0.501961"/><text fill="#19768A" fill-opacity="1" font-family="Aptos,Aptos_MSFontService,sans-serif" font-style="normal" font-variant="normal" font-weight="400" font-stretch="normal" font-size="83" text-anchor="start" direction="ltr" writing-mode="lr-tb" unicode-bidi="normal" text-decoration="none" transform="matrix(1 0 0 1 1464.15 386)">anxious</text><path d="M1566 573C1566 545.938 1587.94 524 1615 524 1642.06 524 1664 545.938 1664 573 1664 600.062 1642.06 622 1615 622 1587.94 622 1566 600.062 1566 573Z" fill="#19768A" fill-rule="evenodd" fill-opacity="1"/><path d="M1466 820.5C1466 793.162 1487.94 771 1515 771 1542.06 771 1564 793.162 1564 820.5 1564 847.838 1542.06 870 1515 870 1487.94 870 1466 847.838 1466 820.5Z" fill="#19768A" fill-rule="evenodd" fill-opacity="1"/><path d="M1416 610.5C1416 583.162 1438.16 561 1465.5 561 1492.84 561 1515 583.162 1515 610.5 1515 637.838 1492.84 660 1465.5 660 1438.16 660 1416 637.838 1416 610.5Z" fill="#19768A" fill-rule="evenodd" fill-opacity="1"/><path d="M1609 826C1609 798.938 1631.16 777 1658.5 777 1685.84 777 1708 798.938 1708 826 1708 853.062 1685.84 875 1658.5 875 1631.16 875 1609 853.062 1609 826Z" fill="#19768A" fill-rule="evenodd" fill-opacity="1"/><path d="M1546 925.5C1546 898.162 1567.94 876 1595 876 1622.06 876 1644 898.162 1644 925.5 1644 952.838 1622.06 975 1595 975 1567.94 975 1546 952.838 1546 925.5Z" fill="#19768A" fill-rule="evenodd" fill-opacity="1"/><path d="M1514 692.5C1514 665.162 1535.94 643 1563 643 1590.06 643 1612 665.162 1612 692.5 1612 719.838 1590.06 742 1563 742 1535.94 742 1514 719.838 1514 692.5Z" fill="#19768A" fill-rule="evenodd" fill-opacity="1"/><path d="M1632 702.5C1632 675.162 1654.16 653 1681.5 653 1708.84 653 1731 675.162 1731 702.5 1731 729.838 1708.84 752 1681.5 752 1654.16 752 1632 729.838 1632 702.5Z" fill="#19768A" fill-rule="evenodd" fill-opacity="1"/><path d="M1355 869.5C1355 842.162 1377.16 820 1404.5 820 1431.84 820 1454 842.162 1454 869.5 1454 896.838 1431.84 919 1404.5 919 1377.16 919 1355 896.838 1355 869.5Z" fill="#19768A" fill-rule="evenodd" fill-opacity="1"/><path d="M0 0 50.6372 37.2795" stroke="#156082" stroke-width="6.875" stroke-linecap="butt" stroke-linejoin="miter" stroke-miterlimit="8" stroke-opacity="1" fill="none" fill-rule="evenodd" transform="matrix(1 0 0 -1 1515.5 610.779)"/><path d="M1598.5 658.5 1647.16 668.355" stroke="#156082" stroke-width="6.875" stroke-linecap="butt" stroke-linejoin="miter" stroke-miterlimit="8" stroke-opacity="1" fill="none" fill-rule="evenodd"/><path d="M1564.5 820.5 1609.1 826.019" stroke="#156082" stroke-width="6.875" stroke-linecap="butt" stroke-linejoin="miter" stroke-miterlimit="8" stroke-opacity="1" fill="none" fill-rule="evenodd"/><path d="M1545.87 925.749 1439.5 904.5" stroke="#156082" stroke-width="6.875" stroke-linecap="butt" stroke-linejoin="miter" stroke-miterlimit="8" stroke-opacity="1" fill="none" fill-rule="evenodd"/><path d="M1431.5 645.5 1480.85 785.628" stroke="#156082" stroke-width="6.875" stroke-linecap="butt" stroke-linejoin="miter" stroke-miterlimit="8" stroke-opacity="1" fill="none" fill-rule="evenodd"/><path d="M0 0 131.637 33.6482" stroke="#156082" stroke-width="6.875" stroke-linecap="butt" stroke-linejoin="miter" stroke-miterlimit="8" stroke-opacity="1" fill="none" fill-rule="evenodd" transform="matrix(-1 0 0 1 1647.14 737.5)"/><path d="M1026.99 654.388C1065.56 678.662 1134.83 741.487 1121.27 774.328 1107.7 807.169 989.858 795.747 945.579 851.433 890.589 885.701 822.742 982.794 791.319 979.939 759.896 977.083 768.466 882.845 757.039 834.298 739.9 795.746 692.05 795.032 688.479 748.627 684.909 702.222 701.334 582.997 735.615 555.868 763.467 512.318 829.884 475.193 855.594 487.329 881.305 499.466 861.308 600.844 889.875 628.687 918.442 656.53 988.43 630.115 1026.99 654.388Z" fill="#2AD6E4" fill-rule="evenodd" fill-opacity="1"/><path d="M775.464 733.332C813.291 736.189 847.549 632.627 895.368 639.055 943.187 645.483 1006.71 727.618 1062.38 771.9 1096.63 826.895 1155.16 976.167 1100.92 969.025L938.191 947.598C899.65 964.739 894.654 1068.3 869.674 1071.87 844.694 1075.44 815.432 1003.31 788.311 969.025 744.775 941.17 628.439 962.597 608.456 904.745 588.472 846.893 640.573 650.482 668.408 621.914 696.242 593.345 737.637 730.475 775.464 733.332Z" fill="#B2E8F0" fill-rule="evenodd" fill-opacity="0.501961"/><rect x="625" y="1103" width="396" height="99" fill="#2AD6E4" fill-opacity="1"/><text fill="#19768A" fill-opacity="1" font-family="Aptos,Aptos_MSFontService,sans-serif" font-style="normal" font-variant="normal" font-weight="400" font-stretch="normal" font-size="83" text-anchor="start" direction="ltr" writing-mode="lr-tb" unicode-bidi="normal" text-decoration="none" transform="matrix(1 0 0 1 684.576 1179)">content</text><rect x="625" y="310" width="396" height="99" fill="#B2E8F0" fill-opacity="0.501961"/><text fill="#19768A" fill-opacity="1" font-family="Aptos,Aptos_MSFontService,sans-serif" font-style="normal" font-variant="normal" font-weight="400" font-stretch="normal" font-size="83" text-anchor="start" direction="ltr" writing-mode="lr-tb" unicode-bidi="normal" text-decoration="none" transform="matrix(1 0 0 1 675.158 386)">cheerful</text><path d="M745 603C745 575.938 767.162 554 794.5 554 821.838 554 844 575.938 844 603 844 630.062 821.838 652 794.5 652 767.162 652 745 630.062 745 603Z" fill="#19768A" fill-rule="evenodd" fill-opacity="1"/><path d="M770 839C770 811.938 791.938 790 819 790 846.062 790 868 811.938 868 839 868 866.062 846.062 888 819 888 791.938 888 770 866.062 770 839Z" fill="#19768A" fill-rule="evenodd" fill-opacity="1"/><path d="M717 725.5C717 698.162 738.938 676 766 676 793.062 676 815 698.162 815 725.5 815 752.838 793.062 775 766 775 738.938 775 717 752.838 717 725.5Z" fill="#19768A" fill-rule="evenodd" fill-opacity="1"/><path d="M959 858.5C959 831.162 980.938 809 1008 809 1035.06 809 1057 831.162 1057 858.5 1057 885.838 1035.06 908 1008 908 980.938 908 959 885.838 959 858.5Z" fill="#19768A" fill-rule="evenodd" fill-opacity="1"/><path d="M810 948C810 920.938 832.162 899 859.5 899 886.838 899 909 920.938 909 948 909 975.062 886.838 997 859.5 997 832.162 997 810 975.062 810 948Z" fill="#19768A" fill-rule="evenodd" fill-opacity="1"/><path d="M837 745C837 717.938 859.162 696 886.5 696 913.838 696 936 717.938 936 745 936 772.062 913.838 794 886.5 794 859.162 794 837 772.062 837 745Z" fill="#19768A" fill-rule="evenodd" fill-opacity="1"/><path d="M945 737C945 709.938 967.162 688 994.5 688 1021.84 688 1044 709.938 1044 737 1044 764.062 1021.84 786 994.5 786 967.162 786 945 764.062 945 737Z" fill="#19768A" fill-rule="evenodd" fill-opacity="1"/><path d="M654 840.5C654 813.162 675.938 791 703 791 730.062 791 752 813.162 752 840.5 752 867.838 730.062 890 703 890 675.938 890 654 867.838 654 840.5Z" fill="#19768A" fill-rule="evenodd" fill-opacity="1"/><path d="M995.111 688.627 844.5 603.5" stroke="#156082" stroke-width="6.875" stroke-linecap="butt" stroke-linejoin="miter" stroke-miterlimit="8" stroke-opacity="1" fill="none" fill-rule="evenodd"/><path d="M886.761 696.57 829.5 638.5" stroke="#156082" stroke-width="6.875" stroke-linecap="butt" stroke-linejoin="miter" stroke-miterlimit="8" stroke-opacity="1" fill="none" fill-rule="evenodd"/><path d="M760.5 638.5 766.841 677.138" stroke="#156082" stroke-width="6.875" stroke-linecap="butt" stroke-linejoin="miter" stroke-miterlimit="8" stroke-opacity="1" fill="none" fill-rule="evenodd"/><path d="M0 0 28.1648 31.01" stroke="#156082" stroke-width="6.875" stroke-linecap="butt" stroke-linejoin="miter" stroke-miterlimit="8" stroke-opacity="1" fill="none" fill-rule="evenodd" transform="matrix(-1 0 0 1 731.665 760.5)"/><path d="M868.5 839.5 959.147 858.854" stroke="#156082" stroke-width="6.875" stroke-linecap="butt" stroke-linejoin="miter" stroke-miterlimit="8" stroke-opacity="1" fill="none" fill-rule="evenodd"/><path d="M0 0 64.5644 54.4345" stroke="#156082" stroke-width="6.875" stroke-linecap="butt" stroke-linejoin="miter" stroke-miterlimit="8" stroke-opacity="1" fill="none" fill-rule="evenodd" transform="matrix(1 0 0 -1 909.5 947.934)"/><path d="M921.5 780.5 973.293 824.371" stroke="#156082" stroke-width="6.875" stroke-linecap="butt" stroke-linejoin="miter" stroke-miterlimit="8" stroke-opacity="1" fill="none" fill-rule="evenodd"/><path d="M0 0 373.487 213.249" stroke="#E97132" stroke-width="4.58333" stroke-linecap="butt" stroke-linejoin="miter" stroke-miterlimit="8" stroke-opacity="1" fill="none" fill-rule="evenodd" transform="matrix(-1 0 0 1 1430.99 645.5)"/><path d="M0 0 470.237 44.5446" stroke="#E97132" stroke-width="4.58333" stroke-linecap="butt" stroke-linejoin="miter" stroke-miterlimit="8" stroke-opacity="1" fill="none" fill-rule="evenodd" transform="matrix(-1 0 0 1 1514.74 693.5)"/><path d="M1466.61 820.594 1044.5 737.5" stroke="#E97132" stroke-width="4.58333" stroke-linecap="butt" stroke-linejoin="miter" stroke-miterlimit="8" stroke-opacity="1" fill="none" fill-rule="evenodd"/><path d="M1416.59 611.006 829.5 580.5" stroke="#E97132" stroke-width="4.58333" stroke-linecap="butt" stroke-linejoin="miter" stroke-miterlimit="8" stroke-opacity="1" fill="none" fill-rule="evenodd"/><path d="M0 0 446.538 78.27" stroke="#E97132" stroke-width="4.58333" stroke-linecap="butt" stroke-linejoin="miter" stroke-miterlimit="8" stroke-opacity="1" fill="none" fill-rule="evenodd" transform="matrix(-1 0 0 1 1356.04 870.5)"/></g></g></svg>