<svg width="2800" height="977" xmlns="http://www.w3.org/2000/svg" xmlns:xlink="http://www.w3.org/1999/xlink" xml:space="preserve" overflow="hidden"><g transform="translate(-495 -265)"><g><path d="M499.019 270.821 3292.02 270.821 3292.02 1237.82 499.019 1237.82Z" fill="#FFFFFF" fill-rule="evenodd" fill-opacity="1"/><path d="M2407.21 635.614C2430.33 678.904 2515.11 722.71 2501.54 755.549 2487.96 788.389 2379.87 807.595 2325.74 832.651 2271.61 857.707 2208.18 908.741 2176.74 905.885 2145.3 903.03 2155.13 844.856 2137.08 815.517 2119.04 786.177 2072.05 776.252 2068.48 729.849 2064.91 683.446 2081.34 564.226 2115.64 537.098 2143.51 493.55 2194.51 475.443 2235.7 468.562 2276.89 461.682 2334.22 467.972 2362.8 495.814 2391.39 523.656 2384.08 592.325 2407.21 635.614Z" fill="#F2AA84" fill-rule="evenodd" fill-opacity="1"/><path d="M2121.36 760.481C2148.99 735.071 2157.64 642.026 2205.05 632.866 2252.46 623.706 2338.9 681.303 2405.82 705.522 2455.85 746.727 2508.19 848.194 2505.22 880.09 2502.24 911.987 2427.06 891.299 2387.98 896.904 2356.89 925.446 2348.53 1037.53 2318.64 1051.34 2288.76 1065.16 2255.38 994.117 2208.68 979.804 2161.97 965.492 2066.65 997.882 2038.42 965.469 2010.18 933.056 2025.44 819.49 2039.26 785.326 2053.09 751.161 2093.73 785.891 2121.36 760.481Z" fill="#FF9EAE" fill-rule="evenodd" fill-opacity="0.501961"/><rect x="2088" y="1108" width="396" height="99" fill="#F2AA84" fill-opacity="1"/><text fill="#19768A" fill-opacity="1" font-family="Aptos,Aptos_MSFontService,sans-serif" font-style="normal" font-variant="normal" font-weight="400" font-stretch="normal" font-size="55" text-anchor="start" direction="ltr" writing-mode="lr-tb" unicode-bidi="normal" text-decoration="none" transform="matrix(1 0 0 1 2242.09 1176)">sad</text><rect x="2088" y="310" width="396" height="99" fill="#FF9EAE" fill-opacity="0.501961"/><text fill="#19768A" fill-opacity="1" font-family="Aptos,Aptos_MSFontService,sans-serif" font-style="normal" font-variant="normal" font-weight="400" font-stretch="normal" font-size="55" text-anchor="start" direction="ltr" writing-mode="lr-tb" unicode-bidi="normal" text-decoration="none" transform="matrix(1 0 0 1 2193.7 378)">anxious</text><path d="M2249 573C2249 545.938 2271.16 524 2298.5 524 2325.84 524 2348 545.938 2348 573 2348 600.062 2325.84 622 2298.5 622 2271.16 622 2249 600.062 2249 573Z" fill="#19768A" fill-rule="evenodd" fill-opacity="1"/><path d="M2150 820.5C2150 793.162 2171.94 771 2199 771 2226.06 771 2248 793.162 2248 820.5 2248 847.838 2226.06 870 2199 870 2171.94 870 2150 847.838 2150 820.5Z" fill="#19768A" fill-rule="evenodd" fill-opacity="1"/><path d="M2100 610.5C2100 583.162 2122.16 561 2149.5 561 2176.84 561 2199 583.162 2199 610.5 2199 637.838 2176.84 660 2149.5 660 2122.16 660 2100 637.838 2100 610.5Z" fill="#19768A" fill-rule="evenodd" fill-opacity="1"/><path d="M2293 826C2293 798.938 2314.94 777 2342 777 2369.06 777 2391 798.938 2391 826 2391 853.062 2369.06 875 2342 875 2314.94 875 2293 853.062 2293 826Z" fill="#19768A" fill-rule="evenodd" fill-opacity="1"/><path d="M2229 925.5C2229 898.162 2251.16 876 2278.5 876 2305.84 876 2328 898.162 2328 925.5 2328 952.838 2305.84 975 2278.5 975 2251.16 975 2229 952.838 2229 925.5Z" fill="#19768A" fill-rule="evenodd" fill-opacity="1"/><path d="M2198 692.5C2198 665.162 2219.94 643 2247 643 2274.06 643 2296 665.162 2296 692.5 2296 719.838 2274.06 742 2247 742 2219.94 742 2198 719.838 2198 692.5Z" fill="#19768A" fill-rule="evenodd" fill-opacity="1"/><path d="M2316 702.5C2316 675.162 2338.16 653 2365.5 653 2392.84 653 2415 675.162 2415 702.5 2415 729.838 2392.84 752 2365.5 752 2338.16 752 2316 729.838 2316 702.5Z" fill="#19768A" fill-rule="evenodd" fill-opacity="1"/><path d="M2039 869.5C2039 842.162 2061.16 820 2088.5 820 2115.84 820 2138 842.162 2138 869.5 2138 896.838 2115.84 919 2088.5 919 2061.16 919 2039 896.838 2039 869.5Z" fill="#19768A" fill-rule="evenodd" fill-opacity="1"/><path d="M0 0 50.6372 37.2795" stroke="#156082" stroke-width="6.875" stroke-linecap="butt" stroke-linejoin="miter" stroke-miterlimit="8" stroke-opacity="1" fill="none" fill-rule="evenodd" transform="matrix(1 0 0 -1 2199.5 610.779)"/><path d="M2282.5 658.5 2331.16 668.355" stroke="#156082" stroke-width="6.875" stroke-linecap="butt" stroke-linejoin="miter" stroke-miterlimit="8" stroke-opacity="1" fill="none" fill-rule="evenodd"/><path d="M2248.5 820.5 2293.1 826.019" stroke="#156082" stroke-width="6.875" stroke-linecap="butt" stroke-linejoin="miter" stroke-miterlimit="8" stroke-opacity="1" fill="none" fill-rule="evenodd"/><path d="M2229.87 925.749 2123.5 904.5" stroke="#156082" stroke-width="6.875" stroke-linecap="butt" stroke-linejoin="miter" stroke-miterlimit="8" stroke-opacity="1" fill="none" fill-rule="evenodd"/><path d="M2115.5 645.5 2164.85 785.628" stroke="#156082" stroke-width="6.875" stroke-linecap="butt" stroke-linejoin="miter" stroke-miterlimit="8" stroke-opacity="1" fill="none" fill-rule="evenodd"/><path d="M0 0 131.637 33.6482" stroke="#156082" stroke-width="6.875" stroke-linecap="butt" stroke-linejoin="miter" stroke-miterlimit="8" stroke-opacity="1" fill="none" fill-rule="evenodd" transform="matrix(-1 0 0 1 2331.14 737.5)"/><path d="M1710.99 654.388C1749.56 678.662 1818.83 741.487 1805.27 774.328 1791.7 807.169 1673.86 795.747 1629.58 851.433 1574.59 885.701 1506.74 982.794 1475.32 979.939 1443.9 977.083 1452.47 882.845 1441.04 834.298 1423.9 795.746 1376.05 795.032 1372.48 748.627 1368.91 702.222 1385.33 582.997 1419.61 555.868 1447.47 512.318 1513.88 475.193 1539.59 487.329 1565.3 499.466 1545.31 600.844 1573.87 628.687 1602.44 656.53 1672.43 630.115 1710.99 654.388Z" fill="#2AD6E4" fill-rule="evenodd" fill-opacity="1"/><path d="M1459.46 733.332C1497.29 736.189 1531.55 632.627 1579.37 639.055 1627.19 645.483 1690.71 727.618 1746.38 771.9 1780.63 826.895 1839.16 976.167 1784.92 969.025L1622.19 947.598C1583.65 964.739 1578.65 1068.3 1553.67 1071.87 1528.69 1075.44 1499.43 1003.31 1472.31 969.025 1428.78 941.17 1312.44 962.597 1292.46 904.745 1272.47 846.893 1324.57 650.482 1352.41 621.914 1380.24 593.345 1421.64 730.475 1459.46 733.332Z" fill="#B2E8F0" fill-rule="evenodd" fill-opacity="0.501961"/><rect x="1308" y="1103" width="396" height="99" fill="#2AD6E4" fill-opacity="1"/><text fill="#19768A" fill-opacity="1" font-family="Aptos,Aptos_MSFontService,sans-serif" font-style="normal" font-variant="normal" font-weight="400" font-stretch="normal" font-size="55" text-anchor="start" direction="ltr" writing-mode="lr-tb" unicode-bidi="normal" text-decoration="none" transform="matrix(1 0 0 1 1414.34 1171)">content</text><rect x="1308" y="310" width="396" height="99" fill="#B2E8F0" fill-opacity="0.501961"/><text fill="#19768A" fill-opacity="1" font-family="Aptos,Aptos_MSFontService,sans-serif" font-style="normal" font-variant="normal" font-weight="400" font-stretch="normal" font-size="55" text-anchor="start" direction="ltr" writing-mode="lr-tb" unicode-bidi="normal" text-decoration="none" transform="matrix(1 0 0 1 1407.6 378)">cheerful</text><path d="M1429 603C1429 575.938 1451.16 554 1478.5 554 1505.84 554 1528 575.938 1528 603 1528 630.062 1505.84 652 1478.5 652 1451.16 652 1429 630.062 1429 603Z" fill="#19768A" fill-rule="evenodd" fill-opacity="1"/><path d="M1453 839C1453 811.938 1475.16 790 1502.5 790 1529.84 790 1552 811.938 1552 839 1552 866.062 1529.84 888 1502.5 888 1475.16 888 1453 866.062 1453 839Z" fill="#19768A" fill-rule="evenodd" fill-opacity="1"/><path d="M1400 725.5C1400 698.162 1422.16 676 1449.5 676 1476.84 676 1499 698.162 1499 725.5 1499 752.838 1476.84 775 1449.5 775 1422.16 775 1400 752.838 1400 725.5Z" fill="#19768A" fill-rule="evenodd" fill-opacity="1"/><path d="M1643 858.5C1643 831.162 1664.94 809 1692 809 1719.06 809 1741 831.162 1741 858.5 1741 885.838 1719.06 908 1692 908 1664.94 908 1643 885.838 1643 858.5Z" fill="#19768A" fill-rule="evenodd" fill-opacity="1"/><path d="M1494 948C1494 920.938 1515.94 899 1543 899 1570.06 899 1592 920.938 1592 948 1592 975.062 1570.06 997 1543 997 1515.94 997 1494 975.062 1494 948Z" fill="#19768A" fill-rule="evenodd" fill-opacity="1"/><path d="M1521 745C1521 717.938 1543.16 696 1570.5 696 1597.84 696 1620 717.938 1620 745 1620 772.062 1597.84 794 1570.5 794 1543.16 794 1521 772.062 1521 745Z" fill="#19768A" fill-rule="evenodd" fill-opacity="1"/><path d="M1629 737C1629 709.938 1650.94 688 1678 688 1705.06 688 1727 709.938 1727 737 1727 764.062 1705.06 786 1678 786 1650.94 786 1629 764.062 1629 737Z" fill="#19768A" fill-rule="evenodd" fill-opacity="1"/><path d="M1337 840.5C1337 813.162 1359.16 791 1386.5 791 1413.84 791 1436 813.162 1436 840.5 1436 867.838 1413.84 890 1386.5 890 1359.16 890 1337 867.838 1337 840.5Z" fill="#19768A" fill-rule="evenodd" fill-opacity="1"/><path d="M1679.11 688.627 1528.5 603.5" stroke="#156082" stroke-width="6.875" stroke-linecap="butt" stroke-linejoin="miter" stroke-miterlimit="8" stroke-opacity="1" fill="none" fill-rule="evenodd"/><path d="M1570.76 696.57 1513.5 638.5" stroke="#156082" stroke-width="6.875" stroke-linecap="butt" stroke-linejoin="miter" stroke-miterlimit="8" stroke-opacity="1" fill="none" fill-rule="evenodd"/><path d="M1443.5 638.5 1449.84 677.138" stroke="#156082" stroke-width="6.875" stroke-linecap="butt" stroke-linejoin="miter" stroke-miterlimit="8" stroke-opacity="1" fill="none" fill-rule="evenodd"/><path d="M0 0 28.1648 31.01" stroke="#156082" stroke-width="6.875" stroke-linecap="butt" stroke-linejoin="miter" stroke-miterlimit="8" stroke-opacity="1" fill="none" fill-rule="evenodd" transform="matrix(-1 0 0 1 1415.66 760.5)"/><path d="M1552.5 839.5 1643.15 858.854" stroke="#156082" stroke-width="6.875" stroke-linecap="butt" stroke-linejoin="miter" stroke-miterlimit="8" stroke-opacity="1" fill="none" fill-rule="evenodd"/><path d="M0 0 64.5644 54.4345" stroke="#156082" stroke-width="6.875" stroke-linecap="butt" stroke-linejoin="miter" stroke-miterlimit="8" stroke-opacity="1" fill="none" fill-rule="evenodd" transform="matrix(1 0 0 -1 1592.5 947.934)"/><path d="M1605.5 780.5 1657.29 824.371" stroke="#156082" stroke-width="6.875" stroke-linecap="butt" stroke-linejoin="miter" stroke-miterlimit="8" stroke-opacity="1" fill="none" fill-rule="evenodd"/><path d="M0 0 373.487 213.249" stroke="#E97132" stroke-width="4.58333" stroke-linecap="butt" stroke-linejoin="miter" stroke-miterlimit="8" stroke-opacity="1" fill="none" fill-rule="evenodd" transform="matrix(-1 0 0 1 2114.99 645.5)"/><path d="M0 0 470.237 44.5446" stroke="#E97132" stroke-width="4.58333" stroke-linecap="butt" stroke-linejoin="miter" stroke-miterlimit="8" stroke-opacity="1" fill="none" fill-rule="evenodd" transform="matrix(-1 0 0 1 2197.74 693.5)"/><path d="M2149.61 820.594 1727.5 737.5" stroke="#E97132" stroke-width="4.58333" stroke-linecap="butt" stroke-linejoin="miter" stroke-miterlimit="8" stroke-opacity="1" fill="none" fill-rule="evenodd"/><path d="M2100.59 611.006 1513.5 580.5" stroke="#E97132" stroke-width="4.58333" stroke-linecap="butt" stroke-linejoin="miter" stroke-miterlimit="8" stroke-opacity="1" fill="none" fill-rule="evenodd"/><path d="M0 0 446.538 78.27" stroke="#E97132" stroke-width="4.58333" stroke-linecap="butt" stroke-linejoin="miter" stroke-miterlimit="8" stroke-opacity="1" fill="none" fill-rule="evenodd" transform="matrix(-1 0 0 1 2039.04 870.5)"/></g></g></svg>