<svg width="2901" height="1219" xmlns="http://www.w3.org/2000/svg" xmlns:xlink="http://www.w3.org/1999/xlink" xml:space="preserve" overflow="hidden"><defs><linearGradient x1="1714.35" y1="1448.96" x2="1717.36" y2="1478.97" gradientUnits="userSpaceOnUse" spreadMethod="reflect" id="fill0"><stop offset="0" stop-color="#FFFFFF" stop-opacity="0.521569"/><stop offset="0.5" stop-color="#FFFFFF" stop-opacity="0.258824"/><stop offset="1" stop-color="#FFFFFF" stop-opacity="0"/></linearGradient><linearGradient x1="1701.22" y1="1456.85" x2="1704.48" y2="1488.08" gradientUnits="userSpaceOnUse" spreadMethod="reflect" id="fill1"><stop offset="0" stop-color="#FFFFFF" stop-opacity="0.521569"/><stop offset="0.5" stop-color="#FFFFFF" stop-opacity="0.258824"/><stop offset="1" stop-color="#FFFFFF" stop-opacity="0"/></linearGradient><linearGradient x1="1687.82" y1="1452.97" x2="1690.87" y2="1482.97" gradientUnits="userSpaceOnUse" spreadMethod="reflect" id="fill2"><stop offset="0" stop-color="#FFFFFF" stop-opacity="0.521569"/><stop offset="0.5" stop-color="#FFFFFF" stop-opacity="0.258824"/><stop offset="1" stop-color="#FFFFFF" stop-opacity="0"/></linearGradient><linearGradient x1="3021.57" y1="1340.95" x2="3024.57" y2="1370.95" gradientUnits="userSpaceOnUse" spreadMethod="reflect" id="fill3"><stop offset="0" stop-color="#FFFFFF" stop-opacity="0.521569"/><stop offset="0.5" stop-color="#FFFFFF" stop-opacity="0.258824"/><stop offset="1" stop-color="#FFFFFF" stop-opacity="0"/></linearGradient><linearGradient x1="2862.54" y1="1323.94" x2="2865.55" y2="1353.95" gradientUnits="userSpaceOnUse" spreadMethod="reflect" id="fill4"><stop offset="0" stop-color="#FFFFFF" stop-opacity="0.521569"/><stop offset="0.5" stop-color="#FFFFFF" stop-opacity="0.258824"/><stop offset="1" stop-color="#FFFFFF" stop-opacity="0"/></linearGradient><linearGradient x1="3167.59" y1="1314.94" x2="3170.6" y2="1344.95" gradientUnits="userSpaceOnUse" spreadMethod="reflect" id="fill5"><stop offset="0" stop-color="#FFFFFF" stop-opacity="0.521569"/><stop offset="0.5" stop-color="#FFFFFF" stop-opacity="0.258824"/><stop offset="1" stop-color="#FFFFFF" stop-opacity="0"/></linearGradient></defs><g transform="translate(-724 -678)"><g><path d="M725.019 682.776 3518.02 682.776 3518.02 1894.78 725.019 1894.78Z" fill="#FFFFFF" fill-rule="evenodd" fill-opacity="1"/><path d="M3289.16 687.776C3316.15 687.776 3338.02 708.265 3338.02 733.54L3338.02 1066.01C3338.02 1091.29 3316.15 1111.78 3289.16 1111.78L886.876 1111.78C859.893 1111.78 838.019 1091.29 838.019 1066.01L838.019 733.54C838.019 708.265 859.893 687.776 886.876 687.776Z" fill="#FF9EAE" fill-rule="evenodd" fill-opacity="1"/><path d="M885.86 684 2067 684 2067 1108 885.86 1108C858.875 1108 837 1087.51 837 1062.24L837 729.764C837 704.49 858.875 684 885.86 684Z" fill="#BBF8FF" fill-rule="evenodd" fill-opacity="1"/><path d="M837.019 1102.78 837.019 1751.78 1942.02 1751.78 1942.02 1169.67C1942.02 1169.67 1842.91 1588.42 1721.02 1588.42 1599.13 1588.42 1522.12 1279.37 1389.52 1279.37 1256.92 1279.37 1183.47 1411.82 1058.02 1411.82 925.419 1411.82 837.019 1102.78 837.019 1102.78Z" fill="#BBF8FF" fill-rule="evenodd" fill-opacity="1"/><path d="M1791.83 1519.37C1791.83 1551.96 1764.96 1578.37 1731.83 1578.37 1698.69 1578.37 1671.83 1551.96 1671.83 1519.37 1671.83 1486.79 1698.69 1460.37 1731.83 1460.37 1764.96 1460.37 1791.83 1486.79 1791.83 1519.37L1791.83 1519.37Z" stroke="#000000" stroke-width="1.05669" stroke-linecap="round" stroke-linejoin="round" stroke-miterlimit="10" stroke-opacity="1" fill="#FBFBFE" fill-rule="evenodd" fill-opacity="1"/><path d="M1675.36 1499.94C1681.52 1485.42 1682.06 1479.14 1693.72 1469.06 1701.22 1462.44 1709.52 1456.65 1723.51 1454.18 1736.72 1453.23 1745.36 1455.5 1745.36 1455.5 1731.12 1451.3 1720.15 1457.74 1705.01 1466.45 1693.34 1474.44 1683.45 1485.8 1675.36 1499.94Z" fill="#FFFFFF" fill-rule="evenodd" fill-opacity="0.180392"/><path d="M1727.28 1568.55C1727.28 1568.55 1743.87 1570.12 1753.35 1566.19 1762.84 1562.26 1776.27 1550.47 1781.01 1542.61 1785.75 1534.75 1791.28 1523.74 1791.28 1516.67 1791.28 1509.59 1791.28 1498.58 1788.91 1493.87 1786.54 1489.15 1783.38 1482.86 1783.38 1482.86 1783.38 1482.86 1788.12 1497.8 1786.54 1508.02 1784.96 1518.24 1782.59 1526.1 1775.48 1539.46 1766.79 1552.04 1764.42 1555.19 1754.93 1562.26 1741.5 1569.34 1727.28 1568.55 1727.28 1568.55Z" fill="#FFFFFF" fill-rule="evenodd" fill-opacity="0.180392"/><path d="M1747.28 1455.26C1743.7 1451.99 1730.19 1450.11 1712.61 1454.71 1695.14 1460.96 1687.45 1469.39 1684.35 1474.31 1685.62 1478.29 1699.87 1474.52 1717.2 1469.15 1734.54 1463.79 1748.54 1459.25 1747.28 1455.26Z" fill="url(#fill0)" fill-rule="evenodd"/><path d="M1778.82 1528.37C1778.82 1560.96 1751.96 1587.37 1718.82 1587.37 1685.69 1587.37 1658.82 1560.96 1658.82 1528.37 1658.82 1495.79 1685.69 1469.37 1718.82 1469.37 1751.96 1469.37 1778.82 1495.79 1778.82 1528.37L1778.82 1528.37Z" stroke="#000000" stroke-width="1.05669" stroke-linecap="round" stroke-linejoin="round" stroke-miterlimit="10" stroke-opacity="1" fill="#FBFBFE" fill-rule="evenodd" fill-opacity="1"/><path d="M1662.36 1508.95C1668.52 1494.42 1669.06 1488.14 1680.72 1478.06 1688.22 1471.44 1696.52 1465.65 1710.5 1463.18 1723.72 1462.23 1732.36 1464.51 1732.36 1464.51 1718.11 1460.3 1707.15 1466.74 1692.01 1475.45 1680.34 1483.44 1670.45 1494.8 1662.36 1508.95Z" fill="#FFFFFF" fill-rule="evenodd" fill-opacity="0.180392"/><path d="M1714.28 1576.55C1714.28 1576.55 1730.87 1578.13 1740.35 1574.19 1749.83 1570.26 1763.27 1558.47 1768.01 1550.61 1772.75 1542.75 1778.28 1531.74 1778.28 1524.67 1778.28 1517.59 1778.28 1506.59 1775.91 1501.87 1773.54 1497.15 1770.38 1490.86 1770.38 1490.86 1770.38 1490.86 1775.12 1505.8 1773.54 1516.02 1771.96 1526.24 1769.59 1534.1 1762.48 1547.47 1753.78 1560.04 1751.41 1563.19 1741.93 1570.26 1728.5 1577.34 1714.28 1576.55 1714.28 1576.55Z" fill="#FFFFFF" fill-rule="evenodd" fill-opacity="0.180392"/><path d="M1734.27 1463.4C1730.69 1459.99 1717.18 1458.04 1699.61 1462.83 1682.13 1469.33 1674.44 1478.12 1671.35 1483.24 1672.62 1487.39 1686.87 1483.46 1704.2 1477.87 1721.53 1472.28 1735.54 1467.55 1734.27 1463.4Z" fill="url(#fill1)" fill-rule="evenodd"/><path d="M1765.82 1524.37C1765.82 1556.96 1738.96 1583.37 1705.82 1583.37 1672.68 1583.37 1645.82 1556.96 1645.82 1524.37 1645.82 1491.79 1672.68 1465.37 1705.82 1465.37 1738.96 1465.37 1765.82 1491.79 1765.82 1524.37L1765.82 1524.37Z" stroke="#000000" stroke-width="1.05669" stroke-linecap="round" stroke-linejoin="round" stroke-miterlimit="10" stroke-opacity="1" fill="#FBFBFE" fill-rule="evenodd" fill-opacity="1"/><path d="M1648.36 1504.95C1654.52 1490.42 1655.06 1484.14 1666.72 1474.06 1674.21 1467.44 1682.52 1461.65 1696.5 1459.18 1709.72 1458.23 1718.36 1460.5 1718.36 1460.5 1704.11 1456.3 1693.15 1462.74 1678.01 1471.45 1666.34 1479.44 1656.44 1490.8 1648.36 1504.95Z" fill="#FFFFFF" fill-rule="evenodd" fill-opacity="0.180392"/><path d="M1701.27 1572.55C1701.27 1572.55 1717.6 1574.12 1726.94 1570.19 1736.27 1566.26 1749.49 1554.47 1754.16 1546.61 1758.83 1538.75 1764.27 1527.74 1764.27 1520.67 1764.27 1513.59 1764.27 1502.59 1761.94 1497.87 1759.61 1493.15 1756.49 1486.86 1756.49 1486.86 1756.49 1486.86 1761.16 1501.8 1759.61 1512.02 1758.05 1522.24 1755.72 1530.1 1748.72 1543.46 1740.16 1556.04 1737.83 1559.19 1728.49 1566.26 1715.27 1573.34 1701.27 1572.55 1701.27 1572.55Z" fill="#FFFFFF" fill-rule="evenodd" fill-opacity="0.180392"/><path d="M1720.27 1459.26C1716.74 1455.99 1703.45 1454.11 1686.15 1458.71 1668.95 1464.96 1661.39 1473.39 1658.34 1478.31 1659.59 1482.29 1673.62 1478.52 1690.67 1473.15 1707.73 1467.79 1721.51 1463.25 1720.27 1459.26Z" fill="url(#fill2)" fill-rule="evenodd"/><path d="M1623.52 1526.24C1623.52 1526.24 1669.46 1595.7 1732.47 1585.19 1772.07 1578.59 1803.52 1522.27 1803.52 1522.27" stroke="#FF0000" stroke-width="11.0433" stroke-linecap="butt" stroke-linejoin="miter" stroke-miterlimit="8" stroke-dasharray="44.1732 33.1299" stroke-opacity="1" fill="none" fill-rule="evenodd"/><path d="M1786.27 1674.68C1786.27 1709.75 1758.06 1738.18 1723.27 1738.18 1688.48 1738.18 1660.27 1709.75 1660.27 1674.68 1660.27 1639.61 1688.48 1611.18 1723.27 1611.18 1758.06 1611.18 1786.27 1639.61 1786.27 1674.68Z" stroke="#000000" stroke-width="2.15417" stroke-linecap="round" stroke-linejoin="miter" stroke-miterlimit="8" stroke-opacity="1" fill="#FFFFFF" fill-rule="evenodd" fill-opacity="1"/><path d="M1710.76 1657.18C1710.76 1661.87 1707.85 1665.68 1704.26 1665.68 1700.67 1665.68 1697.76 1661.87 1697.76 1657.18 1697.76 1652.48 1700.67 1648.68 1704.26 1648.68 1707.85 1648.68 1710.76 1652.48 1710.76 1657.18Z" stroke="#000000" stroke-width="0.255151" stroke-linecap="round" stroke-linejoin="miter" stroke-miterlimit="8" stroke-opacity="1" fill="#000000" fill-rule="evenodd" fill-opacity="1"/><path d="M1750.78 1657.18C1750.78 1661.87 1747.65 1665.68 1743.78 1665.68 1739.92 1665.68 1736.78 1661.87 1736.78 1657.18 1736.78 1652.48 1739.92 1648.68 1743.78 1648.68 1747.65 1648.68 1750.78 1652.48 1750.78 1657.18Z" stroke="#000000" stroke-width="0.255151" stroke-linecap="round" stroke-linejoin="miter" stroke-miterlimit="8" stroke-opacity="1" fill="#000000" fill-rule="evenodd" fill-opacity="1"/><path d="M1755.77 1694.66C1737.4 1714.16 1710.64 1714.71 1691.77 1695.97" stroke="#000000" stroke-width="2.61647" stroke-linecap="round" stroke-linejoin="miter" stroke-miterlimit="8" stroke-opacity="1" fill="#FFFFFF" fill-rule="evenodd" fill-opacity="1"/><path d="M1114.16 1674.68C1114.16 1709.75 1085.73 1738.18 1050.66 1738.18 1015.59 1738.18 987.16 1709.75 987.16 1674.68 987.16 1639.61 1015.59 1611.18 1050.66 1611.18 1085.73 1611.18 1114.16 1639.61 1114.16 1674.68Z" stroke="#000000" stroke-width="2.15417" stroke-linecap="round" stroke-linejoin="miter" stroke-miterlimit="8" stroke-opacity="1" fill="#FFFFFF" fill-rule="evenodd" fill-opacity="1"/><path d="M1038.66 1657.18C1038.66 1661.87 1035.53 1665.68 1031.66 1665.68 1027.8 1665.68 1024.66 1661.87 1024.66 1657.18 1024.66 1652.48 1027.8 1648.68 1031.66 1648.68 1035.53 1648.68 1038.66 1652.48 1038.66 1657.18Z" stroke="#000000" stroke-width="0.255151" stroke-linecap="round" stroke-linejoin="miter" stroke-miterlimit="8" stroke-opacity="1" fill="#000000" fill-rule="evenodd" fill-opacity="1"/><path d="M1077.67 1657.18C1077.67 1661.87 1074.53 1665.68 1070.67 1665.68 1066.8 1665.68 1063.67 1661.87 1063.67 1657.18 1063.67 1652.48 1066.8 1648.68 1070.67 1648.68 1074.53 1648.68 1077.67 1652.48 1077.67 1657.18Z" stroke="#000000" stroke-width="0.255151" stroke-linecap="round" stroke-linejoin="miter" stroke-miterlimit="8" stroke-opacity="1" fill="#000000" fill-rule="evenodd" fill-opacity="1"/><path d="M65.1608 0.16308C46.5018 19.6606 19.3229 20.2076 0.160848 1.47164" stroke="#000000" stroke-width="2.61647" stroke-linecap="round" stroke-linejoin="miter" stroke-miterlimit="8" stroke-opacity="1" fill="#FFFFFF" fill-rule="evenodd" fill-opacity="1" transform="matrix(1 0 0 -1 1018.5 1709.5)"/><path d="M2219.02 1204.84 2219.02 1746.78 3325.02 1746.78 3325.02 1193.78C3325.02 1193.78 3303.92 1470.28 3103.82 1470.28 2903.73 1470.28 2904.75 1448.16 2772.02 1448.16 2639.3 1448.16 2565.79 1514.52 2440.22 1514.52 2307.5 1514.52 2219.02 1204.84 2219.02 1204.84Z" fill="#FF9EAE" fill-rule="evenodd" fill-opacity="1"/><path d="M3099.04 1412.36C3099.04 1444.94 3072.18 1471.36 3039.04 1471.36 3005.9 1471.36 2979.04 1444.94 2979.04 1412.36 2979.04 1379.77 3005.9 1353.36 3039.04 1353.36 3072.18 1353.36 3099.04 1379.77 3099.04 1412.36L3099.04 1412.36Z" stroke="#000000" stroke-width="1.05669" stroke-linecap="round" stroke-linejoin="round" stroke-miterlimit="10" stroke-opacity="1" fill="#FBFBFE" fill-rule="evenodd" fill-opacity="1"/><path d="M2982.58 1392.93C2988.74 1378.4 2989.28 1372.12 3000.94 1362.04 3008.43 1355.42 3016.73 1349.63 3030.72 1347.16 3043.94 1346.21 3052.58 1348.49 3052.58 1348.49 3038.33 1344.28 3027.36 1350.72 3012.22 1359.43 3000.56 1367.42 2990.66 1378.78 2982.58 1392.93Z" fill="#FFFFFF" fill-rule="evenodd" fill-opacity="0.180392"/><path d="M3034.49 1460.53C3034.49 1460.53 3051.09 1462.11 3060.57 1458.18 3070.05 1454.24 3083.48 1442.45 3088.22 1434.59 3092.96 1426.73 3098.49 1415.72 3098.49 1408.65 3098.49 1401.57 3098.49 1390.57 3096.12 1385.85 3093.75 1381.13 3090.59 1374.84 3090.59 1374.84 3090.59 1374.84 3095.33 1389.78 3093.75 1400 3092.17 1410.22 3089.8 1418.08 3082.69 1431.45 3074 1444.02 3071.63 1447.17 3062.15 1454.24 3048.72 1461.32 3034.49 1460.53 3034.49 1460.53Z" fill="#FFFFFF" fill-rule="evenodd" fill-opacity="0.180392"/><path d="M3054.49 1347.24C3050.91 1343.97 3037.4 1342.09 3019.83 1346.7 3002.35 1352.94 2994.66 1361.37 2991.57 1366.29 2992.84 1370.28 3007.09 1366.5 3024.42 1361.14 3041.75 1355.77 3055.76 1351.23 3054.49 1347.24Z" fill="url(#fill3)" fill-rule="evenodd"/><path d="M2940.01 1394.35C2940.01 1426.94 2913.15 1453.35 2880.01 1453.35 2846.88 1453.35 2820.01 1426.94 2820.01 1394.35 2820.01 1361.77 2846.88 1335.35 2880.01 1335.35 2913.15 1335.35 2940.01 1361.77 2940.01 1394.35L2940.01 1394.35Z" stroke="#000000" stroke-width="1.05669" stroke-linecap="round" stroke-linejoin="round" stroke-miterlimit="10" stroke-opacity="1" fill="#FBFBFE" fill-rule="evenodd" fill-opacity="1"/><path d="M2823.55 1374.92C2829.71 1360.4 2830.25 1354.12 2841.91 1344.04 2849.41 1337.42 2857.71 1331.63 2871.69 1329.15 2884.91 1328.21 2893.55 1330.48 2893.55 1330.48 2879.3 1326.28 2868.34 1332.72 2853.2 1341.42 2841.53 1349.41 2831.64 1360.78 2823.55 1374.92Z" fill="#FFFFFF" fill-rule="evenodd" fill-opacity="0.180392"/><path d="M2875.47 1443.53C2875.47 1443.53 2892.06 1445.1 2901.54 1441.17 2911.02 1437.24 2924.46 1425.45 2929.2 1417.59 2933.94 1409.73 2939.47 1398.72 2939.47 1391.65 2939.47 1384.57 2939.47 1373.56 2937.1 1368.85 2934.73 1364.13 2931.57 1357.84 2931.57 1357.84 2931.57 1357.84 2936.31 1372.78 2934.73 1383 2933.15 1393.22 2930.78 1401.08 2923.67 1414.44 2914.98 1427.02 2912.6 1430.17 2903.12 1437.24 2889.69 1444.32 2875.47 1443.53 2875.47 1443.53Z" fill="#FFFFFF" fill-rule="evenodd" fill-opacity="0.180392"/><path d="M2895.46 1330.24C2891.89 1326.97 2878.38 1325.09 2860.8 1329.69 2843.33 1335.94 2835.64 1344.37 2832.54 1349.29 2833.81 1353.27 2848.06 1349.5 2865.39 1344.13 2882.73 1338.77 2896.73 1334.23 2895.46 1330.24Z" fill="url(#fill4)" fill-rule="evenodd"/><path d="M3245.06 1385.85C3245.06 1418.71 3218.2 1445.35 3185.06 1445.35 3151.93 1445.35 3125.06 1418.71 3125.06 1385.85 3125.06 1352.99 3151.93 1326.35 3185.06 1326.35 3218.2 1326.35 3245.06 1352.99 3245.06 1385.85L3245.06 1385.85Z" stroke="#000000" stroke-width="1.05669" stroke-linecap="round" stroke-linejoin="round" stroke-miterlimit="10" stroke-opacity="1" fill="#FBFBFE" fill-rule="evenodd" fill-opacity="1"/><path d="M3128.59 1366.92C3134.66 1352.08 3135.2 1345.66 3146.69 1335.36 3154.08 1328.6 3162.26 1322.69 3176.05 1320.16 3189.07 1319.19 3197.59 1321.51 3197.59 1321.51 3183.55 1317.22 3172.74 1323.8 3157.82 1332.69 3146.31 1340.86 3136.56 1352.47 3128.59 1366.92Z" fill="#FFFFFF" fill-rule="evenodd" fill-opacity="0.180392"/><path d="M3180.51 1434.53C3180.51 1434.53 3196.84 1436.1 3206.18 1432.17 3215.51 1428.24 3228.73 1416.45 3233.4 1408.59 3238.07 1400.73 3243.51 1389.72 3243.51 1382.64 3243.51 1375.57 3243.51 1364.56 3241.18 1359.85 3238.84 1355.13 3235.73 1348.84 3235.73 1348.84 3235.73 1348.84 3240.4 1363.78 3238.84 1374 3237.29 1384.22 3234.95 1392.08 3227.96 1405.44 3219.4 1418.02 3217.07 1421.17 3207.73 1428.24 3194.51 1435.32 3180.51 1434.53 3180.51 1434.53Z" fill="#FFFFFF" fill-rule="evenodd" fill-opacity="0.180392"/><path d="M3200.51 1321.24C3196.94 1317.97 3183.43 1316.09 3165.85 1320.69 3148.38 1326.93 3140.68 1335.37 3137.59 1340.29 3138.86 1344.27 3153.11 1340.49 3170.44 1335.13 3187.78 1329.77 3201.78 1325.22 3200.51 1321.24Z" fill="url(#fill5)" fill-rule="evenodd"/><path d="M2820.52 1450.82C2820.52 1450.82 3045.2 1469.71 3103.48 1472.16 3183.61 1475.54 3250.1 1401.17 3248.49 1406.56" stroke="#FF0000" stroke-width="11.0433" stroke-linecap="butt" stroke-linejoin="miter" stroke-miterlimit="8" stroke-dasharray="44.1732 33.1299" stroke-opacity="1" fill="none" fill-rule="evenodd"/><path d="M3133.49 1650.17C3133.49 1684.96 3105.06 1713.17 3069.99 1713.17 3034.92 1713.17 3006.49 1684.96 3006.49 1650.17 3006.49 1615.38 3034.92 1587.17 3069.99 1587.17 3105.06 1587.17 3133.49 1615.38 3133.49 1650.17Z" stroke="#000000" stroke-width="2.15417" stroke-linecap="round" stroke-linejoin="miter" stroke-miterlimit="8" stroke-opacity="1" fill="#FFFFFF" fill-rule="evenodd" fill-opacity="1"/><path d="M3058 1632.66C3058 1637.08 3054.87 1640.66 3051 1640.66 3047.14 1640.66 3044 1637.08 3044 1632.66 3044 1628.25 3047.14 1624.66 3051 1624.66 3054.87 1624.66 3058 1628.25 3058 1632.66Z" stroke="#000000" stroke-width="0.255151" stroke-linecap="round" stroke-linejoin="miter" stroke-miterlimit="8" stroke-opacity="1" fill="#000000" fill-rule="evenodd" fill-opacity="1"/><path d="M3097.01 1632.66C3097.01 1637.08 3093.88 1640.66 3090.01 1640.66 3086.14 1640.66 3083.01 1637.08 3083.01 1632.66 3083.01 1628.25 3086.14 1624.66 3090.01 1624.66 3093.88 1624.66 3097.01 1628.25 3097.01 1632.66Z" stroke="#000000" stroke-width="0.255151" stroke-linecap="round" stroke-linejoin="miter" stroke-miterlimit="8" stroke-opacity="1" fill="#000000" fill-rule="evenodd" fill-opacity="1"/><path d="M3102.99 1669.61C3079.48 1663.93 3060.19 1686.04 3042.99 1677.8" stroke="#000000" stroke-width="2.61647" stroke-linecap="round" stroke-linejoin="miter" stroke-miterlimit="8" stroke-opacity="1" fill="#FFFFFF" fill-rule="evenodd" fill-opacity="1"/><path d="M2495.39 1648.67C2495.39 1683.74 2466.96 1712.17 2431.89 1712.17 2396.82 1712.17 2368.39 1683.74 2368.39 1648.67 2368.39 1613.6 2396.82 1585.17 2431.89 1585.17 2466.96 1585.17 2495.39 1613.6 2495.39 1648.67Z" stroke="#000000" stroke-width="2.15417" stroke-linecap="round" stroke-linejoin="miter" stroke-miterlimit="8" stroke-opacity="1" fill="#FFFFFF" fill-rule="evenodd" fill-opacity="1"/><path d="M2419.9 1631.17C2419.9 1635.87 2416.76 1639.67 2412.9 1639.67 2409.03 1639.67 2405.9 1635.87 2405.9 1631.17 2405.9 1626.48 2409.03 1622.67 2412.9 1622.67 2416.76 1622.67 2419.9 1626.48 2419.9 1631.17Z" stroke="#000000" stroke-width="0.255151" stroke-linecap="round" stroke-linejoin="miter" stroke-miterlimit="8" stroke-opacity="1" fill="#000000" fill-rule="evenodd" fill-opacity="1"/><path d="M2458.9 1631.17C2458.9 1635.87 2455.77 1639.67 2451.9 1639.67 2448.04 1639.67 2444.9 1635.87 2444.9 1631.17 2444.9 1626.48 2448.04 1622.67 2451.9 1622.67 2455.77 1622.67 2458.9 1626.48 2458.9 1631.17Z" stroke="#000000" stroke-width="0.255151" stroke-linecap="round" stroke-linejoin="miter" stroke-miterlimit="8" stroke-opacity="1" fill="#000000" fill-rule="evenodd" fill-opacity="1"/><path d="M65.3897 0.169381C46.7302 20.9663 19.5514 21.5498 0.389324 1.56553" stroke="#000000" stroke-width="2.61647" stroke-linecap="round" stroke-linejoin="miter" stroke-miterlimit="8" stroke-opacity="1" fill="#FFFFFF" fill-rule="evenodd" fill-opacity="1" transform="matrix(1 0 0 -1 2399.5 1683.5)"/><text fill="#000000" fill-opacity="1" font-family="Roboto,Roboto_MSFontService,sans-serif" font-style="normal" font-variant="normal" font-weight="400" font-stretch="normal" font-size="55" text-anchor="start" direction="ltr" writing-mode="lr-tb" unicode-bidi="normal" text-decoration="none" transform="matrix(1 0 0 1 1143.57 1815)">Symptom</text><text fill="#000000" fill-opacity="1" font-family="Roboto,Roboto_MSFontService,sans-serif" font-style="normal" font-variant="normal" font-weight="400" font-stretch="normal" font-size="55" text-anchor="start" direction="ltr" writing-mode="lr-tb" unicode-bidi="normal" text-decoration="none" transform="matrix(1 0 0 1 1378.46 1815)">-</text><text fill="#000000" fill-opacity="1" font-family="Roboto,Roboto_MSFontService,sans-serif" font-style="normal" font-variant="normal" font-weight="400" font-stretch="normal" font-size="55" text-anchor="start" direction="ltr" writing-mode="lr-tb" unicode-bidi="normal" text-decoration="none" transform="matrix(1 0 0 1 1393.36 1815)">free interval</text><text fill="#000000" fill-opacity="1" font-family="Roboto,Roboto_MSFontService,sans-serif" font-style="normal" font-variant="normal" font-weight="400" font-stretch="normal" font-size="55" text-anchor="start" direction="ltr" writing-mode="lr-tb" unicode-bidi="normal" text-decoration="none" transform="matrix(1 0 0 1 2658.98 1815)">Prodrome </text><path d="M1030.52 877.697 1051.39 848.229 1072.27 883.886 1093.14 825.751 1114.02 877.403 1134.89 857.66 1155.77 888.896 1176.64 893.315 1197.52 886.537 1218.39 842.926 1239.27 899.197 1260.14 823.792 1281.02 861.785 1301.89 847.345C1301.89 847.345 1316.5 854.418 1322.77 868.856 1329.03 883.296 1343.64 895.968 1343.64 895.968L1364.51 873.278 1385.39 891.252 1406.26 844.988 1427.14 888.011 1448.01 827.897 1468.89 867.384 1489.76 849.997 1510.64 855.597 1531.51 847.641 1552.39 853.238C1552.39 853.238 1571.17 876.812 1573.26 879.171 1575.35 881.528 1594.14 822.888 1594.14 822.888L1615.01 905.692 1635.89 880.619 1656.76 902.821 1677.64 828.037C1677.64 828.037 1696.42 894.199 1698.51 896.852 1700.6 899.504 1719.39 857.365 1719.39 857.365L1740.26 895.039 1761.14 834.435 1782.01 887.95 1802.88 834.085C1802.88 834.085 1813.31 850.882 1823.76 857.365 1834.21 863.847 1844.63 893.821 1844.63 893.821L1865.51 923.868M2334.44 920.709 2385.45 832.648 2436.45 842.32 2487.46 817.262C2517.46 876.894 2487.46 817.262 2538.46 912.01L2589.46 954.171 2640.47 1014.28 2691.47 947.128 2742.48 915.507C2792.66 946.268 2754.04 930.845 2793.48 894.889L2844.49 873.156 2895.49 794.276C2949.09 834.753 2898.2 922.796 2946.5 975.307 2993.32 953.283 2947.9 1000.22 2997.5 1005.88L3048.5 896.721C3074.31 846.1 3060.37 914.411 3099.51 873.3L3150.51 824.363 3201.52 850.563" stroke="#000000" stroke-width="4.78688" stroke-linecap="butt" stroke-linejoin="miter" stroke-miterlimit="8" stroke-opacity="1" fill="none" fill-rule="evenodd"/><path d="M1025.02 713.776 1025.02 1028.78 2051.91 1028.78M2080.3 1028.78 3241.02 1028.78" stroke="#000000" stroke-width="4.27621" stroke-linecap="butt" stroke-linejoin="miter" stroke-miterlimit="8" stroke-opacity="1" fill="none" fill-rule="evenodd"/><text fill="#000000" fill-opacity="1" font-family="Roboto,Roboto_MSFontService,sans-serif" font-style="normal" font-variant="normal" font-weight="400" font-stretch="normal" font-size="55" text-anchor="start" direction="ltr" writing-mode="lr-tb" unicode-bidi="normal" text-decoration="none" transform="matrix(-1.83697e-16 -1 1 -1.83697e-16 946.786 986)">state</text><text fill="#000000" fill-opacity="1" font-family="Roboto,Roboto_MSFontService,sans-serif" font-style="normal" font-variant="normal" font-weight="400" font-stretch="normal" font-size="55" text-anchor="start" direction="ltr" writing-mode="lr-tb" unicode-bidi="normal" text-decoration="none" transform="matrix(1 0 0 1 2944.34 1100)">time</text><text fill="#000000" fill-opacity="1" font-family="Roboto,Roboto_MSFontService,sans-serif" font-style="normal" font-variant="normal" font-weight="400" font-stretch="normal" font-size="55" text-anchor="start" direction="ltr" writing-mode="lr-tb" unicode-bidi="normal" text-decoration="none" transform="matrix(1 0 0 1 2419.99 770)">critical</text><text fill="#000000" fill-opacity="1" font-family="Roboto,Roboto_MSFontService,sans-serif" font-style="normal" font-variant="normal" font-weight="400" font-stretch="normal" font-size="55" text-anchor="start" direction="ltr" writing-mode="lr-tb" unicode-bidi="normal" text-decoration="none" transform="matrix(1 0 0 1 2596.45 770)">slowing</text><text fill="#000000" fill-opacity="1" font-family="Roboto,Roboto_MSFontService,sans-serif" font-style="normal" font-variant="normal" font-weight="400" font-stretch="normal" font-size="55" text-anchor="start" direction="ltr" writing-mode="lr-tb" unicode-bidi="normal" text-decoration="none" transform="matrix(1 0 0 1 2799.26 770)">down</text><path d="M1025.52 913.278C1025.52 913.278 1025.22 811.772 1023.52 800.277" stroke="#FF0000" stroke-width="11.0433" stroke-linecap="butt" stroke-linejoin="miter" stroke-miterlimit="8" stroke-dasharray="44.1732 33.1299" stroke-opacity="1" fill="none" fill-rule="evenodd"/><path d="M2328.52 988.277C2328.52 988.277 2324.8 746.313 2325.64 745.276" stroke="#FF0000" stroke-width="13.1599" stroke-linecap="butt" stroke-linejoin="miter" stroke-miterlimit="8" stroke-dasharray="52.6398 39.4798" stroke-opacity="1" fill="none" fill-rule="evenodd"/><text fill="#000000" fill-opacity="1" font-family="Roboto,Roboto_MSFontService,sans-serif" font-style="normal" font-variant="normal" font-weight="400" font-stretch="normal" font-size="55" text-anchor="start" direction="ltr" writing-mode="lr-tb" unicode-bidi="normal" text-decoration="none" transform="matrix(1 0 0 1 1233.18 1462)">resilience</text><path d="M2069.52 996.274 2034.52 1063.27" stroke="#000000" stroke-width="6.62598" stroke-linecap="butt" stroke-linejoin="miter" stroke-miterlimit="8" stroke-opacity="1" fill="none" fill-rule="evenodd"/><path d="M2095.52 996.274 2061.52 1063.27" stroke="#000000" stroke-width="6.62598" stroke-linecap="butt" stroke-linejoin="miter" stroke-miterlimit="8" stroke-opacity="1" fill="none" fill-rule="evenodd"/><text fill="#000000" fill-opacity="1" font-family="Roboto,Roboto_MSFontService,sans-serif" font-style="normal" font-variant="normal" font-weight="400" font-stretch="normal" font-size="55" text-anchor="start" direction="ltr" writing-mode="lr-tb" unicode-bidi="normal" text-decoration="none" transform="matrix(0.714481 -0.699654 0.699654 0.714481 2015.06 1529)">Sensory</text><text fill="#000000" fill-opacity="1" font-family="Roboto,Roboto_MSFontService,sans-serif" font-style="normal" font-variant="normal" font-weight="400" font-stretch="normal" font-size="55" text-anchor="start" direction="ltr" writing-mode="lr-tb" unicode-bidi="normal" text-decoration="none" transform="matrix(0.714481 -0.699654 0.699654 0.714481 2061.24 1576)">input</text><g><g><g><path d="M1941.85 1662.85 1943.67 1657.58 1944.39 1655.83C1946.7 1658.37 1949.15 1660.95 1951.73 1663.53 1957.65 1669.49 1963.94 1675.07 1970.56 1680.23 1972.17 1681.46 1974.45 1681.31 1975.88 1679.87L1992.89 1662.87C1994.32 1661.44 1994.48 1659.16 1993.24 1657.55 1989.77 1653.05 1985.65 1648.22 1981.03 1643.32L2045.23 1582.12C2046.31 1580.99 2046.31 1579.2 2045.23 1578.07L2037.13 1569.98C2036 1568.9 2034.22 1568.9 2033.09 1569.98L1971.76 1634.07C1967.08 1629.63 1962.18 1625.45 1957.07 1621.52 1955.46 1620.3 1953.19 1620.46 1951.77 1621.89 1949.08 1624.58 1944.63 1629.02 1940.68 1632.97L1945.22 1614.19 1940.25 1605.12 1936.04 1589.74 1935.47 1605.71 1940.68 1616.2 1936.82 1636.83 1935.41 1638.25 1932.8 1639.73 1932.71 1628.2 1921.95 1619.03 1927.87 1628.7 1927.96 1638.76 1921.18 1640.77 1928.34 1642.26 1936.64 1646.75C1937.73 1648.12 1938.88 1649.51 1940.08 1650.92L1940.08 1657.22 1935.97 1659 1931.96 1656.22 1927.79 1658.43 1933.06 1661.59 1938.23 1663.63 1940.44 1672.96 1935.93 1680.69 1943.26 1675.06Z" fill="#000000" fill-rule="nonzero" fill-opacity="1"/></g></g></g><text fill="#000000" fill-opacity="1" font-family="Roboto,Roboto_MSFontService,sans-serif" font-style="normal" font-variant="normal" font-weight="400" font-stretch="normal" font-size="55" text-anchor="start" direction="ltr" writing-mode="lr-tb" unicode-bidi="normal" text-decoration="none" transform="matrix(0.714481 -0.699654 0.699654 0.714481 3388.95 1529)">Sensory</text><text fill="#000000" fill-opacity="1" font-family="Roboto,Roboto_MSFontService,sans-serif" font-style="normal" font-variant="normal" font-weight="400" font-stretch="normal" font-size="55" text-anchor="start" direction="ltr" writing-mode="lr-tb" unicode-bidi="normal" text-decoration="none" transform="matrix(0.714481 -0.699654 0.699654 0.714481 3435.12 1576)">input</text><g><g><g><path d="M3315.85 1662.85 3317.67 1657.58 3318.39 1655.83C3320.7 1658.37 3323.15 1660.95 3325.73 1663.53 3331.65 1669.49 3337.94 1675.07 3344.56 1680.23 3346.17 1681.46 3348.45 1681.31 3349.88 1679.87L3366.89 1662.87C3368.32 1661.44 3368.48 1659.16 3367.24 1657.55 3363.77 1653.05 3359.65 1648.22 3355.03 1643.32L3419.23 1582.12C3420.31 1580.99 3420.31 1579.2 3419.23 1578.07L3411.13 1569.98C3410 1568.9 3408.22 1568.9 3407.09 1569.98L3345.76 1634.07C3341.08 1629.63 3336.18 1625.45 3331.07 1621.52 3329.46 1620.3 3327.19 1620.46 3325.77 1621.89 3323.08 1624.58 3318.63 1629.02 3314.68 1632.97L3319.22 1614.19 3314.25 1605.12 3310.04 1589.74 3309.47 1605.71 3314.68 1616.2 3310.82 1636.83 3309.41 1638.25 3306.8 1639.73 3306.71 1628.2 3295.95 1619.03 3301.87 1628.7 3301.96 1638.76 3295.18 1640.77 3302.34 1642.26 3310.64 1646.75C3311.73 1648.12 3312.88 1649.51 3314.08 1650.92L3314.08 1657.22 3309.97 1659 3305.96 1656.22 3301.79 1658.43 3307.06 1661.59 3312.23 1663.63 3314.44 1672.96 3309.93 1680.69 3317.26 1675.06Z" fill="#000000" fill-rule="nonzero" fill-opacity="1"/></g></g></g></g></g></svg>