<svg width="2897" height="1219" xmlns="http://www.w3.org/2000/svg" xmlns:xlink="http://www.w3.org/1999/xlink" xml:space="preserve" overflow="hidden"><g transform="translate(-728 -678)"><g><path d="M730.019 682.776 3523.02 682.776 3523.02 1894.78 730.019 1894.78Z" fill="#FFFFFF" fill-rule="evenodd" fill-opacity="1"/><path d="M3289.16 687.776C3316.15 687.776 3338.02 708.265 3338.02 733.54L3338.02 1066.01C3338.02 1091.29 3316.15 1111.78 3289.16 1111.78L886.876 1111.78C859.893 1111.78 838.019 1091.29 838.019 1066.01L838.019 733.54C838.019 708.265 859.893 687.776 886.876 687.776Z" fill="#FF9EAE" fill-rule="evenodd" fill-opacity="1"/><path d="M885.86 688 2067 688 2067 1112 885.86 1112C858.875 1112 837 1091.51 837 1066.24L837 733.764C837 708.489 858.875 688 885.86 688Z" fill="#BBF8FF" fill-rule="evenodd" fill-opacity="1"/><path d="M0.0191389-0.223649 0.0191389 648.777 1105.02 648.777 1105.02 66.6736C1105.02 66.6736 1005.91 485.424 884.019 485.424 762.133 485.424 685.119 176.373 552.519 176.373 419.919 176.373 346.47 308.821 221.019 308.821 88.4192 308.821 0.0191389-0.223649 0.0191389-0.223649Z" fill="#BBF8FF" fill-rule="evenodd" fill-opacity="1" transform="matrix(-1 0 0 1 1942 1118)"/><path d="M0.0191372 10.8165 0.0191372 551.777 1106.02 551.777 1106.02-0.223706C1106.02-0.223706 1084.92 275.78 884.818 275.78 684.733 275.78 685.745 253.7 553.024 253.7 420.303 253.7 346.787 319.94 221.221 319.94 88.4999 319.94 0.0191372 10.8165 0.0191372 10.8165Z" fill="#FF9EAE" fill-rule="evenodd" fill-opacity="1" transform="matrix(-1 0 0 1 3325 1209)"/><text fill="#000000" fill-opacity="1" font-family="Roboto,Roboto_MSFontService,sans-serif" font-style="normal" font-variant="normal" font-weight="400" font-stretch="normal" font-size="55" text-anchor="start" direction="ltr" writing-mode="lr-tb" unicode-bidi="normal" text-decoration="none" transform="matrix(1 0 0 1 909.818 1825)">h</text><text fill="#000000" fill-opacity="1" font-family="Roboto,Roboto_MSFontService,sans-serif" font-style="normal" font-variant="normal" font-weight="400" font-stretch="normal" font-size="55" text-anchor="start" direction="ltr" writing-mode="lr-tb" unicode-bidi="normal" text-decoration="none" transform="matrix(1 0 0 1 940.183 1825)">ealthy state</text><text fill="#000000" fill-opacity="1" font-family="Roboto,Roboto_MSFontService,sans-serif" font-style="normal" font-variant="normal" font-weight="400" font-stretch="normal" font-size="55" text-anchor="start" direction="ltr" writing-mode="lr-tb" unicode-bidi="normal" text-decoration="none" transform="matrix(1 0 0 1 2342.73 1825)">p</text><text fill="#000000" fill-opacity="1" font-family="Roboto,Roboto_MSFontService,sans-serif" font-style="normal" font-variant="normal" font-weight="400" font-stretch="normal" font-size="55" text-anchor="start" direction="ltr" writing-mode="lr-tb" unicode-bidi="normal" text-decoration="none" transform="matrix(1 0 0 1 2373.67 1825)">rodromal state </text><path d="M1030.52 877.697 1051.39 848.229 1072.27 883.886 1093.14 825.751 1114.02 877.403 1134.89 857.66 1155.77 888.896 1176.64 893.315 1197.52 886.537 1218.39 842.926 1239.27 899.197 1260.14 823.792 1281.02 861.785 1301.89 847.345C1301.89 847.345 1316.5 854.418 1322.77 868.856 1329.03 883.296 1343.64 895.968 1343.64 895.968L1364.51 873.278 1385.39 891.252 1406.26 844.988 1427.14 888.011 1448.01 827.897 1468.89 867.384 1489.76 849.997 1510.64 855.597 1531.51 847.641 1552.39 853.238C1552.39 853.238 1571.17 876.812 1573.26 879.171 1575.35 881.528 1594.14 822.888 1594.14 822.888L1615.01 905.692 1635.89 880.619 1656.76 902.821 1677.64 828.037C1677.64 828.037 1696.42 894.199 1698.51 896.852 1700.6 899.504 1719.39 857.365 1719.39 857.365L1740.26 895.039 1761.14 834.435 1782.01 887.95 1802.88 834.085C1802.88 834.085 1813.31 850.882 1823.76 857.365 1834.21 863.847 1844.63 893.821 1844.63 893.821L1865.51 923.868M2334.44 920.709 2385.45 832.648 2436.45 842.32 2487.46 817.262C2517.46 876.894 2487.46 817.262 2538.46 912.01L2589.46 954.171 2640.47 1014.28 2691.47 947.128 2742.48 915.507C2792.66 946.268 2754.04 930.845 2793.48 894.889L2844.49 873.156 2895.49 794.276C2949.09 834.753 2898.2 922.796 2946.5 975.307 2993.32 953.283 2947.9 1000.22 2997.5 1005.88L3048.5 896.721C3074.31 846.1 3060.37 914.411 3099.51 873.3L3150.51 824.363 3201.52 850.563" stroke="#000000" stroke-width="4.78688" stroke-linecap="butt" stroke-linejoin="miter" stroke-miterlimit="8" stroke-opacity="1" fill="none" fill-rule="evenodd"/><path d="M1025.02 713.776 1025.02 1028.78 2051.91 1028.78M2080.3 1028.78 3241.02 1028.78" stroke="#000000" stroke-width="4.27621" stroke-linecap="butt" stroke-linejoin="miter" stroke-miterlimit="8" stroke-opacity="1" fill="none" fill-rule="evenodd"/><text fill="#000000" fill-opacity="1" font-family="Roboto,Roboto_MSFontService,sans-serif" font-style="normal" font-variant="normal" font-weight="400" font-stretch="normal" font-size="55" text-anchor="start" direction="ltr" writing-mode="lr-tb" unicode-bidi="normal" text-decoration="none" transform="matrix(-1.83697e-16 -1 1 -1.83697e-16 946.786 986)">state</text><text fill="#000000" fill-opacity="1" font-family="Roboto,Roboto_MSFontService,sans-serif" font-style="normal" font-variant="normal" font-weight="400" font-stretch="normal" font-size="55" text-anchor="start" direction="ltr" writing-mode="lr-tb" unicode-bidi="normal" text-decoration="none" transform="matrix(1 0 0 1 2944.34 1100)">time</text><text fill="#000000" fill-opacity="1" font-family="Roboto,Roboto_MSFontService,sans-serif" font-style="normal" font-variant="normal" font-weight="700" font-stretch="normal" font-size="55" text-anchor="start" direction="ltr" writing-mode="lr-tb" unicode-bidi="normal" text-decoration="none" transform="matrix(1 0 0 1 2283.8 770)">w</text><text fill="#000000" fill-opacity="1" font-family="Roboto,Roboto_MSFontService,sans-serif" font-style="normal" font-variant="normal" font-weight="700" font-stretch="normal" font-size="55" text-anchor="start" direction="ltr" writing-mode="lr-tb" unicode-bidi="normal" text-decoration="none" transform="matrix(1 0 0 1 2324.48 770)">arning sign</text><text fill="#000000" fill-opacity="1" font-family="Roboto,Roboto_MSFontService,sans-serif" font-style="normal" font-variant="normal" font-weight="400" font-stretch="normal" font-size="55" text-anchor="start" direction="ltr" writing-mode="lr-tb" unicode-bidi="normal" text-decoration="none" transform="matrix(1 0 0 1 2600.05 770)">: critical</text><text fill="#000000" fill-opacity="1" font-family="Roboto,Roboto_MSFontService,sans-serif" font-style="normal" font-variant="normal" font-weight="400" font-stretch="normal" font-size="55" text-anchor="start" direction="ltr" writing-mode="lr-tb" unicode-bidi="normal" text-decoration="none" transform="matrix(1 0 0 1 2803.43 770)">slowing</text><text fill="#000000" fill-opacity="1" font-family="Roboto,Roboto_MSFontService,sans-serif" font-style="normal" font-variant="normal" font-weight="400" font-stretch="normal" font-size="55" text-anchor="start" direction="ltr" writing-mode="lr-tb" unicode-bidi="normal" text-decoration="none" transform="matrix(1 0 0 1 3006.25 770)">down</text><path d="M2069.52 996.274 2034.52 1063.27" stroke="#000000" stroke-width="6.62598" stroke-linecap="butt" stroke-linejoin="miter" stroke-miterlimit="8" stroke-opacity="1" fill="none" fill-rule="evenodd"/><path d="M2095.52 996.274 2061.52 1063.27" stroke="#000000" stroke-width="6.62598" stroke-linecap="butt" stroke-linejoin="miter" stroke-miterlimit="8" stroke-opacity="1" fill="none" fill-rule="evenodd"/><text fill="#000000" fill-opacity="1" font-family="Roboto,Roboto_MSFontService,sans-serif" font-style="normal" font-variant="normal" font-weight="400" font-stretch="normal" font-size="55" text-anchor="start" direction="ltr" writing-mode="lr-tb" unicode-bidi="normal" text-decoration="none" transform="matrix(0.714481 -0.699654 0.699654 0.714481 2009.46 1527)">s</text><text fill="#000000" fill-opacity="1" font-family="Roboto,Roboto_MSFontService,sans-serif" font-style="normal" font-variant="normal" font-weight="400" font-stretch="normal" font-size="55" text-anchor="start" direction="ltr" writing-mode="lr-tb" unicode-bidi="normal" text-decoration="none" transform="matrix(0.714481 -0.699654 0.699654 0.714481 2029.93 1507)">ensory</text><text fill="#000000" fill-opacity="1" font-family="Roboto,Roboto_MSFontService,sans-serif" font-style="normal" font-variant="normal" font-weight="400" font-stretch="normal" font-size="55" text-anchor="start" direction="ltr" writing-mode="lr-tb" unicode-bidi="normal" text-decoration="none" transform="matrix(0.714481 -0.699654 0.699654 0.714481 2055.64 1574)">input</text><g><g><g><path d="M1934.85 1662.85 1936.67 1657.58 1937.39 1655.83C1939.7 1658.37 1942.15 1660.95 1944.73 1663.53 1950.65 1669.49 1956.94 1675.07 1963.56 1680.23 1965.17 1681.46 1967.45 1681.31 1968.88 1679.87L1985.89 1662.87C1987.32 1661.44 1987.48 1659.16 1986.24 1657.55 1982.77 1653.05 1978.65 1648.22 1974.03 1643.32L2038.23 1582.12C2039.31 1580.99 2039.31 1579.2 2038.23 1578.07L2030.13 1569.98C2029 1568.9 2027.22 1568.9 2026.09 1569.98L1964.76 1634.07C1960.08 1629.63 1955.18 1625.45 1950.07 1621.52 1948.46 1620.3 1946.19 1620.46 1944.77 1621.89 1942.08 1624.58 1937.63 1629.02 1933.68 1632.97L1938.22 1614.19 1933.25 1605.12 1929.04 1589.74 1928.47 1605.71 1933.68 1616.2 1929.82 1636.83 1928.41 1638.25 1925.8 1639.73 1925.71 1628.2 1914.95 1619.03 1920.87 1628.7 1920.96 1638.76 1914.18 1640.77 1921.34 1642.26 1929.64 1646.75C1930.74 1648.12 1931.88 1649.51 1933.08 1650.92L1933.08 1657.22 1928.97 1659 1924.96 1656.22 1920.79 1658.43 1926.06 1661.59 1931.23 1663.63 1933.44 1672.96 1928.93 1680.69 1936.26 1675.06Z" fill="#000000" fill-rule="nonzero" fill-opacity="1"/></g></g></g><text fill="#000000" fill-opacity="1" font-family="Roboto,Roboto_MSFontService,sans-serif" font-style="normal" font-variant="normal" font-weight="400" font-stretch="normal" font-size="55" text-anchor="start" direction="ltr" writing-mode="lr-tb" unicode-bidi="normal" text-decoration="none" transform="matrix(0.714481 -0.699654 0.699654 0.714481 3390.6 1527)">s</text><text fill="#000000" fill-opacity="1" font-family="Roboto,Roboto_MSFontService,sans-serif" font-style="normal" font-variant="normal" font-weight="400" font-stretch="normal" font-size="55" text-anchor="start" direction="ltr" writing-mode="lr-tb" unicode-bidi="normal" text-decoration="none" transform="matrix(0.714481 -0.699654 0.699654 0.714481 3411.07 1507)">ensory</text><text fill="#000000" fill-opacity="1" font-family="Roboto,Roboto_MSFontService,sans-serif" font-style="normal" font-variant="normal" font-weight="400" font-stretch="normal" font-size="55" text-anchor="start" direction="ltr" writing-mode="lr-tb" unicode-bidi="normal" text-decoration="none" transform="matrix(0.714481 -0.699654 0.699654 0.714481 3436.78 1574)">input</text><g><g><g><path d="M3315.85 1662.85 3317.67 1657.58 3318.39 1655.83C3320.7 1658.37 3323.15 1660.95 3325.73 1663.53 3331.65 1669.49 3337.94 1675.07 3344.56 1680.23 3346.17 1681.46 3348.45 1681.31 3349.88 1679.87L3366.89 1662.87C3368.32 1661.44 3368.48 1659.16 3367.24 1657.55 3363.77 1653.05 3359.65 1648.22 3355.03 1643.32L3419.23 1582.12C3420.31 1580.99 3420.31 1579.2 3419.23 1578.07L3411.13 1569.98C3410 1568.9 3408.22 1568.9 3407.09 1569.98L3345.76 1634.07C3341.08 1629.63 3336.18 1625.45 3331.07 1621.52 3329.46 1620.3 3327.19 1620.46 3325.77 1621.89 3323.08 1624.58 3318.63 1629.02 3314.68 1632.97L3319.22 1614.19 3314.25 1605.12 3310.04 1589.74 3309.47 1605.71 3314.68 1616.2 3310.82 1636.83 3309.41 1638.25 3306.8 1639.73 3306.71 1628.2 3295.95 1619.03 3301.87 1628.7 3301.96 1638.76 3295.18 1640.77 3302.34 1642.26 3310.64 1646.75C3311.73 1648.12 3312.88 1649.51 3314.08 1650.92L3314.08 1657.22 3309.97 1659 3305.96 1656.22 3301.79 1658.43 3307.06 1661.59 3312.23 1663.63 3314.44 1672.96 3309.93 1680.69 3317.26 1675.06Z" fill="#000000" fill-rule="nonzero" fill-opacity="1"/></g></g></g><path d="M1027 1547C1027 1519.94 1048.94 1498 1076 1498 1103.06 1498 1125 1519.94 1125 1547 1125 1574.06 1103.06 1596 1076 1596 1048.94 1596 1027 1574.06 1027 1547Z" stroke="#19768A" stroke-width="2.29167" stroke-linecap="butt" stroke-linejoin="miter" stroke-miterlimit="8" stroke-opacity="1" fill="#F2F2F2" fill-rule="evenodd" fill-opacity="1"/><path d="M1018 1553C1018 1525.94 1039.94 1504 1067 1504 1094.06 1504 1116 1525.94 1116 1553 1116 1580.06 1094.06 1602 1067 1602 1039.94 1602 1018 1580.06 1018 1553Z" stroke="#19768A" stroke-width="2.29167" stroke-linecap="butt" stroke-linejoin="miter" stroke-miterlimit="8" stroke-opacity="1" fill="#F2F2F2" fill-rule="evenodd" fill-opacity="1"/><path d="M999 1551C999 1523.94 1020.94 1502 1048 1502 1075.06 1502 1097 1523.94 1097 1551 1097 1578.06 1075.06 1600 1048 1600 1020.94 1600 999 1578.06 999 1551Z" stroke="#19768A" stroke-width="2.29167" stroke-linecap="butt" stroke-linejoin="miter" stroke-miterlimit="8" stroke-opacity="1" fill="#F2F2F2" fill-rule="evenodd" fill-opacity="1"/><path d="M2471 1433C2471 1405.94 2492.94 1384 2520 1384 2547.06 1384 2569 1405.94 2569 1433 2569 1460.06 2547.06 1482 2520 1482 2492.94 1482 2471 1460.06 2471 1433Z" stroke="#C00000" stroke-width="2.29167" stroke-linecap="butt" stroke-linejoin="miter" stroke-miterlimit="8" stroke-opacity="1" fill="#F2F2F2" fill-rule="evenodd" fill-opacity="1"/><path d="M2328 1418C2328 1390.94 2349.94 1369 2377 1369 2404.06 1369 2426 1390.94 2426 1418 2426 1445.06 2404.06 1467 2377 1467 2349.94 1467 2328 1445.06 2328 1418Z" stroke="#C00000" stroke-width="2.29167" stroke-linecap="butt" stroke-linejoin="miter" stroke-miterlimit="8" stroke-opacity="1" fill="#F2F2F2" fill-rule="evenodd" fill-opacity="1"/><path d="M994.5 1563.5C1009.24 1580.97 1019.55 1608.5 1056.96 1608.5 1094.37 1608.5 1105.44 1589.6 1131.5 1563.5" stroke="#042433" stroke-width="6.875" stroke-linecap="butt" stroke-linejoin="miter" stroke-miterlimit="8" stroke-dasharray="27.5 20.625" stroke-opacity="1" fill="none" fill-rule="evenodd"/><path d="M2336.5 1452.5C2362.67 1467.21 2346.29 1480.27 2438.09 1482.25 2529.9 1484.23 2621.7 1473.8 2713.5 1469.57" stroke="#042433" stroke-width="6.875" stroke-linecap="butt" stroke-linejoin="miter" stroke-miterlimit="8" stroke-dasharray="27.5 20.625" stroke-opacity="1" fill="none" fill-rule="evenodd"/><path d="M1311.5 1289.5 1608.8 1289.5" stroke="#156082" stroke-width="3.4375" stroke-linecap="butt" stroke-linejoin="miter" stroke-miterlimit="8" stroke-dasharray="3.4375 3.4375" stroke-opacity="1" fill="none" fill-rule="evenodd"/><path d="M1014.5 1608.5 1609.09 1608.5" stroke="#156082" stroke-width="3.4375" stroke-linecap="butt" stroke-linejoin="miter" stroke-miterlimit="8" stroke-dasharray="3.4375 3.4375" stroke-opacity="1" fill="none" fill-rule="evenodd"/><path d="M2.29167 4.53567 2.29202 315.584-2.29131 315.584-2.29166 4.53567ZM-18.0211 30.8828 9.39662e-08-0.0106216 18.0212 30.8828C18.6589 31.976 18.2897 33.3792 17.1964 34.017 16.1032 34.6547 14.6999 34.2854 14.0622 33.1922L-1.97949 5.69221 1.9795 5.6922-14.0621 33.1922C-14.6999 34.2855-16.1031 34.6547-17.1963 34.017-18.2896 33.3793-18.6588 31.9761-18.0211 30.8828ZM18.0215 289.237 0.000361112 320.13-18.0208 289.237C-18.6586 288.144-18.2893 286.741-17.196 286.103-16.1028 285.465-14.6996 285.834-14.0619 286.928L1.97985 314.428-1.97914 314.428 14.0625 286.928C14.7002 285.834 16.1034 285.465 17.1967 286.103 18.2899 286.741 18.6592 288.144 18.0215 289.237Z" fill="#000000" fill-rule="nonzero" fill-opacity="1" transform="matrix(1 0 0 -1 1528.5 1608.62)"/><rect x="1484" y="1417" width="103" height="74.9999" fill="#BBF8FF" fill-opacity="1"/><text fill="#000000" fill-opacity="1" font-family="Roboto,Roboto_MSFontService,sans-serif" font-style="normal" font-variant="normal" font-weight="400" font-stretch="normal" font-size="55" text-anchor="start" direction="ltr" writing-mode="lr-tb" unicode-bidi="normal" text-decoration="none" transform="matrix(1 0 0 1 1348.52 1471)">h</text><text fill="#000000" fill-opacity="1" font-family="Roboto,Roboto_MSFontService,sans-serif" font-style="normal" font-variant="normal" font-weight="400" font-stretch="normal" font-size="55" text-anchor="start" direction="ltr" writing-mode="lr-tb" unicode-bidi="normal" text-decoration="none" transform="matrix(1 0 0 1 1378.88 1471)">igh resilience</text><path d="M2664.5 1463.5 2961.8 1463.5" stroke="#156082" stroke-width="3.4375" stroke-linecap="butt" stroke-linejoin="miter" stroke-miterlimit="8" stroke-dasharray="3.4375 3.4375" stroke-opacity="1" fill="none" fill-rule="evenodd"/><path d="M2367.5 1487.5 2962.09 1487.5" stroke="#156082" stroke-width="3.4375" stroke-linecap="butt" stroke-linejoin="miter" stroke-miterlimit="8" stroke-dasharray="3.4375 3.4375" stroke-opacity="1" fill="none" fill-rule="evenodd"/><path d="M2634 1418C2634 1390.94 2655.94 1369 2683 1369 2710.06 1369 2732 1390.94 2732 1418 2732 1445.06 2710.06 1467 2683 1467 2655.94 1467 2634 1445.06 2634 1418Z" stroke="#C00000" stroke-width="2.29167" stroke-linecap="butt" stroke-linejoin="miter" stroke-miterlimit="8" stroke-opacity="1" fill="#F2F2F2" fill-rule="evenodd" fill-opacity="1"/><text fill="#000000" fill-opacity="1" font-family="Roboto,Roboto_MSFontService,sans-serif" font-style="normal" font-variant="normal" font-weight="400" font-stretch="normal" font-size="55" text-anchor="start" direction="ltr" writing-mode="lr-tb" unicode-bidi="normal" text-decoration="none" transform="matrix(1 0 0 1 2810.6 1441)">l</text><text fill="#000000" fill-opacity="1" font-family="Roboto,Roboto_MSFontService,sans-serif" font-style="normal" font-variant="normal" font-weight="400" font-stretch="normal" font-size="55" text-anchor="start" direction="ltr" writing-mode="lr-tb" unicode-bidi="normal" text-decoration="none" transform="matrix(1 0 0 1 2823.78 1441)">ow resilience</text></g></g></svg>