<svg width="3420" height="2470" xmlns="http://www.w3.org/2000/svg" xmlns:xlink="http://www.w3.org/1999/xlink" xml:space="preserve" overflow="hidden"><defs><clipPath id="clip0"><rect x="2245" y="715" width="3420" height="2470"/></clipPath><clipPath id="clip1"><rect x="2245" y="715" width="3420" height="2470"/></clipPath><clipPath id="clip2"><path d="M2246 1247 3859 1247 3859 2860 3453.51 2860 3453.51 1623.56 2645.5 1623.56 2645.5 2860 2246 2860Z" fill-rule="evenodd" clip-rule="evenodd"/></clipPath><clipPath id="clip3"><path d="M2246 1247 2585.26 1247 2585.26 1617.57 3393.27 1617.57 3393.27 1247 3859 1247 3859 2860 3523.37 2860 3523.37 1904.58 2530.48 1904.58 2530.48 2860 2246 2860Z" fill-rule="evenodd" clip-rule="evenodd"/></clipPath><clipPath id="clip4"><path d="M2246 1247 2585.26 1247 2585.26 1617.57 2658.61 1617.57 2658.61 1902.39 3451.85 1902.39 3451.85 1247 3859 1247 3859 2860 3445.1 2860 3445.1 2216.86 2580.72 2216.86 2580.72 2860 2246 2860Z" fill-rule="evenodd" clip-rule="evenodd"/></clipPath><clipPath id="clip5"><path d="M2246 1247 2585.26 1247 2585.26 1617.57 2638.39 1617.57 2638.39 2215.11 2758.57 2215.11 2758.57 2474.62 3410.53 2474.62 3410.53 2215.11 3502.78 2215.11 3502.78 1552 3451.85 1552 3451.85 1247 3859 1247 3859 2860 2246 2860Z" fill-rule="evenodd" clip-rule="evenodd"/></clipPath><clipPath id="clip6"><path d="M2246 1247 2585.26 1247 2585.26 1617.57 2638.39 1617.57 2638.39 2215.11 3502.78 2215.11 3502.78 1552 3451.85 1552 3451.85 1247 3859 1247 3859 2860 3336.69 2860 3336.69 2474.62 2684.72 2474.62 2684.72 2860 2246 2860Z" fill-rule="evenodd" clip-rule="evenodd"/></clipPath></defs><g clip-path="url(#clip0)" transform="translate(-2245 -715)"><g clip-path="url(#clip1)"><path d="M2328 1443C2328 1042.59 2652.59 718 3053 718L3053 718C3453.41 718 3778 1042.59 3778 1443L3778 2455C3778 2855.41 3453.41 3180 3053 3180L3053 3180C2652.59 3180 2328 2855.41 2328 2455Z" fill="#EFFF42" fill-rule="evenodd" fill-opacity="1"/><g clip-path="url(#clip2)"><g><g><path d="M3186.92 1431.82C3186.92 1506.06 3126.74 1566.24 3052.5 1566.24 2978.26 1566.24 2918.08 1506.06 2918.08 1431.82 2918.08 1357.59 2978.26 1297.41 3052.5 1297.41 3126.74 1297.41 3186.92 1357.59 3186.92 1431.82Z" fill="#19768A" fill-rule="nonzero" fill-opacity="1"/><path d="M3418.79 2124.07 3324.69 1724.18C3321.33 1710.74 3314.61 1697.3 3304.53 1687.21 3264.21 1653.61 3217.16 1630.09 3163.39 1613.29 3126.43 1606.56 3089.46 1599.84 3052.5 1599.84 3015.54 1599.84 2978.57 1606.56 2941.61 1616.65 2887.84 1630.09 2840.79 1656.97 2800.47 1690.58 2790.39 1700.66 2783.67 1714.1 2780.31 1727.54L2686.21 2127.43C2686.21 2130.79 2682.85 2137.51 2682.85 2144.23 2682.85 2181.2 2713.1 2211.44 2750.06 2211.44 2780.31 2211.44 2807.19 2187.92 2813.91 2161.03L2884.48 1868.68 2884.48 2809.59 3018.9 2809.59 3018.9 2204.72 3086.1 2204.72 3086.1 2809.59 3220.52 2809.59 3220.52 1865.32 3291.09 2157.67C3297.81 2184.56 3324.69 2208.08 3354.94 2208.08 3391.9 2208.08 3422.15 2177.84 3422.15 2140.87 3422.15 2134.15 3418.79 2127.43 3418.79 2124.07Z" fill="#19768A" fill-rule="nonzero" fill-opacity="1"/></g></g></g><g clip-path="url(#clip3)"><g><g><path d="M3186.92 1431.82C3186.92 1506.06 3126.74 1566.24 3052.5 1566.24 2978.26 1566.24 2918.08 1506.06 2918.08 1431.82 2918.08 1357.59 2978.26 1297.41 3052.5 1297.41 3126.74 1297.41 3186.92 1357.59 3186.92 1431.82Z" fill="#2EA7AF" fill-rule="nonzero" fill-opacity="1"/><path d="M3418.79 2124.07 3324.69 1724.18C3321.33 1710.74 3314.61 1697.3 3304.53 1687.21 3264.21 1653.61 3217.16 1630.09 3163.39 1613.29 3126.43 1606.56 3089.46 1599.84 3052.5 1599.84 3015.54 1599.84 2978.57 1606.56 2941.61 1616.65 2887.84 1630.09 2840.79 1656.97 2800.47 1690.58 2790.39 1700.66 2783.67 1714.1 2780.31 1727.54L2686.21 2127.43C2686.21 2130.79 2682.85 2137.51 2682.85 2144.23 2682.85 2181.2 2713.1 2211.44 2750.06 2211.44 2780.31 2211.44 2807.19 2187.92 2813.91 2161.03L2884.48 1868.68 2884.48 2809.59 3018.9 2809.59 3018.9 2204.72 3086.1 2204.72 3086.1 2809.59 3220.52 2809.59 3220.52 1865.32 3291.09 2157.67C3297.81 2184.56 3324.69 2208.08 3354.94 2208.08 3391.9 2208.08 3422.15 2177.84 3422.15 2140.87 3422.15 2134.15 3418.79 2127.43 3418.79 2124.07Z" fill="#2EA7AF" fill-rule="nonzero" fill-opacity="1"/></g></g></g><g clip-path="url(#clip4)"><g><g><path d="M3186.92 1431.82C3186.92 1506.06 3126.74 1566.24 3052.5 1566.24 2978.26 1566.24 2918.08 1506.06 2918.08 1431.82 2918.08 1357.59 2978.26 1297.41 3052.5 1297.41 3126.74 1297.41 3186.92 1357.59 3186.92 1431.82Z" fill="#5DBBC2" fill-rule="nonzero" fill-opacity="1"/><path d="M3418.79 2124.07 3324.69 1724.18C3321.33 1710.74 3314.61 1697.3 3304.53 1687.21 3264.21 1653.61 3217.16 1630.09 3163.39 1613.29 3126.43 1606.56 3089.46 1599.84 3052.5 1599.84 3015.54 1599.84 2978.57 1606.56 2941.61 1616.65 2887.84 1630.09 2840.79 1656.97 2800.47 1690.58 2790.39 1700.66 2783.67 1714.1 2780.31 1727.54L2686.21 2127.43C2686.21 2130.79 2682.85 2137.51 2682.85 2144.23 2682.85 2181.2 2713.1 2211.44 2750.06 2211.44 2780.31 2211.44 2807.19 2187.92 2813.91 2161.03L2884.48 1868.68 2884.48 2809.59 3018.9 2809.59 3018.9 2204.72 3086.1 2204.72 3086.1 2809.59 3220.52 2809.59 3220.52 1865.32 3291.09 2157.67C3297.81 2184.56 3324.69 2208.08 3354.94 2208.08 3391.9 2208.08 3422.15 2177.84 3422.15 2140.87 3422.15 2134.15 3418.79 2127.43 3418.79 2124.07Z" fill="#5DBBC2" fill-rule="nonzero" fill-opacity="1"/></g></g></g><g clip-path="url(#clip5)"><g><g><path d="M3186.92 1431.82C3186.92 1506.06 3126.74 1566.24 3052.5 1566.24 2978.26 1566.24 2918.08 1506.06 2918.08 1431.82 2918.08 1357.59 2978.26 1297.41 3052.5 1297.41 3126.74 1297.41 3186.92 1357.59 3186.92 1431.82Z" fill="#8ECED4" fill-rule="nonzero" fill-opacity="1"/><path d="M3418.79 2124.07 3324.69 1724.18C3321.33 1710.74 3314.61 1697.3 3304.53 1687.21 3264.21 1653.61 3217.16 1630.09 3163.39 1613.29 3126.43 1606.56 3089.46 1599.84 3052.5 1599.84 3015.54 1599.84 2978.57 1606.56 2941.61 1616.65 2887.84 1630.09 2840.79 1656.97 2800.47 1690.58 2790.39 1700.66 2783.67 1714.1 2780.31 1727.54L2686.21 2127.43C2686.21 2130.79 2682.85 2137.51 2682.85 2144.23 2682.85 2181.2 2713.1 2211.44 2750.06 2211.44 2780.31 2211.44 2807.19 2187.92 2813.91 2161.03L2884.48 1868.68 2884.48 2809.59 3018.9 2809.59 3018.9 2204.72 3086.1 2204.72 3086.1 2809.59 3220.52 2809.59 3220.52 1865.32 3291.09 2157.67C3297.81 2184.56 3324.69 2208.08 3354.94 2208.08 3391.9 2208.08 3422.15 2177.84 3422.15 2140.87 3422.15 2134.15 3418.79 2127.43 3418.79 2124.07Z" fill="#8ECED4" fill-rule="nonzero" fill-opacity="1"/></g></g></g><g clip-path="url(#clip6)"><g><g><path d="M3186.92 1431.82C3186.92 1506.06 3126.74 1566.24 3052.5 1566.24 2978.26 1566.24 2918.08 1506.06 2918.08 1431.82 2918.08 1357.59 2978.26 1297.41 3052.5 1297.41 3126.74 1297.41 3186.92 1357.59 3186.92 1431.82Z" fill="#77C6CC" fill-rule="nonzero" fill-opacity="1"/><path d="M3418.79 2124.07 3324.69 1724.18C3321.33 1710.74 3314.61 1697.3 3304.53 1687.21 3264.21 1653.61 3217.16 1630.09 3163.39 1613.29 3126.43 1606.56 3089.46 1599.84 3052.5 1599.84 3015.54 1599.84 2978.57 1606.56 2941.61 1616.65 2887.84 1630.09 2840.79 1656.97 2800.47 1690.58 2790.39 1700.66 2783.67 1714.1 2780.31 1727.54L2686.21 2127.43C2686.21 2130.79 2682.85 2137.51 2682.85 2144.23 2682.85 2181.2 2713.1 2211.44 2750.06 2211.44 2780.31 2211.44 2807.19 2187.92 2813.91 2161.03L2884.48 1868.68 2884.48 2809.59 3018.9 2809.59 3018.9 2204.72 3086.1 2204.72 3086.1 2809.59 3220.52 2809.59 3220.52 1865.32 3291.09 2157.67C3297.81 2184.56 3324.69 2208.08 3354.94 2208.08 3391.9 2208.08 3422.15 2177.84 3422.15 2140.87 3422.15 2134.15 3418.79 2127.43 3418.79 2124.07Z" fill="#77C6CC" fill-rule="nonzero" fill-opacity="1"/></g></g></g><path d="M77.4051 131.068C98.2096 168.023 124.958 196.701 120.797 224.65 115.447 260.413 147.545 286.64 145.96 314.456 144.375 342.273 151.508 367.705 154.678 380.421 157.848 393.137 169.736 395.521 170.265 389.163 170.794 382.805 170.529 331.941 170.529 331.941 168.944 318.43 176.077 320.02 176.077 320.02 180.039 325.583 187.172 352.604 190.342 378.036 193.513 403.468 206.194 420.158 214.119 417.774 222.044 415.39 218.082 398.7 218.082 398.7 216.497 379.626 205.401 337.504 201.24 328.762 197.079 320.02 205.401 319.225 205.401 319.225 215.704 330.351 240.273 377.242 243.443 390.753 246.613 404.263 253.746 416.185 262.134 413.8 270.522 411.416 267.219 405.853 267.219 405.853 267.219 394.726 260.879 375.652 256.916 359.757 252.954 343.862 226.799 307.304 226.007 302.535 225.214 297.767 230.763 296.972 234.725 300.946 238.688 304.919 271.974 340.683 279.9 351.81 287.826 362.936 299.714 380.421 307.639 375.652 315.565 370.884 309.224 363.731 309.224 363.731 306.054 348.631 252.954 271.54 244.235 264.387 235.518 257.234 240.273 255.645 243.443 256.44 246.613 257.234 271.182 261.208 281.485 265.977 291.788 270.745 306.054 280.282 316.357 277.898 326.66 275.514 321.905 267.566 321.905 267.566 317.943 264.387 294.959 248.492 283.071 238.955 271.182 229.418 256.124 218.292 241.066 211.934 226.007 205.576 208.505 188.157 201.439 176.965 177.662 139.346 151.046 63.3812 139.224 10.0668 138.497 6.68898 137.704 3.31181 136.912 0L0 0C22.7855 52.3214 59.705 99.6748 77.4051 131.068Z" fill="#209CA6" fill-rule="evenodd" fill-opacity="0.501961" transform="matrix(-1 0 0 1 4246 1740)"/><path d="M36.2535 184.556C47.2296 230.926 45.5107 225.576 43.1303 255.3 40.7499 285.025 34.2035 307.021 36.9144 343.284 39.6253 379.548 42.5347 364.091 40.1543 385.493 37.7738 406.895 34.2035 425.918 40.1543 433.052 46.1057 440.186 50.2716 444.942 59.1984 458.615 68.1245 472.289 90.1433 472.289 97.8802 473.742 105.616 475.195 115.138 469.911 121.09 472.883 127.04 475.855 153.82 470.505 157.391 469.316 160.961 468.127 182.981 466.344 187.742 466.344 192.503 466.344 199.048 458.02 197.858 450.887 196.668 443.753 169.293 430.08 158.581 419.379 147.869 408.678 133.587 333.178 134.182 301.67 134.777 270.162 156.795 188.123 166.913 120.351 172.996 79.4635 170.219 37.9814 165.524 0L0.282542 0C-3.15586 103.706 25.7398 140.035 36.2535 184.556Z" fill="#209CA6" fill-rule="evenodd" fill-opacity="0.501961" transform="matrix(-1 0 0 1 4530 2623)"/><path d="M31.0879 120.346C41.2046 188.115 63.2234 270.151 63.8183 301.658 64.414 333.164 50.1314 408.662 39.4191 419.362 28.7075 430.062 1.33218 443.735 0.142312 450.869-1.04825 458.002 5.49811 466.325 10.259 466.325 15.0198 466.325 37.0387 468.108 40.6097 469.297 44.18 470.486 70.9596 475.836 76.9111 472.864 82.8618 469.892 92.3835 475.242 100.12 473.722 107.857 472.27 129.875 472.27 138.802 458.597 147.729 444.924 151.894 440.168 157.846 433.035 163.796 425.901 160.226 406.878 157.846 385.477 155.465 364.077 158.375 379.532 161.086 343.27 163.796 307.008 157.251 285.013 154.87 255.289 152.49 225.566 150.77 230.917 161.747 184.549 172.26 140.029 201.157 103.701 197.718 0L32.4763 0C27.7155 37.9799 24.938 79.4603 31.0879 120.346Z" fill="#209CA6" fill-rule="evenodd" fill-opacity="0.501961" transform="matrix(-1 0 0 1 4797 2623)"/><path d="M192.141 269.931C197.765 210.896 204.911 146.494 202.529 101.771 201.735 87.1282 201.338 46.3138 202.264 0L0 0C0.198667 3.37928 0.396639 6.69178 0.661296 9.9389 7.80774 92.8259 40.5586 144.705 47.7043 198.373 54.8501 252.042 43.5358 320.021 36.3907 372.497 33.5455 393.302 29.5756 416.889 26.4657 442.001L191.811 442.001C191.678 437.627 191.479 433.189 191.215 428.55 184.665 314.058 186.451 328.966 192.141 269.931Z" fill="#209CA6" fill-rule="evenodd" fill-opacity="0.596078" transform="matrix(-1 0 0 1 4791 2181)"/><path d="M802.625 166.656C790.716 140.808 784.761 50.3733 773.977 0L137.09 0C126.305 50.3073 120.285 140.874 108.375 166.788 95.2749 195.347 66.6925 282.211 50.0193 307.2 34.2062 330.866 14.2253 381.174 0 441.001L137.156 441.001C141.126 431.812 144.765 422.557 147.676 413.103 147.676 413.103 158.99 382.76 168.518 332.188 178.045 281.616 225.087 222.715 234.615 174.523 234.615 174.523 235.078 175.911 235.805 178.423 241.231 195.876 262.932 265.751 269.681 288.029 277.422 313.612 280.995 374.894 281.59 408.806 281.723 415.285 281.061 426.655 279.804 441.001L631.065 441.001C629.873 426.655 629.212 415.285 629.278 408.806 629.873 374.894 633.446 313.612 641.187 288.029 647.936 265.685 669.77 195.544 675.129 178.291 675.923 175.779 676.32 174.39 676.32 174.39 685.848 222.583 732.889 281.484 742.417 332.056 751.944 382.628 763.258 412.971 763.258 412.971 766.235 422.424 769.808 431.812 773.844 441.001L911 441.001C896.775 381.107 876.728 330.734 860.915 307.067 844.242 282.079 815.659 195.214 802.559 166.656Z" fill="#209CA6" fill-rule="evenodd" fill-opacity="0.898039" transform="matrix(-1 0 0 1 5020 1299)"/><path d="M633.494 459.671C620.392 414.504 558.459 390.732 540.594 389.544 539.866 389.544 539.072 389.345 538.212 389.147 516.442 384.525 440.018 338.235 426.255 333.679 411.963 328.925 398.861 305.152 398.861 305.152L391.715 280.192 391.451 275.834C401.508 277.418 415.999 280.06 425.329 279.861 440.15 279.597 446.238 263.155 445.444 253.976 444.65 244.798 440.68 238.128 442.665 237.27 444.65 236.412 451.597 234.233 453.517 230.865 455.501 227.497 451.002 221.686 451.002 221.686L457.155 218.913 455.171 195.273C455.171 195.273 470.522 196.659 474.426 193.028 478.329 189.396 471.646 178.236 471.646 178.236 468.007 172.69 451.862 160.671 459.075 127.259 466.353 93.8452 455.369 67.8284 455.369 67.8284 444.98 45.5746 412.955 15.8598 357.109 2.45485 301.33-10.9501 246.939 32.8961 232.052 76.7424 217.164 120.589 233.574 163.642 243.234 187.415 252.895 211.187 243.234 262.429 243.234 262.429L238.007 305.218C238.007 305.218 224.906 328.99 210.613 333.745 196.586 338.433 117.449 386.44 97.4655 389.477L97.4655 389.61C97.0688 389.61 96.6715 389.741 96.3408 389.808 78.4757 390.996 16.5424 414.768 3.44074 459.935 2.25006 464.095 1.05869 468.85 0 474L637.001 474C635.876 468.784 634.751 464.029 633.494 459.803Z" fill="#19768A" fill-rule="evenodd" fill-opacity="1" transform="matrix(-1 0 0 1 4883 825)"/><path d="M183.74 10.1964C171.92 63.4279 145.309 139.434 121.537 177.041 114.472 188.23 96.9736 205.643 81.9183 211.999 66.8631 218.355 51.8078 229.478 39.9221 239.012 28.0363 248.546 5.05724 264.436 1.09533 267.614 1.09533 267.614-3.65896 275.559 6.64201 277.943 16.943 280.326 31.2059 270.792 41.5068 266.025 51.8078 261.258 76.3717 257.286 79.5412 256.491 82.7107 255.697 87.465 257.286 78.7488 264.436 70.0326 271.587 16.943 348.653 13.7734 363.749 13.7734 363.749 7.43439 370.899 15.3582 375.666 23.282 380.433 35.1678 362.954 43.0916 351.831 51.0154 340.708 84.2955 304.955 88.2574 300.983 92.2193 297.011 97.766 297.805 96.9736 302.572 96.1812 307.339 70.0326 343.886 66.0707 359.776 62.1088 375.666 55.7697 394.734 55.7697 405.857 55.7697 405.857 52.4685 411.419 60.854 413.802 69.2402 416.186 76.3717 404.268 79.5412 390.762 82.7107 377.255 107.275 330.38 117.576 319.257 117.576 319.257 125.829 320.051 121.736 328.791 117.576 337.53 106.482 379.639 104.897 398.707 104.897 398.707 100.936 415.391 108.859 417.775 116.783 420.158 129.461 403.474 132.631 378.05 135.8 352.626 142.932 325.613 146.894 320.051 146.894 320.051 154.025 318.462 152.44 331.969 152.44 331.969 152.11 382.817 152.704 389.173 153.233 395.529 165.184 393.145 168.288 380.433 171.458 367.721 178.589 342.297 177.004 314.49 175.419 286.682 207.511 260.464 202.162 224.711 198.003 196.771 224.745 168.103 245.546 131.158 263.242 99.7094 300.22 52.3049 323.001 0L186.117 0C185.325 3.3768 184.532 6.75359 183.74 10.1964Z" fill="#209CA6" fill-rule="evenodd" fill-opacity="0.501961" transform="matrix(-1 0 0 1 5206 1740)"/><path d="M0.470965 101.771C-1.91095 146.494 5.2348 210.896 10.8586 269.931 16.4824 328.966 18.335 314.058 11.7852 428.55 11.5206 433.189 11.3219 437.627 11.1892 442.001L176.534 442.001C173.424 416.889 169.454 393.302 166.61 372.497 159.464 320.021 148.15 252.042 155.295 198.373 162.441 144.705 195.193 92.8259 202.339 9.9389 202.603 6.69178 202.802 3.37928 203 0L2.85288 0C2.85288 46.2471 1.26494 87.1282 0.470965 101.771Z" fill="#209CA6" fill-rule="evenodd" fill-opacity="0.596078" transform="matrix(-1 0 0 1 4541 2181)"/><path d="M26.1851 203.277C19.9107 235.345-3.93151 358.848 0.559564 442.001L202.46 442.001C204.111 359.378 210.121 259.33 226.5 259.33 248.229 259.33 252.72 359.378 252.654 442.001L452.441 442.001C456.932 358.848 433.09 235.345 426.815 203.277 421.532 176.244 406.87 61.0225 401.851 0L51.2158 0C46.1304 61.0225 31.5346 176.244 26.251 203.277Z" fill="#209CA6" fill-rule="evenodd" fill-opacity="0.701961" transform="matrix(-1 0 0 1 4791 1740)"/><path d="M310 155.001C310 240.604 240.604 310.001 154.999 310.001 69.396 310.001 0 240.604 0 155.001 0 69.3963 69.396 0 154.999 0 240.604 0 310 69.3963 310 155.001Z" fill="#E4FF63" fill-rule="evenodd" fill-opacity="1" transform="matrix(-1 0 0 1 5440 2296)"/><path d="M52.0696 212.199 137.96 50.6767C146.576 53.8197 156.404 50.275 160.846 41.9815 165.625 32.9521 162.192 21.7158 153.106 16.9676 148.393 14.4924 143.143 14.2249 138.431 15.8301 138.835 10.1452 135.941 4.52699 130.556 1.71754 123.286-2.09462 114.266 0.648117 110.429 7.87149 106.593 15.0942 109.352 24.0569 116.622 27.869 116.958 28.0031 117.296 28.204 117.565 28.3374L29.5877 193.807C19.7597 188.656 7.50928 192.402 2.32642 202.167-2.85714 211.931 0.912336 224.104 10.7403 229.254 17.6057 232.866 25.5489 232.13 31.5395 228.051 32.4823 231.863 34.9726 235.341 38.7421 237.347 45.7426 241.026 54.3585 238.35 57.993 231.461 61.6954 224.572 59.0029 216.011 52.0024 212.333Z" fill="#19768A" fill-rule="evenodd" fill-opacity="1" transform="matrix(-1 0 0 1 5370 2331)"/><path d="M310.001 155C310.001 240.604 240.604 310 155 310 69.3963 310 0 240.604 0 155 0 69.3961 69.3963 0 155 0 240.604 0 310.001 69.3961 310.001 155Z" fill="#E4FF63" fill-rule="evenodd" fill-opacity="1" transform="matrix(-1 0 0 1 5270 820)"/><path d="M210.987 71.4071C207.093 50.7684 191.25 34.5519 174.871 21.4182 171.246 18.5366 167.554 15.6558 163.593 13.2435 141.709-0.292658 114.32-0.292658 88.5418 0.109747 82.2989 0.17658 76.0553 0.310246 70.014 1.91846 63.9049 3.59421 58.266 6.67626 52.7617 9.82585 37.7246 18.3361 22.2843 27.3818 12.0806 41.3872 5.36758 50.5004 1.27283 61.4898 0.265701 72.7473-1.14385 89.0299 2.61543 109.803 22.2174 112.55 26.5137 113.153 30.9439 112.617 35.2403 112.885 47.2567 113.556 58.0645 120.122 68.9399 125.282 79.8146 130.442 92.6366 134.328 103.713 129.571 107.338 128.029 111.568 125.684 114.722 127.895 116.535 129.168 117.207 131.447 117.811 133.591 121.503 146.524 127.074 158.987 134.257 170.379 136.271 173.595 139.829 177.214 143.32 175.605 146.475 174.198 146.542 169.843 146.139 166.425 145.333 159.724 144.596 153.024 143.79 146.389 156.679 144.581 171.179 140.828 177.355 129.37 179.167 126.019 180.174 122.133 182.859 119.385 189.908 112.081 205.281 116.035 209.577 106.855 210.45 105.045 210.651 103.035 210.852 101.025 211.859 91.1742 212.8 81.1232 210.92 71.4071ZM164.868 16.7948C165.943 16.8616 166.748 17.7325 166.681 18.8047 166.681 19.6088 166.681 20.4804 166.815 21.2845 168.158 21.6862 169.568 22.1555 170.911 22.6915 171.448 22.8927 172.387 23.2276 173.059 24.0986 173.528 24.769 173.663 25.5056 173.73 25.9748L173.73 26.3097C173.998 27.2481 175.274 28.0522 176.482 28.8564L176.952 29.1244C179.637 30.7994 181.987 33.0781 183.799 35.6909 185.746 38.5056 186.552 41.186 186.149 43.6651 185.611 47.1496 182.926 49.5619 180.241 51.7062 179.906 51.9742 179.503 52.1086 179.033 52.1086 178.496 52.1086 177.892 51.8406 177.556 51.3713 176.885 50.5672 177.019 49.3607 177.824 48.691 180.04 46.9484 181.987 45.2065 182.322 42.9954 182.524 41.5209 181.987 39.7114 180.577 37.7684 179.033 35.5572 177.087 33.681 174.804 32.2064L174.334 31.9384C172.589 30.8663 170.44 29.5261 169.903 26.9801 169.903 26.7789 169.903 26.6452 169.836 26.444 169.836 26.444 169.836 26.3097 169.836 26.2428 169.702 26.2428 169.635 26.176 169.568 26.176 167.889 25.5731 166.278 25.037 164.6 24.5678 163.929 24.3666 163.459 23.8305 163.257 23.1608 162.922 21.6194 162.72 20.078 162.855 18.5366 162.922 17.4645 163.861 16.7279 164.868 16.7279ZM143.521 23.4957C143.79 22.0886 145.065 21.2845 145.401 21.0165 145.871 20.7485 146.341 20.4804 146.878 20.2124 146.475 19.81 146.207 19.2071 146.341 18.6042 146.475 17.5989 147.415 16.8616 148.489 16.9284 150.301 17.1296 152.046 18.0681 153.255 19.4083 153.725 19.9444 153.859 20.6809 153.591 21.3514 153.322 22.0211 152.785 22.4903 152.046 22.5572 150.905 22.7584 149.764 23.0264 148.69 23.5625 149.093 23.6293 149.496 23.7637 149.898 23.8305 151.577 24.2329 153.255 24.5678 154.933 25.2375 157.014 26.0416 160.639 27.9179 161.915 31.8047L162.049 32.1396C162.049 32.1396 162.183 32.6089 162.25 32.6757 162.25 32.6757 162.586 32.6757 162.72 32.7425L168.494 34.0827C169.232 34.2839 169.836 34.82 169.97 35.5572 170.105 36.2945 169.769 37.0311 169.165 37.5003 168.158 38.1708 167.151 38.6393 166.144 39.1754 165.339 39.5778 164.533 39.9795 163.727 40.4487 162.25 41.3872 161.311 42.6598 161.244 43.7995 161.244 44.8041 160.371 45.6082 159.364 45.6082L159.297 45.6082C158.222 45.6082 157.417 44.6704 157.485 43.6651 157.551 41.2528 159.096 38.9073 161.713 37.2991 162.049 37.0986 162.385 36.8974 162.72 36.6962L161.915 36.495C161.311 36.3613 160.371 36.1601 159.633 35.4229 158.894 34.7531 158.626 33.8822 158.491 33.2786L158.491 33.0106C157.82 31.2687 156.142 29.7941 153.658 28.8564 152.248 28.3203 150.772 27.9854 149.16 27.6498 148.019 27.3818 146.945 27.1813 145.871 26.8457 145.468 26.7121 144.596 26.444 144.059 25.6399 143.588 25.037 143.454 24.2998 143.588 23.5625ZM12.4837 59.1443C13.4901 58.9431 14.4973 59.6136 14.7658 60.6182 15.3028 63.098 18.1226 64.9068 21.0087 64.7063 23.7616 64.5051 26.4468 62.562 28.1248 59.6804 29.5344 57.2681 30.3399 54.1853 30.6085 50.098L30.6085 48.8246C30.81 46.0774 31.0116 42.9279 32.5551 40.1807 33.8977 37.8352 36.0458 36.227 38.127 34.6863 40.2082 33.1449 42.1548 31.6704 42.8934 29.6605 43.4974 28.1191 43.3635 26.2428 43.2289 24.4334L42.8934 18.8722C42.8265 17.8001 43.632 16.9284 44.7061 16.8616 45.7802 16.7279 46.6527 17.5989 46.7197 18.6042L47.0551 24.1654C47.1898 26.176 47.3237 28.6552 46.4511 30.9338 45.3101 34.0159 42.7588 35.8921 40.3421 37.6347 38.5302 38.9749 36.7844 40.2475 35.845 41.9901 34.7032 43.9332 34.6363 46.3455 34.4347 48.8922L34.4347 50.2323C34.0323 54.9226 33.0921 58.5414 31.3471 61.4898 28.9973 65.4428 25.2381 67.9895 21.2103 68.3244 20.9417 68.3244 20.6732 68.3244 20.4047 68.3244 15.9745 68.3244 11.8121 65.2423 10.9395 61.2218 10.738 60.2165 11.4096 59.2112 12.4161 58.9431ZM23.3584 91.8447C23.2915 92.5144 23.1569 93.1848 22.956 93.8546 22.8214 94.257 22.7544 94.6587 22.6875 95.1279 22.6198 95.664 22.5529 96.2669 22.4859 96.803 22.3513 98.7467 22.1504 100.958 20.5393 102.7 19.4652 103.839 17.9211 104.509 16.3099 104.509 15.5044 104.509 14.6319 104.308 13.8933 103.973 11.6782 102.901 10.4025 100.422 10.738 98.0095 10.9395 96.6025 11.6105 95.4628 12.2821 94.525 12.6846 93.8546 13.0877 93.2517 13.2216 92.7156 13.4232 92.0459 13.2216 91.2418 12.6846 90.5713 12.2152 89.9016 11.4766 89.4992 10.8049 89.4992 9.12686 89.4992 7.65035 91.3086 7.04566 93.118 6.71018 94.1226 5.6361 94.6587 4.62898 94.3238 3.62255 93.9889 3.08551 92.9168 3.42099 91.9115 4.42811 88.8294 7.11331 85.6798 10.8049 85.6798 12.6846 85.6798 14.4973 86.6176 15.706 88.2258 16.9139 89.834 17.384 91.9115 16.847 93.7209 16.5115 94.793 15.9745 95.7308 15.5044 96.5349 15.0343 97.2722 14.6319 97.9426 14.4973 98.6124 14.3634 99.3496 14.8327 100.221 15.5713 100.555 16.243 100.891 17.2494 100.69 17.7865 100.154 18.5251 99.4165 18.592 98.0763 18.7266 96.5349 18.7266 95.8652 18.8605 95.1947 18.9282 94.5918 18.9951 94.0558 19.1291 93.5865 19.2637 93.0505 19.3976 92.5144 19.5322 91.9783 19.5991 91.4422 19.8007 89.9016 19.3306 88.2934 18.3912 87.02 17.5856 85.881 16.3769 85.0769 15.1013 84.1385 14.2287 83.5356 13.3562 82.8651 12.4837 82.061 9.86547 79.6487 8.25435 75.5613 10.2679 72.4793 10.4025 72.3449 10.4695 72.1437 10.6041 72.01 10.671 71.8757 10.8049 71.742 10.8726 71.6752 10.8726 71.5408 10.8726 71.1391 10.8726 70.8711 10.8726 69.9994 10.738 68.7936 11.5435 67.7215 12.1475 66.8505 13.3562 66.7162 14.2287 67.3191 15.1013 67.9227 15.2359 69.1285 14.6319 69.9994 14.6319 69.9994 14.6319 70.4018 14.6319 70.6699 14.6319 71.4071 14.7658 72.2781 14.3634 73.149 14.1618 73.6851 13.8933 74.02 13.6247 74.3555L13.4232 74.6236C12.6176 75.8962 13.5578 77.9736 15.0343 79.3138 15.706 79.9167 16.5115 80.5203 17.3171 81.0564 18.7936 82.1285 20.2708 83.2007 21.4118 84.7414 22.8883 86.752 23.6269 89.3655 23.2915 91.8447ZM198.568 93.3185C198.165 95.4628 196.352 96.5349 194.809 97.4066 194.272 97.7414 193.265 98.3443 193.13 98.6124 193.13 98.8136 193.399 99.2153 193.6 99.4165 194.07 100.087 194.607 100.891 194.674 102.03 194.741 103.169 194.339 104.174 194.003 104.777 193.063 106.855 191.117 111.143 187.089 111.813 186.686 111.88 186.283 111.88 185.948 111.88 184.269 111.88 182.725 111.277 181.383 110.741 180.443 110.339 179.503 110.004 178.63 109.87 178.026 109.803 177.489 109.803 176.818 109.803 175.408 109.803 173.797 109.803 172.253 108.932 169.769 107.524 169.165 104.978 168.628 102.7 168.292 101.226 167.957 99.8189 167.218 99.0148 166.547 98.3443 165.472 97.8751 164.331 97.4066 162.72 96.803 160.908 96.0664 159.7 94.4582 158.089 92.3139 158.222 89.4992 158.357 87.6229L158.894 78.3761C158.894 77.9068 159.163 77.5044 159.431 77.1695L157.954 76.9683C156.142 76.7003 154.128 76.4323 152.383 75.2933 151.376 74.6236 150.57 73.8195 149.764 73.0154 149.16 72.4117 148.623 71.8757 148.019 71.474 147.012 70.7367 145.602 70.335 144.192 69.9326 143.387 69.6646 142.581 69.3965 141.776 69.1285 140.97 68.8605 139.963 69.1285 139.225 69.5977 138.487 69.9994 137.815 70.5355 137.144 71.0716 136.607 71.5408 136.07 71.9432 135.466 72.3449 132.579 74.288 129.424 75.0921 125.799 75.8962 124.053 76.2986 121.905 76.7678 119.757 76.7678 119.22 76.7678 118.683 76.7678 118.146 76.7003 114.857 76.2986 112.172 74.6236 110.896 72.0769 109.62 69.5977 109.956 66.4481 111.702 64.4382 112.709 63.2985 113.984 62.562 115.125 61.9584 116.266 61.3555 117.273 60.8194 117.676 60.0153 118.146 59.0775 119.287 58.7419 120.227 59.2112 121.167 59.6804 121.57 60.8194 121.033 61.7579 120.093 63.6341 118.415 64.5051 116.87 65.3092 115.931 65.7784 115.058 66.2469 114.521 66.9174 113.783 67.7883 113.648 69.2629 114.185 70.335 114.991 71.9432 116.938 72.6798 118.549 72.881 120.496 73.149 122.509 72.6798 124.926 72.1437 128.148 71.4071 130.968 70.6699 133.318 69.1285 133.787 68.7936 134.257 68.3912 134.794 68.0563 135.6 67.3866 136.405 66.783 137.412 66.2469 137.546 66.1801 137.681 66.1133 137.815 66.0464 137.614 65.7784 137.479 65.5104 137.346 65.1748 136.808 64.0358 136.741 62.83 136.674 61.7579 136.607 60.8194 136.54 60.0153 136.204 59.4124 135.533 58.2734 134.056 58.0722 131.707 57.7373 130.028 57.5361 128.148 57.2681 126.47 56.464 125.933 56.5977 125.262 56.5308 124.792 56.1291 122.644 54.3865 119.22 54.7214 116.736 55.3918 115.931 55.5931 115.058 55.8611 114.253 56.0616 111.702 56.7989 109.083 57.603 106.264 57.4693 105.19 57.4693 104.116 57.2013 103.042 57.0669 101.028 56.732 99.2157 56.3972 97.8731 57.1337 96.262 58.0054 95.6573 60.0821 94.9863 62.4944 94.4493 64.3707 93.9122 66.3145 92.7712 68.0563 91.898 69.3965 90.757 70.4018 89.6159 71.4071 88.0717 72.7473 86.7961 73.9531 86.5952 75.4277 86.5952 75.8294 86.5952 76.1642 86.5952 76.5666 86.5952 77.1027 86.5952 77.6388 86.5952 78.1749 86.1252 82.061 82.7013 84.9426 76.8609 86.3496 75.4513 86.6852 73.9748 86.9532 72.4306 86.9532 71.088 86.9532 69.7454 86.752 68.4698 86.1491 66.7248 85.2774 65.3822 83.5356 64.979 81.5925 64.6436 79.9843 64.979 78.4429 66.0531 77.2364 66.4562 76.7678 66.9256 76.4323 67.3288 76.1642 67.5973 75.9637 67.8658 75.7625 67.9997 75.5613 68.2682 75.1596 68.4028 74.4224 68.5367 73.6851 68.7383 72.4117 69.0068 70.8035 70.2825 69.5977 71.3566 68.5924 72.6322 68.3244 73.7063 68.1232 74.1757 68.0563 74.6458 67.9227 74.9812 67.7883 75.9214 67.3866 76.66 66.3145 77.4656 65.108 77.4656 65.108 77.5325 65.0411 77.5995 64.9743 76.9955 65.5772 76.2569 66.1801 75.5183 66.6493 72.5645 68.5256 69.2084 68.9273 65.9862 69.3297 65.3822 69.3965 64.7775 69.4634 64.1735 69.5977 59.9441 70.2006 57.2589 71.474 55.984 73.5514 55.3793 74.4892 55.0438 75.6282 54.7083 76.9015 54.3052 78.2417 53.9697 79.5819 53.2311 80.8552 51.9562 83.1331 49.9419 84.6077 47.8607 85.9479 47.5922 86.9532 47.8607 87.891 48.1969 88.5614 49.0024 90.2364 50.7475 91.7103 52.5602 92.3139 55.4469 93.1848 58.6692 92.7156 62.0253 92.3139 62.7639 92.2464 63.4349 92.1127 64.1735 92.0459 70.2155 91.3086 74.5788 92.2464 77.5325 94.9267 77.868 95.1947 78.1365 95.5303 78.472 95.7984 78.9421 96.3344 79.4122 96.803 79.8822 97.0042 80.8217 97.4734 82.1643 97.2054 83.6415 96.8705 84.1109 96.803 84.514 96.6693 84.9165 96.6025 88.0717 96.0664 91.6295 97.1385 92.3681 100.221 92.6366 101.36 92.3681 102.432 92.2342 103.236 92.2342 103.437 92.1665 103.705 92.0995 103.906 91.898 105.18 92.3011 106.452 93.0397 107.123 93.7107 107.726 94.9194 107.86 95.5234 107.324 96.1943 106.72 96.3289 105.648 96.4628 103.839 96.5974 102.365 96.7314 100.69 97.5369 99.2153 98.7456 96.9373 100.961 95.8652 102.907 94.9267 104.385 94.1901 105.794 93.5197 106.533 92.4476 106.868 91.9783 107.07 91.3086 107.338 90.5713 107.741 89.566 108.144 88.3602 109.016 87.3549 111.366 84.6077 115.394 84.7414 117.542 84.8089 118.549 84.8089 120.429 84.9426 121.637 86.2827 122.577 87.2881 122.711 88.5614 122.778 89.4323 122.778 89.9016 122.912 90.3033 122.979 90.5045 123.248 91.1074 124.322 91.5098 125.396 91.9115 127.074 92.5819 129.29 93.4529 129.894 95.932 130.565 98.6124 128.685 101.226 124.859 102.767 122.778 103.571 121.637 104.509 121.704 105.18 121.838 106.252 121.033 107.123 119.959 107.256 118.885 107.391 118.012 106.587 117.877 105.581 117.609 102.968 119.489 100.823 123.382 99.2828 125.128 98.6124 126.336 97.5402 126.202 96.9373 126.068 96.4681 125.262 96.0664 123.986 95.5303 122.375 94.9267 120.429 94.1226 119.556 92.1127 119.22 91.3754 119.086 90.5713 119.019 89.9016 119.019 89.4992 118.885 88.9631 118.818 88.8294 118.75 88.7619 118.415 88.6282 117.407 88.5614 115.327 88.4939 113.044 88.5614 111.903 89.7672 111.5 90.2364 111.231 91.0405 110.896 91.8447 110.56 92.7156 110.225 93.6541 109.62 94.525 108.345 96.4681 106.331 97.4066 104.518 98.2775 102.907 99.0816 101.498 99.7513 100.827 100.958 100.424 101.762 100.29 102.901 100.222 104.174 100.088 106.117 99.8866 108.597 97.8731 110.272 96.9329 111.076 95.6573 111.478 94.4493 111.478 93.0397 111.478 91.5625 111.009 90.4884 110.004 88.7434 108.463 87.8702 105.916 88.2733 103.37 88.2733 103.102 88.4072 102.767 88.4072 102.499 88.5418 101.963 88.6088 101.427 88.5418 101.159 88.4072 100.489 86.8638 100.087 85.3866 100.355 84.9841 100.422 84.6479 100.489 84.2455 100.555 82.2989 100.958 80.1508 101.427 78.0696 100.355 76.9955 99.8189 76.2569 99.0816 75.5859 98.3443 75.3174 98.0763 75.1158 97.8751 74.8473 97.6071 72.7661 95.7308 69.3423 95.1279 64.5089 95.7308 63.838 95.7984 63.1663 95.932 62.4284 95.9989 58.8031 96.5349 55.0438 97.0042 51.3515 95.932 48.4654 95.0611 45.8472 92.85 44.5715 90.1696 44.303 89.566 44.1014 88.9631 43.9675 88.3602 42.7588 89.2311 41.7524 90.1696 41.1477 91.3086 39.9397 93.5197 40.2082 96.2669 40.4767 99.1484 40.7453 101.762 41.0138 104.442 40.2752 107.123 40.0736 107.994 39.2681 108.53 38.4625 108.53 38.3286 108.53 38.127 108.53 37.9931 108.53 36.986 108.262 36.382 107.256 36.6505 106.184 37.1876 104.174 36.986 101.896 36.7175 99.5508 36.382 96.2001 36.0458 92.7156 37.7915 89.4992 39.3357 86.6852 41.9533 85.0094 44.5046 83.4687 46.6527 82.1285 48.7339 80.8552 49.808 78.9121 50.345 78.0405 50.6136 76.9015 50.949 75.7625 51.3515 74.3555 51.7546 72.881 52.6271 71.474 54.5737 68.3912 58.1321 66.515 63.5025 65.7784 64.1065 65.7109 64.7775 65.5772 65.3822 65.5104 68.3359 65.108 71.155 64.7731 73.3701 63.3661 76.3238 61.4898 77.868 58.0722 79.5461 54.4534 80.6201 52.0411 81.7619 49.4951 83.44 47.3508 87.8032 41.5209 95.5234 38.6393 102.639 40.1807 103.377 40.315 104.183 40.5831 104.922 40.7836 108.278 41.6552 110.56 42.1913 112.037 40.9179 112.843 40.2475 114.051 40.315 114.722 41.1191 115.394 41.9233 115.327 43.1291 114.521 43.7995 111.433 46.5467 107.271 45.4077 103.914 44.5361 103.176 44.3356 102.505 44.1344 101.766 44 96.1943 42.7942 89.8844 45.1397 86.4606 49.6963 85.0511 51.5725 84.044 53.7836 82.9699 56.1291 82.0304 58.2059 81.0233 60.3502 79.7476 62.2939 81.4934 60.8194 83.8424 60.0821 85.9236 61.2886 86.8638 61.8247 87.1323 62.9637 86.6622 63.9021 86.1252 64.8399 84.9841 65.108 84.044 64.6387 83.44 64.3038 82.1643 65.0411 81.2248 66.2469 80.9563 66.5825 80.6878 66.9842 80.4862 67.3191 79.4791 68.8605 78.3381 70.5355 76.3238 71.4071 75.6529 71.6752 74.9143 71.8088 74.3103 71.9432 73.6386 72.0769 73.0346 72.2112 72.7661 72.4117 72.4306 72.6798 72.296 73.4839 72.2291 74.288 72.0275 75.4277 71.8266 76.8347 70.8865 77.9736 70.4164 78.5097 69.947 78.9121 69.4769 79.1802 69.2084 79.3807 68.9399 79.5819 68.8053 79.7162 68.6044 79.9843 68.5367 80.3191 68.6044 80.7884 68.7383 81.5925 69.3423 82.329 70.0809 82.6646 71.692 83.4687 73.8402 83.1331 75.8544 82.6646 77.801 82.1954 82.3659 80.7884 82.7013 77.7725 82.7013 77.4376 82.7013 77.0359 82.7013 76.7003 82.7013 76.0974 82.7013 75.4945 82.7013 74.9584 83.1045 72.0769 85.118 70.2006 86.9977 68.5924 88.0048 67.7215 88.9443 66.8505 89.549 65.9789 90.3545 64.7731 90.8239 63.2317 91.294 61.5567 92.0995 58.7419 92.9721 55.5255 95.9935 53.8505 98.544 52.5103 101.229 52.9127 103.646 53.3812 104.586 53.5156 105.526 53.7168 106.398 53.7168 108.614 53.8505 110.762 53.1807 113.111 52.5103 113.984 52.2423 114.857 51.9742 115.729 51.773 118.818 51.0365 121.503 50.9689 123.785 51.5725 123.785 47.2164 124.926 42.7942 127.209 39.0417 127.477 38.6393 128.014 37.7684 127.947 37.4335 127.947 37.4335 127.88 37.2991 127.611 37.0986 125.598 35.6909 122.845 35.6241 119.959 35.5572 119.422 35.5572 118.818 35.5572 118.281 35.5572 112.776 35.356 108.882 33.2786 107.54 29.7273 107.405 29.3256 107.271 28.8564 107.137 28.454 107.003 27.851 106.801 27.2481 106.6 27.0469 106.13 26.5777 104.586 27.3818 103.377 27.9854 102.907 28.2535 102.438 28.454 102.035 28.6552 98.007 30.3977 93.8453 29.2581 90.2199 27.4493 90.086 27.4493 89.9514 27.4493 89.8844 27.4493 88.0717 26.9801 86.4606 25.908 85.2526 24.501 84.9841 24.2998 84.7156 24.1654 84.514 24.0317 80.4193 21.217 74.7127 18.4698 70.9534 21.1502 69.947 21.8874 69.1414 22.9596 68.2013 24.0986 67.1941 25.4387 66.0531 26.9133 64.5089 27.9179 63.301 28.7895 61.9584 29.1912 60.6158 29.6605 59.5417 30.0622 58.5345 30.3977 57.729 30.9338 55.3793 32.4745 54.1713 35.6909 53.9697 40.7836L53.9697 41.9901C53.7681 46.0106 53.6342 50.5004 50.949 54.1185 49.875 55.5931 48.5324 56.6652 47.2567 57.7373 46.9212 58.0054 46.5858 58.2734 46.3172 58.5414 46.5858 58.8095 46.8543 59.0775 47.0551 59.3456 47.2567 59.6136 47.5252 59.8141 47.7268 60.0153 49.2033 61.3555 51.6876 61.1543 53.3657 60.3502 55.5808 59.3456 57.3266 57.4693 59.0716 55.6599 60.9512 53.6493 63.0994 51.4382 65.9862 50.098 68.1343 49.1602 70.484 48.8246 72.4976 48.5566 73.5047 48.4229 74.5118 49.1602 74.6458 50.1648 74.7804 51.1701 74.0418 52.1754 73.0346 52.3091 71.155 52.5771 69.2084 52.8452 67.5303 53.5824 65.3145 54.5877 63.5695 56.464 61.8237 58.2734 59.9441 60.2833 57.7959 62.4944 54.9099 63.8346 53.4996 64.5051 52.0231 64.7731 50.6136 64.7731 48.5324 64.7731 46.5858 64.1026 45.1755 62.83 44.84 62.562 44.5715 62.2264 44.236 61.8915 44.1014 61.7579 43.9006 61.5567 43.699 61.3555 42.8265 62.83 42.4233 64.7063 42.0879 66.6493 41.8194 67.8551 41.6178 69.0617 41.2823 70.2675 40.0736 74.3555 36.919 78.0405 33.0921 79.9167 30.0045 81.3913 26.7153 81.5925 23.8285 80.5203 22.8214 80.1179 22.3513 79.0458 22.7544 78.0405 23.1569 77.0359 24.2309 76.5666 25.2381 76.9683 27.6547 77.9068 29.9375 77.2364 31.481 76.4998 34.3677 75.0921 36.7844 72.2781 37.7246 69.1953 38.0601 68.1907 38.2616 67.1186 38.4625 65.9789 38.9326 63.5666 39.4027 61.0206 40.9468 58.8095 40.9468 58.7419 41.0807 58.6083 41.1477 58.5414 41.2823 58.0054 41.6847 57.5361 42.1548 57.3349 43.0273 56.3972 43.9675 55.6599 44.907 54.8558 46.0487 53.9173 47.1898 52.9795 47.9284 51.9742 49.875 49.3607 50.0089 45.6082 50.1435 41.9901L50.1435 40.7167C50.479 34.2839 52.2916 30.0622 55.6478 27.851 55.984 27.6498 56.2525 27.5162 56.588 27.3818 56.3864 27.3818 56.1848 27.4493 56.0509 27.4493 55.2454 27.4493 54.5068 26.9801 54.2382 26.176 53.9028 25.1707 54.3728 24.0986 55.3793 23.7637 55.4469 23.7637 55.6478 23.3613 55.7154 22.7584 55.7154 22.3567 55.7154 21.9543 55.7154 21.5526 55.7154 20.8821 55.6478 20.1449 55.7154 19.3408 56.1179 16.1243 58.8031 13.5115 63.234 11.9701 64.5766 11.5009 65.9192 11.0992 67.2618 10.7636 68.0674 10.4956 68.9399 10.2951 69.7454 10.0271 70.0809 9.95952 70.3494 9.82585 70.6849 9.75902 69.8793 9.75902 69.1414 9.15541 68.9399 8.28447 68.6714 7.27916 69.3423 6.20702 70.3494 6.00652L78.3381 4.13028C78.8751 3.99591 80.3516 3.7947 81.4934 4.53198 82.0974 4.93438 82.4998 5.60412 82.6344 6.34139 82.7013 7.07866 82.6344 8.41884 80.7548 9.42345 77.6664 11.166 74.3772 12.573 71.0211 13.6452 70.1479 13.9132 69.2754 14.1812 68.4028 14.3825 67.1272 14.7173 65.8515 15.1197 64.6436 15.5214 63.234 15.9907 59.9441 17.4645 59.6756 19.81 59.6756 20.2124 59.6756 20.7485 59.6756 21.2845 59.6756 21.8206 59.7432 22.4235 59.6756 22.9596 59.6086 24.769 58.7361 26.2428 57.4605 26.9801 58.1991 26.6452 58.87 26.3772 59.6086 26.176 60.7497 25.7736 61.7568 25.4387 62.5623 24.9027 63.6364 24.1654 64.442 23.0932 65.3822 21.8874 66.3886 20.5473 67.4627 19.2071 68.9399 18.1349 71.6251 16.2587 76.1899 15.1197 83.373 18.8722 83.373 15.7226 85.2526 12.7074 88.0048 11.2329 88.4072 11.0317 88.8773 10.8312 89.3474 10.63 90.153 10.2951 90.8916 9.95952 91.1601 9.49098 91.3609 9.15541 91.3609 8.55251 91.4286 7.9496 91.4956 7.01113 91.5625 5.80532 92.2342 4.73318 93.3082 2.92377 95.5234 1.91846 98.2755 2.11966 98.8126 2.11966 99.2826 2.18649 99.8197 2.32086 100.827 2.45453 101.766 2.5889 102.505 2.3877 102.84 2.32086 103.243 2.18649 103.579 2.05283 104.855 1.65042 106.533 1.04752 108.211 1.98599 109.285 2.5889 110.023 3.59421 110.157 4.86685 110.426 6.47506 109.822 8.21764 108.681 9.42345 107.741 10.4288 106.533 11.0317 105.459 11.5677 104.922 11.8358 104.451 12.1038 103.981 12.3718 103.109 12.9079 102.505 13.9132 102.706 14.3156 102.84 14.6505 103.512 14.9185 104.25 14.8517 105.861 14.7842 107.472 13.712 108.949 12.6399L109.285 12.3718C110.963 11.166 112.91 9.82585 115.192 9.35661 117.944 8.82054 121.503 9.82585 122.644 12.9079 122.778 13.3103 122.912 13.7795 122.979 14.1812 122.979 14.4493 123.046 14.6505 123.181 14.9185 123.718 16.1919 126.269 16.2587 128.283 15.5214 128.753 15.3202 129.222 15.1197 129.692 14.9854 131.505 14.2481 133.452 13.3771 135.466 13.3771 135.331 12.7074 134.996 12.1038 134.459 11.7021 133.519 10.9648 132.109 10.9648 131.17 11.7021 130.296 12.305 129.155 12.1713 128.484 11.2997 127.88 10.4288 128.014 9.28978 128.887 8.61934 131.17 6.9443 134.459 6.9443 136.741 8.61934 139.024 10.3619 139.896 13.5115 138.957 16.1919 138.62 17.1296 137.546 17.6657 136.54 17.3308 134.996 16.7948 133.116 17.5989 131.17 18.4698 130.633 18.671 130.162 18.8722 129.625 19.0727 125.866 20.4804 121.1 20.0112 119.623 16.3255 119.422 15.8563 119.355 15.4546 119.22 14.9854 119.22 14.7173 119.153 14.5161 119.019 14.2481 118.616 13.2435 117.072 12.8411 115.864 13.0423 114.32 13.3771 112.91 14.3825 111.366 15.4546L111.031 15.7226C109.151 17.0628 106.935 18.4698 104.318 18.6042 101.968 18.7378 99.8866 17.5989 99.0811 15.7895 97.94 13.1759 99.6181 10.4956 101.699 9.08858 102.303 8.68688 102.907 8.35131 103.512 8.01644 104.385 7.5472 105.19 7.1455 105.727 6.60943 106.197 6.14019 106.264 5.33608 106.13 5.13488 105.929 5.00121 105.123 5.26925 104.518 5.47045 104.049 5.67095 103.512 5.80532 103.042 5.93899 101.632 6.20702 100.29 6.07336 99.0811 5.93899 98.611 5.93899 98.2086 5.80532 97.7385 5.80532 96.5305 5.73849 95.5903 6.00652 95.2548 6.54259 95.0533 6.87746 95.0533 7.48037 94.9863 8.08327 94.9863 9.02174 94.8517 10.2276 94.1808 11.2997 93.3082 12.7742 91.831 13.444 90.623 13.98 90.2869 14.1144 89.8844 14.2481 89.6159 14.4493 87.8702 15.3878 86.7961 17.532 86.9977 19.4751 87.1323 20.2792 87.4678 21.0165 87.9378 21.6862 92.2342 24.501 96.6644 26.7789 100.491 25.1707 100.894 24.9695 101.296 24.769 101.699 24.5678 103.713 23.5625 106.734 22.0211 109.151 24.2329 110.225 25.1707 110.56 26.444 110.829 27.5162 110.896 27.851 110.963 28.1191 111.098 28.454 112.239 31.4023 117.005 31.7379 118.415 31.8047 118.952 31.8047 119.489 31.8047 120.026 31.8047 123.248 31.8047 126.94 31.8716 129.894 34.0159 130.431 34.4183 131.102 34.9543 131.505 35.9589 132.311 37.9027 131.237 39.779 130.565 40.9848 128.551 44.268 127.544 48.2217 127.679 52.1086 127.679 52.7115 127.746 52.9127 127.813 52.9795 127.813 52.9795 127.88 53.0464 128.081 53.1807 129.155 53.7836 130.633 53.9848 132.176 54.1185 134.861 54.4534 137.95 54.789 139.561 57.6698 140.299 58.9431 140.433 60.3502 140.5 61.5567 140.568 62.3608 140.635 63.1649 140.903 63.7009 141.373 64.7063 142.313 65.2423 143.79 65.7784 143.79 65.7784 143.924 65.7784 143.924 65.7784 144.394 65.9789 144.931 66.1133 145.468 66.3145 147.146 66.8505 148.824 67.3866 150.368 68.3912 151.241 68.9948 151.98 69.7314 152.651 70.4687 153.322 71.1391 153.859 71.742 154.531 72.1437 155.672 72.881 157.216 73.0822 158.693 73.2834L191.922 78.2417C191.922 77.4376 191.587 76.5666 191.117 75.8962 190.646 75.2933 190.646 74.4892 190.982 73.8195 191.385 73.149 192.124 72.8141 192.862 72.881 193.063 72.9478 193.332 72.6798 193.332 72.5461 193.533 71.5408 194.54 70.8711 195.547 71.0716 196.554 71.2728 197.225 72.2781 197.024 73.2834 196.822 74.3555 196.151 75.2933 195.278 75.8962 195.815 77.5044 195.815 79.3138 195.278 80.9889 195.01 81.793 194.272 82.329 193.466 82.329 193.399 82.329 193.265 82.329 193.198 82.329L162.586 77.7725C162.586 77.7725 162.855 78.3761 162.787 78.7109L162.25 87.9578C162.116 89.6335 162.116 91.3086 162.855 92.2464 163.459 93.0505 164.533 93.4529 165.809 93.9889 167.218 94.525 168.829 95.1947 170.105 96.5349 171.581 98.0763 172.052 100.154 172.454 101.963 172.924 103.973 173.26 105.246 174.2 105.782 174.871 106.184 175.811 106.184 176.885 106.184 177.624 106.184 178.429 106.184 179.235 106.319 180.577 106.52 181.718 106.988 182.859 107.458 184.269 107.994 185.478 108.53 186.552 108.328 188.364 107.994 189.639 105.782 190.713 103.437 190.848 103.236 191.05 102.7 191.05 102.566 191.05 102.432 190.781 102.03 190.579 101.762 190.109 101.092 189.639 100.287 189.505 99.2153 189.237 96.5349 191.519 95.1947 192.996 94.3238 193.802 93.8546 194.809 93.2517 194.943 92.7824 194.943 92.7824 194.943 92.6488 194.809 92.5144 194.406 92.0459 193.6 91.7778 192.795 91.7103 192.124 91.7103 191.452 91.8447 190.713 91.9783 189.438 92.1795 188.028 92.4476 186.485 92.1795 184.537 91.8447 182.994 90.7057 181.651 89.7004 180.309 88.7619 179.235 87.9578 178.026 87.891 177.556 87.891 177.019 88.0253 176.482 88.159 175.878 88.2934 175.341 88.427 174.737 88.4939 173.797 88.5614 172.924 88.4939 172.052 88.2258 172.052 88.427 172.119 88.5614 172.253 88.6951 172.589 89.2311 173.394 89.566 174.267 89.9016 175.408 90.3701 176.75 90.9062 177.69 92.1127 178.429 93.0505 178.765 94.0558 179.1 94.9267 179.235 95.3291 179.369 95.7308 179.57 96.1332 179.704 96.4013 179.973 96.6693 180.174 96.7361 180.98 96.2669 182.121 96.5349 182.658 97.2722 183.262 98.1431 183.061 99.3496 182.188 99.8857 181.383 100.489 180.376 100.623 179.302 100.355 178.026 100.019 176.818 99.0148 176.146 97.7414 175.878 97.2054 175.676 96.6025 175.475 96.0664 175.274 95.396 175.072 94.8599 174.737 94.4582 174.334 93.9889 173.596 93.6541 172.723 93.3185 171.448 92.7824 169.903 92.1127 168.963 90.6381 167.688 88.6282 168.225 86.2159 168.561 84.7414 168.695 84.0716 169.165 83.5356 169.836 83.3344 170.507 83.1331 171.179 83.2675 171.648 83.6692 172.387 84.2728 173.394 84.6077 174.401 84.5409 174.804 84.5409 175.207 84.4065 175.676 84.2728 176.415 84.1385 177.22 83.9373 178.093 83.9373 180.443 83.9373 182.255 85.2774 183.866 86.4839 185.007 87.2881 186.082 88.0922 187.156 88.2934 187.961 88.427 188.968 88.2934 190.042 88.0922 190.915 87.9578 191.787 87.8241 192.728 87.7573 194.607 87.7573 196.554 88.5614 197.695 89.9016 198.635 90.9062 198.971 92.1127 198.702 93.3185ZM198.635 62.9637C197.963 64.3038 196.621 65.108 194.674 65.4428 191.989 65.9121 189.102 65.644 186.552 64.6387 186.552 64.7731 186.552 64.8399 186.552 64.9743 186.552 67.2522 184.337 68.8605 181.315 68.8605L181.114 68.8605C176.079 68.7936 170.239 66.2469 169.366 60.9538 169.098 59.278 169.366 57.6698 169.635 56.2628 169.769 55.7267 169.836 55.1238 169.903 54.5209 170.037 53.2476 169.769 51.7062 168.896 51.3045 168.024 50.8353 166.48 51.6394 165.406 52.3091 163.19 53.7168 161.176 55.3918 159.431 57.3349L158.961 57.871C157.485 59.4792 155.806 61.2886 153.322 61.8915 148.824 62.9637 144.998 59.278 143.185 57.5361 142.514 56.9332 141.776 56.1291 141.239 55.057 139.426 51.1033 142.85 47.8869 145.333 45.4745 145.333 45.4745 136.607 46.0106 136.607 46.0106 136.07 46.0106 135.6 45.8762 135.197 45.5414 134.794 45.2065 134.593 44.7373 134.526 44.2012 134.392 41.454 136.54 39.4434 138.62 38.4388 139.292 38.1032 139.896 37.9027 140.568 37.6347 141.507 37.2991 142.38 36.9642 143.118 36.4282 143.857 35.8921 144.327 34.8868 144.059 34.4183 143.857 34.1502 143.32 33.7478 142.85 33.4798 141.709 32.7425 140.031 31.6704 140.031 29.5261 140.031 28.454 140.97 27.6498 141.977 27.6498 142.984 27.6498 143.857 28.5215 143.857 29.5261 143.991 29.7273 144.528 30.0622 144.864 30.2634 145.67 30.7326 146.609 31.4023 147.281 32.3408 148.892 34.82 147.549 37.9027 145.401 39.5109 144.259 40.315 143.118 40.7167 141.977 41.186 141.44 41.3872 140.836 41.5877 140.299 41.8557 140.299 41.8557 140.165 41.8557 140.165 41.9233L146.341 41.5209C146.878 41.5209 147.885 41.454 148.757 42.0569 149.496 42.5262 149.898 43.3303 149.966 44.2012 150.1 45.6082 149.227 46.8816 148.422 47.6857L147.885 48.2217C145.67 50.366 143.991 52.1086 144.596 53.4488 144.796 53.8505 145.267 54.3197 145.737 54.7214 147.818 56.6652 150.167 58.6083 152.383 58.139 153.725 57.8042 154.866 56.5977 156.074 55.2575L156.544 54.7214C158.559 52.5771 160.774 50.7009 163.257 49.1602 166.077 47.3508 168.494 46.9484 170.507 47.8869 173.193 49.227 173.864 52.3766 173.596 54.9226 173.528 55.5931 173.394 56.2628 173.26 56.9332 173.059 58.139 172.857 59.278 172.991 60.2833 173.528 63.2985 177.422 64.9068 181.047 65.0411 181.785 65.0411 182.457 64.8399 182.658 64.7063 182.591 64.7063 182.524 64.5051 182.524 64.3707 182.322 63.6341 181.92 61.8915 183.396 60.7526 184.806 59.6804 186.417 60.4177 187.022 60.7526 189.17 61.7579 191.587 62.0927 193.936 61.6903 194.07 61.6903 194.204 61.6903 194.339 61.6235 194.07 61.4223 193.802 61.0874 193.667 60.7526 193.332 59.7473 193.869 58.6751 194.809 58.3402 195.883 57.9378 197.091 58.3402 197.896 59.2112 198.837 60.2833 199.037 61.7579 198.433 62.9637Z" fill="#19768A" fill-rule="evenodd" fill-opacity="1" transform="matrix(-1 0 0 1 5221 879)"/><path d="M310 155.001C310 240.604 240.604 310.001 155 310.001 69.396 310.001 0 240.604 0 155.001 0 69.3963 69.396 0 155 0 240.604 0 310 69.3963 310 155.001Z" fill="#E4FF63" fill-rule="evenodd" fill-opacity="1" transform="matrix(-1 0 0 1 5440 1312)"/><path d="M170.384 133.691C169.241 117.482 166.482 91.829 148.995 59.6114 135.14 33.9588 130.5 30.4758 121.89 29.6721 107.901 28.3993 99.8296 50.3017 95.323 75.8207 93.7759 73.4763 92.5656 71.1993 91.8927 69.1896L90.2785 0 80.4591 0 78.8448 69.1896C78.1719 71.1993 76.9616 73.4763 75.4145 75.8207 70.908 50.3017 62.8369 28.3993 48.8471 29.6721 40.238 30.4758 35.6644 33.9588 21.7417 59.6114 4.25442 91.8958 1.49699 117.482 0.35377 133.691-0.789451 149.9 0.151818 176.491 13.7384 177.696 27.3243 178.902 43.8025 176.156 55.371 175.754 66.9395 175.353 78.9119 167.717 80.3242 147.02 80.9293 137.777 80.5932 112.928 77.4319 88.4129 82.0733 82.9202 85.5029 78.5667 85.5029 78.5667 85.5029 78.5667 88.9333 82.9202 93.574 88.4129 90.4133 112.86 90.0765 137.777 90.6824 147.02 92.0275 167.717 103.999 175.353 115.635 175.754 127.203 176.156 143.682 178.902 157.268 177.696 170.787 176.558 171.796 149.967 170.653 133.691Z" fill="#19768A" fill-rule="evenodd" fill-opacity="0.898039" transform="matrix(-1 0 0 1 5370 1372)"/><path d="M310.297 155.149C310.297 240.835 240.835 310.297 155.148 310.297 69.462 310.297 0 240.835 0 155.149 0 69.4627 69.462 0 155.148 0 240.835 0 310.297 69.4627 310.297 155.149Z" fill="#E4FF63" fill-rule="evenodd" fill-opacity="1" transform="matrix(-0.22723 -0.973841 -0.973841 0.22723 5693.03 2074.68)"/><path d="M153.922 136.821 153.922 93.6071C153.922 72.6713 143.728 54.1513 128.101 42.5421 129.509 39.4558 130.247 36.1004 130.247 32.6787 130.247 14.6278 109.322 0 83.5 0 57.6789 0 36.7535 14.6278 36.7535 32.6787 36.7535 36.1004 37.4914 39.3889 38.8997 42.5421 23.2729 54.1513 13.0785 72.6713 13.0785 93.6071L13.0785 136.821C5.63375 138.968 0 147.288 0 157.219 0 168.828 7.51167 178.222 16.8344 178.222 26.157 178.222 33.6687 168.828 33.6687 157.219 33.6687 146.349 27.0288 137.559 18.5109 136.418L18.5109 93.5394C18.5109 74.6171 27.6322 57.8413 41.6493 47.2396 46.7465 54.2851 55.3313 59.9216 65.8616 62.941 65.7271 64.0823 65.5933 65.2229 65.5933 66.3634 65.5933 75.6907 70.1539 83.6084 76.5925 87.0307L76.5925 96.2911C69.9526 98.9752 65.2574 105.551 65.2574 113.134L65.2574 189.697C62.0381 192.448 59.8919 196.474 59.8919 201.037 59.8919 209.29 66.5988 216.001 74.8484 216.001 78.0677 216.001 81.0187 214.994 83.5 213.25 85.9145 214.994 88.9331 216.001 92.1524 216.001 100.401 216.001 107.108 209.29 107.108 201.037 107.108 196.474 105.03 192.381 101.743 189.697L101.743 113.134C101.743 105.484 97.0482 98.9752 90.4083 96.2911L90.4083 87.0307C96.8468 83.676 101.407 75.6907 101.407 66.3634 101.407 65.1559 101.274 64.0147 101.139 62.941 111.669 59.9216 120.254 54.352 125.351 47.2396 139.369 57.8413 148.49 74.6171 148.49 93.5394L148.49 136.418C139.972 137.491 133.332 146.349 133.332 157.219 133.332 168.828 140.844 178.222 150.166 178.222 159.488 178.222 167 168.828 167 157.219 167 147.221 161.366 138.968 153.922 136.821Z" fill="#19768A" fill-rule="evenodd" fill-opacity="1" transform="matrix(-1 0 0 1 5590 1851)"/><path d="M310.001 154.999C310.001 240.604 240.604 310 155 310 69.3963 310 0 240.604 0 154.999 0 69.396 69.3963 0 155 0 240.604 0 310.001 69.396 310.001 154.999Z" fill="#E4FF63" fill-rule="evenodd" fill-opacity="1" transform="matrix(-1 0 0 1 5270 2787)"/><path d="M206 0 122.04 0C113.047 14.4274 102.711 28.3179 93.3155 34.8937 69.4229 51.6022 50.2956 74.9541 40.4297 80.5908 30.5645 86.2944 16.2018 89.583 8.14809 89.583 8.14809 89.583 2.44358 87.771 0.362873 92.6025-1.71783 97.367 4.85968 115.283 27.5438 107.835 27.5438 107.835 44.5911 116.491 57.41 111.391 70.2283 106.292 106.134 85.6907 122.242 92.8709 138.349 100.051 161.705 111.391 176.336 104.815 190.966 98.2391 196.067 86.8989 193.047 69.8543 190.027 52.8104 186.806 24.2241 205.866 0ZM157.141 35.4305C150.43 47.9114 140.497 51.1323 133.315 51.7368 132.443 51.7368 131.638 51.8037 130.832 51.8037 124.456 51.8037 119.624 49.9248 119.423 49.8579 117.41 49.0526 116.47 46.8384 117.208 44.825 118.013 42.8122 120.229 41.8724 122.242 42.6107 122.98 42.8791 140.765 49.4549 150.296 31.7397 151.302 29.8608 153.651 29.1225 155.53 30.1292 157.409 31.1359 158.148 33.4847 157.141 35.3636Z" fill="#19768A" fill-rule="evenodd" fill-opacity="1" transform="matrix(-1 0 0 1 5225 2876)"/><text fill="#000000" fill-opacity="1" font-family="Roboto Light,Roboto Light_MSFontService,sans-serif" font-style="normal" font-variant="normal" font-weight="300" font-stretch="normal" font-size="183" text-anchor="start" direction="ltr" writing-mode="lr-tb" unicode-bidi="normal" text-decoration="none" transform="matrix(1 0 0 1 2612.47 1164)">Digital Twin</text></g></g></svg>